<svg width="641" height="533" viewBox="0 0 641 533" fill="none" xmlns="http://www.w3.org/2000/svg">
<path d="M182.748 217.829L446.691 217.829C453.173 217.829 458.427 212.559 458.427 206.059V12.2549C458.427 5.75464 453.173 0.485107 446.691 0.485107L182.748 0.485107C176.267 0.485107 171.013 5.75464 171.013 12.2549V206.059C171.013 212.559 176.267 217.829 182.748 217.829Z" fill="white"/>
<path d="M446.691 218.314H182.749C179.509 218.31 176.403 217.018 174.112 214.72C171.821 212.423 170.533 209.308 170.529 206.059V12.255C170.533 9.00585 171.821 5.89083 174.112 3.59336C176.403 1.29588 179.509 0.00358442 182.749 0L446.691 0C449.931 0.00358414 453.037 1.29586 455.328 3.59332C457.619 5.89078 458.908 9.0058 458.911 12.255V206.059C458.908 209.308 457.619 212.423 455.328 214.721C453.037 217.018 449.931 218.31 446.691 218.314V218.314ZM182.749 0.970318C179.766 0.973746 176.906 2.16376 174.796 4.2793C172.687 6.39484 171.5 9.26315 171.497 12.255V206.059C171.5 209.051 172.687 211.919 174.796 214.035C176.906 216.15 179.766 217.34 182.749 217.344H446.691C449.674 217.34 452.534 216.15 454.644 214.035C456.753 211.919 457.94 209.051 457.944 206.059V12.255C457.94 9.26309 456.753 6.39479 454.644 4.27927C452.534 2.16374 449.674 0.973746 446.691 0.970318H182.749Z" fill="#292A2E"/>
<path d="M205.216 18.7432L186.351 20.5372C184.403 20.7225 182.973 22.4567 183.158 24.4107L184.947 43.3295C185.132 45.2835 186.861 46.7173 188.809 46.532L207.674 44.738C209.622 44.5527 211.052 42.8185 210.867 40.8645L209.078 21.9457C208.893 19.9917 207.164 18.5579 205.216 18.7432Z" fill="#292A2E"/>
<path d="M258.936 59.7832L240.096 57.7503C238.15 57.5403 236.403 58.9521 236.193 60.9036L234.166 79.7982C233.957 81.7497 235.365 83.5019 237.31 83.7119L256.151 85.7448C258.097 85.9548 259.844 84.543 260.053 82.5915L262.08 63.6969C262.29 61.7454 260.882 59.9932 258.936 59.7832Z" fill="white"/>
<path d="M256.537 86.3548C256.387 86.3547 256.237 86.3466 256.088 86.3306L237.248 84.2976C236.159 84.1788 235.162 83.6318 234.475 82.7764C233.788 81.9211 233.467 80.8273 233.583 79.7351L235.61 60.8415C235.668 60.3005 235.832 59.7763 236.092 59.2987C236.352 58.8212 236.703 58.3997 237.125 58.0583C237.548 57.7169 238.033 57.4623 238.554 57.309C239.074 57.1558 239.62 57.1069 240.159 57.1652L258.999 59.1982C260.088 59.3161 261.086 59.8629 261.774 60.7185C262.461 61.574 262.781 62.6683 262.664 63.7607L260.637 82.6543C260.528 83.6692 260.05 84.6082 259.293 85.2911C258.537 85.974 257.555 86.3528 256.538 86.3548H256.537ZM256.213 85.1595C256.992 85.2437 257.774 85.0138 258.384 84.5205C258.995 84.0271 259.385 83.3107 259.469 82.5288L261.497 63.6347C261.58 62.8527 261.351 62.0694 260.859 61.457C260.367 60.8445 259.653 60.4531 258.873 60.3687L240.033 58.3363C239.647 58.2946 239.256 58.3296 238.884 58.4393C238.511 58.549 238.164 58.7312 237.861 58.9755C237.559 59.2199 237.307 59.5216 237.121 59.8634C236.935 60.2051 236.818 60.5803 236.777 60.9675L234.749 79.8611C234.667 80.643 234.896 81.4259 235.388 82.0381C235.88 82.6504 236.594 83.042 237.374 83.1271L256.213 85.1595V85.1595Z" fill="#292A2E"/>
<path d="M342.535 89.7403C342.439 89.7404 342.344 89.7167 342.259 89.6714C342.174 89.626 342.101 89.5603 342.047 89.4801C330.093 71.6481 311.959 68.4015 298.847 68.8137C289.98 69.1522 281.226 70.9229 272.921 74.0574C272.778 74.1157 272.617 74.1148 272.475 74.0549C272.332 73.995 272.218 73.8809 272.159 73.7375C272.099 73.5941 272.099 73.433 272.157 73.2893C272.216 73.1455 272.329 73.0307 272.471 72.9699C280.908 69.7835 289.801 67.9826 298.81 67.6367C312.213 67.214 330.768 70.5441 343.022 88.8224C343.081 88.911 343.115 89.014 343.121 89.1206C343.126 89.2272 343.103 89.3333 343.053 89.4275C343.003 89.5217 342.928 89.6006 342.837 89.6556C342.746 89.7105 342.642 89.7396 342.535 89.7397V89.7403Z" fill="#292A2E"/>
<path d="M342.752 89.9811C342.698 89.9809 342.644 89.9734 342.592 89.9587L330.563 86.5514C330.413 86.509 330.286 86.4087 330.21 86.2724C330.134 86.1362 330.115 85.9752 330.157 85.8249C330.199 85.6746 330.299 85.5473 330.435 85.471C330.571 85.3947 330.732 85.3756 330.881 85.418L342.346 88.6646L345.584 77.1668C345.629 77.0199 345.73 76.8966 345.864 76.8232C345.999 76.7498 346.157 76.7321 346.305 76.7739C346.452 76.8157 346.577 76.9138 346.654 77.047C346.73 77.1803 346.752 77.3382 346.713 77.4871L343.317 89.5513C343.282 89.6748 343.208 89.7836 343.106 89.8612C343.005 89.9388 342.88 89.9809 342.752 89.9811V89.9811Z" fill="#292A2E"/>
<path d="M361.62 95.2628L342.755 97.0568C340.807 97.2421 339.377 98.9764 339.562 100.93L341.351 119.849C341.536 121.803 343.265 123.237 345.213 123.052L364.078 121.258C366.026 121.072 367.456 119.338 367.271 117.384L365.482 98.4653C365.297 96.5113 363.568 95.0775 361.62 95.2628Z" fill="#EFA30E"/>
<path d="M423.273 37.102L404.363 35.8826C402.41 35.7566 400.725 37.2424 400.599 39.2011L399.384 58.1656C399.258 60.1243 400.739 61.8143 402.693 61.9402L421.602 63.1596C423.556 63.2855 425.241 61.7998 425.366 59.8411L426.582 40.8766C426.708 38.9179 425.226 37.2279 423.273 37.102Z" fill="#292A2E"/>
<path d="M433.958 98.9888L415.117 96.9559C413.172 96.7459 411.424 98.1577 411.215 100.109L409.188 119.004C408.979 120.955 410.386 122.707 412.332 122.917L431.172 124.95C433.118 125.16 434.866 123.749 435.075 121.797L437.102 102.902C437.311 100.951 435.904 99.1988 433.958 98.9888Z" fill="#FD870E"/>
<path d="M330.537 160.538L311.673 162.332C309.724 162.518 308.295 164.252 308.479 166.206L310.268 185.125C310.453 187.079 312.182 188.513 314.131 188.327L332.995 186.533C334.943 186.348 336.373 184.614 336.188 182.66L334.399 163.741C334.215 161.787 332.485 160.353 330.537 160.538Z" fill="white"/>
<path d="M313.794 188.932C312.767 188.93 311.777 188.545 311.017 187.852C310.258 187.158 309.783 186.206 309.684 185.181L307.896 166.262C307.794 165.168 308.128 164.079 308.826 163.232C309.524 162.386 310.528 161.851 311.618 161.746L330.482 159.952C331.022 159.901 331.566 159.957 332.085 160.117C332.604 160.276 333.086 160.537 333.504 160.884C333.922 161.231 334.268 161.656 334.522 162.137C334.776 162.618 334.933 163.144 334.984 163.686L336.773 182.604C336.875 183.698 336.54 184.787 335.843 185.634C335.145 186.48 334.141 187.015 333.051 187.119V187.119L314.187 188.914C314.055 188.926 313.923 188.932 313.794 188.932ZM330.878 161.111C330.784 161.111 330.689 161.116 330.595 161.125L311.729 162.917C310.948 162.992 310.229 163.374 309.73 163.98C309.23 164.586 308.99 165.366 309.063 166.149L310.852 185.068C310.928 185.85 311.309 186.57 311.914 187.071C312.518 187.572 313.295 187.812 314.075 187.739L332.939 185.945C333.72 185.87 334.438 185.488 334.938 184.882C335.437 184.276 335.677 183.496 335.604 182.713L333.815 163.795C333.745 163.061 333.406 162.38 332.862 161.883C332.319 161.387 331.611 161.111 330.876 161.109L330.878 161.111Z" fill="#292A2E"/>
<path d="M208.902 154.14L190.037 155.934C188.089 156.119 186.659 157.853 186.844 159.807L188.633 178.726C188.817 180.68 190.547 182.114 192.495 181.929L211.359 180.135C213.308 179.949 214.738 178.215 214.553 176.261L212.764 157.342C212.579 155.388 210.85 153.955 208.902 154.14Z" fill="#EFA30E"/>
<path d="M359.828 85.6242C359.805 85.6242 359.783 85.623 359.76 85.6206C359.684 85.6118 359.61 85.5879 359.542 85.5503C359.475 85.5128 359.416 85.4622 359.368 85.4017C359.32 85.3411 359.284 85.2716 359.263 85.1973C359.242 85.1229 359.235 85.0451 359.244 84.9683C360.126 79.0239 361.959 73.2613 364.671 67.9023C370.542 56.4899 379.749 49.9444 391.29 48.9694C391.445 48.9563 391.599 49.0055 391.718 49.1062C391.837 49.207 391.911 49.351 391.925 49.5066C391.938 49.6622 391.888 49.8167 391.788 49.936C391.688 50.0553 391.544 50.1297 391.389 50.1428C364.471 52.4132 360.449 84.7763 360.41 85.1031C360.394 85.2464 360.325 85.3787 360.218 85.4747C360.111 85.5708 359.972 85.624 359.828 85.6242Z" fill="#292A2E"/>
<path d="M385.707 55.9776C385.591 55.9777 385.477 55.9433 385.381 55.8787C385.284 55.8141 385.209 55.7223 385.164 55.6148C385.12 55.5073 385.108 55.389 385.13 55.2748C385.153 55.1606 385.209 55.0556 385.291 54.9732L390.715 49.5086L385.267 44.0683C385.211 44.0141 385.166 43.9492 385.135 43.8774C385.104 43.8057 385.088 43.7285 385.087 43.6503C385.086 43.5721 385.101 43.4946 385.13 43.4221C385.16 43.3497 385.203 43.2839 385.258 43.2285C385.313 43.1731 385.379 43.1293 385.451 43.0995C385.523 43.0697 385.6 43.0547 385.678 43.0552C385.756 43.0557 385.833 43.0718 385.905 43.1025C385.976 43.1332 386.041 43.1779 386.095 43.234L391.959 49.09C392.069 49.2004 392.131 49.3502 392.131 49.5063C392.131 49.6624 392.069 49.8122 391.959 49.9226L386.121 55.8039C386.067 55.8588 386.002 55.9025 385.931 55.9323C385.86 55.9621 385.784 55.9775 385.707 55.9776V55.9776Z" fill="#292A2E"/>
<path d="M321.66 151.744C321.535 151.744 321.412 151.703 321.311 151.628C321.21 151.553 321.136 151.448 321.099 151.327C321.012 151.039 312.568 122.444 334.426 110.583C334.494 110.545 334.569 110.52 334.646 110.511C334.724 110.502 334.803 110.508 334.878 110.53C334.953 110.552 335.023 110.588 335.083 110.637C335.144 110.686 335.195 110.747 335.232 110.816C335.269 110.885 335.292 110.96 335.3 111.038C335.307 111.116 335.299 111.195 335.276 111.269C335.253 111.344 335.216 111.414 335.165 111.474C335.115 111.534 335.054 111.583 334.984 111.619C313.979 123.016 322.139 150.701 322.223 150.98C322.25 151.068 322.256 151.161 322.241 151.252C322.225 151.343 322.189 151.428 322.134 151.502C322.08 151.577 322.008 151.637 321.927 151.678C321.845 151.72 321.754 151.741 321.662 151.741L321.66 151.744Z" fill="#292A2E"/>
<path d="M332.193 118.438C332.098 118.438 332.004 118.414 331.92 118.37C331.835 118.325 331.763 118.26 331.709 118.181C331.655 118.102 331.621 118.011 331.611 117.916C331.6 117.821 331.612 117.724 331.647 117.635L334.096 111.325L327.804 108.866C327.662 108.808 327.548 108.696 327.487 108.554C327.427 108.412 327.424 108.252 327.48 108.108C327.535 107.965 327.645 107.848 327.785 107.785C327.925 107.721 328.085 107.716 328.229 107.769L335.069 110.438C335.141 110.467 335.206 110.509 335.262 110.562C335.318 110.616 335.362 110.68 335.393 110.75C335.424 110.821 335.441 110.897 335.443 110.975C335.445 111.052 335.431 111.129 335.403 111.201L332.741 118.06C332.698 118.171 332.623 118.266 332.525 118.334C332.428 118.401 332.312 118.438 332.193 118.438V118.438Z" fill="#292A2E"/>
<path d="M248.642 54.4875C248.487 54.4875 248.337 54.4255 248.227 54.315C248.117 54.2046 248.055 54.0549 248.055 53.8987C248.055 44.9545 245.423 38.1269 240.23 33.6062C231.013 25.5829 216.677 27.517 216.533 27.5376C216.379 27.5597 216.222 27.5195 216.098 27.4258C215.973 27.3321 215.891 27.1926 215.869 27.038C215.847 26.8834 215.887 26.7264 215.98 26.6015C216.074 26.4765 216.213 26.3939 216.367 26.3718C216.975 26.2841 231.368 24.337 240.995 32.7119C246.459 37.4663 249.23 44.5947 249.229 53.8987C249.229 53.976 249.214 54.0526 249.185 54.124C249.155 54.1955 249.112 54.2604 249.057 54.315C249.003 54.3697 248.938 54.4131 248.867 54.4427C248.796 54.4723 248.719 54.4875 248.642 54.4875Z" fill="#292A2E"/>
<path d="M248.67 54.6983C248.652 54.6983 248.633 54.6983 248.615 54.6983C248.538 54.6911 248.464 54.6688 248.396 54.6326C248.327 54.5964 248.267 54.5471 248.218 54.4875L242.938 48.0939C242.839 47.9736 242.791 47.8186 242.806 47.6631C242.82 47.5076 242.896 47.3642 243.016 47.2646C243.136 47.165 243.29 47.1172 243.445 47.1319C243.601 47.1465 243.743 47.2223 243.843 47.3426L248.75 53.2852L254.673 48.3677C254.732 48.3184 254.801 48.2813 254.875 48.2586C254.948 48.2358 255.026 48.2279 255.102 48.2352C255.179 48.2424 255.254 48.2648 255.322 48.301C255.39 48.3371 255.45 48.3864 255.5 48.446C255.549 48.5056 255.586 48.5743 255.608 48.6482C255.631 48.7221 255.639 48.7997 255.632 48.8767C255.624 48.9537 255.602 49.0285 255.566 49.0968C255.53 49.1652 255.481 49.2257 255.421 49.275L249.044 54.5652C248.939 54.6517 248.807 54.6987 248.67 54.6983Z" fill="#292A2E"/>
<path d="M261.651 119.44H242.702C240.745 119.44 239.158 121.031 239.158 122.994V141.997C239.158 143.96 240.745 145.551 242.702 145.551H261.651C263.608 145.551 265.195 143.96 265.195 141.997V122.994C265.195 121.031 263.608 119.44 261.651 119.44Z" fill="#FD870E"/>
<path d="M309.911 154.17C309.78 154.17 309.654 154.126 309.551 154.045C309.448 153.964 309.375 153.851 309.343 153.724C302.797 127.464 270.793 129.306 270.474 129.328C270.397 129.333 270.32 129.323 270.247 129.298C270.174 129.274 270.106 129.235 270.048 129.184C269.99 129.133 269.942 129.071 269.908 129.001C269.873 128.932 269.853 128.856 269.848 128.779C269.843 128.702 269.853 128.624 269.877 128.551C269.902 128.477 269.941 128.409 269.992 128.351C270.043 128.293 270.104 128.245 270.174 128.21C270.243 128.176 270.318 128.156 270.395 128.15C276.29 127.95 282.177 128.727 287.819 130.45C296.198 133.076 306.932 139.195 310.481 153.436C310.5 153.511 310.504 153.589 310.492 153.665C310.481 153.742 310.455 153.815 310.415 153.882C310.375 153.948 310.323 154.006 310.261 154.052C310.199 154.098 310.129 154.131 310.054 154.15C310.007 154.163 309.959 154.169 309.911 154.17V154.17Z" fill="#292A2E"/>
<path d="M309.993 154.368C309.871 154.368 309.752 154.33 309.653 154.26L303.009 149.531C302.882 149.441 302.796 149.303 302.77 149.149C302.744 148.995 302.78 148.837 302.871 148.71C302.961 148.583 303.098 148.497 303.251 148.471C303.405 148.445 303.562 148.481 303.689 148.571L309.847 152.954L314.237 146.571C314.326 146.443 314.461 146.356 314.614 146.329C314.766 146.301 314.924 146.335 315.051 146.424C315.179 146.512 315.266 146.647 315.295 146.8C315.323 146.953 315.29 147.111 315.203 147.239L310.476 154.114C310.432 154.178 310.375 154.233 310.31 154.275C310.245 154.317 310.172 154.346 310.095 154.36C310.061 154.365 310.027 154.368 309.993 154.368V154.368Z" fill="#292A2E"/>
<path d="M598.619 533L599.772 532.777L581.751 353.18L580.598 353.402L598.619 533Z" fill="#494949"/>
<path d="M531.516 533L532.669 532.777L514.648 353.18L513.495 353.402L531.516 533Z" fill="#494949"/>
<path d="M383.188 533L382.035 532.777L400.057 353.18L401.21 353.402L383.188 533Z" fill="#494949"/>
<path d="M450.292 533L449.139 532.777L467.159 353.18L468.313 353.402L450.292 533Z" fill="#494949"/>
<path d="M474.185 274.134L463.657 353.21L464.821 353.366L475.349 274.289L474.185 274.134Z" fill="#494949"/>
<path d="M595.021 274.133L584.494 353.209L585.657 353.365L596.185 274.289L595.021 274.133Z" fill="#494949"/>
<path d="M463.764 359.082H581.957C585.146 359.082 587.731 356.489 587.731 353.291V353.29C587.731 350.092 585.146 347.5 581.957 347.5H463.764C460.575 347.5 457.99 350.092 457.99 353.29V353.291C457.99 356.489 460.575 359.082 463.764 359.082Z" fill="#292A2E"/>
<path opacity="0.8" d="M463.764 359.082H581.957C585.146 359.082 587.731 356.489 587.731 353.291V353.29C587.731 350.092 585.146 347.5 581.957 347.5H463.764C460.575 347.5 457.99 350.092 457.99 353.29V353.291C457.99 356.489 460.575 359.082 463.764 359.082Z" fill="white"/>
<path d="M457.403 353.291C457.405 351.6 458.075 349.978 459.268 348.782C460.46 347.587 462.077 346.914 463.764 346.912H581.957C583.644 346.912 585.262 347.584 586.455 348.781C587.648 349.977 588.318 351.6 588.318 353.292C588.318 354.984 587.648 356.606 586.455 357.803C585.262 358.999 583.644 359.671 581.957 359.671H463.764C462.077 359.669 460.46 358.996 459.268 357.8C458.075 356.604 457.404 354.982 457.403 353.291V353.291ZM463.764 348.089C462.388 348.089 461.069 348.637 460.096 349.613C459.123 350.588 458.577 351.911 458.577 353.291C458.577 354.671 459.123 355.994 460.096 356.969C461.069 357.945 462.388 358.493 463.764 358.493H581.957C583.333 358.493 584.652 357.945 585.625 356.969C586.597 355.994 587.144 354.671 587.144 353.291C587.144 351.911 586.597 350.588 585.625 349.613C584.652 348.637 583.333 348.089 581.957 348.089H463.764Z" fill="#292A2E"/>
<path d="M398.893 359.082H517.086C520.275 359.082 522.86 356.489 522.86 353.291V353.29C522.86 350.092 520.275 347.5 517.086 347.5H398.893C395.704 347.5 393.119 350.092 393.119 353.29V353.291C393.119 356.489 395.704 359.082 398.893 359.082Z" fill="white"/>
<path d="M392.529 353.291C392.531 351.599 393.202 349.978 394.396 348.782C395.589 347.586 397.206 346.913 398.893 346.912H517.086C518.773 346.912 520.391 347.584 521.584 348.781C522.777 349.977 523.447 351.6 523.447 353.292C523.447 354.984 522.777 356.606 521.584 357.803C520.391 358.999 518.773 359.671 517.086 359.671H398.893C397.206 359.67 395.588 358.997 394.395 357.801C393.202 356.605 392.531 354.983 392.529 353.291ZM398.893 348.09C398.212 348.09 397.537 348.224 396.908 348.486C396.279 348.747 395.707 349.13 395.225 349.613C394.744 350.096 394.362 350.67 394.101 351.301C393.84 351.932 393.706 352.608 393.706 353.292C393.706 353.975 393.84 354.651 394.101 355.282C394.362 355.913 394.744 356.487 395.225 356.97C395.707 357.453 396.279 357.836 396.908 358.098C397.537 358.359 398.212 358.494 398.893 358.494H517.086C518.462 358.494 519.781 357.945 520.754 356.97C521.727 355.994 522.273 354.671 522.273 353.292C522.273 351.912 521.727 350.589 520.754 349.613C519.781 348.638 518.462 348.09 517.086 348.09H398.893Z" fill="#292A2E"/>
<path d="M480.665 274.215H595.293C597.167 274.215 598.977 273.531 600.386 272.29C601.794 271.05 602.704 269.338 602.946 267.474L610.528 209.078C610.669 207.986 610.577 206.877 610.258 205.824C609.938 204.771 609.398 203.798 608.674 202.971C607.95 202.144 607.058 201.482 606.058 201.028C605.058 200.574 603.973 200.339 602.875 200.339H488.248C486.373 200.338 484.562 201.022 483.153 202.263C481.745 203.503 480.834 205.216 480.593 207.08L473.01 265.476C472.869 266.568 472.961 267.677 473.281 268.731C473.601 269.784 474.141 270.756 474.865 271.583C475.59 272.411 476.482 273.073 477.482 273.527C478.482 273.981 479.568 274.215 480.665 274.215Z" fill="#292A2E"/>
<path opacity="0.8" d="M480.665 274.215H595.293C597.167 274.215 598.977 273.531 600.386 272.29C601.794 271.05 602.704 269.338 602.946 267.474L610.528 209.078C610.669 207.986 610.577 206.877 610.258 205.824C609.938 204.771 609.398 203.798 608.674 202.971C607.95 202.144 607.058 201.482 606.058 201.028C605.058 200.574 603.973 200.339 602.875 200.339H488.248C486.373 200.338 484.562 201.022 483.153 202.263C481.745 203.503 480.834 205.216 480.593 207.08L473.01 265.476C472.869 266.568 472.961 267.677 473.281 268.731C473.601 269.784 474.141 270.756 474.865 271.583C475.59 272.411 476.482 273.073 477.482 273.527C478.482 273.981 479.568 274.215 480.665 274.215Z" fill="white"/>
<path d="M474.428 271.971C473.649 271.081 473.067 270.035 472.723 268.902C472.379 267.768 472.28 266.575 472.432 265.4L480.014 207.004C480.279 205.001 481.259 203.161 482.774 201.827C484.288 200.493 486.233 199.756 488.249 199.751H602.876C604.058 199.751 605.225 200.004 606.301 200.492C607.377 200.981 608.337 201.694 609.116 202.584C609.896 203.474 610.477 204.521 610.821 205.654C611.165 206.787 611.264 207.981 611.111 209.155L603.529 267.55C603.265 269.554 602.284 271.394 600.77 272.728C599.256 274.062 597.31 274.799 595.295 274.804H480.665C479.485 274.803 478.318 274.55 477.242 274.062C476.167 273.573 475.207 272.861 474.428 271.971V271.971ZM488.248 200.929C486.518 200.933 484.848 201.567 483.548 202.712C482.248 203.857 481.407 205.436 481.18 207.156L473.597 265.552C473.466 266.561 473.552 267.585 473.847 268.558C474.142 269.531 474.641 270.43 475.31 271.194C475.98 271.958 476.804 272.57 477.727 272.99C478.651 273.409 479.654 273.626 480.668 273.626H595.295C597.026 273.622 598.696 272.989 599.996 271.844C601.297 270.698 602.138 269.119 602.366 267.398L609.947 209.003C610.078 207.994 609.993 206.969 609.698 205.997C609.403 205.024 608.904 204.125 608.235 203.361C607.566 202.597 606.742 201.985 605.818 201.565C604.894 201.146 603.892 200.929 602.878 200.929H488.248Z" fill="#292A2E"/>
<path d="M474.183 274.215H588.811C590.685 274.215 592.495 273.531 593.904 272.29C595.312 271.05 596.222 269.338 596.464 267.474L604.046 209.078C604.188 207.986 604.096 206.877 603.776 205.824C603.456 204.771 602.916 203.798 602.192 202.971C601.468 202.144 600.576 201.482 599.576 201.028C598.576 200.574 597.491 200.339 596.393 200.339H481.767C479.893 200.339 478.083 201.023 476.675 202.263C475.267 203.503 474.357 205.215 474.115 207.079L466.532 265.474C466.39 266.566 466.482 267.675 466.802 268.728C467.121 269.782 467.661 270.754 468.385 271.582C469.109 272.409 470.001 273.072 471.001 273.526C472.001 273.98 473.086 274.215 474.183 274.215V274.215Z" fill="white"/>
<path d="M467.944 271.971C467.164 271.081 466.583 270.035 466.239 268.902C465.895 267.768 465.795 266.575 465.948 265.4L473.53 207.004C473.795 205 474.775 203.16 476.29 201.827C477.805 200.493 479.751 199.755 481.767 199.751H596.395C597.576 199.751 598.743 200.004 599.819 200.492C600.895 200.981 601.855 201.694 602.634 202.584C603.414 203.474 603.995 204.521 604.339 205.654C604.683 206.787 604.782 207.981 604.629 209.155L597.047 267.55C596.783 269.554 595.802 271.394 594.288 272.728C592.773 274.061 590.828 274.799 588.812 274.804H474.183C473.002 274.803 471.835 274.551 470.759 274.062C469.683 273.574 468.723 272.861 467.944 271.971V271.971ZM481.767 200.929C480.036 200.933 478.366 201.566 477.066 202.711C475.766 203.857 474.924 205.436 474.696 207.156L467.114 265.552C466.983 266.561 467.068 267.585 467.364 268.558C467.659 269.531 468.158 270.43 468.827 271.194C469.496 271.958 470.32 272.57 471.244 272.99C472.168 273.409 473.17 273.626 474.185 273.626H588.811C590.542 273.622 592.212 272.989 593.512 271.844C594.812 270.698 595.654 269.119 595.881 267.398L603.464 209.003C603.595 207.995 603.51 206.97 603.214 205.997C602.919 205.024 602.42 204.126 601.751 203.361C601.082 202.597 600.258 201.985 599.334 201.565C598.41 201.146 597.407 200.929 596.393 200.929H481.767Z" fill="#292A2E"/>
<path d="M387.55 501.889C387.55 501.889 384.403 518.254 369.125 519.166C353.847 520.078 357.16 532.283 357.16 532.283H415.543V503.03L387.55 501.889Z" fill="#EFA30E"/>
<path d="M439.934 491.557C439.934 491.557 444.312 507.635 431.005 515.216C417.698 522.798 426.042 532.283 426.042 532.283L478.43 506.436L465.554 480.189L439.934 491.557Z" fill="#EFA30E"/>
<path d="M472.382 487.016L428.204 347.244H508.283C524.369 347.244 531.074 333.564 531.074 317.432C531.074 301.301 515.261 287.159 499.176 287.159H391.098C381.287 287.159 370.287 293.177 364.902 301.402C359.517 309.627 360.972 322.373 364.874 331.401L435.618 503.719" fill="#262626"/>
<path opacity="0.8" d="M472.382 487.016L428.204 347.244H508.283C524.369 347.244 531.074 333.564 531.074 317.432C531.074 301.301 515.261 287.159 499.176 287.159H391.098C381.287 287.159 370.287 293.177 364.902 301.402C359.517 309.627 360.972 322.373 364.874 331.401L435.618 503.719" fill="#0A0A0A"/>
<path d="M420.107 513.62L434.08 347.244L531.073 347.238C553.8 345.451 564.208 332.96 563.878 316.832C563.55 300.908 555.511 285.18 539.705 285.18H408.979C397.284 285.421 383.745 296.516 383.745 309.276L376.952 511.687" fill="#262626"/>
<path d="M570.495 285.375C570.495 285.375 574.803 313.546 567.975 329.209C559.451 348.762 527.497 347.238 527.497 347.238L529.297 285.18L570.495 285.375Z" fill="#262626"/>
<path d="M575.242 282.191L575.367 282.198C575.367 282.198 575.277 279.798 575.242 282.191Z" fill="#333333"/>
<path d="M575.086 282.191L575.211 282.198C575.211 282.198 575.121 279.798 575.086 282.191Z" fill="#333333"/>
<path d="M367.147 167.98C367.376 167.526 367.739 167.155 368.187 166.917C368.635 166.679 369.146 166.586 369.649 166.652C369.645 166.607 369.655 166.562 369.677 166.523C369.7 166.493 369.731 166.469 369.767 166.455C369.802 166.441 369.84 166.436 369.878 166.441L368.181 165.221C367.674 164.873 367.31 164.352 367.156 163.755C367.002 163.159 367.069 162.526 367.343 161.975C367.632 161.439 368.109 161.029 368.682 160.826C369.255 160.623 369.883 160.64 370.444 160.874C370.44 160.85 370.456 160.827 370.459 160.803L369.762 160.301C369.286 159.971 368.938 159.486 368.777 158.929C368.615 158.371 368.651 157.774 368.878 157.24C369.028 156.907 369.249 156.613 369.526 156.376C369.803 156.14 370.128 155.969 370.48 155.874C370.831 155.779 371.198 155.764 371.556 155.829C371.914 155.894 372.252 156.038 372.548 156.25L374.157 157.406C374.162 157.397 374.157 157.386 374.164 157.377C374.17 157.368 374.187 157.365 374.197 157.355C373.827 156.938 373.61 156.408 373.581 155.851C373.551 155.294 373.711 154.744 374.035 154.29C374.794 153.065 376.547 153.315 377.588 154.063L387.058 160.623L385.367 157.759C385.026 157.209 384.906 156.55 385.031 155.915C385.156 155.279 385.517 154.715 386.041 154.336C386.318 154.15 386.63 154.023 386.958 153.962C387.285 153.901 387.622 153.908 387.947 153.981C388.273 154.055 388.58 154.195 388.849 154.391C389.119 154.588 389.346 154.838 389.516 155.125L398.759 170.728C399.843 172.559 400.173 174.741 399.678 176.812C399.183 178.883 397.903 180.678 396.109 181.817V181.817C394.029 183.139 391.603 183.807 389.141 183.736C386.68 183.665 384.296 182.858 382.295 181.419L367.993 171.139C367.518 170.785 367.176 170.281 367.023 169.707C366.869 169.134 366.913 168.526 367.147 167.98Z" fill="#FAA896"/>
<g opacity="0.25">
<path opacity="0.25" d="M383.529 163.884C383.494 163.932 383.442 163.965 383.384 163.975C383.325 163.984 383.265 163.971 383.217 163.937L374.219 157.687C374.17 157.653 374.137 157.6 374.126 157.541C374.116 157.482 374.129 157.421 374.163 157.372C374.197 157.323 374.249 157.289 374.308 157.278C374.366 157.267 374.427 157.28 374.477 157.313L383.475 163.564C383.5 163.581 383.521 163.603 383.537 163.628C383.553 163.653 383.564 163.681 383.57 163.71C383.575 163.74 383.575 163.77 383.569 163.799C383.563 163.828 383.551 163.856 383.534 163.881L383.529 163.884Z" fill="#0C0C0C"/>
</g>
<g opacity="0.25">
<path opacity="0.25" d="M380.89 167.94C380.855 167.988 380.803 168.021 380.745 168.031C380.686 168.041 380.626 168.027 380.578 167.993L370.538 161.018C370.489 160.984 370.455 160.931 370.444 160.872C370.433 160.813 370.446 160.752 370.48 160.702C370.515 160.654 370.567 160.621 370.626 160.61C370.684 160.599 370.745 160.611 370.795 160.643L380.837 167.618C380.862 167.635 380.883 167.657 380.899 167.682C380.915 167.707 380.926 167.735 380.932 167.764C380.937 167.794 380.937 167.824 380.931 167.853C380.925 167.882 380.913 167.91 380.896 167.935L380.89 167.94Z" fill="#0C0C0C"/>
</g>
<g opacity="0.25">
<path opacity="0.25" d="M378.057 172.35C378.022 172.398 377.97 172.43 377.911 172.44C377.853 172.45 377.793 172.437 377.744 172.403L369.734 166.839C369.686 166.804 369.654 166.751 369.645 166.693C369.635 166.634 369.648 166.575 369.682 166.526C369.716 166.477 369.767 166.444 369.825 166.432C369.883 166.421 369.943 166.433 369.992 166.465L378.003 172.029C378.027 172.046 378.048 172.068 378.065 172.093C378.081 172.118 378.092 172.146 378.097 172.175C378.103 172.205 378.102 172.235 378.096 172.264C378.09 172.293 378.078 172.321 378.061 172.346L378.057 172.35Z" fill="#0C0C0C"/>
</g>
<path d="M404.212 167.176L431.355 213.536L464.474 169.971L491.978 194.839L445.005 255.847L444.697 256.28C442.817 258.863 440.313 260.923 437.419 262.266C434.526 263.61 431.339 264.192 428.159 263.959C424.979 263.725 421.911 262.684 419.243 260.932C416.576 259.181 414.397 256.777 412.912 253.948L374.315 183.849L404.212 167.176Z" fill="#EFA30E"/>
<path d="M434.013 219.111C434.072 219.111 434.13 219.096 434.182 219.067C434.233 219.038 434.277 218.996 434.307 218.946C434.338 218.895 434.356 218.838 434.358 218.779C434.36 218.72 434.347 218.661 434.32 218.608L431.66 213.379C431.616 213.301 431.544 213.242 431.459 213.216C431.373 213.19 431.281 213.198 431.201 213.238C431.121 213.279 431.06 213.35 431.031 213.434C431.002 213.519 431.007 213.612 431.045 213.694L433.706 218.923C433.735 218.979 433.779 219.027 433.833 219.06C433.887 219.094 433.95 219.111 434.013 219.111V219.111Z" fill="#0C0C0C"/>
<path d="M466.381 213.273L465.693 213.313L466.522 227.955L467.21 227.916L466.381 213.273Z" fill="#0C0C0C"/>
<path d="M553.842 107.3C553.842 107.3 555.114 123.599 558.841 129.474C569.572 146.388 572.845 165.519 562.411 175.654C551.978 185.789 484.694 186.71 479.331 163.741C474.816 144.401 484.001 142.21 486.057 126.188C486.988 118.94 489.602 103.732 489.602 103.732" fill="#0A0A0A"/>
<path d="M496.46 160.067C496.577 160.051 497.865 181.498 522.711 179.631C539.913 178.338 546.045 160.036 546.439 160.036C544.584 159.641 541.462 159.066 540.638 158.623C537.929 157.163 534.578 155.645 533.705 150.37C533.202 147.329 534.057 131.775 533.793 128.699L507.39 134.609C507.759 141.106 510.341 156.167 501.291 158.833C499.785 159.276 498.163 159.682 496.46 160.067Z" fill="#FAA896"/>
<path opacity="0.52" d="M507.02 152.68C507.433 151.343 507.7 149.965 507.814 148.57C508.104 145.387 508.046 142.182 507.641 139.012C513.008 138.285 518.064 136.064 522.234 132.6C522.724 134.416 525.421 142.35 524.674 144.076C523.263 147.338 516.631 152.68 507.02 152.68Z" fill="#0C0C0C"/>
<path d="M510.519 145.929C520.939 146.818 534.359 142.486 536.989 128.552L539.361 115.979C541.991 102.045 536.825 89.3664 523.744 86.8817C510.663 84.3988 498.753 93.8388 496.124 107.773L495.073 113.339C494.063 118.686 491.926 144.342 510.519 145.929Z" fill="#FAA896"/>
<path d="M498.8 113.946C499.706 113.946 500.44 113.21 500.44 112.301C500.44 111.393 499.706 110.657 498.8 110.657C497.895 110.657 497.161 111.393 497.161 112.301C497.161 113.21 497.895 113.946 498.8 113.946Z" fill="#0C0C0C"/>
<path d="M515.6 116.196C516.506 116.196 517.24 115.46 517.24 114.552C517.24 113.643 516.506 112.907 515.6 112.907C514.695 112.907 513.96 113.643 513.96 114.552C513.96 115.46 514.695 116.196 515.6 116.196Z" fill="#0C0C0C"/>
<path d="M506.381 126.609C506.372 126.608 506.364 126.607 506.355 126.605C505.826 126.501 505.302 126.367 504.787 126.204C504.017 125.957 503.01 125.546 503.143 124.85C503.292 124.057 507.076 115.901 507.509 114.975C507.546 114.893 507.614 114.831 507.698 114.8C507.782 114.769 507.874 114.773 507.955 114.811C508.036 114.849 508.098 114.917 508.129 115.001C508.159 115.085 508.156 115.178 508.118 115.259C506.503 118.733 503.904 124.444 503.803 124.974C503.89 125.222 505.167 125.692 506.482 125.942C506.568 125.958 506.644 126.006 506.696 126.077C506.747 126.149 506.768 126.237 506.755 126.324C506.742 126.41 506.696 126.489 506.626 126.542C506.557 126.595 506.469 126.619 506.382 126.608L506.381 126.609Z" fill="#0C0C0C"/>
<path d="M508.318 132.625C506.184 132.347 504.145 131.57 502.366 130.357C502.291 130.308 502.239 130.232 502.22 130.144C502.202 130.057 502.219 129.966 502.268 129.891C502.316 129.816 502.393 129.763 502.48 129.745C502.567 129.727 502.658 129.744 502.733 129.792C506.583 132.309 510.411 132.716 513.799 130.97C513.867 130.932 513.937 130.899 514.009 130.869C514.093 130.839 514.186 130.843 514.266 130.881C514.347 130.919 514.409 130.988 514.439 131.072C514.47 131.156 514.466 131.248 514.428 131.329C514.39 131.41 514.322 131.473 514.238 131.503C514.211 131.514 514.167 131.538 514.106 131.569C512.324 132.491 510.309 132.858 508.318 132.625V132.625Z" fill="#0C0C0C"/>
<path d="M549.827 120.361L538.1 118.205C529.219 114.601 526.534 99.1815 526.534 99.1815C526.534 99.1815 515.746 109.727 489.606 103.729C489.606 103.729 494.848 67.1657 533.47 77.7968C545.924 81.2253 554.862 93.8118 553.748 110.632C552.964 122.42 549.827 120.361 549.827 120.361Z" fill="#0A0A0A"/>
<path d="M535.375 132.643C539.351 133.398 543.378 129.744 544.131 125.755C544.883 121.765 542.076 118.957 538.1 118.203L535.547 120.485L531.957 131.992L535.375 132.643Z" fill="#FAA896"/>
<path d="M505.111 108.309C503.952 107.558 502.612 107.134 501.232 107.081C500.554 107.051 499.874 107.123 499.216 107.295C498.565 107.463 497.937 107.712 497.348 108.037C497.272 108.083 497.217 108.155 497.192 108.239C497.166 108.324 497.174 108.415 497.212 108.494C497.25 108.573 497.317 108.635 497.398 108.668C497.48 108.701 497.571 108.702 497.653 108.671L497.678 108.66C498.223 108.392 498.799 108.195 499.393 108.071C499.98 107.945 500.582 107.909 501.18 107.964C502.366 108.063 503.505 108.476 504.481 109.16L504.513 109.183C504.568 109.229 504.633 109.264 504.702 109.284C504.772 109.305 504.845 109.31 504.916 109.301C504.988 109.293 505.058 109.269 505.12 109.232C505.182 109.195 505.236 109.145 505.279 109.087C505.321 109.028 505.351 108.961 505.367 108.89C505.383 108.819 505.383 108.746 505.37 108.674C505.356 108.603 505.328 108.536 505.287 108.476C505.246 108.416 505.193 108.365 505.131 108.326L505.111 108.309Z" fill="#0C0C0C"/>
<path d="M515.57 110.779C516.726 110.495 517.936 110.523 519.078 110.859C519.656 111.025 520.205 111.277 520.707 111.608C521.216 111.939 521.682 112.333 522.092 112.781L522.111 112.799C522.177 112.858 522.262 112.89 522.35 112.889C522.438 112.888 522.522 112.855 522.586 112.794C522.651 112.734 522.69 112.652 522.697 112.564C522.704 112.477 522.678 112.389 522.624 112.32C522.192 111.803 521.696 111.343 521.15 110.951C520.598 110.552 519.991 110.238 519.347 110.02C518.041 109.57 516.639 109.48 515.287 109.761C515.158 109.798 515.048 109.882 514.979 109.998C514.91 110.113 514.887 110.25 514.915 110.382C514.943 110.513 515.02 110.629 515.13 110.705C515.241 110.782 515.376 110.814 515.508 110.795L515.53 110.789L515.57 110.779Z" fill="#0C0C0C"/>
<path d="M507.864 135.789C507.478 135.744 507.096 135.667 506.722 135.558C506.636 135.534 506.564 135.476 506.521 135.398C506.478 135.319 506.467 135.227 506.492 135.141C506.517 135.055 506.574 134.983 506.652 134.94C506.73 134.896 506.822 134.886 506.908 134.911C509.157 135.558 510.435 134.7 510.489 134.663C510.562 134.612 510.652 134.591 510.74 134.607C510.828 134.622 510.906 134.672 510.957 134.745C511.009 134.818 511.029 134.909 511.013 134.997C510.998 135.085 510.948 135.163 510.876 135.215C509.968 135.749 508.904 135.952 507.864 135.789V135.789Z" fill="#0C0C0C"/>
<path d="M538.074 118.056L538.192 117.731C523.334 112.381 526.967 97.7584 527.005 97.6112L526.672 97.5234C526.632 97.6736 522.915 112.598 538.074 118.056Z" fill="#0C0C0C"/>
<path opacity="0.1" d="M520.274 125.684C520.409 124.422 519.129 123.249 517.413 123.064C515.698 122.879 514.197 123.752 514.062 125.014C513.927 126.276 515.208 127.449 516.923 127.634C518.638 127.819 520.139 126.946 520.274 125.684Z" fill="#0C0C0C"/>
<path opacity="0.1" d="M498.767 122.808C498.628 124.068 497.128 124.94 495.413 124.757C495.116 124.725 494.824 124.662 494.54 124.569C494.443 123.07 494.423 121.625 494.45 120.29C494.925 120.165 495.418 120.13 495.905 120.188C497.618 120.37 498.901 121.543 498.767 122.808Z" fill="#0C0C0C"/>
<path d="M465.59 207.288C466.373 216.509 470.179 273.82 470.933 285.18L570.495 285.392C571.082 275.148 577.849 230.358 580.07 210.326C582.191 191.212 586.352 181.641 583.299 175.99C578.316 166.755 564.699 161.418 555.413 160.157C549.743 159.387 541.215 158.835 541.215 158.835C541.215 158.835 540.493 173.484 523.276 174.299C499.839 175.408 501.404 158.835 501.288 158.835C497.491 158.835 475.801 161.245 470.495 164.4C456.038 172.985 463.929 187.748 465.59 207.288Z" fill="#EFA30E"/>
<path d="M400.964 213.729L410.561 260.51C410.756 261.46 411.27 262.314 412.017 262.93C412.764 263.546 413.699 263.886 414.666 263.895L480.749 264.459C481.38 264.464 482.003 264.328 482.575 264.06C483.146 263.793 483.65 263.401 484.051 262.912C484.451 262.424 484.737 261.852 484.889 261.238C485.04 260.624 485.053 259.984 484.926 259.365L475.329 212.584C475.134 211.635 474.62 210.78 473.873 210.165C473.126 209.549 472.191 209.208 471.224 209.2L405.141 208.635C404.51 208.63 403.887 208.766 403.316 209.034C402.744 209.301 402.24 209.694 401.84 210.182C401.439 210.67 401.153 211.242 401.001 211.856C400.85 212.47 400.837 213.11 400.964 213.729Z" fill="#292A2E"/>
<path d="M462.586 246.958C462.551 247.574 462.739 248.182 463.115 248.67C463.492 249.158 464.031 249.493 464.634 249.614L466.669 250.064C466.632 250.076 466.599 250.096 466.573 250.124C466.546 250.152 466.527 250.186 466.517 250.223C466.512 250.266 466.522 250.31 466.544 250.347C466.055 250.485 465.621 250.772 465.302 251.168C464.983 251.565 464.796 252.051 464.765 252.56C464.762 253.153 464.959 253.729 465.323 254.196C465.687 254.663 466.198 254.993 466.772 255.133L483.95 258.96C484.829 259.157 485.726 259.256 486.626 259.255C488.631 259.254 490.606 258.765 492.38 257.829C494.155 256.893 495.676 255.538 496.812 253.881C498.016 252.128 498.491 249.973 498.136 247.874C497.781 245.775 496.623 243.898 494.908 242.642L480.296 231.926C479.974 231.69 479.6 231.536 479.206 231.476L480.55 238.026L480.192 237.943L480.116 237.929L468.91 235.644C467.661 235.367 465.951 235.82 465.73 237.248C465.612 237.793 465.681 238.363 465.926 238.864C466.171 239.365 466.578 239.768 467.081 240.008C467.074 240.014 467.06 240.021 467.06 240.035C467.06 240.049 467.067 240.056 467.067 240.07L465.129 239.641C464.775 239.562 464.408 239.563 464.054 239.644C463.7 239.725 463.369 239.884 463.083 240.108C462.798 240.333 462.565 240.618 462.403 240.944C462.241 241.269 462.153 241.627 462.145 241.991C462.145 242.572 462.345 243.135 462.712 243.585C463.079 244.035 463.59 244.344 464.158 244.459L464.992 244.646C465 244.674 464.992 244.702 465.007 244.723C464.398 244.727 463.813 244.959 463.366 245.372C462.918 245.785 462.64 246.351 462.586 246.958V246.958Z" fill="#FAA896"/>
<g opacity="0.25">
<path opacity="0.25" d="M478.224 242.34C478.211 242.398 478.176 242.448 478.126 242.48C478.077 242.512 478.016 242.524 477.958 242.512L467.236 240.306C467.206 240.301 467.178 240.29 467.152 240.273C467.127 240.257 467.105 240.235 467.088 240.21C467.071 240.185 467.059 240.157 467.053 240.127C467.047 240.097 467.047 240.066 467.053 240.037C467.059 240.007 467.071 239.979 467.089 239.954C467.106 239.929 467.128 239.907 467.153 239.891C467.179 239.875 467.207 239.864 467.237 239.858C467.267 239.853 467.297 239.854 467.327 239.861L478.049 242.067C478.079 242.073 478.106 242.084 478.131 242.101C478.155 242.118 478.177 242.139 478.193 242.164C478.209 242.189 478.221 242.217 478.226 242.246C478.232 242.275 478.232 242.305 478.226 242.334L478.224 242.34Z" fill="#0C0C0C"/>
</g>
<g opacity="0.25">
<path opacity="0.25" d="M477.385 247.11C477.372 247.167 477.337 247.217 477.287 247.249C477.237 247.281 477.177 247.293 477.119 247.281L465.152 244.82C465.123 244.814 465.095 244.802 465.071 244.786C465.046 244.769 465.025 244.747 465.009 244.723C464.992 244.698 464.981 244.67 464.975 244.64C464.97 244.611 464.97 244.581 464.976 244.552C464.99 244.494 465.025 244.444 465.075 244.411C465.125 244.378 465.185 244.365 465.244 244.375L477.21 246.836C477.269 246.849 477.32 246.884 477.353 246.934C477.386 246.984 477.398 247.046 477.386 247.105L477.385 247.11Z" fill="#0C0C0C"/>
</g>
<g opacity="0.25">
<path opacity="0.25" d="M476.506 252.28C476.493 252.338 476.457 252.388 476.408 252.421C476.358 252.453 476.297 252.464 476.239 252.452L466.694 250.489C466.636 250.476 466.585 250.441 466.553 250.391C466.52 250.341 466.509 250.28 466.521 250.221C466.533 250.163 466.567 250.111 466.617 250.078C466.666 250.045 466.727 250.033 466.786 250.044L476.33 252.007C476.389 252.019 476.441 252.054 476.474 252.105C476.507 252.155 476.519 252.216 476.507 252.275L476.506 252.28Z" fill="#0C0C0C"/>
</g>
<path d="M485.014 265.774L578.213 282.665C581.121 282.983 584.063 282.62 586.808 281.606C589.553 280.591 592.027 278.953 594.034 276.818C596.042 274.684 597.529 272.113 598.379 269.305C599.229 266.498 599.419 263.531 598.933 260.638L585.886 182.86C585.48 180.395 584.593 178.034 583.275 175.914C581.958 173.793 580.237 171.954 578.21 170.502C576.182 169.05 573.889 168.014 571.462 167.452C569.035 166.89 566.521 166.814 564.064 167.229C561.607 167.643 559.257 168.54 557.146 169.867C555.036 171.194 553.207 172.926 551.765 174.964C550.323 177.001 549.296 179.304 548.744 181.74C548.191 184.176 548.123 186.697 548.543 189.16L557.443 242.703L489.111 234.097L485.014 265.774Z" fill="#EFA30E"/>
<path d="M578.213 283.011C578.299 283.01 578.381 282.977 578.444 282.919C578.507 282.86 578.546 282.78 578.553 282.695C578.56 282.609 578.536 282.524 578.484 282.455C578.432 282.387 578.356 282.341 578.272 282.325L485.394 265.493L489.406 234.483L557.391 243.046C557.445 243.054 557.499 243.048 557.55 243.03C557.601 243.012 557.647 242.982 557.685 242.943C557.722 242.904 557.749 242.857 557.765 242.806C557.781 242.755 557.785 242.701 557.776 242.648L552.124 208.43C552.117 208.385 552.102 208.342 552.078 208.303C552.054 208.264 552.023 208.231 551.986 208.204C551.949 208.178 551.907 208.159 551.863 208.149C551.819 208.139 551.773 208.138 551.728 208.146C551.638 208.161 551.557 208.211 551.504 208.286C551.451 208.36 551.43 208.453 551.444 208.544L557.022 242.304L489.154 233.757C489.064 233.746 488.973 233.772 488.901 233.827C488.829 233.883 488.781 233.965 488.769 234.056L484.672 265.732C484.66 265.82 484.683 265.909 484.735 265.981C484.788 266.053 484.865 266.101 484.952 266.117L578.152 283.005C578.172 283.009 578.193 283.011 578.213 283.011V283.011Z" fill="#0C0C0C"/>
<path d="M557.497 242.365L557.388 243.048L563.383 244.011L563.492 243.327L557.497 242.365Z" fill="#0C0C0C"/>
<path d="M640.588 532.651H0.410964C0.301969 532.651 0.197439 532.608 0.120368 532.531C0.0432978 532.453 0 532.349 0 532.239C0 532.13 0.0432978 532.025 0.120368 531.948C0.197439 531.871 0.301969 531.827 0.410964 531.827H640.587C640.696 531.827 640.8 531.871 640.877 531.948C640.954 532.025 640.998 532.13 640.998 532.239C640.998 532.349 640.954 532.453 640.877 532.531C640.8 532.608 640.696 532.651 640.587 532.651H640.588Z" fill="#292A2E"/>
<g opacity="0.65">
<path opacity="0.65" d="M640.588 532.651H0.410964C0.301969 532.651 0.197439 532.608 0.120368 532.531C0.0432978 532.453 0 532.349 0 532.239C0 532.13 0.0432978 532.025 0.120368 531.948C0.197439 531.871 0.301969 531.827 0.410964 531.827H640.587C640.696 531.827 640.8 531.871 640.877 531.948C640.954 532.025 640.998 532.13 640.998 532.239C640.998 532.349 640.954 532.453 640.877 532.531C640.8 532.608 640.696 532.651 640.587 532.651H640.588Z" fill="#292A2E"/>
</g>
<path d="M39.7783 533L38.6253 532.777L56.6466 353.18L57.7997 353.402L39.7783 533Z" fill="#494949"/>
<path d="M106.882 533L105.729 532.777L123.75 353.18L124.903 353.402L106.882 533Z" fill="#494949"/>
<path d="M255.209 533L256.362 532.777L238.341 353.18L237.188 353.402L255.209 533Z" fill="#494949"/>
<path d="M188.106 533L189.259 532.777L171.238 353.18L170.085 353.402L188.106 533Z" fill="#494949"/>
<path d="M164.206 274.139L163.043 274.295L173.57 353.371L174.734 353.215L164.206 274.139Z" fill="#494949"/>
<path d="M43.3687 274.138L42.2049 274.294L52.7325 353.37L53.8964 353.214L43.3687 274.138Z" fill="#494949"/>
<path d="M174.634 347.5H56.4406C53.2517 347.5 50.6665 350.093 50.6665 353.291V353.292C50.6665 356.49 53.2517 359.082 56.4406 359.082H174.634C177.823 359.082 180.408 356.49 180.408 353.292V353.291C180.408 350.093 177.823 347.5 174.634 347.5Z" fill="#292A2E"/>
<path opacity="0.8" d="M174.634 347.5H56.4406C53.2517 347.5 50.6665 350.093 50.6665 353.291V353.292C50.6665 356.49 53.2517 359.082 56.4406 359.082H174.634C177.823 359.082 180.408 356.49 180.408 353.292V353.291C180.408 350.093 177.823 347.5 174.634 347.5Z" fill="white"/>
<path d="M174.634 359.671H56.4406C55.6052 359.671 54.778 359.506 54.0063 359.185C53.2345 358.864 52.5333 358.394 51.9426 357.802C51.3519 357.21 50.8833 356.506 50.5636 355.732C50.244 354.958 50.0794 354.129 50.0794 353.291C50.0794 352.453 50.244 351.624 50.5636 350.85C50.8833 350.076 51.3519 349.373 51.9426 348.78C52.5333 348.188 53.2345 347.718 54.0063 347.397C54.778 347.077 55.6052 346.912 56.4406 346.912H174.634C176.321 346.912 177.939 347.584 179.132 348.78C180.325 349.977 180.995 351.599 180.995 353.291C180.995 354.983 180.325 356.606 179.132 357.802C177.939 358.998 176.321 359.671 174.634 359.671ZM56.4406 348.09C55.7594 348.09 55.0849 348.224 54.4556 348.486C53.8263 348.747 53.2545 349.13 52.7728 349.613C52.2912 350.096 51.9091 350.67 51.6485 351.301C51.3878 351.932 51.2536 352.609 51.2536 353.292C51.2536 353.975 51.3878 354.651 51.6485 355.282C51.9091 355.914 52.2912 356.487 52.7728 356.97C53.2545 357.453 53.8263 357.836 54.4556 358.098C55.0849 358.359 55.7594 358.494 56.4406 358.494H174.634C176.009 358.494 177.329 357.946 178.301 356.97C179.274 355.994 179.821 354.671 179.821 353.292C179.821 351.912 179.274 350.589 178.301 349.613C177.329 348.638 176.009 348.09 174.634 348.09H56.4406Z" fill="#292A2E"/>
<path d="M239.504 347.5H121.311C118.122 347.5 115.537 350.093 115.537 353.291V353.292C115.537 356.49 118.122 359.082 121.311 359.082H239.504C242.693 359.082 245.278 356.49 245.278 353.292V353.291C245.278 350.093 242.693 347.5 239.504 347.5Z" fill="white"/>
<path d="M239.504 359.671H121.311C120.476 359.671 119.649 359.506 118.877 359.185C118.105 358.864 117.404 358.394 116.813 357.802C116.223 357.21 115.754 356.506 115.434 355.732C115.115 354.958 114.95 354.129 114.95 353.291C114.95 352.453 115.115 351.624 115.434 350.85C115.754 350.076 116.223 349.373 116.813 348.78C117.404 348.188 118.105 347.718 118.877 347.397C119.649 347.077 120.476 346.912 121.311 346.912H239.504C240.34 346.912 241.167 347.077 241.939 347.397C242.71 347.718 243.412 348.188 244.002 348.78C244.593 349.373 245.062 350.076 245.381 350.85C245.701 351.624 245.866 352.453 245.866 353.291C245.866 354.129 245.701 354.958 245.381 355.732C245.062 356.506 244.593 357.21 244.002 357.802C243.412 358.394 242.71 358.864 241.939 359.185C241.167 359.506 240.34 359.671 239.504 359.671V359.671ZM121.311 348.09C120.63 348.09 119.956 348.224 119.326 348.486C118.697 348.747 118.125 349.13 117.644 349.613C117.162 350.096 116.78 350.67 116.519 351.301C116.258 351.932 116.124 352.609 116.124 353.292C116.124 353.975 116.258 354.651 116.519 355.282C116.78 355.914 117.162 356.487 117.644 356.97C118.125 357.453 118.697 357.836 119.326 358.098C119.956 358.359 120.63 358.494 121.311 358.494H239.504C240.186 358.494 240.86 358.359 241.489 358.098C242.119 357.836 242.69 357.453 243.172 356.97C243.654 356.487 244.036 355.914 244.297 355.282C244.557 354.651 244.691 353.975 244.691 353.292C244.691 352.609 244.557 351.932 244.297 351.301C244.036 350.67 243.654 350.096 243.172 349.613C242.69 349.13 242.119 348.747 241.489 348.486C240.86 348.224 240.186 348.09 239.504 348.09H121.311Z" fill="#292A2E"/>
<path d="M157.732 274.215H43.1043C41.2301 274.215 39.42 273.531 38.0119 272.29C36.6037 271.05 35.6936 269.338 35.4515 267.474L27.8693 209.078C27.7276 207.986 27.8197 206.877 28.1394 205.824C28.4592 204.771 28.9992 203.798 29.7235 202.971C30.4478 202.144 31.3396 201.482 32.3395 201.028C33.3395 200.574 34.4244 200.339 35.522 200.339H150.15C152.024 200.339 153.834 201.023 155.242 202.263C156.65 203.503 157.56 205.215 157.802 207.079L165.384 265.474C165.526 266.566 165.434 267.676 165.115 268.729C164.795 269.782 164.255 270.755 163.531 271.582C162.807 272.409 161.915 273.072 160.915 273.526C159.915 273.98 158.83 274.215 157.732 274.215V274.215Z" fill="#292A2E"/>
<path opacity="0.8" d="M157.732 274.215H43.1043C41.2301 274.215 39.42 273.531 38.0119 272.29C36.6037 271.05 35.6936 269.338 35.4515 267.474L27.8693 209.078C27.7276 207.986 27.8197 206.877 28.1394 205.824C28.4592 204.771 28.9992 203.798 29.7235 202.971C30.4478 202.144 31.3396 201.482 32.3395 201.028C33.3395 200.574 34.4244 200.339 35.522 200.339H150.15C152.024 200.339 153.834 201.023 155.242 202.263C156.65 203.503 157.56 205.215 157.802 207.079L165.384 265.474C165.526 266.566 165.434 267.676 165.115 268.729C164.795 269.782 164.255 270.755 163.531 271.582C162.807 272.409 161.915 273.072 160.915 273.526C159.915 273.98 158.83 274.215 157.732 274.215V274.215Z" fill="white"/>
<path d="M157.732 274.804H43.1042C41.0887 274.799 39.1433 274.061 37.6288 272.728C36.1144 271.394 35.1339 269.554 34.8691 267.55L27.2874 209.155C27.1348 207.981 27.2337 206.787 27.5777 205.654C27.9217 204.521 28.5027 203.474 29.2821 202.584C30.0615 201.694 31.0212 200.981 32.0972 200.492C33.1733 200.004 34.3408 199.751 35.522 199.751H150.15C152.165 199.756 154.111 200.493 155.625 201.827C157.139 203.161 158.12 205.001 158.384 207.004L165.967 265.4C166.119 266.575 166.02 267.768 165.676 268.902C165.332 270.035 164.751 271.081 163.972 271.971C163.192 272.861 162.233 273.574 161.157 274.063C160.081 274.551 158.913 274.804 157.732 274.804V274.804ZM35.522 200.929C34.5079 200.929 33.5055 201.146 32.5817 201.565C31.6578 201.985 30.8338 202.597 30.1647 203.361C29.4955 204.125 28.9966 205.024 28.7012 205.997C28.4058 206.969 28.3207 207.994 28.4516 209.003L36.0339 267.398C36.261 269.119 37.1028 270.698 38.4031 271.844C39.7033 272.989 41.3737 273.622 43.1042 273.626H157.732C158.746 273.626 159.748 273.409 160.672 272.99C161.596 272.57 162.42 271.958 163.089 271.194C163.758 270.43 164.257 269.531 164.553 268.558C164.848 267.585 164.933 266.561 164.802 265.552L157.223 207.156C156.996 205.436 156.154 203.857 154.854 202.711C153.553 201.566 151.883 200.933 150.153 200.929H35.522Z" fill="#292A2E"/>
<path d="M164.214 274.215H49.5858C47.7117 274.215 45.9017 273.531 44.4936 272.29C43.0855 271.05 42.1756 269.338 41.9337 267.474L34.3514 209.078C34.2097 207.986 34.3018 206.877 34.6215 205.824C34.9413 204.771 35.4813 203.798 36.2056 202.971C36.9299 202.144 37.8217 201.482 38.8217 201.028C39.8216 200.574 40.9065 200.339 42.0041 200.339H156.632C158.506 200.339 160.316 201.023 161.724 202.263C163.132 203.503 164.042 205.215 164.284 207.079L171.866 265.474C172.008 266.566 171.916 267.676 171.597 268.729C171.277 269.782 170.737 270.755 170.013 271.582C169.288 272.409 168.397 273.072 167.396 273.526C166.396 273.98 165.311 274.215 164.214 274.215Z" fill="white"/>
<path d="M164.213 274.804H49.5857C47.5702 274.799 45.6249 274.061 44.1105 272.728C42.5962 271.394 41.6158 269.554 41.3512 267.55L33.7689 209.155C33.6164 207.981 33.7155 206.787 34.0596 205.654C34.4037 204.521 34.9848 203.474 35.7642 202.584C36.5436 201.694 37.5034 200.981 38.5794 200.493C39.6554 200.004 40.8229 199.751 42.004 199.751H156.631C158.647 199.756 160.592 200.493 162.107 201.827C163.621 203.161 164.602 205.001 164.866 207.004L172.449 265.4C172.601 266.575 172.502 267.768 172.158 268.901C171.813 270.035 171.232 271.081 170.453 271.971C169.674 272.861 168.714 273.574 167.638 274.062C166.562 274.551 165.395 274.804 164.213 274.804V274.804ZM42.004 200.929C40.9898 200.929 39.9871 201.146 39.0631 201.565C38.1391 201.984 37.3149 202.596 36.6455 203.361C35.9762 204.125 35.4771 205.024 35.1816 205.997C34.8861 206.97 34.801 207.995 34.9319 209.003L42.5136 267.398C42.741 269.119 43.5831 270.699 44.8837 271.844C46.1843 272.989 47.8549 273.622 49.5857 273.626H164.213C165.228 273.626 166.23 273.409 167.154 272.99C168.078 272.57 168.902 271.958 169.571 271.194C170.24 270.43 170.739 269.531 171.034 268.558C171.33 267.585 171.415 266.561 171.284 265.552L163.701 207.156C163.474 205.436 162.633 203.856 161.332 202.711C160.032 201.566 158.362 200.933 156.631 200.929H42.004Z" fill="#292A2E"/>
<path d="M151.578 110.244C151.578 110.244 159.196 104.478 161.083 91.2058C162.545 80.9291 153.093 87.5871 153.093 87.5871C153.093 87.5871 154.073 80.1773 148.689 80.9127C143.306 81.648 140.294 89.4318 140.294 89.4318" fill="#0C0C0C"/>
<path d="M120.867 81.7822C120.867 81.7822 94.1581 84.6543 103.813 120.952L106.176 121.11L110.974 121.433" fill="#0C0C0C"/>
<path d="M147.105 158.854C146.988 158.839 145.685 180.522 120.565 178.633C103.176 177.327 96.975 158.824 96.5769 158.824C98.4515 158.424 100.769 157.817 101.689 157.609C103.696 157.142 105.514 156.073 106.9 154.545C108.287 153.016 109.176 151.101 109.451 149.053C109.959 145.979 109.098 130.254 109.362 127.145L136.055 133.124C135.682 139.692 133.072 154.919 142.22 157.614C143.744 158.056 145.384 158.467 147.105 158.854Z" fill="#FAA896"/>
<path opacity="0.52" d="M136.429 151.388C136.011 150.037 135.742 148.643 135.627 147.233C135.334 144.015 135.393 140.775 135.803 137.57C130.377 136.835 125.266 134.59 121.05 131.088C120.554 132.923 117.828 140.944 118.584 142.69C120.008 145.987 126.712 151.388 136.429 151.388Z" fill="#0C0C0C"/>
<path d="M130.921 147.096C120.39 146.149 107.786 139.476 107.604 125.14L107.438 112.205C107.256 97.8684 114.616 86.151 128.076 85.9797C141.535 85.8078 151.742 97.3014 151.924 111.637L151.997 117.364C151.987 119.331 151.845 121.294 151.569 123.242C150.879 128.393 149.808 136.226 146.322 141.525C143.032 146.527 137.648 147.701 130.921 147.096Z" fill="#FAA896"/>
<path d="M135.806 133.992C137.979 134.091 140.145 133.676 142.129 132.781C142.17 132.763 142.207 132.738 142.239 132.706C142.27 132.674 142.295 132.636 142.311 132.595C142.328 132.553 142.336 132.509 142.336 132.464C142.335 132.419 142.326 132.375 142.308 132.334C142.291 132.293 142.265 132.256 142.234 132.224C142.202 132.193 142.164 132.168 142.123 132.152C142.081 132.135 142.037 132.127 141.992 132.127C141.948 132.128 141.904 132.137 141.863 132.155C137.588 133.98 133.707 133.715 130.639 131.381C130.577 131.332 130.513 131.286 130.446 131.243C130.369 131.207 130.281 131.201 130.2 131.226C130.118 131.252 130.05 131.307 130.007 131.381C129.964 131.456 129.951 131.543 129.97 131.626C129.989 131.71 130.038 131.783 130.108 131.832C130.133 131.848 130.173 131.879 130.225 131.921C131.838 133.154 133.782 133.875 135.806 133.992V133.992Z" fill="#0C0C0C"/>
<path d="M135.705 137.222C136.097 137.246 136.491 137.237 136.883 137.194C136.97 137.182 137.05 137.136 137.104 137.067C137.159 136.997 137.184 136.908 137.175 136.82C137.166 136.732 137.122 136.651 137.054 136.594C136.986 136.537 136.899 136.509 136.81 136.516C134.458 136.767 133.335 135.686 133.288 135.64C133.224 135.579 133.138 135.546 133.05 135.547C132.961 135.548 132.877 135.583 132.814 135.646C132.751 135.709 132.715 135.793 132.714 135.882C132.713 135.971 132.746 136.057 132.806 136.121C133.617 136.813 134.641 137.202 135.705 137.222V137.222Z" fill="#0C0C0C"/>
<path d="M147.481 120.121C148.397 120.121 149.139 119.377 149.139 118.458C149.139 117.54 148.397 116.796 147.481 116.796C146.566 116.796 145.823 117.54 145.823 118.458C145.823 119.377 146.566 120.121 147.481 120.121Z" fill="#0C0C0C"/>
<path d="M131.284 119.101C132.2 119.101 132.942 118.357 132.942 117.438C132.942 116.52 132.2 115.776 131.284 115.776C130.368 115.776 129.626 116.52 129.626 117.438C129.626 118.357 130.368 119.101 131.284 119.101Z" fill="#0C0C0C"/>
<path d="M108.494 129.497C104.405 129.549 101.033 125.203 100.98 121.101C100.926 117 104.215 114.695 108.305 114.642L110.448 117.364L112.01 129.452L108.494 129.497Z" fill="#FAA896"/>
<path d="M112.564 122.905C112.564 122.905 113.945 102.62 120.079 101.368C124.164 100.533 134.07 106.344 143.245 104.589C147.259 103.824 151.07 104.818 151.458 106.72C151.611 107.473 154.112 96.6514 147.826 88.4408C142.821 81.9053 126.443 80.0565 118.991 82.1997C98.3587 88.1352 107.463 115.535 107.463 115.535L108.383 122.529L112.564 122.905Z" fill="#0C0C0C"/>
<path d="M138.278 129.205H138.304C139.622 129.192 141.832 129.022 141.823 128.033C141.815 127.214 139.489 118.392 139.224 117.388C139.201 117.302 139.145 117.228 139.068 117.183C138.991 117.139 138.899 117.126 138.813 117.149C138.727 117.172 138.653 117.228 138.609 117.305C138.564 117.383 138.552 117.475 138.574 117.561C139.608 121.468 141.146 127.483 141.152 128.041C141.024 128.277 139.663 128.519 138.298 128.533C138.211 128.533 138.127 128.567 138.064 128.628C138.002 128.689 137.965 128.772 137.963 128.86C137.96 128.947 137.992 129.032 138.051 129.097C138.11 129.162 138.191 129.201 138.278 129.206V129.205Z" fill="#0C0C0C"/>
<path d="M142.776 109.443C144.161 109.061 145.623 109.061 147.009 109.443C147.689 109.627 148.338 109.912 148.934 110.288C149.523 110.658 150.064 111.1 150.542 111.605C150.63 111.695 150.681 111.815 150.683 111.942C150.684 112.068 150.638 112.19 150.552 112.282C150.467 112.375 150.349 112.431 150.223 112.438C150.097 112.446 149.974 112.405 149.878 112.323L149.848 112.297C149.405 111.886 148.912 111.532 148.381 111.244C147.859 110.958 147.298 110.752 146.715 110.635C145.568 110.394 144.378 110.46 143.265 110.828L143.218 110.844C143.127 110.876 143.031 110.89 142.935 110.885C142.838 110.88 142.744 110.856 142.657 110.814C142.57 110.773 142.492 110.714 142.427 110.642C142.363 110.57 142.313 110.486 142.281 110.395C142.249 110.304 142.235 110.207 142.24 110.111C142.245 110.014 142.269 109.919 142.311 109.832C142.352 109.745 142.411 109.667 142.482 109.602C142.554 109.537 142.638 109.487 142.729 109.455C142.744 109.452 142.761 109.447 142.776 109.443Z" fill="#0C0C0C"/>
<path d="M132.967 110.279C131.912 109.766 130.741 109.541 129.573 109.626C128.98 109.665 128.396 109.794 127.841 110.008C127.277 110.223 126.742 110.508 126.248 110.856L126.217 110.877C126.111 110.949 125.981 110.976 125.856 110.953C125.73 110.93 125.618 110.859 125.544 110.754C125.47 110.65 125.44 110.52 125.461 110.394C125.481 110.267 125.55 110.154 125.653 110.077C126.194 109.641 126.788 109.274 127.421 108.987C128.062 108.693 128.744 108.498 129.442 108.406C130.866 108.213 132.315 108.407 133.638 108.971C133.817 109.049 133.957 109.195 134.029 109.377C134.101 109.559 134.097 109.762 134.019 109.942C133.941 110.122 133.796 110.263 133.614 110.335C133.432 110.406 133.23 110.403 133.05 110.325C133.036 110.319 133.023 110.312 133.009 110.305L132.967 110.279Z" fill="#0C0C0C"/>
<path d="M140.804 95.4775C143.832 94.8431 145.531 90.706 144.6 86.2371C143.669 81.7681 140.46 78.6595 137.433 79.2939C134.405 79.9282 132.706 84.0653 133.637 88.5343C134.568 93.0033 137.777 96.1119 140.804 95.4775Z" fill="#0C0C0C"/>
<path d="M309.66 501.889C309.66 501.889 312.808 518.254 328.086 519.166C343.364 520.078 340.051 532.283 340.051 532.283H281.667V503.03L309.66 501.889Z" fill="#EFA30E"/>
<path d="M198.59 491.557C198.59 491.557 194.21 507.634 207.519 515.216C220.828 522.798 212.482 532.283 212.482 532.283L160.094 506.436L172.97 480.187L198.59 491.557Z" fill="#EFA30E"/>
<path d="M166.142 487.016L210.32 347.244H130.241C114.155 347.244 107.45 333.564 107.45 317.432C107.45 301.301 123.263 287.159 139.348 287.159H247.426C257.237 287.159 268.238 293.177 273.622 301.402C279.007 309.627 277.552 322.373 273.651 331.401L202.906 503.719" fill="#262626"/>
<path opacity="0.8" d="M166.142 487.016L210.32 347.244H130.241C114.155 347.244 107.45 333.564 107.45 317.432C107.45 301.301 123.263 287.159 139.348 287.159H247.426C257.237 287.159 268.238 293.177 273.622 301.402C279.007 309.627 277.552 322.373 273.651 331.401L202.906 503.719" fill="#0A0A0A"/>
<path d="M278.31 517.086L204.443 347.244L107.451 347.238C84.723 345.451 74.3151 332.96 74.6456 316.832C74.972 300.908 83.0117 285.18 98.8185 285.18H229.545C241.24 285.421 250.441 298.383 254.779 309.276L316.189 506.688" fill="#262626"/>
<path d="M68.0291 285.375C68.0291 285.375 63.7216 313.546 70.5495 329.209C79.0734 348.762 111.028 347.238 111.028 347.238L109.227 285.18L68.0291 285.375Z" fill="#262626"/>
<path d="M257.557 284.821L189.043 270.583C186.188 269.989 183.529 268.684 181.31 266.786C179.092 264.889 177.387 262.461 176.352 259.727L149.405 188.511C148.597 186.377 148.216 184.103 148.285 181.821C148.353 179.539 148.869 177.292 149.803 175.21C150.737 173.128 152.07 171.251 153.728 169.685C155.385 168.12 157.334 166.897 159.462 166.087C161.591 165.277 163.858 164.895 166.133 164.964C168.409 165.032 170.649 165.55 172.725 166.486C174.802 167.423 176.674 168.761 178.234 170.423C179.795 172.085 181.014 174.039 181.822 176.174L205.395 238.467L264.594 250.769C264.594 250.769 258.746 285.067 257.557 284.821Z" fill="#EFA30E"/>
<path d="M178.314 206.596C177.523 215.918 171.915 274.077 171.152 285.559H68.0737C67.4813 275.203 65.5586 231.234 63.3129 210.983C61.1689 191.658 60.3916 180.63 62.8609 174.625C67.2159 164.033 78.1141 160.222 87.5011 158.947C93.2334 158.169 101.855 157.611 101.855 157.611C101.855 157.611 102.585 172.42 119.991 173.245C143.686 174.363 142.103 157.611 142.22 157.611C146.059 157.611 166.954 160.41 172.178 163.826C179.558 168.649 181.739 175.223 181.825 181.262C181.924 188.216 179.213 196.024 178.314 206.596Z" fill="#EFA30E"/>
<path d="M174.261 254.12C174.253 254.12 174.245 254.12 174.237 254.12C174.159 254.113 174.087 254.076 174.037 254.017C173.987 253.957 173.962 253.88 173.968 253.802L176.644 221.563C176.647 221.524 176.657 221.486 176.674 221.452C176.691 221.417 176.716 221.386 176.745 221.361C176.775 221.336 176.809 221.317 176.847 221.306C176.884 221.294 176.923 221.291 176.961 221.295C177.039 221.301 177.11 221.339 177.161 221.398C177.211 221.458 177.235 221.535 177.229 221.612L174.554 253.851C174.547 253.924 174.514 253.993 174.46 254.042C174.405 254.092 174.335 254.12 174.261 254.12Z" fill="#0C0C0C"/>
<path d="M223.356 273.466L245.974 203.741C246.371 202.515 247.145 201.448 248.185 200.691C249.224 199.933 250.476 199.526 251.761 199.526H343.906C344.866 199.526 345.813 199.754 346.669 200.191C347.525 200.629 348.265 201.263 348.83 202.042C349.394 202.822 349.767 203.724 349.917 204.676C350.067 205.627 349.99 206.601 349.693 207.517L327.075 277.242C326.678 278.468 325.904 279.535 324.864 280.292C323.825 281.05 322.573 281.457 321.288 281.457H229.141C228.181 281.457 227.234 281.229 226.379 280.791C225.523 280.354 224.783 279.719 224.219 278.94C223.655 278.161 223.282 277.258 223.132 276.307C222.982 275.356 223.059 274.382 223.356 273.466V273.466Z" fill="#292A2E"/>
<path d="M223.356 273.466L245.974 203.741C246.371 202.515 247.145 201.448 248.185 200.691C249.224 199.933 250.476 199.526 251.761 199.526H343.906C344.866 199.526 345.813 199.754 346.669 200.191C347.525 200.629 348.265 201.263 348.83 202.042C349.394 202.822 349.767 203.724 349.917 204.676C350.067 205.627 349.99 206.601 349.693 207.517L327.075 277.242C326.678 278.468 325.904 279.535 324.864 280.292C323.825 281.05 322.573 281.457 321.288 281.457H229.141C228.181 281.457 227.234 281.229 226.379 280.791C225.523 280.354 224.783 279.719 224.219 278.94C223.655 278.161 223.282 277.258 223.132 276.307C222.982 275.356 223.059 274.382 223.356 273.466V273.466Z" fill="#292A2E"/>
<path d="M241.807 275.804H180.125C178.588 275.804 177.342 277.053 177.342 278.595V278.667C177.342 280.208 178.588 281.457 180.125 281.457H241.807C243.344 281.457 244.59 280.208 244.59 278.667V278.595C244.59 277.053 243.344 275.804 241.807 275.804Z" fill="#292A2E"/>
<path d="M241.807 275.804H180.125C178.588 275.804 177.342 277.053 177.342 278.595V278.667C177.342 280.208 178.588 281.457 180.125 281.457H241.807C243.344 281.457 244.59 280.208 244.59 278.667V278.595C244.59 277.053 243.344 275.804 241.807 275.804Z" fill="#292A2E"/>
<path d="M218.201 257.133L202.806 251.722L205.017 251.568C205.729 251.505 206.391 251.172 206.868 250.638C207.345 250.104 207.603 249.408 207.588 248.691C207.567 248.321 207.472 247.959 207.307 247.628C207.143 247.296 206.913 247.002 206.631 246.762C206.349 246.523 206.022 246.343 205.669 246.235C205.316 246.126 204.944 246.091 204.577 246.132L177.342 249.034L178.046 257.811C178.266 260.538 179.293 263.136 180.995 265.273C182.696 267.411 184.996 268.99 187.598 269.808L199.392 273.492C200.002 273.696 200.662 273.682 201.262 273.453C201.862 273.224 202.365 272.794 202.685 272.236C202.964 271.726 203.073 271.14 202.996 270.564C202.919 269.988 202.661 269.451 202.259 269.033C202.285 269.014 202.307 268.991 202.323 268.963C202.34 268.936 202.351 268.905 202.355 268.874C202.359 268.842 202.357 268.81 202.349 268.779C202.34 268.748 202.326 268.719 202.306 268.694L204.478 269.377C205.156 269.606 205.895 269.567 206.546 269.27C207.197 268.973 207.711 268.439 207.985 267.776C208.208 267.175 208.213 266.514 207.998 265.909C207.783 265.305 207.362 264.796 206.81 264.472C206.836 264.458 206.858 264.44 206.877 264.417L207.771 264.699C208.38 264.902 209.04 264.888 209.641 264.659C210.241 264.43 210.743 264 211.064 263.442C211.402 262.824 211.488 262.098 211.304 261.416C211.12 260.735 210.68 260.152 210.077 259.789C210.082 259.771 210.085 259.752 210.086 259.734L216.496 261.988C217.138 262.213 217.843 262.174 218.456 261.878C219.069 261.583 219.54 261.055 219.765 260.411C219.99 259.767 219.951 259.06 219.656 258.446C219.361 257.831 218.835 257.359 218.193 257.133H218.201Z" fill="#FAA896"/>
<path opacity="0.2" d="M209.841 259.985C209.812 259.985 209.782 259.98 209.754 259.97L203.553 257.711C203.489 257.688 203.437 257.64 203.409 257.578C203.38 257.517 203.377 257.446 203.401 257.382C203.424 257.318 203.472 257.267 203.533 257.238C203.595 257.21 203.665 257.207 203.729 257.23L209.929 259.491C209.986 259.511 210.033 259.551 210.064 259.603C210.094 259.656 210.104 259.717 210.094 259.776C210.084 259.835 210.053 259.889 210.007 259.928C209.961 259.967 209.903 259.988 209.843 259.988L209.841 259.985Z" fill="#0A0A0A"/>
<path opacity="0.2" d="M206.706 264.507C206.677 264.507 206.649 264.502 206.621 264.492L201.733 262.753C201.702 262.742 201.673 262.724 201.648 262.702C201.623 262.679 201.602 262.652 201.588 262.622C201.574 262.591 201.565 262.558 201.564 262.525C201.562 262.491 201.567 262.458 201.578 262.426C201.589 262.394 201.606 262.365 201.629 262.34C201.651 262.315 201.679 262.295 201.709 262.28C201.739 262.266 201.772 262.257 201.805 262.256C201.839 262.254 201.872 262.259 201.904 262.27L206.792 264.009C206.849 264.03 206.897 264.069 206.927 264.121C206.958 264.174 206.969 264.235 206.959 264.294C206.948 264.354 206.917 264.408 206.871 264.447C206.825 264.486 206.767 264.507 206.706 264.507Z" fill="#0A0A0A"/>
<path opacity="0.2" d="M202.104 269.095C202.073 269.095 202.042 269.089 202.013 269.078L199.723 268.202C199.69 268.191 199.66 268.174 199.634 268.151C199.608 268.128 199.587 268.1 199.573 268.069C199.558 268.038 199.55 268.004 199.548 267.969C199.547 267.935 199.553 267.9 199.565 267.868C199.577 267.835 199.596 267.806 199.62 267.781C199.644 267.756 199.673 267.737 199.704 267.723C199.736 267.71 199.77 267.703 199.805 267.703C199.839 267.703 199.873 267.71 199.905 267.724L202.195 268.6C202.25 268.621 202.297 268.661 202.326 268.713C202.355 268.766 202.365 268.826 202.354 268.885C202.343 268.944 202.312 268.997 202.267 269.035C202.221 269.074 202.163 269.095 202.104 269.095H202.104Z" fill="#0A0A0A"/>
<path d="M189.395 243.84L124.815 243.796L100.385 184.027L63.9394 199.394L94.4217 270.33L94.72 271.037C96.2112 274.485 98.7232 277.39 101.916 279.358C105.108 281.327 108.826 282.264 112.568 282.042L190.374 277.432L189.395 243.84Z" fill="#EFA30E"/>
<path d="M111.497 282.367C107.876 282.361 104.336 281.297 101.309 279.305C98.2816 277.314 95.8984 274.481 94.4505 271.153L94.1517 270.447L68.1788 210.003L68.7177 209.77L94.99 270.921C96.4644 274.308 98.9376 277.161 102.077 279.097C105.216 281.032 108.871 281.957 112.551 281.748L190.072 277.155L189.111 244.134L124.62 244.091L105.833 198.135L106.376 197.912L125.013 243.503L189.68 243.546L190.674 277.71L190.389 277.726L112.584 282.337C112.221 282.357 111.858 282.367 111.497 282.367Z" fill="#0C0C0C"/>
<path d="M499.613 287.1L498.445 287.218L523.195 532.947L524.363 532.829L499.613 287.1Z" fill="#494949"/>
<path d="M39.665 287.102L14.8978 532.83L16.066 532.948L40.8333 287.221L39.665 287.102Z" fill="#494949"/>
<path d="M141.994 287.102L117.227 532.83L118.395 532.948L143.162 287.221L141.994 287.102Z" fill="#494949"/>
<path d="M601.942 287.099L600.774 287.217L625.524 532.946L626.692 532.828L601.942 287.099Z" fill="#494949"/>
<path d="M624.261 282.335H18.9683C16.3115 282.335 14.1577 284.495 14.1577 287.16C14.1577 289.824 16.3115 291.984 18.9683 291.984H624.261C626.918 291.984 629.071 289.824 629.071 287.16C629.071 284.495 626.918 282.335 624.261 282.335Z" fill="#292A2E"/>
<path opacity="0.8" d="M624.261 282.335H18.9683C16.3115 282.335 14.1577 284.495 14.1577 287.16C14.1577 289.824 16.3115 291.984 18.9683 291.984H624.261C626.918 291.984 629.071 289.824 629.071 287.16C629.071 284.495 626.918 282.335 624.261 282.335Z" fill="white"/>
<path d="M624.261 292.573H18.9706C18.2571 292.58 17.5491 292.446 16.8878 292.177C16.2264 291.908 15.6247 291.511 15.1175 291.007C14.6103 290.504 14.2077 289.905 13.9329 289.244C13.6581 288.584 13.5166 287.875 13.5166 287.16C13.5166 286.444 13.6581 285.735 13.9329 285.075C14.2077 284.415 14.6103 283.815 15.1175 283.312C15.6247 282.809 16.2264 282.411 16.8878 282.142C17.5491 281.874 18.2571 281.739 18.9706 281.747H624.261C625.683 281.762 627.042 282.338 628.042 283.352C629.042 284.365 629.603 285.734 629.603 287.16C629.603 288.586 629.042 289.954 628.042 290.967C627.042 291.981 625.683 292.558 624.261 292.573V292.573ZM18.9706 282.924C18.4118 282.918 17.8573 283.022 17.3391 283.232C16.8209 283.442 16.3495 283.753 15.952 284.147C15.5545 284.541 15.2389 285.01 15.0236 285.527C14.8082 286.044 14.6973 286.599 14.6973 287.16C14.6973 287.72 14.8082 288.275 15.0236 288.792C15.2389 289.309 15.5545 289.778 15.952 290.172C16.3495 290.566 16.8209 290.877 17.3391 291.087C17.8573 291.297 18.4118 291.402 18.9706 291.395H624.261C625.373 291.382 626.434 290.93 627.216 290.137C627.997 289.344 628.435 288.274 628.435 287.16C628.435 286.045 627.997 284.975 627.216 284.182C626.434 283.389 625.373 282.937 624.261 282.924H18.9706Z" fill="#292A2E"/>
<path d="M624.261 282.335H125.209C122.552 282.335 120.398 284.495 120.398 287.16C120.398 289.824 122.552 291.984 125.209 291.984H624.261C626.918 291.984 629.072 289.824 629.072 287.16C629.072 284.495 626.918 282.335 624.261 282.335Z" fill="white"/>
<path d="M624.261 292.573H125.208C123.787 292.558 122.428 291.981 121.428 290.967C120.428 289.954 119.867 288.586 119.867 287.16C119.867 285.734 120.428 284.365 121.428 283.352C122.428 282.338 123.787 281.762 125.208 281.747H624.261C625.683 281.762 627.042 282.338 628.042 283.352C629.042 284.365 629.603 285.734 629.603 287.16C629.603 288.586 629.042 289.954 628.042 290.967C627.042 291.981 625.683 292.558 624.261 292.573V292.573ZM125.208 282.924C124.097 282.937 123.035 283.389 122.254 284.182C121.473 284.975 121.035 286.045 121.035 287.16C121.035 288.274 121.473 289.344 122.254 290.137C123.035 290.93 124.097 291.382 125.208 291.395H624.261C625.373 291.382 626.434 290.93 627.216 290.137C627.997 289.344 628.435 288.274 628.435 287.16C628.435 286.045 627.997 284.975 627.216 284.182C626.434 283.389 625.373 282.937 624.261 282.924H125.208Z" fill="#292A2E"/>
</svg>
