<svg width="469" height="466" viewBox="0 0 469 466" fill="none" xmlns="http://www.w3.org/2000/svg">
<g clip-path="url(#clip0_0_352)">
<path opacity="0.1" d="M121.441 445.029C121.496 445.084 121.556 445.139 121.611 445.194H121.356C121.386 445.139 121.41 445.084 121.441 445.029Z" fill="#EFA30E"/>
<path opacity="0.1" d="M414.976 315.65C415.049 362.541 399.513 408.121 370.819 445.194H221.926C236.519 430.901 245.656 410.441 245.656 387.729C245.656 350.652 221.311 319.594 188.628 311.51L217.802 222.398L174.193 190.373L121.897 244.349C105.719 237.907 87.8722 236.97 71.1096 241.684C54.347 246.398 39.6001 256.501 29.1436 270.433C21.1843 262.558 11.0202 257.291 0 255.33C25.9622 167.637 107.085 103.667 203.129 103.667C320.13 103.667 414.976 198.572 414.976 315.65Z" fill="#EFA30E"/>
<path d="M324.921 237.74C324.921 237.74 316.35 230.316 315.164 214.471C314.246 202.203 324.921 210.827 324.921 210.827C324.921 210.827 324.345 201.987 330.664 203.284C336.983 204.581 339.941 214.026 339.941 214.026" fill="#0C0C0C"/>
<path d="M363.571 206.521C363.571 206.521 394.997 212.039 380.68 254.195H372.157" fill="#0C0C0C"/>
<path d="M328.177 298.021C328.317 298.003 329.865 323.704 359.7 321.464C380.356 319.915 387.72 297.985 388.193 297.985C385.966 297.512 382.216 296.823 381.227 296.294C377.975 294.545 373.95 292.726 372.902 286.405C372.298 282.762 373.323 264.126 373.007 260.439L341.302 267.521C341.745 275.305 344.846 293.352 333.978 296.546C332.17 297.074 330.223 297.56 328.177 298.021Z" fill="#FAA896"/>
<path opacity="0.52" d="M340.857 289.171C341.354 287.569 341.674 285.918 341.811 284.246C342.16 280.432 342.091 276.592 341.604 272.793C348.048 271.923 354.119 269.262 359.127 265.111C359.716 267.286 362.954 276.794 362.057 278.861C360.363 282.77 352.4 289.171 340.857 289.171Z" fill="#0C0C0C"/>
<path d="M346.487 282.961C359.043 282.678 374.509 275.789 375.859 258.85L377.076 243.567C378.426 226.628 370.628 212.187 354.694 210.914C338.756 209.642 325.749 222.419 324.401 239.36L323.861 246.126C323.716 248.453 323.73 250.787 323.902 253.112C324.312 259.26 324.96 268.606 328.673 275.148C332.176 281.326 338.464 283.142 346.487 282.961Z" fill="#FAA896"/>
<path d="M329.126 249.75C330.214 249.75 331.095 248.867 331.095 247.779C331.095 246.691 330.214 245.809 329.126 245.809C328.039 245.809 327.157 246.691 327.157 247.779C327.157 248.867 328.039 249.75 329.126 249.75Z" fill="#0C0C0C"/>
<path d="M347.207 249.874C348.294 249.874 349.176 248.992 349.176 247.903C349.176 246.815 348.294 245.933 347.207 245.933C346.119 245.933 345.238 246.815 345.238 247.903C345.238 248.992 346.119 249.874 347.207 249.874Z" fill="#0C0C0C"/>
<path d="M374.455 263.932C379.298 264.318 383.64 259.447 384.025 254.6C384.409 249.753 380.698 246.767 375.855 246.382L373.1 249.431L370.291 263.601L374.455 263.932Z" fill="#FAA896"/>
<path d="M370.155 255.814C370.155 255.814 370.124 231.715 362.955 229.747C358.179 228.435 345.98 234.52 335.245 231.715C330.549 230.489 325.954 231.364 325.343 233.582C325.1 234.46 322.995 221.468 331.095 212.255C337.543 204.922 357.1 204.037 365.761 207.168C389.743 215.827 376.784 247.504 376.784 247.504L375.141 255.701L370.155 255.814Z" fill="#0C0C0C"/>
<g opacity="0.52">
<path opacity="0.52" d="M338.865 261.627H338.834C337.273 261.505 334.667 261.13 334.758 259.962C334.834 258.993 338.286 248.745 338.682 247.58C338.718 247.483 338.791 247.405 338.884 247.361C338.978 247.317 339.085 247.311 339.182 247.344C339.28 247.377 339.361 247.447 339.409 247.538C339.456 247.63 339.467 247.737 339.437 247.836C337.904 252.374 335.605 259.364 335.553 260.023C335.686 260.31 337.28 260.706 338.899 260.831C339.001 260.839 339.097 260.886 339.166 260.963C339.234 261.04 339.27 261.141 339.266 261.244C339.263 261.347 339.219 261.444 339.145 261.516C339.071 261.588 338.973 261.628 338.87 261.628L338.865 261.627Z" fill="#0C0C0C"/>
</g>
<path d="M335.372 237.594C333.781 237.035 332.069 236.916 330.416 237.249C329.603 237.408 328.818 237.688 328.088 238.08C327.365 238.464 326.694 238.938 326.09 239.49C325.993 239.577 325.932 239.698 325.922 239.828C325.911 239.958 325.951 240.087 326.034 240.188C326.116 240.289 326.234 240.355 326.363 240.372C326.492 240.388 326.623 240.354 326.728 240.276L326.76 240.252C327.32 239.794 327.936 239.408 328.592 239.104C329.239 238.8 329.927 238.596 330.635 238.499C332.033 238.295 333.46 238.465 334.771 238.991L334.821 239.012C335.004 239.078 335.206 239.071 335.384 238.993C335.562 238.915 335.704 238.772 335.779 238.593C335.855 238.414 335.86 238.212 335.792 238.03C335.724 237.847 335.589 237.698 335.414 237.612C335.4 237.605 335.385 237.599 335.372 237.594Z" fill="#0C0C0C"/>
<path d="M346.931 239.156C348.243 238.63 349.67 238.46 351.068 238.664C351.775 238.763 352.464 238.968 353.11 239.273C353.767 239.577 354.382 239.963 354.943 240.421L354.974 240.445C355.078 240.525 355.21 240.561 355.341 240.546C355.471 240.53 355.591 240.465 355.674 240.362C355.757 240.26 355.797 240.13 355.786 239.998C355.774 239.867 355.712 239.745 355.612 239.659C355.008 239.107 354.337 238.633 353.615 238.248C352.885 237.857 352.1 237.577 351.287 237.418C349.634 237.084 347.922 237.203 346.33 237.762C346.14 237.83 345.985 237.971 345.899 238.154C345.813 238.336 345.803 238.546 345.871 238.736C345.939 238.926 346.08 239.081 346.263 239.167C346.445 239.254 346.654 239.264 346.844 239.195L346.882 239.181L346.931 239.156Z" fill="#0C0C0C"/>
<path d="M336.952 265.595C341.494 266.12 346.08 265.115 349.987 262.741C350.123 262.659 350.279 262.617 350.437 262.621C350.595 262.625 350.749 262.674 350.88 262.762C351.012 262.85 351.115 262.973 351.179 263.118C351.243 263.263 351.264 263.423 351.241 263.579C350.806 266.258 349.233 271.146 343.557 271.501C339.892 271.73 337.386 268.8 336.146 266.874C336.059 266.741 336.013 266.586 336.012 266.426C336.01 266.267 336.055 266.111 336.14 265.977C336.225 265.842 336.346 265.734 336.49 265.667C336.634 265.599 336.794 265.575 336.952 265.595V265.595Z" fill="white"/>
<path d="M347.903 213.494C349.36 208.283 347.674 203.255 344.136 202.265C340.598 201.274 336.549 204.695 335.092 209.906C333.634 215.116 335.321 220.144 338.859 221.135C342.396 222.125 346.446 218.704 347.903 213.494Z" fill="#0C0C0C"/>
<path d="M360.293 315.054C381.031 314.076 381.904 296.462 381.904 296.462C381.904 296.462 392.179 297.126 399.01 298.051C410.193 299.565 417.571 303.36 423.441 309.235C428.903 314.701 432.228 320.613 428.709 358.366C426.162 385.698 427.955 445.828 427.955 445.828H302.797C302.797 445.828 295.292 367.019 294.246 354.714C292.249 331.223 290.628 310.76 295.501 305.882C305.521 295.856 325.186 296.462 333.798 296.463C333.939 296.463 332.051 316.387 360.293 315.054Z" fill="#EFA30E"/>
<path d="M177.634 445.017L268.028 445.464C272.365 445.151 276.521 443.603 280.009 441.004C283.496 438.405 286.168 434.862 287.71 430.794L332.293 331.814C334.44 326.154 334.251 319.872 331.77 314.351C329.288 308.83 324.716 304.521 319.06 302.373C307.28 297.9 295.651 300.907 291.181 312.694L250.219 400.978L175.802 402.189C175.802 402.189 177.076 445.058 177.634 445.017Z" fill="#EFA30E"/>
<path d="M296.015 360.205C296.01 360.124 295.973 360.049 295.912 359.995C295.852 359.942 295.772 359.915 295.692 359.92C295.611 359.925 295.536 359.962 295.482 360.023C295.429 360.083 295.401 360.163 295.407 360.243L297.951 400.924C297.956 400.997 297.986 401.066 298.038 401.118C298.089 401.171 298.158 401.203 298.231 401.209H298.273C298.354 401.204 298.429 401.167 298.483 401.106C298.536 401.046 298.563 400.966 298.558 400.886" fill="#0C0C0C"/>
<path d="M280.599 403.832L298.93 397.403L296.298 397.22C295.45 397.145 294.662 396.749 294.094 396.115C293.525 395.48 293.219 394.653 293.237 393.801C293.261 393.361 293.374 392.931 293.57 392.537C293.766 392.142 294.04 391.792 294.375 391.507C294.711 391.222 295.101 391.009 295.521 390.88C295.942 390.751 296.385 390.709 296.822 390.757L329.252 394.206L328.41 404.635C328.148 407.874 326.926 410.962 324.899 413.501C322.872 416.041 320.134 417.917 317.035 418.888L302.994 423.268C302.269 423.51 301.482 423.493 300.767 423.221C300.053 422.949 299.454 422.438 299.073 421.775C298.741 421.169 298.611 420.473 298.703 419.789C298.794 419.104 299.102 418.467 299.581 417.969C299.55 417.947 299.524 417.919 299.505 417.886C299.485 417.854 299.472 417.818 299.467 417.78C299.461 417.742 299.464 417.704 299.474 417.667C299.484 417.63 299.501 417.596 299.525 417.566L296.936 418.378C296.128 418.65 295.248 418.604 294.473 418.251C293.698 417.898 293.086 417.263 292.76 416.475C292.494 415.762 292.488 414.977 292.743 414.258C292.998 413.54 293.498 412.935 294.155 412.55C294.125 412.533 294.098 412.512 294.075 412.486L293.011 412.819C292.286 413.061 291.499 413.045 290.785 412.773C290.07 412.501 289.471 411.99 289.09 411.327C288.687 410.592 288.584 409.729 288.803 408.92C289.022 408.111 289.546 407.418 290.265 406.987C290.259 406.965 290.255 406.943 290.255 406.92L282.621 409.599C281.857 409.867 281.018 409.82 280.288 409.469C279.558 409.117 278.997 408.49 278.729 407.726C278.462 406.961 278.508 406.121 278.859 405.39C279.21 404.66 279.837 404.099 280.601 403.831L280.599 403.832Z" fill="#FAA896"/>
<path opacity="0.2" d="M290.554 407.219C290.589 407.219 290.624 407.213 290.658 407.201L298.042 404.514C298.118 404.486 298.179 404.43 298.213 404.357C298.247 404.283 298.251 404.2 298.224 404.124C298.196 404.048 298.139 403.986 298.066 403.952C297.993 403.918 297.909 403.914 297.834 403.942L290.449 406.629C290.382 406.653 290.326 406.7 290.29 406.762C290.254 406.824 290.241 406.897 290.254 406.968C290.266 407.038 290.303 407.102 290.358 407.148C290.413 407.194 290.482 407.219 290.554 407.219V407.219Z" fill="#0A0A0A"/>
<path opacity="0.2" d="M294.286 412.592C294.321 412.592 294.355 412.586 294.388 412.574L300.208 410.508C300.285 410.481 300.347 410.424 300.382 410.352C300.416 410.279 300.421 410.195 300.394 410.119C300.367 410.043 300.311 409.98 300.238 409.946C300.165 409.911 300.081 409.906 300.005 409.933L294.184 412C294.117 412.024 294.059 412.071 294.023 412.133C293.986 412.195 293.973 412.268 293.985 412.339C293.997 412.41 294.034 412.474 294.089 412.521C294.144 412.567 294.214 412.592 294.286 412.592V412.592Z" fill="#0A0A0A"/>
<path opacity="0.2" d="M299.77 418.043C299.807 418.043 299.844 418.036 299.878 418.023L302.602 416.981C302.639 416.967 302.674 416.946 302.704 416.918C302.733 416.891 302.757 416.858 302.774 416.821C302.79 416.784 302.8 416.745 302.801 416.704C302.802 416.664 302.795 416.624 302.781 416.586C302.767 416.549 302.745 416.514 302.717 416.485C302.689 416.456 302.656 416.432 302.619 416.416C302.582 416.4 302.542 416.391 302.502 416.391C302.462 416.39 302.422 416.397 302.384 416.412L299.659 417.453C299.592 417.478 299.537 417.526 299.502 417.588C299.467 417.65 299.455 417.722 299.468 417.792C299.481 417.862 299.518 417.925 299.572 417.971C299.627 418.016 299.696 418.041 299.767 418.041L299.77 418.043Z" fill="#0A0A0A"/>
<path d="M315.666 426.538L429.319 445.39C432.823 445.772 436.368 445.336 439.675 444.116C442.982 442.897 445.962 440.927 448.38 438.362C450.799 435.796 452.59 432.705 453.615 429.33C454.639 425.955 454.867 422.389 454.283 418.91L430.047 321.757C429.55 318.801 428.476 315.971 426.886 313.431C425.297 310.89 423.222 308.687 420.782 306.948C415.854 303.437 409.733 302.029 403.767 303.033C397.801 304.037 392.478 307.372 388.969 312.304C385.46 317.236 384.053 323.361 385.056 329.331L403.644 397.044L321.06 385.753L315.666 426.538Z" fill="#EFA30E"/>
<path d="M418.458 399.166C418.535 399.166 418.608 399.136 418.664 399.084C418.72 399.032 418.754 398.961 418.76 398.884C418.765 398.808 418.742 398.733 418.695 398.673C418.647 398.613 418.579 398.573 418.503 398.561L404.337 396.438C404.297 396.431 404.257 396.433 404.218 396.442C404.179 396.452 404.142 396.469 404.11 396.493C404.077 396.517 404.05 396.547 404.03 396.581C404.009 396.616 403.996 396.654 403.99 396.694C403.984 396.733 403.986 396.773 403.996 396.812C404.006 396.851 404.023 396.888 404.047 396.92C404.07 396.952 404.1 396.979 404.135 397C404.169 397.02 404.207 397.034 404.246 397.04L418.413 399.163C418.428 399.165 418.443 399.166 418.458 399.166V399.166Z" fill="#0C0C0C"/>
<path d="M426.156 445.828C426.196 445.83 426.236 445.825 426.274 445.812C426.311 445.799 426.346 445.779 426.376 445.753C426.406 445.726 426.431 445.694 426.449 445.658C426.466 445.622 426.477 445.583 426.479 445.543C426.482 445.503 426.476 445.463 426.464 445.425C426.451 445.387 426.43 445.352 426.404 445.322C426.377 445.292 426.345 445.267 426.309 445.25C426.274 445.232 426.235 445.222 426.195 445.219L316.303 426.304L321.63 386.128L403.644 397.042C403.691 397.047 403.739 397.042 403.783 397.026C403.828 397.011 403.869 396.985 403.902 396.951C403.935 396.917 403.96 396.875 403.974 396.83C403.988 396.784 403.992 396.736 403.984 396.689L395.109 358.375C395.103 358.335 395.089 358.297 395.068 358.263C395.047 358.229 395.019 358.199 394.986 358.176C394.954 358.152 394.917 358.136 394.877 358.127C394.838 358.119 394.798 358.118 394.758 358.125C394.679 358.138 394.608 358.183 394.561 358.249C394.514 358.314 394.495 358.396 394.509 358.476L403.315 396.384L321.401 385.482C321.361 385.477 321.32 385.479 321.281 385.49C321.241 385.501 321.205 385.519 321.173 385.545C321.141 385.57 321.114 385.601 321.095 385.637C321.075 385.672 321.063 385.711 321.059 385.752L315.666 426.537C315.657 426.616 315.68 426.695 315.729 426.757C315.778 426.82 315.85 426.86 315.929 426.871L426.114 445.825C426.128 445.827 426.142 445.828 426.156 445.828V445.828Z" fill="#0C0C0C"/>
<path d="M2.35592 446.437H468.39C468.552 446.437 468.707 446.373 468.821 446.258C468.935 446.144 468.999 445.989 468.999 445.828C468.999 445.666 468.935 445.512 468.821 445.397C468.707 445.283 468.552 445.219 468.39 445.219H2.35592C2.19459 445.219 2.03986 445.283 1.92579 445.397C1.81171 445.512 1.74762 445.666 1.74762 445.828C1.74762 445.989 1.81171 446.144 1.92579 446.258C2.03986 446.373 2.19459 446.437 2.35592 446.437V446.437Z" fill="#292A2E"/>
<path d="M221.926 445.194C208.756 458.111 191.134 466 171.766 466C152.397 466 134.787 458.105 121.611 445.194H221.926Z" fill="white"/>
<path d="M203.966 193.829C198.493 190.335 192.387 187.954 185.995 186.822C179.603 185.69 173.051 185.829 166.713 187.231C160.375 188.633 154.374 191.27 149.054 194.992C143.735 198.715 139.2 203.449 135.709 208.926L135.662 208.999C135.263 209.635 134.687 210.139 134.004 210.448C133.321 210.758 132.562 210.859 131.822 210.74C131.082 210.621 130.393 210.286 129.842 209.778C129.291 209.27 128.901 208.61 128.722 207.882C125.541 195.159 127.753 179.307 135.358 167.377C149.993 144.42 188.051 127.473 210.978 142.139" fill="#FD870E"/>
<path d="M202.274 192.749C207.746 196.242 212.478 200.78 216.198 206.103C219.918 211.427 222.554 217.431 223.955 223.774C225.357 230.116 225.496 236.673 224.365 243.07C223.234 249.466 220.855 255.577 217.364 261.054L217.317 261.127C216.909 261.756 216.695 262.492 216.703 263.242C216.71 263.993 216.938 264.724 217.358 265.345C217.778 265.967 218.372 266.451 219.065 266.737C219.758 267.022 220.52 267.098 221.256 266.953C234.128 264.476 247.558 255.789 255.164 243.858C269.799 220.901 269.115 179.221 246.161 164.597" fill="#FD870E"/>
<path d="M325.019 63.6732C320.426 86.2048 311.708 107.692 299.305 127.05C275.087 165.043 244.947 193.382 220.991 216.769L174.195 186.895C185.779 155.612 198.264 116.003 222.483 78.0125C234.798 58.5974 250.596 41.6293 269.079 27.9645" fill="#292A2E"/>
<path d="M267.451 119.782C282.648 119.782 294.967 107.454 294.967 92.2465C294.967 77.0391 282.648 64.7111 267.451 64.7111C252.254 64.7111 239.935 77.0391 239.935 92.2465C239.935 107.454 252.254 119.782 267.451 119.782Z" fill="#FD870E"/>
<path d="M221.73 216.241L174.541 186.116L170.614 192.275L217.804 222.4L221.73 216.241Z" fill="#292A2E"/>
<path d="M325.019 63.6733L269.076 27.9614C299.305 5.64415 326.258 0 326.258 0C326.258 0 332.502 26.8371 325.019 63.6733Z" fill="#FD870E"/>
<path d="M214.679 188.957C200.298 211.514 178.757 240.449 176.416 238.953C174.076 237.457 191.215 205.716 205.594 183.157C219.974 160.597 226.148 155.771 228.491 157.266C230.834 158.762 229.058 166.4 214.679 188.957Z" fill="#FD870E"/>
<path d="M232.845 435.486L205.313 350.795C204.829 349.307 203.887 348.01 202.622 347.091C201.357 346.171 199.833 345.676 198.269 345.676H86.1036C84.9343 345.676 83.7817 345.953 82.7399 346.484C81.6981 347.015 80.7968 347.786 80.1097 348.733C79.4225 349.679 78.9691 350.775 78.7865 351.931C78.6038 353.087 78.6972 354.269 79.0589 355.382L106.591 440.073C107.074 441.561 108.017 442.858 109.282 443.778C110.547 444.697 112.071 445.193 113.635 445.193H225.801C226.97 445.193 228.123 444.916 229.164 444.384C230.206 443.853 231.108 443.083 231.795 442.136C232.482 441.189 232.935 440.093 233.118 438.937C233.3 437.781 233.207 436.599 232.845 435.486V435.486Z" fill="#292A2E"/>
<path d="M285.426 438.326H210.43C208.535 438.326 206.999 439.863 206.999 441.759C206.999 443.656 208.535 445.193 210.43 445.193H285.426C287.321 445.193 288.858 443.656 288.858 441.759C288.858 439.863 287.321 438.326 285.426 438.326Z" fill="#292A2E"/>
</g>
<defs>
<clipPath id="clip0_0_352">
<rect width="469" height="466" fill="white"/>
</clipPath>
</defs>
</svg>
