<svg width="720" height="543" viewBox="0 0 720 543" fill="none" xmlns="http://www.w3.org/2000/svg">
<path d="M154.049 349.063H148.492V449.759H154.049V349.063Z" fill="#DEE8F5"/>
<path d="M148.157 281.113C166.06 281.113 180.573 266.608 180.573 248.715C180.573 230.822 166.06 216.317 148.157 216.317C130.253 216.317 115.74 230.822 115.74 248.715C115.74 266.608 130.253 281.113 148.157 281.113Z" fill="#E1F4F5"/>
<path d="M167.089 371.467C183.076 371.467 196.037 358.514 196.037 342.536C196.037 326.558 183.076 313.604 167.089 313.604C151.101 313.604 138.14 326.558 138.14 342.536C138.14 358.514 151.101 371.467 167.089 371.467Z" fill="#E1F4F5"/>
<path d="M132.588 373.424C149.657 373.424 163.495 359.595 163.495 342.536C163.495 325.477 149.657 311.648 132.588 311.648C115.519 311.648 101.682 325.477 101.682 342.536C101.682 359.595 115.519 373.424 132.588 373.424Z" fill="#E1F4F5"/>
<path d="M171.106 307.079C185.455 307.079 197.087 295.453 197.087 281.113C197.087 266.772 185.455 255.146 171.106 255.146C156.757 255.146 145.124 266.772 145.124 281.113C145.124 295.453 156.757 307.079 171.106 307.079Z" fill="#E1F4F5"/>
<path d="M151.271 322.678C165.62 322.678 177.252 311.052 177.252 296.711C177.252 282.371 165.62 270.745 151.271 270.745C136.922 270.745 125.289 282.371 125.289 296.711C125.289 311.052 136.922 322.678 151.271 322.678Z" fill="#E1F4F5"/>
<path d="M182.22 333.045C196.569 333.045 208.202 321.42 208.202 307.079C208.202 292.738 196.569 281.113 182.22 281.113C167.871 281.113 156.239 292.738 156.239 307.079C156.239 321.42 167.871 333.045 182.22 333.045Z" fill="#E1F4F5"/>
<path d="M119.142 306.155C133.491 306.155 145.123 294.529 145.123 280.188C145.123 265.848 133.491 254.222 119.142 254.222C104.793 254.222 93.1606 265.848 93.1606 280.188C93.1606 294.529 104.793 306.155 119.142 306.155Z" fill="#E1F4F5"/>
<path d="M119.142 338.372C133.491 338.372 145.123 326.747 145.123 312.406C145.123 298.065 133.491 286.44 119.142 286.44C104.793 286.44 93.1606 298.065 93.1606 312.406C93.1606 326.747 104.793 338.372 119.142 338.372Z" fill="#E1F4F5"/>
<path d="M247.214 449.763H133.067C124.694 443.084 124.117 428.037 132.798 421.318C139.488 416.139 149.601 417.524 155.888 422.911C154.713 418.901 154.69 414.641 155.821 410.619C157.866 403.372 162.41 396.015 169.35 393.086C187.057 385.618 199.642 401.264 202.161 410.012C206.694 403.349 216.837 399.827 223.202 404.313C231.266 409.993 230.901 418.951 224.469 425.378C233.039 423.78 239.494 425.013 245.439 431.39C249.962 436.243 250.655 444.514 247.214 449.763Z" fill="#E1F4F5"/>
<path d="M705.979 0.568848H97.5612C89.2769 0.568848 82.5612 7.28457 82.5612 15.5688V499.693C82.5612 507.977 89.2769 514.693 97.5612 514.693H705.979C714.264 514.693 720.979 507.977 720.979 499.693V15.5688C720.979 7.28458 714.264 0.568848 705.979 0.568848Z" fill="#F3F5FD"/>
<path d="M714.896 484.561H618.776C618.537 484.561 618.343 484.968 618.343 485.469V512.844C618.343 513.345 618.537 513.751 618.776 513.751H714.896C715.136 513.751 715.33 513.345 715.33 512.844V485.469C715.33 484.968 715.136 484.561 714.896 484.561Z" fill="#C1D8ED"/>
<path d="M415.895 505.277H616.46V168.177H415.895V505.277Z" fill="#DEE8F5"/>
<path d="M435.241 363.463C432.528 363.463 430.334 361.277 430.334 358.585V323.273C430.334 320.582 432.528 318.395 435.241 318.395C437.954 318.395 440.148 320.582 440.148 323.273V358.585C440.148 361.277 437.954 363.463 435.241 363.463Z" fill="#FAFAFA" stroke="#EFA30E"/>
<path d="M508.417 333.988L508.454 333.978L508.497 333.984L508.527 333.988L508.544 333.998L508.588 334.031L508.611 334.054L508.638 334.111L508.741 334.377L508.798 334.729V335.529L508.713 336.271L508.557 336.974L508.325 337.641L508.003 338.293L507.59 338.937L507.086 339.588L506.505 340.223L506.287 340.362L506.113 340.429L506.006 340.437L505.937 340.416L505.86 340.36L505.765 340.234L505.675 340.002L505.6 339.65L505.553 339.022L505.565 338.396L505.663 337.786L505.853 337.169L505.981 336.857L506.136 336.533L506.322 336.205L506.53 335.872L506.772 335.523L507.044 335.181L507.364 334.82L507.365 334.819L507.696 334.447L507.859 334.298L508.019 334.179L508.168 334.091L508.297 334.025L508.417 333.988Z" stroke="#EFA30E"/>
<path d="M523.501 338.105L523.374 337.79L523.254 337.443L523.152 337.086L523.065 336.691L523.065 336.69L522.974 336.273L522.926 335.843L522.888 335.366L522.87 334.868L522.886 334.636L522.919 334.434L522.962 334.248L523.007 334.105L523.05 334.004L523.071 333.973L523.107 333.944L523.132 333.927L523.159 333.919L523.215 333.91H523.266L523.324 333.924L523.561 334.032L523.84 334.241L524.417 334.806L524.895 335.392L525.267 335.991L525.589 336.636L525.81 337.304L525.98 338.053L526.084 338.876L526.119 339.756L526.071 340.012L525.995 340.175L525.91 340.277L525.847 340.312L525.756 340.326L525.6 340.305L525.371 340.206L525.082 340.022L524.603 339.621L524.182 339.16L523.799 338.654L523.501 338.105Z" stroke="#EFA30E"/>
<path d="M523.347 298.941H523.292L523.289 298.94L523.275 298.932L523.242 298.905L523.214 298.871L523.173 298.791L523.077 298.543L523.036 298.197L523.054 297.385L523.139 296.622L523.306 295.924L523.543 295.278L523.885 294.63L524.297 293.999L524.817 293.356L525.422 292.728L525.631 292.591L525.795 292.536L525.921 292.53L526.01 292.555L526.078 292.605L526.176 292.742L526.264 292.97L526.322 293.304L526.358 293.926L526.322 294.557L526.222 295.178L526.022 295.786L525.884 296.113L525.734 296.439L525.555 296.755L525.337 297.076L525.071 297.413L525.07 297.415L524.789 297.768L524.473 298.125L524.131 298.489L523.948 298.641L523.791 298.754L523.637 298.855L523.53 298.9L523.437 298.93L523.347 298.941Z" stroke="#EFA30E"/>
<path d="M508.888 297.346L508.888 297.346L508.889 297.351L508.907 297.86L508.89 298.098L508.864 298.293L508.815 298.481L508.775 298.622L508.74 298.698L508.706 298.741L508.674 298.772L508.648 298.785L508.621 298.797H508.606H508.543L508.476 298.774L508.214 298.655L507.939 298.454L507.386 297.889L506.925 297.308L506.553 296.69L506.248 296.057L506.028 295.372L505.876 294.631L505.784 293.799L505.754 292.914L505.8 292.673L505.896 292.496L505.978 292.384L506.025 292.356L506.103 292.345L506.277 292.378L506.499 292.471L506.801 292.663L507.261 293.064L507.676 293.518L508.028 294.039L508.333 294.619L508.463 294.941L508.579 295.259L508.668 295.63L508.755 296.023L508.822 296.444L508.876 296.875L508.888 297.346Z" stroke="#EFA30E"/>
<path d="M538.706 325.248L539.346 325.84L539.482 326.053L539.549 326.236L539.557 326.343L539.537 326.405L539.471 326.488L539.336 326.591L539.102 326.683L538.774 326.763L538.169 326.81L537.55 326.774L536.93 326.673L536.329 326.489L536.012 326.352L535.69 326.202L535.377 326.021L535.048 325.793L534.7 325.542L534.349 325.262L534.004 324.964L533.639 324.614L533.487 324.444L533.368 324.283L533.28 324.131L533.211 323.992L533.18 323.9L533.171 323.838V323.799L533.197 323.759L533.23 323.711L533.265 323.682L533.329 323.641L533.562 323.563L533.921 323.504H534.718L535.454 323.589L536.146 323.74L536.798 323.979L537.443 324.304L538.057 324.718L538.706 325.248Z" stroke="#EFA30E"/>
<path d="M498.291 323.556L498.354 323.619L498.361 323.629L498.363 323.636L498.365 323.654L498.334 323.838L498.234 324.064L498.029 324.343L497.475 324.902L496.876 325.372L496.278 325.765L495.665 326.051L494.977 326.276L494.24 326.447L493.426 326.534L492.551 326.57L492.3 326.521L492.136 326.444L492.038 326.362L492.004 326.301L491.991 326.21L492.02 326.045L492.113 325.804L492.308 325.502L492.706 325.029L493.162 324.61L493.661 324.236L494.216 323.939L494.529 323.828L494.529 323.828L494.884 323.702L495.24 323.598L495.618 323.507L496.021 323.442L496.45 323.405L496.935 323.373L497.432 323.354L497.667 323.371L497.858 323.397L498.043 323.447L498.179 323.486L498.247 323.519L498.291 323.556Z" stroke="#EFA30E"/>
<mask id="path-21-inside-1_33_2" fill="white">
<path fill-rule="evenodd" clip-rule="evenodd" d="M571.553 315.044L571.502 313.603L571.437 312.18L571.308 310.758L571.165 309.349L570.965 307.946L570.745 306.556L570.467 305.173L570.144 303.823L569.833 302.472L569.497 301.122L569.109 299.817L568.689 298.512L568.23 297.207L567.758 295.902L567.24 294.643L566.691 293.384L566.122 292.144L565.488 290.95L564.841 289.75L564.195 288.562L563.516 287.401L562.804 286.253L562.074 285.124L561.304 283.982L560.522 282.912L559.713 281.836L558.866 280.785L558.006 279.748L557.127 278.763L556.209 277.784L555.271 276.805L554.314 275.866L553.331 274.952L552.361 274.065L551.333 273.197L550.292 272.343L549.225 271.534L548.158 270.738L547.059 269.961L545.94 269.218L544.802 268.5L543.632 267.815L542.455 267.162L541.265 266.51L540.056 265.903L538.827 265.329L537.598 264.775L536.305 264.259L535.012 263.776L533.719 263.313L532.425 262.889L531.132 262.498L529.839 262.132L528.513 261.799L527.162 261.506L525.784 261.225L524.407 261.003L523.036 260.801L521.646 260.677L520.256 260.547L518.827 260.455L517.397 260.397H515.968H514.539L513.104 260.455L511.694 260.547L510.284 260.677L508.894 260.821L507.497 261.023L506.127 261.245L504.756 261.525L503.385 261.799L502.046 262.119L500.708 262.485L499.415 262.876L498.121 263.3L496.828 263.763L495.535 264.246L494.287 264.761L493.039 265.316L491.81 265.89L490.607 266.517L489.417 267.169L488.241 267.821L487.09 268.506L485.952 269.224L484.852 269.961L483.734 270.738L482.673 271.534L481.606 272.343L480.565 273.197L479.537 274.065L478.548 274.952L477.578 275.879L476.621 276.805L475.689 277.784L474.771 278.763L473.892 279.761L473.032 280.798L472.185 281.849L471.383 282.925L470.594 283.982L469.824 285.124L469.087 286.253L468.376 287.401L467.697 288.549L467.05 289.737L466.404 290.937L465.802 292.138L465.233 293.377L464.684 294.636L464.173 295.896L463.694 297.2L463.235 298.505L462.815 299.81L462.427 301.115L462.065 302.466L461.748 303.816L461.457 305.167L461.185 306.55L460.965 307.939L460.759 309.342L460.623 310.732L460.493 312.154L460.403 313.576L460.345 315.018V316.467L460.383 318.294L460.455 320.127L460.603 321.941L460.804 323.715L461.062 325.49L461.373 327.245L461.722 329L462.155 330.729L462.614 332.432L463.125 334.095L463.694 335.74L464.341 337.371L464.988 338.976L465.699 340.548L466.449 342.107L467.257 343.621L467.496 344.065L467.755 344.489L468.744 346.041L469.786 347.581L470.865 349.095L472.004 350.595L473.148 352.07L474.357 353.551L475.586 355.012L476.879 356.454L478.172 357.896L479.466 359.325L482.175 362.13L484.962 364.923L487.807 367.702L493.562 373.209L496.427 375.975L499.305 378.728L502.124 381.501L504.892 384.293L507.588 387.125L508.881 388.547L510.175 389.989L510.543 390.42L510.912 390.824L511.28 391.196L511.662 391.549L512.03 391.862L512.393 392.136L512.761 392.397L513.13 392.619L513.498 392.821L513.86 392.99L514.229 393.134L514.61 393.245L515.348 393.395L516.078 393.434L516.816 393.356L517.546 393.193L518.277 392.912L519.014 392.527L519.764 392.044L520.495 391.47L521.232 390.785L521.963 390.009L523.321 388.417L524.73 386.851L526.159 385.292L527.627 383.739L530.615 380.692L533.66 377.678L536.758 374.716L539.836 371.793L542.914 368.89L545.921 366.045L547.389 364.636L548.837 363.233L550.266 361.824L551.637 360.441L552.995 359.051L554.288 357.681L555.581 356.298L556.81 354.947L557.968 353.577L559.08 352.226L560.127 350.876L561.097 349.525L562.015 348.221L562.856 346.916L563.626 345.611L564.324 344.306L564.512 343.973L564.693 343.64L565.501 342.12L566.264 340.457L566.962 338.884L567.609 337.299L568.256 335.668L568.825 334.024L569.335 332.36L569.795 330.677L570.215 328.974L570.564 327.232L570.874 325.496L571.133 323.722L571.334 321.947L571.482 320.133L571.553 318.32L571.592 316.493L571.553 315.044ZM473.491 310.001V309.479L473.568 308.925L473.678 308.331L473.859 307.32L474.079 306.302L474.319 305.284L474.59 304.266L474.888 303.248L475.25 302.25L475.612 301.232L476 300.195L476.42 299.177L476.86 298.146L477.338 297.129L477.83 296.091L478.916 294.036L480.106 291.968L480.397 291.466L480.694 291.022L481.024 290.637L481.373 290.304L481.716 290.024L482.085 289.802L482.473 289.639L482.848 289.508L483.236 289.45H483.656L484.057 289.508L484.477 289.639L484.904 289.821L485.324 290.082L485.745 290.396L486.165 290.767L502.764 307.222L503.165 307.705L503.475 308.187L503.715 308.683L503.844 309.205L503.915 309.721V310.223L503.825 310.719L503.663 311.202L503.424 311.645L503.113 312.069L502.745 312.461L502.305 312.794L501.807 313.087L501.257 313.329L500.675 313.511L500.029 313.622L477.396 313.792L476.789 313.713L476.22 313.603L475.728 313.459L475.288 313.25L474.9 313.028L474.551 312.774L474.26 312.474L474.021 312.141L473.795 311.795L473.652 311.384L473.543 310.96L473.491 310.497V310.001ZM486.727 341.827L486.236 342.199L485.758 342.512L485.298 342.773L484.859 342.955L484.419 343.066L483.999 343.119H483.578L483.177 343.047L482.789 342.936L482.401 342.753L482.039 342.512L481.671 342.231L481.302 341.885L480.959 341.494L480.63 341.05L480.261 340.548L479.699 339.7L479.129 338.832L478.599 337.925L478.082 337.018L477.59 336.072L477.112 335.113L476.653 334.135L476.233 333.136L475.812 332.099L475.405 331.062L474.655 328.902L474.008 326.677L473.4 324.368L473.258 323.813L473.148 323.278V322.776V322.299V321.823L473.258 321.399L473.407 321.008L473.607 320.655L473.846 320.342L474.144 320.062L474.474 319.807L474.855 319.605L475.295 319.435L475.773 319.324L476.284 319.253L476.853 319.213L500.132 319.122L500.779 319.174L501.348 319.285L501.865 319.494L502.324 319.748L502.725 320.081L503.055 320.453L503.327 320.858L503.547 321.321L503.695 321.823L503.773 322.319V322.874L503.702 323.415L503.553 323.983L503.333 324.537L503.023 325.092L502.641 325.633L486.727 341.827ZM513.033 355.789L512.903 356.363L512.761 356.865L512.574 357.309L512.354 357.713L512.102 358.046L511.804 358.34L511.474 358.581L511.112 358.783L510.705 358.933L510.284 359.025L509.825 359.084H509.347H508.817L508.267 358.992L507.698 358.881L506.689 358.692L505.68 358.47L504.678 358.216L503.669 357.935L502.661 357.642L501.6 357.27L500.591 356.917L499.563 356.513L498.554 356.089L497.546 355.639L495.541 354.64L493.485 353.551L491.454 352.35L490.956 352.057L490.517 351.737L490.135 351.404L489.799 351.072L489.527 350.706L489.314 350.334L489.146 349.963L489.036 349.578L488.984 349.167V348.762L489.055 348.338L489.185 347.927L489.366 347.503L489.605 347.079L489.922 346.655L490.303 346.231L506.657 329.528L507.129 329.124L507.607 328.804L508.118 328.582L508.616 328.439L509.127 328.38H509.644L510.116 328.471L510.595 328.661L511.035 328.896L511.455 329.196L511.843 329.581L512.173 330.011L512.464 330.507L512.703 331.062L512.865 331.675L512.974 332.327L513.084 355.162L513.033 355.789ZM513.091 301.232L512.962 301.807L512.761 302.322L512.502 302.785L512.173 303.19L511.804 303.522L511.403 303.803L510.944 304.025L510.446 304.175L509.935 304.247H509.36L508.849 304.208L508.28 304.057L507.73 303.836L507.181 303.522L506.65 303.131L490.646 286.97L490.278 286.494L489.961 286.011L489.721 285.548L489.54 285.085L489.437 284.635L489.379 284.21V283.806L489.437 283.395L489.566 282.99L489.747 282.599L489.967 282.234L490.258 281.862L490.588 281.509L490.976 281.157L491.416 280.824L491.907 280.492L492.754 279.917L493.614 279.35L494.487 278.815L495.386 278.299L496.317 277.797L497.274 277.34L498.263 276.877L499.253 276.433L500.307 276.009L501.329 275.618L503.475 274.881L505.693 274.196L507.982 273.602L508.539 273.452L509.069 273.361L509.56 273.321H510.039L510.498 273.38L510.899 273.491L511.287 273.641L511.649 273.843L511.966 274.085L512.237 274.378L512.477 274.711L512.677 275.103L512.845 275.546L512.968 276.022L513.046 276.544V277.119L513.097 300.606L513.091 301.232ZM519.059 277.673L519.156 277.06L519.279 276.505L519.428 275.99L519.628 275.546L519.868 275.155L520.126 274.822L520.417 274.528L520.747 274.307L521.116 274.104L521.517 273.974L521.937 273.882L522.396 273.824H522.939L523.45 273.882L524 273.954L524.569 274.085L525.577 274.287L526.586 274.528L527.576 274.783L528.584 275.083L529.593 275.396L530.602 275.748L531.611 276.133L532.619 276.544L533.622 276.988L534.579 277.458L535.587 277.954L536.616 278.476L538.633 279.598L540.664 280.837L541.161 281.138L541.601 281.451L541.97 281.803L542.3 282.136L542.571 282.501L542.791 282.873L542.959 283.264L543.069 283.669L543.101 284.06V284.465L543.024 284.889L542.894 285.294L542.694 285.724L542.442 286.148L542.125 286.553L541.743 286.977L525.138 303.418L524.659 303.829L524.161 304.123L523.65 304.345L523.14 304.495L522.622 304.534H522.111L521.633 304.423L521.161 304.253L520.721 303.992L520.294 303.679L519.932 303.294L519.603 302.85L519.305 302.348L519.085 301.794L518.924 301.187L518.833 300.534L519.059 277.673ZM542.629 348.671L542.571 349.095L542.448 349.486L542.28 349.871L542.041 350.243L541.769 350.608L541.42 350.98L541.032 351.333L540.592 351.665L540.101 351.998L539.254 352.592L538.394 353.14L537.514 353.675L536.616 354.21L535.684 354.725L534.727 355.208L533.757 355.691L532.768 356.135L531.759 356.559L530.731 356.983L528.604 357.74L526.405 358.444L524.116 359.097L523.566 359.24L523.036 359.351L522.538 359.39H522.047L521.607 359.351L521.18 359.24L520.799 359.097L520.45 358.907L520.12 358.666L519.842 358.372L519.59 358.02L519.389 357.648L519.221 357.205L519.092 356.728L519.021 356.206L518.982 355.632L518.671 332.145L518.71 331.492L518.84 330.918L519.021 330.403L519.279 329.939L519.59 329.535L519.952 329.183L520.378 328.902L520.838 328.68L521.31 328.537L521.827 328.458H522.357L522.907 328.537L523.456 328.667L524.026 328.889L524.575 329.183L525.125 329.568L541.291 345.493L541.692 345.963L542.009 346.446L542.261 346.903L542.448 347.366L542.571 347.81L542.629 348.234V348.671ZM558.065 323.128L558.026 323.663L557.955 324.218L557.825 324.792L557.644 325.81L557.424 326.821L557.166 327.839L556.888 328.856L556.564 329.842L556.215 330.859L555.853 331.877L555.465 332.895L555.025 333.913L554.624 334.95L554.127 335.961L553.635 336.999L552.536 339.054L551.327 341.103L551.029 341.605L550.719 342.049L550.389 342.44L550.059 342.773L549.691 343.047L549.328 343.269L548.94 343.438L548.559 343.549H548.152H547.751L547.35 343.477L546.923 343.347L546.503 343.164L546.102 342.903L545.681 342.59L545.255 342.199L528.759 325.646L528.358 325.164L528.061 324.661L527.828 324.165L527.698 323.65L527.64 323.128V322.632L527.75 322.13L527.918 321.667L528.151 321.203L528.468 320.799L528.83 320.407L529.27 320.075L529.768 319.781L530.317 319.559L530.919 319.396L531.565 319.285H554.198L554.805 319.357L555.375 319.487L555.866 319.631L556.306 319.84L556.694 320.062L557.043 320.316L557.334 320.616L557.573 320.949L557.754 321.314L557.903 321.725L557.993 322.149L558.052 322.613L558.065 323.128ZM558.504 310.608L558.446 311.071L558.356 311.476L558.194 311.867L558.006 312.239L557.754 312.552L557.457 312.826L557.127 313.068L556.745 313.27L556.306 313.439L555.827 313.57L555.316 313.642H554.747L531.468 313.681L530.822 313.622L530.253 313.492L529.742 313.289L529.283 313.028L528.901 312.715L528.552 312.343L528.274 311.919L528.073 311.456L527.925 310.96L527.834 310.438V309.903L527.912 309.349L528.054 308.794L528.274 308.24L528.584 307.665L528.972 307.13L544.977 291.022L545.468 290.657L545.947 290.337L546.406 290.102L546.865 289.913L547.304 289.802L547.725 289.75H548.158L548.565 289.821L548.947 289.932L549.335 290.115L549.697 290.356L550.066 290.637L550.415 290.989L550.764 291.374L551.094 291.818L551.424 292.32L551.993 293.168L552.562 294.056L553.092 294.943L553.603 295.869L554.101 296.809L554.56 297.775L555.012 298.753L555.459 299.751L555.879 300.789L556.26 301.826L556.648 302.896L556.998 303.986L557.644 306.224L558.226 308.54L558.375 309.094L558.465 309.629L558.504 310.125V310.608Z"/>
</mask>
<path fill-rule="evenodd" clip-rule="evenodd" d="M571.553 315.044L571.502 313.603L571.437 312.18L571.308 310.758L571.165 309.349L570.965 307.946L570.745 306.556L570.467 305.173L570.144 303.823L569.833 302.472L569.497 301.122L569.109 299.817L568.689 298.512L568.23 297.207L567.758 295.902L567.24 294.643L566.691 293.384L566.122 292.144L565.488 290.95L564.841 289.75L564.195 288.562L563.516 287.401L562.804 286.253L562.074 285.124L561.304 283.982L560.522 282.912L559.713 281.836L558.866 280.785L558.006 279.748L557.127 278.763L556.209 277.784L555.271 276.805L554.314 275.866L553.331 274.952L552.361 274.065L551.333 273.197L550.292 272.343L549.225 271.534L548.158 270.738L547.059 269.961L545.94 269.218L544.802 268.5L543.632 267.815L542.455 267.162L541.265 266.51L540.056 265.903L538.827 265.329L537.598 264.775L536.305 264.259L535.012 263.776L533.719 263.313L532.425 262.889L531.132 262.498L529.839 262.132L528.513 261.799L527.162 261.506L525.784 261.225L524.407 261.003L523.036 260.801L521.646 260.677L520.256 260.547L518.827 260.455L517.397 260.397H515.968H514.539L513.104 260.455L511.694 260.547L510.284 260.677L508.894 260.821L507.497 261.023L506.127 261.245L504.756 261.525L503.385 261.799L502.046 262.119L500.708 262.485L499.415 262.876L498.121 263.3L496.828 263.763L495.535 264.246L494.287 264.761L493.039 265.316L491.81 265.89L490.607 266.517L489.417 267.169L488.241 267.821L487.09 268.506L485.952 269.224L484.852 269.961L483.734 270.738L482.673 271.534L481.606 272.343L480.565 273.197L479.537 274.065L478.548 274.952L477.578 275.879L476.621 276.805L475.689 277.784L474.771 278.763L473.892 279.761L473.032 280.798L472.185 281.849L471.383 282.925L470.594 283.982L469.824 285.124L469.087 286.253L468.376 287.401L467.697 288.549L467.05 289.737L466.404 290.937L465.802 292.138L465.233 293.377L464.684 294.636L464.173 295.896L463.694 297.2L463.235 298.505L462.815 299.81L462.427 301.115L462.065 302.466L461.748 303.816L461.457 305.167L461.185 306.55L460.965 307.939L460.759 309.342L460.623 310.732L460.493 312.154L460.403 313.576L460.345 315.018V316.467L460.383 318.294L460.455 320.127L460.603 321.941L460.804 323.715L461.062 325.49L461.373 327.245L461.722 329L462.155 330.729L462.614 332.432L463.125 334.095L463.694 335.74L464.341 337.371L464.988 338.976L465.699 340.548L466.449 342.107L467.257 343.621L467.496 344.065L467.755 344.489L468.744 346.041L469.786 347.581L470.865 349.095L472.004 350.595L473.148 352.07L474.357 353.551L475.586 355.012L476.879 356.454L478.172 357.896L479.466 359.325L482.175 362.13L484.962 364.923L487.807 367.702L493.562 373.209L496.427 375.975L499.305 378.728L502.124 381.501L504.892 384.293L507.588 387.125L508.881 388.547L510.175 389.989L510.543 390.42L510.912 390.824L511.28 391.196L511.662 391.549L512.03 391.862L512.393 392.136L512.761 392.397L513.13 392.619L513.498 392.821L513.86 392.99L514.229 393.134L514.61 393.245L515.348 393.395L516.078 393.434L516.816 393.356L517.546 393.193L518.277 392.912L519.014 392.527L519.764 392.044L520.495 391.47L521.232 390.785L521.963 390.009L523.321 388.417L524.73 386.851L526.159 385.292L527.627 383.739L530.615 380.692L533.66 377.678L536.758 374.716L539.836 371.793L542.914 368.89L545.921 366.045L547.389 364.636L548.837 363.233L550.266 361.824L551.637 360.441L552.995 359.051L554.288 357.681L555.581 356.298L556.81 354.947L557.968 353.577L559.08 352.226L560.127 350.876L561.097 349.525L562.015 348.221L562.856 346.916L563.626 345.611L564.324 344.306L564.512 343.973L564.693 343.64L565.501 342.12L566.264 340.457L566.962 338.884L567.609 337.299L568.256 335.668L568.825 334.024L569.335 332.36L569.795 330.677L570.215 328.974L570.564 327.232L570.874 325.496L571.133 323.722L571.334 321.947L571.482 320.133L571.553 318.32L571.592 316.493L571.553 315.044ZM473.491 310.001V309.479L473.568 308.925L473.678 308.331L473.859 307.32L474.079 306.302L474.319 305.284L474.59 304.266L474.888 303.248L475.25 302.25L475.612 301.232L476 300.195L476.42 299.177L476.86 298.146L477.338 297.129L477.83 296.091L478.916 294.036L480.106 291.968L480.397 291.466L480.694 291.022L481.024 290.637L481.373 290.304L481.716 290.024L482.085 289.802L482.473 289.639L482.848 289.508L483.236 289.45H483.656L484.057 289.508L484.477 289.639L484.904 289.821L485.324 290.082L485.745 290.396L486.165 290.767L502.764 307.222L503.165 307.705L503.475 308.187L503.715 308.683L503.844 309.205L503.915 309.721V310.223L503.825 310.719L503.663 311.202L503.424 311.645L503.113 312.069L502.745 312.461L502.305 312.794L501.807 313.087L501.257 313.329L500.675 313.511L500.029 313.622L477.396 313.792L476.789 313.713L476.22 313.603L475.728 313.459L475.288 313.25L474.9 313.028L474.551 312.774L474.26 312.474L474.021 312.141L473.795 311.795L473.652 311.384L473.543 310.96L473.491 310.497V310.001ZM486.727 341.827L486.236 342.199L485.758 342.512L485.298 342.773L484.859 342.955L484.419 343.066L483.999 343.119H483.578L483.177 343.047L482.789 342.936L482.401 342.753L482.039 342.512L481.671 342.231L481.302 341.885L480.959 341.494L480.63 341.05L480.261 340.548L479.699 339.7L479.129 338.832L478.599 337.925L478.082 337.018L477.59 336.072L477.112 335.113L476.653 334.135L476.233 333.136L475.812 332.099L475.405 331.062L474.655 328.902L474.008 326.677L473.4 324.368L473.258 323.813L473.148 323.278V322.776V322.299V321.823L473.258 321.399L473.407 321.008L473.607 320.655L473.846 320.342L474.144 320.062L474.474 319.807L474.855 319.605L475.295 319.435L475.773 319.324L476.284 319.253L476.853 319.213L500.132 319.122L500.779 319.174L501.348 319.285L501.865 319.494L502.324 319.748L502.725 320.081L503.055 320.453L503.327 320.858L503.547 321.321L503.695 321.823L503.773 322.319V322.874L503.702 323.415L503.553 323.983L503.333 324.537L503.023 325.092L502.641 325.633L486.727 341.827ZM513.033 355.789L512.903 356.363L512.761 356.865L512.574 357.309L512.354 357.713L512.102 358.046L511.804 358.34L511.474 358.581L511.112 358.783L510.705 358.933L510.284 359.025L509.825 359.084H509.347H508.817L508.267 358.992L507.698 358.881L506.689 358.692L505.68 358.47L504.678 358.216L503.669 357.935L502.661 357.642L501.6 357.27L500.591 356.917L499.563 356.513L498.554 356.089L497.546 355.639L495.541 354.64L493.485 353.551L491.454 352.35L490.956 352.057L490.517 351.737L490.135 351.404L489.799 351.072L489.527 350.706L489.314 350.334L489.146 349.963L489.036 349.578L488.984 349.167V348.762L489.055 348.338L489.185 347.927L489.366 347.503L489.605 347.079L489.922 346.655L490.303 346.231L506.657 329.528L507.129 329.124L507.607 328.804L508.118 328.582L508.616 328.439L509.127 328.38H509.644L510.116 328.471L510.595 328.661L511.035 328.896L511.455 329.196L511.843 329.581L512.173 330.011L512.464 330.507L512.703 331.062L512.865 331.675L512.974 332.327L513.084 355.162L513.033 355.789ZM513.091 301.232L512.962 301.807L512.761 302.322L512.502 302.785L512.173 303.19L511.804 303.522L511.403 303.803L510.944 304.025L510.446 304.175L509.935 304.247H509.36L508.849 304.208L508.28 304.057L507.73 303.836L507.181 303.522L506.65 303.131L490.646 286.97L490.278 286.494L489.961 286.011L489.721 285.548L489.54 285.085L489.437 284.635L489.379 284.21V283.806L489.437 283.395L489.566 282.99L489.747 282.599L489.967 282.234L490.258 281.862L490.588 281.509L490.976 281.157L491.416 280.824L491.907 280.492L492.754 279.917L493.614 279.35L494.487 278.815L495.386 278.299L496.317 277.797L497.274 277.34L498.263 276.877L499.253 276.433L500.307 276.009L501.329 275.618L503.475 274.881L505.693 274.196L507.982 273.602L508.539 273.452L509.069 273.361L509.56 273.321H510.039L510.498 273.38L510.899 273.491L511.287 273.641L511.649 273.843L511.966 274.085L512.237 274.378L512.477 274.711L512.677 275.103L512.845 275.546L512.968 276.022L513.046 276.544V277.119L513.097 300.606L513.091 301.232ZM519.059 277.673L519.156 277.06L519.279 276.505L519.428 275.99L519.628 275.546L519.868 275.155L520.126 274.822L520.417 274.528L520.747 274.307L521.116 274.104L521.517 273.974L521.937 273.882L522.396 273.824H522.939L523.45 273.882L524 273.954L524.569 274.085L525.577 274.287L526.586 274.528L527.576 274.783L528.584 275.083L529.593 275.396L530.602 275.748L531.611 276.133L532.619 276.544L533.622 276.988L534.579 277.458L535.587 277.954L536.616 278.476L538.633 279.598L540.664 280.837L541.161 281.138L541.601 281.451L541.97 281.803L542.3 282.136L542.571 282.501L542.791 282.873L542.959 283.264L543.069 283.669L543.101 284.06V284.465L543.024 284.889L542.894 285.294L542.694 285.724L542.442 286.148L542.125 286.553L541.743 286.977L525.138 303.418L524.659 303.829L524.161 304.123L523.65 304.345L523.14 304.495L522.622 304.534H522.111L521.633 304.423L521.161 304.253L520.721 303.992L520.294 303.679L519.932 303.294L519.603 302.85L519.305 302.348L519.085 301.794L518.924 301.187L518.833 300.534L519.059 277.673ZM542.629 348.671L542.571 349.095L542.448 349.486L542.28 349.871L542.041 350.243L541.769 350.608L541.42 350.98L541.032 351.333L540.592 351.665L540.101 351.998L539.254 352.592L538.394 353.14L537.514 353.675L536.616 354.21L535.684 354.725L534.727 355.208L533.757 355.691L532.768 356.135L531.759 356.559L530.731 356.983L528.604 357.74L526.405 358.444L524.116 359.097L523.566 359.24L523.036 359.351L522.538 359.39H522.047L521.607 359.351L521.18 359.24L520.799 359.097L520.45 358.907L520.12 358.666L519.842 358.372L519.59 358.02L519.389 357.648L519.221 357.205L519.092 356.728L519.021 356.206L518.982 355.632L518.671 332.145L518.71 331.492L518.84 330.918L519.021 330.403L519.279 329.939L519.59 329.535L519.952 329.183L520.378 328.902L520.838 328.68L521.31 328.537L521.827 328.458H522.357L522.907 328.537L523.456 328.667L524.026 328.889L524.575 329.183L525.125 329.568L541.291 345.493L541.692 345.963L542.009 346.446L542.261 346.903L542.448 347.366L542.571 347.81L542.629 348.234V348.671ZM558.065 323.128L558.026 323.663L557.955 324.218L557.825 324.792L557.644 325.81L557.424 326.821L557.166 327.839L556.888 328.856L556.564 329.842L556.215 330.859L555.853 331.877L555.465 332.895L555.025 333.913L554.624 334.95L554.127 335.961L553.635 336.999L552.536 339.054L551.327 341.103L551.029 341.605L550.719 342.049L550.389 342.44L550.059 342.773L549.691 343.047L549.328 343.269L548.94 343.438L548.559 343.549H548.152H547.751L547.35 343.477L546.923 343.347L546.503 343.164L546.102 342.903L545.681 342.59L545.255 342.199L528.759 325.646L528.358 325.164L528.061 324.661L527.828 324.165L527.698 323.65L527.64 323.128V322.632L527.75 322.13L527.918 321.667L528.151 321.203L528.468 320.799L528.83 320.407L529.27 320.075L529.768 319.781L530.317 319.559L530.919 319.396L531.565 319.285H554.198L554.805 319.357L555.375 319.487L555.866 319.631L556.306 319.84L556.694 320.062L557.043 320.316L557.334 320.616L557.573 320.949L557.754 321.314L557.903 321.725L557.993 322.149L558.052 322.613L558.065 323.128ZM558.504 310.608L558.446 311.071L558.356 311.476L558.194 311.867L558.006 312.239L557.754 312.552L557.457 312.826L557.127 313.068L556.745 313.27L556.306 313.439L555.827 313.57L555.316 313.642H554.747L531.468 313.681L530.822 313.622L530.253 313.492L529.742 313.289L529.283 313.028L528.901 312.715L528.552 312.343L528.274 311.919L528.073 311.456L527.925 310.96L527.834 310.438V309.903L527.912 309.349L528.054 308.794L528.274 308.24L528.584 307.665L528.972 307.13L544.977 291.022L545.468 290.657L545.947 290.337L546.406 290.102L546.865 289.913L547.304 289.802L547.725 289.75H548.158L548.565 289.821L548.947 289.932L549.335 290.115L549.697 290.356L550.066 290.637L550.415 290.989L550.764 291.374L551.094 291.818L551.424 292.32L551.993 293.168L552.562 294.056L553.092 294.943L553.603 295.869L554.101 296.809L554.56 297.775L555.012 298.753L555.459 299.751L555.879 300.789L556.26 301.826L556.648 302.896L556.998 303.986L557.644 306.224L558.226 308.54L558.375 309.094L558.465 309.629L558.504 310.125V310.608Z" stroke="#EFA30E" stroke-width="2" mask="url(#path-21-inside-1_33_2)"/>
<path d="M497.523 307.963L497.523 307.963L497.525 307.965L497.894 308.3L498.04 308.462L498.161 308.633L498.25 308.782L498.317 308.917L498.349 309.01L498.358 309.071V309.115L498.353 309.129L498.341 309.153L498.313 309.187L498.255 309.235L498.205 309.27L497.96 309.348L497.615 309.413H496.825L496.07 309.339L495.377 309.189L494.726 308.967L494.083 308.643L493.446 308.227L492.8 307.717L492.165 307.129L492.027 306.909L491.96 306.73L491.953 306.624L491.981 306.536L492.043 306.44L492.155 306.351L492.381 306.266L492.733 306.184L493.347 306.137L493.965 306.154L494.56 306.255L495.182 306.44L495.497 306.575L495.819 306.726L496.144 306.914L496.481 307.121L496.811 307.367L497.179 307.646L497.523 307.963Z" stroke="#EFA30E"/>
<path d="M539.333 306.317L539.491 306.393L539.595 306.48L539.632 306.543L539.644 306.623L539.61 306.793L539.522 307.032L539.33 307.315L538.926 307.807L538.475 308.226L537.958 308.6L537.389 308.905L537.083 309.031L536.762 309.133L536.378 309.239L536.004 309.331L535.588 309.398L535.166 309.446L534.688 309.465L534.687 309.465L534.184 309.484L533.957 309.468L533.763 309.435L533.564 309.389L533.437 309.353L533.369 309.32L533.324 309.283L533.284 309.242L533.273 309.221L533.266 309.204V309.168V309.099L533.287 309.031L533.403 308.772L533.602 308.494L534.165 307.931L534.741 307.447L535.349 307.074L535.975 306.766L536.654 306.544L537.391 306.385L538.207 306.299L539.083 306.269L539.333 306.317Z" stroke="#EFA30E"/>
<path d="M480.163 222.245L480.036 220.956L481.194 221.075L482.903 221.333L484.569 221.624L486.183 221.972L487.755 222.391L489.28 222.848L490.737 223.375L492.168 223.961L493.559 224.585L494.893 225.271L496.172 226.016L497.419 226.819L498.609 227.672L499.76 228.584L500.86 229.545L501.909 230.566L502.916 231.639L503.889 232.768L504.793 233.951L505.679 235.192L506.506 236.502L507.285 237.854L508.013 239.259L508.715 240.721L509.354 242.254L509.949 243.831L510.513 245.478L511.018 247.163L511.473 248.902L511.89 250.721L512.256 252.573L512.473 253.853L511.239 253.71L509.406 253.412L507.623 253.082L505.898 252.7L504.21 252.281L502.603 251.786L501.043 251.237L499.544 250.652L498.096 249.995L496.707 249.307L495.371 248.544L494.09 247.74L492.863 246.886L491.693 245.976L490.575 245.014L489.514 243.995L488.503 242.924L487.549 241.794L486.646 240.627L485.802 239.396L485.007 238.101L484.287 236.771L483.6 235.37L482.987 233.928L482.407 232.436L481.903 230.864L481.429 229.258L481.034 227.597L480.688 225.852L480.393 224.075L480.163 222.245Z" stroke="#EFA30E"/>
<path d="M540.966 231.415L541.669 231.335L541.614 231.954L541.455 233.154L541.258 234.323L541.022 235.446L540.749 236.545L540.443 237.616L540.101 238.647L539.728 239.641L539.299 240.597L538.828 241.546L538.341 242.452L537.806 243.316L537.239 244.143L536.608 244.958L535.959 245.721L535.285 246.477L534.552 247.173L533.778 247.845L532.972 248.498L532.13 249.118L531.252 249.711L530.333 250.254L529.381 250.779L528.369 251.274L527.343 251.749L526.269 252.183L525.147 252.562L525.145 252.563L523.983 252.95L522.791 253.278L521.565 253.587L520.275 253.858L519.624 253.977L519.697 253.317L519.857 252.021L520.073 250.782L520.328 249.561L520.622 248.396L520.94 247.266L521.303 246.174L521.684 245.123L522.113 244.111L522.594 243.133L523.101 242.187L523.639 241.299L524.209 240.431L524.817 239.608L525.479 238.832L526.159 238.089L526.875 237.366L527.641 236.707L528.445 236.068L529.271 235.477L530.149 234.916L531.057 234.394L532.007 233.921L532.998 233.466L534.022 233.051L535.08 232.687L536.178 232.361L537.318 232.071L538.49 231.814L539.721 231.596L540.966 231.415Z" stroke="white"/>
<path fill-rule="evenodd" clip-rule="evenodd" d="M542.221 230.769L542.111 232.009L541.949 233.229L541.749 234.416L541.51 235.558L541.232 236.674L540.921 237.763L540.572 238.814L540.191 239.832L539.751 240.81L539.272 241.776L538.774 242.702L538.225 243.59L537.643 244.438L536.996 245.273L536.337 246.049L535.645 246.826L534.888 247.543L534.099 248.228L533.278 248.894L532.418 249.527L531.519 250.133L530.582 250.688L529.612 251.223L528.583 251.725L527.542 252.208L526.443 252.652L525.305 253.037L524.128 253.428L522.919 253.761L521.677 254.074L520.371 254.348L519.052 254.59L519.201 253.259L519.362 251.947L519.582 250.688L519.841 249.448L520.138 248.268L520.462 247.119L520.83 246.01L521.218 244.94L521.658 243.903L522.149 242.905L522.667 241.939L523.216 241.032L523.798 240.145L524.426 239.297L525.105 238.501L525.796 237.744L526.534 237L527.323 236.321L528.144 235.669L528.991 235.062L529.89 234.488L530.821 233.953L531.791 233.47L532.8 233.007L533.847 232.583L534.927 232.211L536.046 231.878L537.203 231.585L538.393 231.324L539.641 231.102L540.902 230.919L542.221 230.769Z" stroke="#EFA30E" stroke-miterlimit="10"/>
<path d="M405.102 484.561H99.9449C99.1849 484.561 98.5688 484.968 98.5688 485.469V512.844C98.5688 513.345 99.1849 513.751 99.9449 513.751H405.102C405.862 513.751 406.478 513.345 406.478 512.844V485.469C406.478 484.968 405.862 484.561 405.102 484.561Z" fill="#C1D8ED"/>
<path d="M406.025 162.568L403.172 513.781L626.329 515.594L629.182 164.381L406.025 162.568ZM614.794 502.27L414.818 500.646L417.464 174.916L617.44 176.541L614.794 502.27Z" fill="#FAFAFA"/>
<path d="M307.114 532.333L325.76 530.116C324.92 523.063 323.974 514.592 323.908 513.202C323.908 513.292 323.908 513.364 323.908 513.421H305.135C305.135 513.984 305.135 515.695 307.114 532.333Z" fill="#FAA896"/>
<path d="M381.93 534.575L400.706 534.514C400.706 534.514 400.644 515.137 400.644 513.421H381.867C381.867 515.142 381.93 534.575 381.93 534.575Z" fill="#FAA896"/>
<path d="M333.265 526.403L300.187 525.84C301.562 491.023 301.795 451.2 302.166 415.164C302.268 406.232 302.943 397.316 304.186 388.47C309.509 350.293 312.976 312.332 320.145 274.377L320.384 274.448L321.083 269.686L389.104 265.49L392.647 309.909C392.647 309.909 401.507 463.561 405.548 525.341L372.582 528.125C366.643 467.552 357.452 379.291 351.798 315.658C345.304 346.639 340.896 378.717 335.245 409.432C334.113 447.88 333.16 488.073 333.265 526.403Z" fill="#262626"/>
<path d="M359.103 541.833C358.598 541.83 358.099 541.724 357.638 541.52C357.176 541.316 356.761 541.019 356.419 540.648C356.077 540.277 355.816 539.839 355.65 539.363C355.485 538.886 355.419 538.381 355.458 537.878V537.878C355.512 537.18 355.765 536.513 356.186 535.954C356.607 535.395 357.18 534.969 357.836 534.724L379.689 527.408C380.113 527.268 380.562 527.221 381.005 527.27C381.448 527.32 381.876 527.464 382.258 527.694C385.262 529.777 388.856 530.842 392.511 530.733C395.358 530.531 398.091 529.533 400.398 527.853C400.601 527.687 400.847 527.582 401.108 527.55C401.368 527.518 401.633 527.561 401.87 527.674C402.107 527.787 402.307 527.965 402.446 528.187C402.586 528.409 402.659 528.667 402.658 528.929V539.609C402.658 539.924 402.596 540.236 402.475 540.527C402.354 540.818 402.176 541.082 401.953 541.305C401.729 541.527 401.464 541.703 401.173 541.823C400.881 541.942 400.569 542.003 400.253 542.002L359.103 541.833Z" fill="#EFA30E"/>
<path d="M284.238 541.833C283.733 541.831 283.234 541.724 282.773 541.52C282.311 541.316 281.896 541.019 281.554 540.648C281.212 540.277 280.95 539.839 280.785 539.363C280.62 538.886 280.554 538.381 280.593 537.878V537.878C280.648 537.181 280.9 536.514 281.321 535.955C281.742 535.396 282.314 534.969 282.969 534.724L304.824 527.408C305.248 527.268 305.696 527.221 306.139 527.27C306.583 527.32 307.01 527.464 307.392 527.694C310.397 529.777 313.991 530.842 317.646 530.733C320.493 530.531 323.226 529.533 325.533 527.854C325.736 527.687 325.982 527.582 326.242 527.55C326.503 527.518 326.767 527.561 327.004 527.674C327.241 527.787 327.441 527.965 327.581 528.187C327.72 528.409 327.794 528.667 327.792 528.929V539.61C327.792 539.925 327.73 540.236 327.609 540.527C327.488 540.818 327.31 541.082 327.087 541.304C326.864 541.527 326.599 541.703 326.307 541.822C326.016 541.942 325.703 542.003 325.388 542.002L284.238 541.833Z" fill="#EFA30E"/>
<path d="M369.256 171.907C369.256 171.907 362.162 168.148 363.746 148.842L349.089 146.125C349.089 146.125 350.736 163.435 343.317 168.927L369.256 171.907Z" fill="#FAA896"/>
<g opacity="0.2">
<path opacity="0.2" d="M346.325 165.312L358.501 156.002L348.937 155.903C348.66 159.174 347.774 162.366 346.325 165.312V165.312Z" fill="black"/>
</g>
<path d="M372.062 141.356C371.048 147.213 367.847 152.759 362.68 154.652C357.045 156.887 350.948 157.71 344.921 157.049C328.875 155.735 332.05 119.272 339.667 112.19C347.284 105.108 369.642 109.591 372.362 121.439C373.768 127.566 373.028 135.78 372.062 141.356Z" fill="#FAA896"/>
<path d="M349.11 136.843C349.844 136.843 350.439 136.248 350.439 135.515C350.439 134.781 349.844 134.186 349.11 134.186C348.375 134.186 347.78 134.781 347.78 135.515C347.78 136.248 348.375 136.843 349.11 136.843Z" fill="#0F1011"/>
<path d="M338.622 135.984C339.356 135.984 339.951 135.389 339.951 134.655C339.951 133.921 339.356 133.327 338.622 133.327C337.888 133.327 337.293 133.921 337.293 134.655C337.293 135.389 337.888 135.984 338.622 135.984Z" fill="#0F1011"/>
<path d="M336.322 131.824H336.33L339.851 131.78C340.006 131.764 340.149 131.69 340.252 131.574C340.356 131.458 340.413 131.308 340.412 131.152C340.411 130.997 340.352 130.847 340.247 130.732C340.142 130.618 339.998 130.546 339.843 130.532H339.835L336.313 130.576C336.159 130.592 336.016 130.666 335.912 130.782C335.808 130.898 335.751 131.048 335.752 131.204C335.753 131.359 335.812 131.509 335.917 131.624C336.022 131.738 336.167 131.81 336.322 131.824V131.824Z" fill="#0F1011"/>
<path d="M351.98 133.108C352.129 133.102 352.272 133.044 352.382 132.942C352.493 132.841 352.563 132.703 352.58 132.554C352.598 132.406 352.562 132.255 352.478 132.131C352.395 132.007 352.269 131.916 352.125 131.876L348.653 131.042C348.499 131.021 348.342 131.057 348.214 131.145C348.085 131.233 347.994 131.365 347.957 131.516C347.921 131.667 347.942 131.827 348.016 131.963C348.09 132.1 348.213 132.204 348.36 132.255L351.833 133.09C351.881 133.102 351.93 133.108 351.98 133.108Z" fill="#0F1011"/>
<path d="M362.888 153.951C363.192 154.926 363.406 155.351 364.283 154.829C367.73 152.783 374.567 148.33 377.209 131.649C379.577 116.701 370.35 110.536 362.993 108.337C356.65 106.44 343.446 107.78 336.32 111.653C331.035 114.522 334.902 122.23 334.902 122.23C337.548 122.352 336.965 115.335 343.21 115.335C348.035 115.335 352.287 122.471 356.804 122.66C360.94 122.834 361.789 125.353 361.643 126.962C360.753 136.761 361.811 150.508 362.888 153.951Z" fill="#0F1011"/>
<path d="M356.026 138.766C355.965 139.503 356.05 140.245 356.277 140.949C356.503 141.653 356.866 142.306 357.345 142.87C357.824 143.434 358.409 143.898 359.067 144.236C359.725 144.574 360.444 144.779 361.181 144.839C361.919 144.9 362.661 144.815 363.366 144.588C364.07 144.362 364.723 143.999 365.288 143.521C365.852 143.042 366.316 142.458 366.655 141.8C366.993 141.142 367.198 140.424 367.258 139.687C367.332 138.947 367.255 138.2 367.034 137.491C366.813 136.781 366.45 136.123 365.969 135.557C365.488 134.99 364.898 134.526 364.233 134.192C363.569 133.858 362.844 133.661 362.102 133.613C358.086 133.482 356.279 135.665 356.026 138.766Z" fill="#FAA896"/>
<g opacity="0.2">
<path opacity="0.2" d="M343.209 142.884C343.318 142.883 343.424 142.843 343.506 142.772C343.589 142.7 343.643 142.601 343.659 142.493C343.676 142.385 343.653 142.275 343.595 142.182C343.537 142.09 343.448 142.021 343.344 141.987L340.64 141.158L342.532 136.945C342.576 136.835 342.576 136.713 342.532 136.603C342.487 136.493 342.402 136.404 342.294 136.355C342.186 136.307 342.063 136.302 341.952 136.342C341.84 136.381 341.748 136.463 341.695 136.569L339.591 141.252C339.564 141.311 339.55 141.375 339.55 141.44C339.55 141.506 339.564 141.57 339.59 141.629C339.617 141.689 339.656 141.742 339.705 141.785C339.754 141.828 339.812 141.86 339.874 141.879L343.074 142.861C343.118 142.875 343.163 142.883 343.209 142.884Z" fill="black"/>
</g>
<path d="M348.495 145.98C348.495 145.98 343.588 146.497 340.149 145.296C340.149 145.296 340.176 148.523 344.059 148.844C347.943 149.165 348.495 145.98 348.495 145.98Z" fill="white"/>
<path d="M335.879 112.148C331.126 115.332 332.059 121.431 332.952 126.723H338.84L341.309 118.157L344.322 126.723L367.277 127.516L364.509 116.14L335.879 112.148Z" fill="#0F1011"/>
<path d="M379.049 158.967C386.145 158.967 391.898 153.217 391.898 146.125C391.898 139.033 386.145 133.284 379.049 133.284C371.953 133.284 366.2 139.033 366.2 146.125C366.2 153.217 371.953 158.967 379.049 158.967Z" fill="#0F1011"/>
<path d="M315.417 273.983C319.26 282.812 392.773 286.48 393.782 270.948C394.425 261.064 386.346 251.832 386.346 232.568C386.346 213.305 400.81 193.958 386.36 179.516C382.167 175.326 379.58 167.973 370.754 167.964C370.093 173.107 338.845 173.126 338.607 168.083C337.414 168.101 336.487 168.12 335.91 168.146C305.469 169.458 321.151 204.16 321.445 229.594C321.804 259.353 311.453 264.884 315.417 273.983Z" fill="white"/>
<path d="M338.531 167.917C338.77 172.96 341.514 180.377 349.981 180.937C361.265 181.679 370.017 172.941 370.678 167.798H370.65C359.541 167.798 345.009 167.816 338.531 167.917Z" fill="#FAA896"/>
<path d="M320.002 173.691C323.773 170.277 328.595 168.249 333.673 167.943C333.673 167.943 342.863 167.897 342.841 167.848C343.559 169.507 342.511 202.378 341.594 220.422C340.591 239.955 341.621 264.344 340.689 278.369C340.627 279.29 340.374 280.188 339.947 281.006C339.52 281.825 338.927 282.545 338.207 283.123C337.486 283.7 336.654 284.122 335.762 284.362C334.87 284.601 333.938 284.653 333.025 284.514C323.143 283.002 315.439 280.429 314.315 277.848C310.353 268.753 319.498 259.271 319.141 229.508C319.141 229.336 319.133 229.162 319.131 228.989L319.066 229.348C318.976 221.338 317.614 212.389 316.665 203.847" fill="#EFA30E"/>
<path d="M220.024 221.643C220.024 221.643 227.075 225.271 234.679 225.271L237.135 213.112C237.135 213.112 229.911 206.593 227.309 207.265C225.156 207.821 226.665 209.896 228.596 211.825" fill="#FAA896"/>
<path d="M220.024 221.643C220.024 221.643 227.075 225.271 234.679 225.271L237.135 213.112C237.135 213.112 229.911 206.593 227.309 207.265C225.156 207.821 226.665 209.896 228.596 211.825" fill="#FAA896"/>
<path opacity="0.15" d="M220.024 221.643C220.024 221.643 227.075 225.271 234.679 225.271L237.135 213.112C237.135 213.112 229.911 206.593 227.309 207.265C225.156 207.821 226.665 209.896 228.596 211.825" fill="black"/>
<path d="M225.915 226.382L221.296 223.231C220.191 222.476 218.682 222.76 217.927 223.866L211.047 233.937C210.292 235.042 210.576 236.55 211.682 237.304L216.3 240.456C217.406 241.21 218.915 240.926 219.67 239.821L226.55 229.749C227.305 228.644 227.021 227.137 225.915 226.382Z" fill="#FD870E"/>
<path d="M228.256 225.659L222.632 224.082C221.985 223.902 221.293 223.986 220.708 224.315C220.123 224.644 219.692 225.192 219.511 225.838L218.865 228.133C218.774 228.454 218.748 228.789 218.787 229.121C218.827 229.452 218.931 229.772 219.094 230.062C219.258 230.353 219.477 230.608 219.739 230.814C220.001 231.02 220.302 231.172 220.623 231.262L222.031 231.656L224.83 232.445L226.238 232.839C226.886 233.02 227.58 232.937 228.166 232.608C228.753 232.278 229.185 231.73 229.368 231.082L230.014 228.779C230.194 228.132 230.11 227.44 229.78 226.856C229.451 226.271 228.902 225.84 228.256 225.659V225.659ZM227.673 227.542C227.623 227.724 227.514 227.884 227.363 227.998C227.212 228.111 227.028 228.171 226.839 228.169C226.763 228.169 226.688 228.16 226.614 228.142L222.74 227.058C222.54 227.001 222.368 226.875 222.254 226.701C222.141 226.528 222.094 226.319 222.122 226.113C222.15 225.908 222.252 225.72 222.409 225.584C222.565 225.447 222.766 225.372 222.973 225.372C223.049 225.372 223.124 225.381 223.197 225.399L227.081 226.493C227.189 226.522 227.291 226.572 227.379 226.641C227.468 226.71 227.542 226.795 227.597 226.893C227.652 226.991 227.687 227.098 227.7 227.21C227.713 227.321 227.704 227.434 227.673 227.542V227.542Z" fill="#1F2A37"/>
<path d="M223.85 237.044L224.715 233.959L224.422 233.876L225.831 228.849L223.036 228.067L219.039 242.325C218.988 242.508 218.973 242.7 218.996 242.889C219.018 243.078 219.078 243.261 219.171 243.427C219.265 243.593 219.39 243.739 219.54 243.856C219.69 243.974 219.861 244.061 220.045 244.112C220.415 244.216 220.812 244.168 221.147 243.98C221.482 243.791 221.729 243.477 221.833 243.107L222.348 241.272L222.641 241.355L223.366 238.77L223.073 238.687L223.556 236.962L223.85 237.044Z" fill="#1F2A37"/>
<path d="M229.511 222.381C230.28 219.587 229.3 216.882 227.323 216.338C225.345 215.794 223.118 217.618 222.349 220.412C221.58 223.206 222.56 225.911 224.538 226.455C226.516 226.999 228.742 225.175 229.511 222.381Z" stroke="#1F2A37" stroke-miterlimit="10"/>
<path d="M291.418 241.698C290.684 241.698 289.953 241.612 289.239 241.443L231.681 227.763L236.039 209.45L287.28 221.628L320.098 173.382L335.674 183.966L299.206 237.577C298.343 238.847 297.182 239.886 295.824 240.604C294.467 241.322 292.954 241.698 291.418 241.698Z" fill="#EFA30E"/>
<path d="M230.319 213.388C230.41 212.978 230.418 212.554 230.343 212.14C230.268 211.727 230.111 211.333 229.881 210.981C229.652 210.63 229.354 210.327 229.006 210.092C228.658 209.857 228.266 209.693 227.854 209.611C225.636 209.152 222.388 208.793 220.991 210.19C218.768 212.411 217.273 219.385 218.768 220.88C220.263 222.375 227.072 224.498 228.157 221.107C228.873 218.872 229.805 215.557 230.319 213.388Z" fill="#FAA896"/>
<path d="M387.727 233.166C387.727 252.43 396.443 261.058 395.8 270.942C395.403 277.116 392.246 284.926 368.438 286.599C366.51 286.736 364.604 286.127 363.113 284.899C361.621 283.671 360.659 281.917 360.425 280C355.861 242.083 364.165 191.583 366.499 174.551C367.873 167.283 368.197 167.726 371.645 167.723C380.471 167.732 386.818 170.672 391.01 174.861C405.46 189.303 387.727 213.912 387.727 233.166Z" fill="#EFA30E"/>
<path d="M376.931 263.04L377.545 267.586L372.548 268.26C372.159 268.313 371.784 268.441 371.445 268.638C371.105 268.836 370.808 269.098 370.57 269.41C370.332 269.722 370.158 270.078 370.058 270.457C369.957 270.837 369.932 271.232 369.985 271.621L373.582 298.268C373.688 299.054 374.102 299.765 374.733 300.245C375.363 300.726 376.159 300.936 376.945 300.83L381.942 300.156L382.555 304.703C382.607 305.091 382.736 305.466 382.933 305.805C383.131 306.145 383.393 306.442 383.705 306.68C384.018 306.918 384.374 307.092 384.753 307.192C385.133 307.292 385.528 307.317 385.918 307.264L442.885 299.584C443.671 299.478 444.382 299.065 444.863 298.434C445.343 297.804 445.554 297.009 445.447 296.224L439.824 254.561C439.718 253.776 439.304 253.065 438.673 252.585C438.043 252.104 437.247 251.894 436.461 252L379.494 259.679C378.708 259.785 377.997 260.199 377.516 260.829C377.036 261.459 376.825 262.255 376.931 263.04Z" fill="#C1D8ED"/>
<path d="M417.601 288.133L404.823 286.622L404.573 291.635C404.573 294.368 402.969 302.042 405.291 302.696C406.173 302.943 407.316 301.76 407.918 299.79C408.63 301.074 408.983 302.525 408.94 303.993C408.659 307.291 420.351 305.87 420.344 302.623C420.214 297.677 419.287 292.785 417.601 288.133V288.133Z" fill="#FAA896"/>
<path d="M400.558 294.786L420.345 291.852L411.968 235.421C411.892 234.906 411.775 234.398 411.62 233.902L394.848 180.321L375.757 186.292L392.301 239.127L400.558 294.786Z" fill="#EFA30E"/>
<path d="M374.396 189.502L372.12 182.048L376.505 179.179L374.017 167.785C370.754 167.616 368.284 167.628 367.339 167.664C365.174 174.898 361.75 206.952 360.906 219.081L374.396 189.502Z" fill="#EFA30E"/>
<g opacity="0.24">
<path opacity="0.24" d="M374.396 189.502L372.12 182.048L376.505 179.179L374.017 167.785C370.754 167.616 368.284 167.628 367.339 167.664C365.174 174.898 361.75 206.952 360.906 219.081L374.396 189.502Z" fill="white"/>
</g>
<path d="M336.411 182.049L332.106 188.586L341.691 218.645C341.691 218.645 343.892 176.296 343.006 167.805C343.006 167.805 340.7 167.856 339.197 167.834C337.314 167.808 335.621 167.858 335.621 167.858L332.033 179.18L336.411 182.049Z" fill="#EFA30E"/>
<g opacity="0.24">
<path opacity="0.24" d="M336.411 182.049L332.106 188.586L341.691 218.645C341.691 218.645 343.892 176.296 343.006 167.805C343.006 167.805 340.7 167.856 339.197 167.834C337.314 167.808 335.621 167.858 335.621 167.858L332.033 179.18L336.411 182.049Z" fill="white"/>
</g>
<path d="M54.9638 157.611C54.9728 157.36 54.9728 157.118 54.9728 156.858C54.9817 155.227 54.91 153.452 54.7485 151.516L56.632 151.166L69.081 148.863C68.8328 152.045 68.8808 155.244 69.2245 158.418C69.2694 158.776 69.3142 159.144 69.368 159.512C69.4039 159.798 69.4487 160.094 69.5026 160.381C69.5564 160.668 69.5922 160.946 69.655 161.224C69.7627 161.815 69.8882 162.407 70.0407 162.989C70.0681 163.129 70.1041 163.267 70.1483 163.402C70.15 163.427 70.1561 163.451 70.1663 163.474C70.238 163.769 70.3277 164.074 70.4264 164.361C70.525 164.693 70.6326 165.015 70.7582 165.338C70.7941 165.437 70.83 165.544 70.8748 165.643C70.9914 165.965 71.1259 166.279 71.2694 166.584C71.4219 166.934 71.5923 167.274 71.7717 167.606C71.7741 167.606 71.7764 167.607 71.7781 167.608C71.7797 167.61 71.7807 167.612 71.7807 167.615C72.4569 168.938 73.4078 170.103 74.57 171.03H52.0327C53.4211 168.628 54.8562 164.495 54.9638 157.611Z" fill="#FAA896"/>
<path opacity="0.15" d="M71.7834 167.618L59.8797 158.517L69.229 158.421C69.4996 161.619 70.366 164.738 71.7834 167.618V167.618Z" fill="black"/>
<path d="M46.6208 144.198C47.6128 149.925 50.7394 155.347 55.7943 157.195C61.7937 159.391 66.2378 159.539 73.1556 159.539C82.5955 159.539 82.2834 149.701 82.5489 139.785C82.8179 129.83 82.0233 119.152 78.2922 115.683C70.8479 108.759 48.9877 113.144 46.3284 124.725C44.9535 130.716 45.6764 138.747 46.6208 144.198Z" fill="#FAA896"/>
<path d="M88.3814 115.574C86.802 109.787 81.8807 106.959 73.7413 109.085C67.9527 110.597 67.2199 109.238 62.3184 106.88C59.5102 105.529 50.2999 106.146 48.0209 112.376C45.575 119.05 38.0186 113.645 37.3164 124.519C36.7289 133.62 38.4895 145.442 48.6092 153.393C50.2225 155.016 52.0561 156.404 54.0561 157.516C54.9144 158.025 55.1225 157.606 55.4203 156.658C56.4724 153.292 58.6025 141.521 57.7325 131.943C57.589 130.367 57.8832 127.917 61.9264 127.748C66.3437 127.561 77.8213 128.554 81.8825 125.645C81.8825 125.64 89.9608 121.362 88.3814 115.574Z" fill="#0F1011"/>
<path d="M69.0604 139.787C69.7781 139.787 70.36 139.205 70.36 138.488C70.36 137.77 69.7781 137.189 69.0604 137.189C68.3426 137.189 67.7608 137.77 67.7608 138.488C67.7608 139.205 68.3426 139.787 69.0604 139.787Z" fill="#0F1011"/>
<path d="M79.3128 138.947C80.0306 138.947 80.6125 138.365 80.6125 137.648C80.6125 136.931 80.0306 136.349 79.3128 136.349C78.5951 136.349 78.0132 136.931 78.0132 137.648C78.0132 138.365 78.5951 138.947 79.3128 138.947Z" fill="#0F1011"/>
<path d="M81.565 134.88H81.5569L78.1137 134.837C77.9559 134.83 77.8069 134.762 77.698 134.648C77.5892 134.533 77.529 134.381 77.53 134.223C77.5311 134.065 77.5933 133.914 77.7036 133.801C77.814 133.688 77.9638 133.622 78.1218 133.617H78.1325L81.5757 133.66C81.7336 133.667 81.8825 133.735 81.9914 133.849C82.1002 133.964 82.1605 134.116 82.1594 134.274C82.1584 134.432 82.0961 134.583 81.9858 134.696C81.8754 134.809 81.7256 134.875 81.5676 134.88H81.565Z" fill="#0F1011"/>
<path d="M66.2549 136.135C66.1056 136.134 65.9617 136.079 65.8504 135.98C65.739 135.88 65.668 135.743 65.6506 135.595C65.6333 135.447 65.6709 135.298 65.7563 135.175C65.8417 135.053 65.9689 134.966 66.1141 134.931L69.5079 134.114C69.6639 134.081 69.8269 134.109 69.9621 134.194C70.0972 134.279 70.1938 134.413 70.231 134.568C70.2683 134.724 70.2433 134.887 70.1615 135.024C70.0797 135.161 69.9474 135.26 69.7931 135.301L66.3984 136.12C66.3513 136.13 66.3031 136.135 66.2549 136.135V136.135Z" fill="#0F1011"/>
<path d="M62.2995 141.667C62.3693 142.393 62.2938 143.126 62.0777 143.823C61.8615 144.52 61.5089 145.167 61.0403 145.726C60.5717 146.286 59.9966 146.747 59.3482 147.082C58.6998 147.418 57.9912 147.621 57.2635 147.681C56.5359 147.74 55.8036 147.654 55.1094 147.428C54.4152 147.202 53.7728 146.841 53.2196 146.365C52.6663 145.889 52.2133 145.307 51.8869 144.655C51.5604 144.002 51.367 143.291 51.3179 142.563C51.2461 141.84 51.3206 141.11 51.5371 140.416C51.7535 139.722 52.1075 139.079 52.5778 138.525C53.0482 137.971 53.6253 137.518 54.2748 137.191C54.9243 136.865 55.633 136.672 56.3585 136.625C60.2842 136.501 62.0511 138.636 62.2995 141.667Z" fill="#FAA896"/>
<g opacity="0.15">
<path opacity="0.15" d="M74.8293 145.692C74.7218 145.692 74.6179 145.654 74.5365 145.584C74.4551 145.514 74.4015 145.417 74.3855 145.31C74.3695 145.204 74.3922 145.096 74.4495 145.005C74.5067 144.914 74.5947 144.847 74.6974 144.815L77.3406 144.009L75.4912 139.894C75.4424 139.786 75.4388 139.662 75.4811 139.551C75.5234 139.44 75.6081 139.35 75.7167 139.301C75.8253 139.253 75.9488 139.249 76.0601 139.291C76.1714 139.334 76.2613 139.418 76.31 139.527L78.3666 144.105C78.3927 144.163 78.4062 144.225 78.4061 144.289C78.406 144.352 78.3924 144.415 78.3662 144.473C78.34 144.531 78.3018 144.583 78.2541 144.625C78.2064 144.667 78.1503 144.698 78.0895 144.717L74.9611 145.677C74.9181 145.688 74.8737 145.693 74.8293 145.692V145.692Z" fill="black"/>
</g>
<path d="M69.6613 148.718C69.6613 148.718 74.4588 149.223 77.8231 148.049C77.8231 148.049 77.7962 151.207 74.0005 151.518C70.2048 151.829 69.6613 148.718 69.6613 148.718Z" fill="#F8FCFF"/>
<path d="M108.513 532.302L89.8093 530.078C90.6515 523.003 91.6031 514.505 91.6676 513.111C91.6676 513.201 91.6676 513.274 91.6676 513.331H110.503C110.499 513.897 110.499 515.613 108.513 532.302Z" fill="#FAA896"/>
<path d="M33.4668 534.552L14.6319 534.491C14.6319 534.491 14.6947 515.053 14.6947 513.332H33.5296C33.5269 515.058 33.4668 534.552 33.4668 534.552Z" fill="#EFA30E"/>
<path d="M82.2807 526.358L115.466 525.793C113.907 486.324 113.812 444.923 113.326 405.359C106.849 362.714 104.336 312.208 96.3432 269.869H25.036C25.036 269.869 13.8247 463.316 9.77521 525.29L42.8421 528.082C48.8038 467.32 58.9173 386.852 64.5893 323.02C71.1017 354.097 74.6346 378.208 80.2976 409.019C81.4295 447.586 82.3874 487.905 82.2807 526.358Z" fill="#262626"/>
<path d="M56.3611 541.832C56.8676 541.83 57.3681 541.723 57.8315 541.519C58.2948 541.314 58.711 541.017 59.0541 540.644C59.3972 540.272 59.6597 539.833 59.8254 539.354C59.991 538.876 60.0562 538.369 60.0169 537.864C59.9622 537.164 59.7086 536.495 59.2861 535.935C58.8636 535.374 58.2898 534.946 57.632 534.701L35.7091 527.363C35.2844 527.222 34.8342 527.175 34.3894 527.224C33.9446 527.273 33.5158 527.418 33.1323 527.649C30.1187 529.739 26.5138 530.807 22.8475 530.697C19.9917 530.494 17.2503 529.493 14.936 527.808C14.7326 527.642 14.486 527.536 14.2249 527.504C13.9638 527.472 13.6989 527.515 13.4613 527.628C13.2237 527.741 13.023 527.918 12.8828 528.141C12.7426 528.363 12.6686 528.621 12.6695 528.884V539.598C12.6691 539.914 12.7313 540.227 12.8524 540.519C12.9736 540.811 13.1512 541.076 13.3753 541.3C13.5993 541.523 13.8653 541.7 14.1579 541.82C14.4505 541.94 14.764 542.001 15.0804 542L56.3611 541.832Z" fill="#EFA30E"/>
<path d="M131.461 541.832C131.968 541.83 132.468 541.723 132.932 541.519C133.395 541.315 133.812 541.017 134.155 540.645C134.498 540.272 134.76 539.833 134.926 539.355C135.091 538.876 135.157 538.369 135.117 537.864V537.864C135.063 537.165 134.809 536.495 134.387 535.935C133.964 535.374 133.391 534.946 132.733 534.701L110.81 527.363C110.386 527.222 109.936 527.175 109.491 527.224C109.046 527.273 108.618 527.418 108.234 527.649C105.22 529.738 101.615 530.807 97.9486 530.697C95.093 530.494 92.352 529.493 90.038 527.808C89.8345 527.642 89.5879 527.536 89.3267 527.504C89.0656 527.472 88.8008 527.515 88.5631 527.628C88.3254 527.741 88.1247 527.919 87.9844 528.141C87.8441 528.363 87.77 528.621 87.7706 528.884V539.598C87.7706 539.914 87.8331 540.227 87.9544 540.519C88.0757 540.81 88.2535 541.076 88.4776 541.299C88.7017 541.522 88.9676 541.698 89.2602 541.818C89.5527 541.938 89.8661 541.999 90.1824 541.998L131.461 541.832Z" fill="#EFA30E"/>
<path d="M173.742 233.847L173.332 233.65C175.985 233.326 184.683 230.838 185.593 233.013C185.938 233.839 183.49 235.106 181.647 235.924C185.695 237.7 194.844 237.428 199.98 237.104C200.32 237.082 200.659 237.164 200.952 237.338C201.245 237.512 201.478 237.771 201.622 238.08C201.765 238.388 201.812 238.733 201.756 239.069C201.7 239.405 201.544 239.717 201.308 239.962C192.05 249.609 173.242 244.451 173.242 244.451L168.495 243.454L173.742 233.847Z" fill="#FAA896"/>
<path d="M16.5091 296.947L16.7056 296.537C17.0311 299.189 19.5191 307.881 17.3442 308.79C16.5172 309.136 15.249 306.689 14.4301 304.846C12.6534 308.891 12.9251 318.035 13.2507 323.169C13.2717 323.509 13.1896 323.847 13.0152 324.139C12.8408 324.432 12.5822 324.665 12.2732 324.808C11.9642 324.951 11.6192 324.998 11.2831 324.942C10.9471 324.887 10.6357 324.731 10.3896 324.495C0.737148 315.246 5.89881 296.449 5.89881 296.449L6.89706 291.705L16.5091 296.947Z" fill="#FAA896"/>
<path d="M99.9442 271.84C96.1862 280.472 26.0262 285.054 25.0396 269.868C24.4117 260.205 29.255 250.775 29.255 231.942C29.255 213.108 13.5655 189.298 27.6917 175.18C31.7914 171.084 37.6213 168.602 46.2486 168.593C46.8944 173.621 77.0544 173.76 77.2867 168.83C78.4527 168.848 79.3586 168.866 79.9236 168.893C109.684 170.175 96.5943 203.5 96.3073 228.365C95.953 257.462 103.819 262.948 99.9442 271.84Z" fill="#F3F5FD"/>
<path d="M77.2706 168.309C77.0374 173.239 73.5467 174.09 65.2683 174.637C54.2364 175.363 46.489 173.221 45.8432 168.192H45.8701C56.7316 168.192 70.9385 168.21 77.2706 168.309Z" fill="#FAA896"/>
<path d="M65.9562 236.218C67.4971 251.794 66.8531 258.839 66.2531 278.671C66.1801 281.098 65.1642 283.402 63.4208 285.094C61.6774 286.785 59.3435 287.732 56.9136 287.733H32.013C30.7195 287.732 29.4402 287.463 28.2561 286.943C27.072 286.422 26.0088 285.662 25.1338 284.71C24.2587 283.758 23.5909 282.635 23.1725 281.412C22.7541 280.188 22.5943 278.892 22.7032 277.604C24.8494 251.799 25.567 227.8 26.8172 217.277C26.8172 217.277 26.2217 234.638 24.1158 244.599C22.0098 254.559 19.9766 298.599 19.9766 298.599C19.9766 298.599 15.3199 299.619 0.640289 299.619C0.640289 299.619 0.640289 250.202 4.14986 235.821C7.65943 221.439 19.8905 174.133 30.5869 170.424C39.1586 167.453 51.1259 168.192 51.1259 168.192C51.1259 168.192 64.1534 217.998 65.9562 236.218Z" fill="#EFA30E"/>
<path d="M73.4686 168.192C73.4686 168.192 65.9598 211.666 65.9598 236.218C65.9598 244.607 65.4414 254.201 65.827 278.188C65.8468 279.431 66.1148 280.658 66.6151 281.797C67.1155 282.935 67.8382 283.963 68.7409 284.818C69.6437 285.674 70.7082 286.341 71.8723 286.781C73.0363 287.22 74.2764 287.423 75.5198 287.377L93.9269 286.689C95.1786 286.642 96.4079 286.344 97.542 285.812C98.676 285.281 99.6916 284.527 100.528 283.595C101.365 282.664 102.006 281.574 102.412 280.39C102.819 279.206 102.984 277.952 102.896 276.703C101.672 259.271 99.1514 223.817 98.5594 218.985L113.75 240.319C114.692 241.642 115.908 242.747 117.314 243.56C118.721 244.372 120.286 244.873 121.903 245.029L175.34 249.81C175.34 249.81 176.276 240.505 177.784 229.91L126.908 223.747C126.908 223.747 100.253 175.449 91.7448 170.82C88.0316 168.799 82.9408 168.515 79.9057 168.377C76.1593 168.202 73.4686 168.192 73.4686 168.192Z" fill="#EFA30E"/>
<path d="M66.1329 279.888C66.1035 279.888 66.0743 279.882 66.0471 279.871C66.0199 279.86 65.9952 279.844 65.9744 279.823C65.9535 279.802 65.937 279.778 65.9257 279.75C65.9144 279.723 65.9086 279.694 65.9086 279.665L65.7292 236.219C65.7292 236.16 65.7527 236.103 65.7946 236.061C65.8364 236.019 65.8932 235.995 65.9526 235.994V235.994C66.0119 235.994 66.0688 236.018 66.1108 236.059C66.1528 236.101 66.1766 236.158 66.1768 236.217L66.3562 279.663C66.3562 279.722 66.3327 279.779 66.2909 279.821C66.2491 279.864 66.1923 279.888 66.1329 279.888V279.888Z" fill="#EFA30E"/>
<g opacity="0.25">
<path opacity="0.25" d="M66.1329 279.888C66.1035 279.888 66.0743 279.882 66.0471 279.871C66.0199 279.86 65.9952 279.844 65.9744 279.823C65.9535 279.802 65.937 279.778 65.9257 279.75C65.9144 279.723 65.9086 279.694 65.9086 279.665L65.7292 236.219C65.7292 236.16 65.7527 236.103 65.7946 236.061C65.8364 236.019 65.8932 235.995 65.9526 235.994V235.994C66.0119 235.994 66.0688 236.018 66.1108 236.059C66.1528 236.101 66.1766 236.158 66.1768 236.217L66.3562 279.663C66.3562 279.722 66.3327 279.779 66.2909 279.821C66.2491 279.864 66.1923 279.888 66.1329 279.888V279.888Z" fill="#0F1011"/>
</g>
<path d="M51.1232 168.192C51.1232 168.192 66.0118 199.554 66.0118 237.318L44.1615 189.873L49.4702 183.208L42.026 177.947L43.4251 168.274C45.8441 167.783 51.1232 168.192 51.1232 168.192Z" fill="#EFA30E"/>
<path d="M73.4686 168.192C73.4686 168.192 64.2664 205.24 66.0136 237.318L82.086 189.873L77.2742 183.909L83.3076 179.349L79.9075 168.371L73.4686 168.192Z" fill="#EFA30E"/>
<path opacity="0.25" d="M51.1232 168.192C51.1232 168.192 66.0118 199.554 66.0118 237.318L44.1615 189.873L49.4702 183.208L42.026 177.947L43.4251 168.274C45.8441 167.783 51.1232 168.192 51.1232 168.192Z" fill="#0F1011"/>
<path opacity="0.25" d="M73.4686 168.192C73.4686 168.192 64.2664 205.24 66.0136 237.318L82.086 189.873L77.2742 183.909L83.3076 179.349L79.9075 168.371L73.4686 168.192Z" fill="#0F1011"/>
<path opacity="0.25" d="M63.1256 243.711C63.9008 243.711 64.5292 243.083 64.5292 242.308C64.5292 241.534 63.9008 240.906 63.1256 240.906C62.3504 240.906 61.7219 241.534 61.7219 242.308C61.7219 243.083 62.3504 243.711 63.1256 243.711Z" fill="#0F1011"/>
<path opacity="0.25" d="M63.1256 254.997C63.9008 254.997 64.5292 254.369 64.5292 253.594C64.5292 252.819 63.9008 252.191 63.1256 252.191C62.3504 252.191 61.7219 252.819 61.7219 253.594C61.7219 254.369 62.3504 254.997 63.1256 254.997Z" fill="#0F1011"/>
<path opacity="0.25" d="M63.1256 266.282C63.9008 266.282 64.5292 265.654 64.5292 264.879C64.5292 264.104 63.9008 263.476 63.1256 263.476C62.3504 263.476 61.7219 264.104 61.7219 264.879C61.7219 265.654 62.3504 266.282 63.1256 266.282Z" fill="#0F1011"/>
<rect x="638.617" y="224.233" width="50.7891" height="64.9134" rx="9.5" fill="white" stroke="#EFA30E"/>
<rect x="649.416" y="235.032" width="7.53296" height="7.53296" rx="3" fill="#DEE8F5"/>
<rect x="649.416" y="245.39" width="7.53296" height="7.53297" rx="3" fill="#DEE8F5"/>
<rect x="649.416" y="255.748" width="7.53296" height="7.53296" rx="3" fill="#DEE8F5"/>
<rect x="659.774" y="235.032" width="7.53302" height="7.53296" rx="3" fill="#DEE8F5"/>
<rect x="659.774" y="245.39" width="7.53302" height="7.53297" rx="3" fill="#DEE8F5"/>
<rect x="659.774" y="255.748" width="7.53302" height="7.53296" rx="3" fill="#DEE8F5"/>
<rect x="670.132" y="235.032" width="7.53302" height="7.53296" rx="3" fill="#DEE8F5"/>
<rect x="670.132" y="245.39" width="7.53302" height="7.53297" rx="3" fill="#DEE8F5"/>
<rect x="670.132" y="255.748" width="7.53302" height="7.53296" rx="3" fill="#DEE8F5"/>
<rect x="649.416" y="275.522" width="28.2486" height="19.774" rx="3" fill="#DEE8F5"/>
</svg>
