<svg width="208" height="96" viewBox="0 0 208 96" fill="none" xmlns="http://www.w3.org/2000/svg">
<path d="M70.7577 41.031C75.136 41.031 78.7902 37.8048 78.7902 32.8997C78.7902 28.0275 75.136 24.8672 70.7577 24.8672C66.3464 24.8672 62.7252 28.0275 62.7252 32.8997C62.7252 37.8048 66.3464 41.031 70.7577 41.031ZM70.7577 39.6154C67.1365 39.6154 64.1736 36.9489 64.1736 32.8997C64.1736 28.9164 67.1365 26.2828 70.7577 26.2828C74.346 26.2828 77.3417 28.9164 77.3417 32.8997C77.3417 36.9489 74.346 39.6154 70.7577 39.6154Z" fill="#EFA30E"/>
<path d="M89.912 24.8672C87.1467 24.8672 85.3361 26.8753 84.6777 29.476V25.2622H83.2292V40.6359H84.6777V34.6774C84.7436 31.122 85.7312 26.2828 89.8791 26.2828C90.4058 26.2828 91.0971 26.3486 91.8214 26.612L92.1835 25.2293C91.4263 24.9659 90.6033 24.8672 89.912 24.8672Z" fill="#EFA30E"/>
<path d="M107.592 28.7518C106.341 26.4474 103.806 24.8672 100.942 24.8672C96.5308 24.8672 93.0083 28.4884 93.0083 32.9326C93.0083 37.4427 96.5966 41.031 100.909 41.031C103.839 41.031 106.341 39.4179 107.592 37.0476V40.6359H109.04V25.2622H107.592V28.7518ZM101.008 39.6154C97.3867 39.6154 94.4568 36.5867 94.4568 32.9326C94.4568 29.3114 97.3867 26.2828 100.975 26.2828C104.53 26.2828 107.592 29.1139 107.592 33.0643C107.592 36.8172 104.563 39.6154 101.008 39.6154Z" fill="#EFA30E"/>
<path d="M121.586 24.8672C119.413 24.8672 116.911 25.8877 116.023 28.4226V25.2622H114.574V40.6359H116.023V31.9779C116.121 27.8958 118.788 26.3157 121.487 26.3157C124.285 26.3157 126.392 28.3896 126.392 31.6816V40.6359H127.841V31.6158C127.841 27.435 125.207 24.8672 121.586 24.8672Z" fill="#EFA30E"/>
<path d="M146.408 28.6859C145.124 26.4144 142.622 24.8672 139.758 24.8672C135.38 24.8672 131.824 28.3896 131.824 32.9326C131.824 37.4756 135.38 41.031 139.758 41.031C142.589 41.031 145.157 39.4837 146.408 37.2451V38.6278C146.408 45.146 143.643 47.0553 139.594 47.0553C137.618 47.0553 135.284 47.2199 132.815 47.6314L133.47 48.8659C136.351 48.5367 137.092 48.4709 139.594 48.4709C144.499 48.4709 147.857 46.1665 147.857 38.5619V25.2622H146.408V28.6859ZM139.824 39.6154C136.236 39.6154 133.273 36.6197 133.273 32.9326C133.273 29.2456 136.236 26.2828 139.824 26.2828C143.346 26.2828 146.408 29.048 146.408 33.0643C146.408 36.8501 143.412 39.6154 139.824 39.6154Z" fill="#EFA30E"/>
<path d="M167.888 32.8997C167.888 28.0604 164.728 24.8672 160.349 24.8672C156.037 24.8672 152.58 28.0604 152.58 32.8997C152.58 37.7719 156.037 41.031 160.349 41.031C163.181 41.031 165.715 39.6154 167.098 37.2451L165.814 36.6197C164.695 38.4632 162.687 39.6154 160.382 39.6154C156.893 39.6154 154.358 37.2451 154.062 33.5252H167.888V32.8997ZM154.062 32.2742C154.391 28.5213 156.926 26.2828 160.349 26.2828C163.74 26.2828 166.209 28.6201 166.44 32.2742H154.062Z" fill="#EFA30E"/>
<path d="M144.992 47.6312C144.992 49.2221 143.703 50.5117 142.112 50.5117C140.521 50.5117 139.231 49.2221 139.231 47.6312C139.231 46.0404 140.521 44.7507 142.112 44.7507C143.703 44.7507 144.992 46.0404 144.992 47.6312Z" fill="white"/>
<path d="M71.9428 52.8491C69.0788 52.8491 66.511 54.4292 65.2601 56.7336V53.2441H63.8116V76.0577H65.2601V65.1283C66.511 67.4327 69.0459 69.0128 71.9428 69.0128C76.2883 69.0128 79.8437 65.4904 79.8437 60.9474C79.8437 56.4044 76.2883 52.8491 71.9428 52.8491ZM71.877 67.5973C68.3546 67.5973 65.2601 64.832 65.2601 60.8157C65.2601 57.0299 68.2887 54.2646 71.877 54.2646C75.4653 54.2646 78.3952 57.2604 78.3952 60.9474C78.3952 64.6345 75.4653 67.5973 71.877 67.5973Z" fill="black"/>
<path d="M90.973 52.8491C88.2077 52.8491 86.3971 54.8572 85.7387 57.4579V53.2441H84.2902V68.6178H85.7387V62.6593C85.8045 59.1039 86.7921 54.2646 90.9401 54.2646C91.4668 54.2646 92.1581 54.3305 92.8823 54.5938L93.2445 53.2112C92.4873 52.9478 91.6643 52.8491 90.973 52.8491Z" fill="black"/>
<path d="M108.653 56.7336C107.402 54.4292 104.867 52.8491 102.003 52.8491C97.5917 52.8491 94.0693 56.4703 94.0693 60.9145C94.0693 65.4245 97.6576 69.0128 101.97 69.0128C104.9 69.0128 107.402 67.3997 108.653 65.0295V68.6178H110.101V53.2441H108.653V56.7336ZM102.069 67.5973C98.4476 67.5973 95.5177 64.5686 95.5177 60.9145C95.5177 57.2933 98.4476 54.2646 102.036 54.2646C105.591 54.2646 108.653 57.0958 108.653 61.0462C108.653 64.7991 105.624 67.5973 102.069 67.5973Z" fill="black"/>
<path d="M122.614 69.0128C124.622 69.0128 126.433 68.3215 127.848 67.1693L126.927 66.1159C125.774 67.0376 124.26 67.5973 122.614 67.5973C118.96 67.5973 115.997 64.8978 115.997 60.8816C115.997 56.8982 118.96 54.2646 122.614 54.2646C124.26 54.2646 125.807 54.8572 126.927 55.746L127.815 54.6926C126.433 53.5733 124.589 52.8491 122.614 52.8491C118.203 52.8491 114.549 56.0423 114.549 60.8816C114.549 65.7537 118.203 69.0128 122.614 69.0128Z" fill="black"/>
<path d="M134.272 53.2441V47.516L132.823 47.6312V53.2441H130.025V54.528H132.823V68.6178H134.272V54.528H137.992V53.2441H134.272Z" fill="black"/>
<path d="M142.046 48.7341C142.77 48.7341 143.33 48.2403 143.33 47.5818C143.33 46.8905 142.77 46.3967 142.046 46.3967C141.355 46.3967 140.795 46.8905 140.795 47.5818C140.795 48.2403 141.355 48.7341 142.046 48.7341ZM142.77 68.6178V53.2441H141.322V68.6178H142.77Z" fill="black"/>
<path d="M155.277 69.0128C157.285 69.0128 159.096 68.3215 160.511 67.1693L159.59 66.1159C158.437 67.0376 156.923 67.5973 155.277 67.5973C151.623 67.5973 148.66 64.8978 148.66 60.8816C148.66 56.8982 151.623 54.2646 155.277 54.2646C156.923 54.2646 158.47 54.8572 159.59 55.746L160.478 54.6926C159.096 53.5733 157.252 52.8491 155.277 52.8491C150.866 52.8491 147.212 56.0423 147.212 60.8816C147.212 65.7537 150.866 69.0128 155.277 69.0128Z" fill="black"/>
<path d="M176.185 61.935C176.086 66.0171 173.453 67.5973 170.753 67.5973C167.955 67.5973 165.815 65.5233 165.815 62.2313V53.2441H164.367V62.2642C164.367 66.4451 167.033 69.0128 170.655 69.0128C172.761 69.0128 175.263 68.0252 176.185 65.5562V68.6178H177.634V53.2441H176.185V61.935Z" fill="black"/>
<path d="M201.778 52.8491C199.737 52.8491 196.873 53.6721 195.853 56.9641C195.062 54.2975 192.89 52.8491 190.19 52.8491C187.886 52.8491 185.516 53.8696 184.66 56.3057V53.2441H183.211V68.6178H184.66V59.9598C184.758 55.8777 187.326 54.2646 190.026 54.2646C192.791 54.2646 194.865 56.3386 194.865 59.6306V68.6178H196.313V60.6511C196.313 56.0094 198.651 54.2646 201.646 54.2646C204.445 54.2646 206.552 56.3715 206.552 59.6635V68.6178H208V59.5977C208 55.4168 205.399 52.8491 201.778 52.8491Z" fill="black"/>
<path d="M24.1099 47.5818C24.1099 48.2403 23.5503 48.7341 22.826 48.7341C22.1347 48.7341 21.5751 48.2403 21.5751 47.5818C21.5751 46.8905 22.1347 46.3967 22.826 46.3967C23.5503 46.3967 24.1099 46.8905 24.1099 47.5818Z" fill="#EFA30E"/>
<path d="M17.46 0.999999L50.3801 12.7278L50.3801 83.0945L17.46 94.8223" stroke="#EFA30E" stroke-width="0.5"/>
<path d="M17.46 82.0657L1 82.0657L0.999997 11.699L17.46 11.699" stroke="#434343" stroke-width="0.5"/>
<path d="M17.6658 1L17.6658 94.8223" stroke="#EFA30E" stroke-width="0.5"/>
</svg>
