<svg width="394" height="476" viewBox="0 0 394 476" fill="none" xmlns="http://www.w3.org/2000/svg">
<g clip-path="url(#clip0_0_244)">
<path d="M374.127 0.604492H53.2236C42.5823 0.604492 33.9559 9.23143 33.9559 19.8733V272.42C33.9559 283.062 42.5823 291.689 53.2236 291.689H374.127C384.769 291.689 393.395 283.062 393.395 272.42V19.8733C393.395 9.23143 384.769 0.604492 374.127 0.604492Z" fill="white"/>
<path d="M374.127 292.294H53.2236C47.9546 292.288 42.903 290.192 39.1773 286.466C35.4516 282.74 33.3559 277.688 33.3503 272.419V19.8744C33.3559 14.6051 35.4516 9.55332 39.1773 5.82738C42.903 2.10143 47.9546 0.00569912 53.2236 0L374.127 0C379.396 0.00584496 384.448 2.10163 388.173 5.82754C391.899 9.55345 393.995 14.6052 394.001 19.8744V272.42C393.995 277.689 391.899 282.74 388.173 286.466C384.447 290.192 379.396 292.288 374.127 292.294ZM53.2236 1.20958C48.2754 1.21528 43.5316 3.18359 40.0328 6.68271C36.5339 10.1818 34.5659 14.926 34.5603 19.8744V272.42C34.566 277.368 36.5341 282.112 40.0329 285.611C43.5317 289.11 48.2755 291.078 53.2236 291.084H374.127C379.075 291.078 383.819 289.11 387.318 285.611C390.817 282.112 392.785 277.368 392.791 272.42V19.8744C392.785 14.926 390.817 10.1817 387.318 6.68255C383.819 3.1834 379.075 1.21513 374.127 1.20958H53.2236Z" fill="#292A2E"/>
<path opacity="0.2" d="M365.224 52.9333H345.52C341.367 52.9333 338 56.3003 338 60.4536V80.1585C338 84.3119 341.367 87.6788 345.52 87.6788H365.224C369.377 87.6788 372.744 84.3119 372.744 80.1585V60.4536C372.744 56.3003 369.377 52.9333 365.224 52.9333Z" fill="#EFA30E"/>
<path opacity="0.2" d="M365.836 96.8209H346.283C342.088 96.8209 338.688 100.222 338.688 104.417V123.97C338.688 128.166 342.088 131.566 346.283 131.566H365.836C370.031 131.566 373.431 128.166 373.431 123.97V104.417C373.431 100.222 370.031 96.8209 365.836 96.8209Z" fill="#EFA30E"/>
<path opacity="0.2" d="M365.836 145.701H346.283C342.088 145.701 338.688 149.102 338.688 153.297V172.851C338.688 177.046 342.088 180.446 346.283 180.446H365.836C370.031 180.446 373.431 177.046 373.431 172.851V153.297C373.431 149.102 370.031 145.701 365.836 145.701Z" fill="#EFA30E"/>
<path opacity="0.2" d="M365.148 192.08H345.596C341.401 192.08 338 195.481 338 199.676V219.23C338 223.425 341.401 226.826 345.596 226.826H365.148C369.343 226.826 372.744 223.425 372.744 219.23V199.676C372.744 195.481 369.343 192.08 365.148 192.08Z" fill="#EFA30E"/>
<g opacity="0.15">
<path opacity="0.15" d="M223.549 52.9333H203.846C199.693 52.9333 196.326 56.3003 196.326 60.4536V80.1585C196.326 84.3119 199.693 87.6788 203.846 87.6788H223.549C227.703 87.6788 231.069 84.3119 231.069 80.1585V60.4536C231.069 56.3003 227.703 52.9333 223.549 52.9333Z" fill="#EFA30E"/>
<path opacity="0.15" d="M176.324 52.9333H156.621C152.467 52.9333 149.101 56.3003 149.101 60.4536V80.1585C149.101 84.3119 152.467 87.6788 156.621 87.6788H176.324C180.477 87.6788 183.844 84.3119 183.844 80.1585V60.4536C183.844 56.3003 180.477 52.9333 176.324 52.9333Z" fill="#EFA30E"/>
<path opacity="0.15" d="M129.787 52.9333H110.083C105.93 52.9333 102.563 56.3003 102.563 60.4536V80.1585C102.563 84.3119 105.93 87.6788 110.083 87.6788H129.787C133.94 87.6788 137.306 84.3119 137.306 80.1585V60.4536C137.306 56.3003 133.94 52.9333 129.787 52.9333Z" fill="#EFA30E"/>
<path opacity="0.15" d="M82.5616 52.9333H62.8578C58.7047 52.9333 55.3379 56.3003 55.3379 60.4536V80.1585C55.3379 84.3119 58.7047 87.6788 62.8578 87.6788H82.5616C86.7147 87.6788 90.0814 84.3119 90.0814 80.1585V60.4536C90.0814 56.3003 86.7147 52.9333 82.5616 52.9333Z" fill="#EFA30E"/>
<path opacity="0.15" d="M270.774 52.9333H251.07C246.917 52.9333 243.55 56.3003 243.55 60.4536V80.1585C243.55 84.3119 246.917 87.6788 251.07 87.6788H270.774C274.927 87.6788 278.294 84.3119 278.294 80.1585V60.4536C278.294 56.3003 274.927 52.9333 270.774 52.9333Z" fill="#EFA30E"/>
<path opacity="0.15" d="M317.999 52.9333H298.295C294.142 52.9333 290.775 56.3003 290.775 60.4536V80.1585C290.775 84.3119 294.142 87.6788 298.295 87.6788H317.999C322.152 87.6788 325.519 84.3119 325.519 80.1585V60.4536C325.519 56.3003 322.152 52.9333 317.999 52.9333Z" fill="#EFA30E"/>
<path opacity="0.15" d="M224.161 96.821H204.608C200.413 96.821 197.013 100.222 197.013 104.417V123.971C197.013 128.166 200.413 131.566 204.608 131.566H224.161C228.355 131.566 231.756 128.166 231.756 123.971V104.417C231.756 100.222 228.355 96.821 224.161 96.821Z" fill="#EFA30E"/>
<path opacity="0.15" d="M271.386 96.821H251.833C247.638 96.821 244.238 100.222 244.238 104.417V123.971C244.238 128.166 247.638 131.566 251.833 131.566H271.386C275.581 131.566 278.981 128.166 278.981 123.971V104.417C278.981 100.222 275.581 96.821 271.386 96.821Z" fill="#EFA30E"/>
<path opacity="0.15" d="M318.611 96.821H299.058C294.863 96.821 291.463 100.222 291.463 104.417V123.971C291.463 128.166 294.863 131.566 299.058 131.566H318.611C322.806 131.566 326.206 128.166 326.206 123.971V104.417C326.206 100.222 322.806 96.821 318.611 96.821Z" fill="#EFA30E"/>
<path opacity="0.15" d="M82.486 96.821H62.9334C58.7385 96.821 55.3379 100.222 55.3379 104.417V123.971C55.3379 128.166 58.7385 131.566 62.9334 131.566H82.486C86.6808 131.566 90.0814 128.166 90.0814 123.971V104.417C90.0814 100.222 86.6808 96.821 82.486 96.821Z" fill="#EFA30E"/>
<path opacity="0.15" d="M129.711 96.821H110.158C105.964 96.821 102.563 100.222 102.563 104.417V123.971C102.563 128.166 105.964 131.566 110.158 131.566H129.711C133.906 131.566 137.306 128.166 137.306 123.971V104.417C137.306 100.222 133.906 96.821 129.711 96.821Z" fill="#EFA30E"/>
<path opacity="0.15" d="M176.936 96.821H157.383C153.188 96.821 149.787 100.222 149.787 104.417V123.971C149.787 128.166 153.188 131.566 157.383 131.566H176.936C181.13 131.566 184.531 128.166 184.531 123.971V104.417C184.531 100.222 181.13 96.821 176.936 96.821Z" fill="#EFA30E"/>
<path opacity="0.15" d="M224.161 145.701H204.608C200.413 145.701 197.013 149.102 197.013 153.297V172.851C197.013 177.046 200.413 180.446 204.608 180.446H224.161C228.355 180.446 231.756 177.046 231.756 172.851V153.297C231.756 149.102 228.355 145.701 224.161 145.701Z" fill="#EFA30E"/>
<path opacity="0.15" d="M271.386 145.701H251.833C247.638 145.701 244.238 149.102 244.238 153.297V172.851C244.238 177.046 247.638 180.446 251.833 180.446H271.386C275.581 180.446 278.981 177.046 278.981 172.851V153.297C278.981 149.102 275.581 145.701 271.386 145.701Z" fill="#EFA30E"/>
<path opacity="0.15" d="M318.611 145.701H299.058C294.863 145.701 291.463 149.102 291.463 153.297V172.851C291.463 177.046 294.863 180.446 299.058 180.446H318.611C322.806 180.446 326.206 177.046 326.206 172.851V153.297C326.206 149.102 322.806 145.701 318.611 145.701Z" fill="#EFA30E"/>
<path opacity="0.15" d="M82.486 145.701H62.9334C58.7385 145.701 55.3379 149.102 55.3379 153.297V172.851C55.3379 177.046 58.7385 180.446 62.9334 180.446H82.486C86.6808 180.446 90.0814 177.046 90.0814 172.851V153.297C90.0814 149.102 86.6808 145.701 82.486 145.701Z" fill="#EFA30E"/>
<path opacity="0.15" d="M129.711 145.701H110.158C105.964 145.701 102.563 149.102 102.563 153.297V172.851C102.563 177.046 105.964 180.446 110.158 180.446H129.711C133.906 180.446 137.306 177.046 137.306 172.851V153.297C137.306 149.102 133.906 145.701 129.711 145.701Z" fill="#EFA30E"/>
<path opacity="0.15" d="M176.936 145.701H157.383C153.188 145.701 149.787 149.102 149.787 153.297V172.851C149.787 177.046 153.188 180.446 157.383 180.446H176.936C181.13 180.446 184.531 177.046 184.531 172.851V153.297C184.531 149.102 181.13 145.701 176.936 145.701Z" fill="#EFA30E"/>
<path opacity="0.15" d="M224.161 192.767H204.608C200.413 192.767 197.013 196.168 197.013 200.363V219.917C197.013 224.112 200.413 227.512 204.608 227.512H224.161C228.355 227.512 231.756 224.112 231.756 219.917V200.363C231.756 196.168 228.355 192.767 224.161 192.767Z" fill="#EFA30E"/>
<path opacity="0.15" d="M270.698 192.08H251.146C246.951 192.08 243.55 195.481 243.55 199.676V219.23C243.55 223.425 246.951 226.826 251.146 226.826H270.698C274.893 226.826 278.294 223.425 278.294 219.23V199.676C278.294 195.481 274.893 192.08 270.698 192.08Z" fill="#EFA30E"/>
<path opacity="0.15" d="M317.923 192.08H298.371C294.176 192.08 290.775 195.481 290.775 199.676V219.23C290.775 223.425 294.176 226.826 298.371 226.826H317.923C322.118 226.826 325.519 223.425 325.519 219.23V199.676C325.519 195.481 322.118 192.08 317.923 192.08Z" fill="#EFA30E"/>
<path opacity="0.15" d="M82.486 192.767H62.9334C58.7385 192.767 55.3379 196.168 55.3379 200.363V219.917C55.3379 224.112 58.7385 227.512 62.9334 227.512H82.486C86.6808 227.512 90.0814 224.112 90.0814 219.917V200.363C90.0814 196.168 86.6808 192.767 82.486 192.767Z" fill="#EFA30E"/>
<path opacity="0.15" d="M129.711 192.767H110.158C105.964 192.767 102.563 196.168 102.563 200.363V219.917C102.563 224.112 105.964 227.512 110.158 227.512H129.711C133.906 227.512 137.306 224.112 137.306 219.917V200.363C137.306 196.168 133.906 192.767 129.711 192.767Z" fill="#EFA30E"/>
<path opacity="0.15" d="M176.936 192.767H157.383C153.188 192.767 149.787 196.168 149.787 200.363V219.917C149.787 224.112 153.188 227.512 157.383 227.512H176.936C181.13 227.512 184.531 224.112 184.531 219.917V200.363C184.531 196.168 181.13 192.767 176.936 192.767Z" fill="#EFA30E"/>
<path opacity="0.15" d="M223.474 235.398H203.921C199.726 235.398 196.326 238.799 196.326 242.994V262.548C196.326 266.743 199.726 270.144 203.921 270.144H223.474C227.669 270.144 231.069 266.743 231.069 262.548V242.994C231.069 238.799 227.669 235.398 223.474 235.398Z" fill="#EFA30E"/>
<path opacity="0.15" d="M81.7986 235.398H62.246C58.0512 235.398 54.6506 238.799 54.6506 242.994V262.548C54.6506 266.743 58.0512 270.144 62.246 270.144H81.7986C85.9935 270.144 89.3941 266.743 89.3941 262.548V242.994C89.3941 238.799 85.9935 235.398 81.7986 235.398Z" fill="#EFA30E"/>
<path opacity="0.15" d="M129.024 235.398H109.471C105.276 235.398 101.876 238.799 101.876 242.994V262.548C101.876 266.743 105.276 270.144 109.471 270.144H129.024C133.219 270.144 136.619 266.743 136.619 262.548V242.994C136.619 238.799 133.219 235.398 129.024 235.398Z" fill="#EFA30E"/>
<path opacity="0.15" d="M176.249 235.398H156.696C152.501 235.398 149.101 238.799 149.101 242.994V262.548C149.101 266.743 152.501 270.144 156.696 270.144H176.249C180.444 270.144 183.844 266.743 183.844 262.548V242.994C183.844 238.799 180.444 235.398 176.249 235.398Z" fill="#EFA30E"/>
</g>
<path d="M393.395 19.8743V32.228H33.9575V19.8743C33.9567 17.3437 34.4545 14.8377 35.4224 12.4994C36.3903 10.1612 37.8093 8.03656 39.5984 6.24685C41.3875 4.45715 43.5116 3.03745 45.8495 2.06884C48.1873 1.10023 50.693 0.601684 53.2235 0.601685H374.128C376.658 0.601975 379.164 1.10071 381.502 2.06941C383.84 3.0381 385.964 4.4578 387.753 6.24743C389.542 8.03706 390.961 10.1616 391.929 12.4997C392.897 14.8378 393.395 17.3437 393.395 19.8743V19.8743Z" fill="#292A2E"/>
<path d="M175.81 239.242H157.135C154.82 239.242 152.944 241.118 152.944 243.432V262.109C152.944 264.424 154.82 266.3 157.135 266.3H175.81C178.125 266.3 180.001 264.424 180.001 262.109V243.432C180.001 241.118 178.125 239.242 175.81 239.242Z" fill="white"/>
<path d="M80.4395 182.15L57.3821 177.978C56.7285 177.859 56.1488 177.486 55.7703 176.94C55.3918 176.395 55.2456 175.721 55.3638 175.067L58.9294 155.363L66.0264 150.638L85.5039 154.163C86.1574 154.281 86.7372 154.654 87.1157 155.2C87.4942 155.746 87.6404 156.419 87.5222 157.073L83.3493 180.132C83.2908 180.455 83.1692 180.764 82.9913 181.041C82.8134 181.318 82.5828 181.556 82.3125 181.744C82.0423 181.931 81.7378 182.064 81.4165 182.133C81.0951 182.203 80.7631 182.209 80.4395 182.15Z" fill="#EFA30E"/>
<path opacity="0.29" d="M66.0264 150.638L58.9294 155.363L64.9902 156.565L66.0264 150.638Z" fill="#FFFFFA"/>
<g opacity="0.88">
<path opacity="0.88" d="M82.2419 168.706C82.2186 168.706 82.1953 168.704 82.1724 168.7L60.5966 164.71C60.5054 164.693 60.4247 164.641 60.3722 164.564C60.3196 164.488 60.2996 164.394 60.3164 164.303C60.3333 164.211 60.3856 164.131 60.462 164.078C60.5383 164.026 60.6324 164.006 60.7236 164.022L82.2993 168.013C82.3842 168.029 82.4602 168.075 82.5126 168.144C82.5651 168.212 82.5903 168.298 82.5834 168.384C82.5766 168.47 82.5381 168.551 82.4755 168.61C82.4128 168.669 82.3304 168.703 82.2441 168.706H82.2419Z" fill="white"/>
<path opacity="0.88" d="M81.4685 173.231C81.445 173.232 81.4215 173.23 81.3984 173.226L59.8231 169.236C59.7765 169.229 59.7318 169.213 59.6915 169.188C59.6513 169.164 59.6164 169.131 59.5889 169.093C59.5615 169.055 59.542 169.011 59.5317 168.966C59.5215 168.92 59.5206 168.872 59.5291 168.826C59.5377 168.779 59.5555 168.735 59.5815 168.696C59.6075 168.657 59.6412 168.623 59.6805 168.597C59.7198 168.571 59.7639 168.553 59.8103 168.545C59.8566 168.536 59.9042 168.537 59.9501 168.548L81.5254 172.538C81.6108 172.553 81.6875 172.6 81.7405 172.669C81.7935 172.737 81.819 172.823 81.8121 172.91C81.8053 172.996 81.7664 173.077 81.7032 173.137C81.64 173.196 81.5569 173.23 81.4701 173.231H81.4685Z" fill="white"/>
<path opacity="0.88" d="M68.8098 175.073C68.7865 175.073 68.7632 175.071 68.7402 175.067L59.1701 173.297C59.1235 173.29 59.0787 173.274 59.0385 173.25C58.9982 173.225 58.9633 173.193 58.9359 173.155C58.9084 173.116 58.889 173.073 58.8787 173.027C58.8685 172.981 58.8676 172.934 58.8761 172.887C58.8847 172.841 58.9025 172.797 58.9285 172.757C58.9545 172.718 58.9882 172.685 59.0275 172.659C59.0668 172.633 59.1109 172.615 59.1572 172.606C59.2036 172.598 59.2511 172.599 59.2971 172.609L68.8672 174.38C68.952 174.396 69.028 174.442 69.0805 174.511C69.1329 174.579 69.1581 174.665 69.1513 174.751C69.1444 174.837 69.106 174.918 69.0433 174.977C68.9807 175.036 68.8983 175.07 68.812 175.073H68.8098Z" fill="white"/>
</g>
<path d="M82.3447 165.028C82.2593 165.028 82.1741 165.02 82.0902 165.005L77.4216 164.153C77.2374 164.12 77.0617 164.05 76.9046 163.949C76.7474 163.847 76.6119 163.715 76.5058 163.561C76.3997 163.407 76.3251 163.233 76.2864 163.05C76.2476 162.867 76.2455 162.678 76.28 162.494L77.0644 157.536C77.1324 157.169 77.3421 156.842 77.6484 156.628C77.9547 156.413 78.333 156.328 78.7018 156.39L83.3847 157.19C83.5705 157.222 83.7481 157.29 83.9073 157.39C84.0665 157.491 84.2041 157.623 84.312 157.777C84.4199 157.931 84.496 158.106 84.5358 158.29C84.5756 158.474 84.5784 158.664 84.544 158.85L83.7452 163.862C83.6841 164.189 83.5107 164.484 83.255 164.697C82.9993 164.91 82.6774 165.027 82.3447 165.028ZM78.4638 156.921C78.2611 156.922 78.065 156.993 77.9089 157.122C77.7528 157.252 77.6465 157.431 77.6082 157.63L76.8237 162.588C76.8016 162.701 76.8022 162.817 76.8253 162.93C76.8485 163.043 76.8938 163.15 76.9587 163.245C77.0235 163.34 77.1066 163.421 77.2031 163.484C77.2997 163.547 77.4077 163.59 77.521 163.611L82.1895 164.462C82.4153 164.502 82.6475 164.451 82.8364 164.321C83.0252 164.191 83.1555 163.992 83.1992 163.767L83.9991 158.751C84.0204 158.638 84.0189 158.522 83.9947 158.409C83.9706 158.296 83.9242 158.189 83.8583 158.094C83.7925 158 83.7084 157.919 83.6111 157.857C83.5138 157.795 83.4051 157.753 83.2914 157.734L78.6085 156.933C78.5607 156.925 78.5123 156.921 78.4638 156.921V156.921Z" fill="white"/>
<path d="M160.919 261.702C160.87 261.702 160.821 261.702 160.772 261.695C160.547 261.674 160.329 261.607 160.132 261.498C159.934 261.389 159.762 261.239 159.625 261.06L154.72 254.608C154.46 254.265 154.346 253.833 154.404 253.406C154.462 252.979 154.688 252.592 155.031 252.332C155.374 252.071 155.806 251.957 156.233 252.015C156.66 252.073 157.046 252.299 157.307 252.642L161.136 257.678L175.831 244.263C175.989 244.119 176.173 244.008 176.374 243.935C176.575 243.863 176.788 243.83 177.001 243.84C177.214 243.85 177.423 243.902 177.616 243.992C177.809 244.083 177.983 244.21 178.127 244.368C178.271 244.526 178.382 244.71 178.454 244.911C178.527 245.111 178.559 245.324 178.55 245.538C178.54 245.751 178.488 245.96 178.398 246.153C178.307 246.346 178.179 246.52 178.022 246.664L162.013 261.275C161.714 261.549 161.324 261.701 160.919 261.702Z" fill="#EFA30E"/>
<path d="M374.553 75.5575L355.117 88.6465C354.845 88.8306 354.538 88.9592 354.216 89.0247C353.893 89.0903 353.561 89.0916 353.238 89.0286C352.915 88.9656 352.607 88.8395 352.333 88.6575C352.059 88.4755 351.823 88.2412 351.64 87.968L340.455 71.3596L342.247 63.0234L358.667 51.966C358.94 51.7821 359.246 51.6537 359.569 51.5883C359.891 51.5228 360.223 51.5215 360.546 51.5845C360.869 51.6476 361.177 51.7736 361.451 51.9555C361.725 52.1374 361.961 52.3715 362.145 52.6445L375.233 72.0811C375.417 72.354 375.545 72.6604 375.61 72.9828C375.675 73.3052 375.676 73.6373 375.613 73.9601C375.55 74.2829 375.424 74.5902 375.242 74.8643C375.06 75.1383 374.826 75.3739 374.553 75.5575V75.5575Z" fill="#FD870E"/>
<path opacity="0.29" d="M342.249 63.0228L340.458 71.3596L345.639 67.9942L342.249 63.0228Z" fill="#FFFFFA"/>
<g opacity="0.88">
<path opacity="0.88" d="M366.471 64.6641C366.454 64.6808 366.435 64.6958 366.415 64.7088L348.169 76.8951C348.092 76.941 348.001 76.9555 347.913 76.9356C347.826 76.9157 347.749 76.863 347.7 76.7883C347.65 76.7136 347.631 76.6227 347.647 76.5344C347.662 76.4461 347.711 76.3671 347.783 76.3138L366.03 64.1275C366.102 64.08 366.189 64.0609 366.274 64.0737C366.359 64.0866 366.437 64.1306 366.492 64.1972C366.546 64.2638 366.575 64.3484 366.571 64.4346C366.567 64.5208 366.532 64.6025 366.471 64.6641H366.471Z" fill="white"/>
<path opacity="0.88" d="M369.072 68.4474C369.055 68.4641 369.037 68.4791 369.017 68.4921L350.77 80.6784C350.693 80.7243 350.601 80.7388 350.514 80.7189C350.426 80.6991 350.35 80.6463 350.3 80.5716C350.251 80.497 350.232 80.406 350.247 80.3177C350.263 80.2294 350.312 80.1504 350.384 80.0971L368.63 67.9108C368.702 67.8633 368.789 67.8442 368.875 67.8571C368.96 67.8699 369.037 67.9139 369.092 67.9805C369.147 68.0471 369.175 68.1317 369.172 68.2179C369.168 68.3041 369.132 68.3858 369.072 68.4474V68.4474Z" fill="white"/>
<path opacity="0.88" d="M361.283 78.595C361.266 78.6117 361.248 78.6267 361.228 78.6397L353.138 84.045C353.1 84.0731 353.056 84.0932 353.01 84.1041C352.964 84.1149 352.916 84.1163 352.87 84.1081C352.823 84.0999 352.779 84.0823 352.739 84.0564C352.699 84.0305 352.665 83.9968 352.639 83.9574C352.613 83.918 352.595 83.8736 352.586 83.827C352.578 83.7805 352.579 83.7326 352.589 83.6865C352.6 83.6403 352.62 83.5967 352.647 83.5584C352.675 83.5201 352.711 83.4879 352.751 83.4637L360.845 78.0584C360.917 78.0109 361.004 77.9918 361.089 78.0046C361.174 78.0175 361.252 78.0615 361.307 78.1281C361.362 78.1947 361.39 78.2793 361.386 78.3655C361.382 78.4517 361.347 78.5334 361.286 78.595H361.283Z" fill="white"/>
</g>
<path d="M379.005 476H19.9501C19.8476 476 19.7493 475.959 19.6768 475.887C19.6043 475.814 19.5636 475.716 19.5636 475.614C19.5636 475.511 19.6043 475.413 19.6768 475.34C19.7493 475.268 19.8476 475.227 19.9501 475.227H379.005C379.107 475.227 379.206 475.268 379.278 475.34C379.351 475.413 379.391 475.511 379.391 475.614C379.391 475.716 379.351 475.814 379.278 475.887C379.206 475.959 379.107 476 379.005 476Z" fill="#292A2E"/>
<path d="M313.589 451.615C313.589 451.615 311.096 464.533 298.999 465.255C286.902 465.977 289.526 475.612 289.526 475.612H335.753V452.516L313.589 451.615Z" fill="#EFA30E"/>
<path d="M327.847 215.92C327.847 215.92 327.702 212.036 327.732 220.847C327.847 253.711 329.522 291.249 330.915 313.216C333.154 348.528 337.791 459.86 337.791 459.86L305.207 459.605L277.975 214.585L327.847 215.92Z" fill="#262626"/>
<path d="M292.896 255.106C292.896 255.106 291.637 278.956 291.405 284.555C290.865 297.503 290.382 310.994 290.382 326.194L285.889 286.262C285.889 286.262 289.392 273.774 292.896 255.106Z" fill="#0A0A0A"/>
<path d="M253.992 451.615C253.992 451.615 251.5 464.533 239.403 465.255C227.306 465.977 229.929 475.612 229.929 475.612H276.156V452.516L253.992 451.615Z" fill="#EFA30E"/>
<path d="M244.802 218.472C244.802 218.472 241.56 331.898 241.954 337.388L246.626 459.008L279.813 459.56L282.422 331.848C282.422 331.848 282.819 296.617 291.331 263.902C295.686 247.112 298.307 229.92 299.153 212.595V212.595L244.802 218.472Z" fill="#262626"/>
<path d="M328.177 215.917L328.276 215.922C328.276 215.922 328.204 214.007 328.177 215.917Z" fill="#333333"/>
<path d="M265.111 119.296C265.21 119.283 266.303 137.417 287.368 135.836C301.951 134.743 307.153 119.27 307.484 119.27C305.912 118.939 303.265 118.45 302.566 118.077C300.27 116.843 296.999 115.559 296.259 111.1C295.833 108.529 296.556 95.3796 296.333 92.7788L274.378 97.7756C274.691 103.268 276.88 116.001 269.207 118.257C267.93 118.627 266.555 118.971 265.111 119.296Z" fill="#FAA896"/>
<path d="M274.995 106.342C283.836 107.024 295.185 103.273 297.321 91.4754L299.249 80.8304C301.386 69.0333 296.922 58.3475 285.815 56.3357C274.707 54.3234 264.672 62.3836 262.537 74.1808L261.683 78.8932C261.418 80.5164 261.264 82.1558 261.222 83.8C261.079 88.1447 260.879 94.753 263.028 99.6068C265.058 104.189 269.348 105.906 274.995 106.342Z" fill="#FAA896"/>
<path d="M294.821 55.7312C291.311 54.6366 287.671 54.0171 283.997 53.8895C283.877 53.2478 283.603 52.6446 283.199 52.1314C282.796 51.6181 282.274 51.2099 281.679 50.9415C279.737 50.1829 277.364 51.4046 275.786 53.7598C274.962 52.3515 273.674 51.2738 272.142 50.7118C267.794 49.3581 267.578 55.6048 267.578 55.6048C267.578 55.6048 260.684 48.8011 260.469 57.4785C260.208 67.9777 262.137 71.0593 263.544 71.8322C266.324 73.3675 268.394 73.1075 269.494 75.3655C272.825 82.2045 269.56 101.468 273.413 103.88C279.32 107.575 291.414 107.703 295.342 107.422C296.853 107.312 298.268 105.562 298.904 104.188C300.958 99.7503 305.541 89.6894 306.816 85.5285C309.174 77.8531 308.997 60.3603 294.821 55.7312Z" fill="#0C0C0C"/>
<path d="M270.778 97.001C274.189 96.6311 276.558 92.6821 276.188 89.272C275.819 85.8619 272.85 84.2808 269.439 84.6512L267.93 87.1273L267.848 97.3201L270.778 97.001Z" fill="#FAA896"/>
<path d="M240.526 156.125C241.153 163.485 244.2 209.404 244.802 218.47H327.814C328.282 210.293 330.388 174.539 332.167 158.549C333.864 143.291 337.194 135.652 334.753 131.141C330.764 123.769 319.864 119.509 312.431 118.503C307.892 117.888 301.066 117.448 301.066 117.448H269.103C266.067 117.448 248.366 118.877 244.453 121.89C237.612 127.161 239.198 140.529 240.526 156.125Z" fill="#EFA30E"/>
<path d="M239.38 146.905C239.31 146.905 239.242 146.878 239.19 146.83C239.139 146.781 239.108 146.715 239.104 146.644L238.435 134.957C238.43 134.884 238.455 134.812 238.504 134.758C238.553 134.703 238.621 134.67 238.694 134.666C238.767 134.662 238.838 134.688 238.893 134.736C238.947 134.785 238.98 134.852 238.985 134.925L239.655 146.613C239.657 146.649 239.652 146.685 239.64 146.72C239.628 146.754 239.61 146.786 239.586 146.813C239.561 146.84 239.532 146.862 239.499 146.878C239.467 146.893 239.431 146.902 239.395 146.904L239.38 146.905Z" fill="#0C0C0C"/>
<path d="M345.76 217.991C348.201 217.99 350.607 217.4 352.771 216.27C354.935 215.14 356.795 213.504 358.191 211.501C359.587 209.498 360.478 207.187 360.789 204.766C361.101 202.344 360.822 199.883 359.978 197.592C359.12 195.266 339.015 142.023 335.188 132.158L306.847 143.641C309 149.187 316.796 170.212 323.06 187.15L312.653 186.018L309.377 216.153L344.12 217.901C344.665 217.961 345.212 217.991 345.76 217.991V217.991Z" fill="#EFA30E"/>
<path d="M329.586 158.861L327.546 218.465L328.098 218.484L330.137 158.88L329.586 158.861Z" fill="#0C0C0C"/>
<path d="M179.858 95.2868L154.727 106.372C154.183 106.612 153.565 106.626 153.011 106.411C152.456 106.196 152.01 105.769 151.77 105.225L142.461 84.119L146.094 75.2551L166.964 66.0493C167.233 65.9305 167.524 65.8659 167.818 65.8592C168.113 65.8526 168.405 65.9039 168.68 66.0105C168.955 66.117 169.205 66.2766 169.418 66.4801C169.631 66.6836 169.802 66.927 169.921 67.1965L181.006 92.3299C181.245 92.8742 181.259 93.4914 181.044 94.0459C180.829 94.6004 180.403 95.0468 179.858 95.2868V95.2868Z" fill="#FD870E"/>
<path opacity="0.29" d="M146.094 75.2562L142.461 84.1202L148.859 81.4256L146.094 75.2562Z" fill="#FFFFFA"/>
<g opacity="0.88">
<path opacity="0.88" d="M170.646 77.598C170.624 77.6132 170.601 77.6262 170.577 77.6366L147.984 87.4988C147.89 87.5311 147.788 87.5271 147.698 87.4875C147.607 87.448 147.535 87.3757 147.495 87.2852C147.456 87.1947 147.451 87.0926 147.484 86.9991C147.516 86.9057 147.582 86.8279 147.669 86.7811L170.262 76.919C170.351 76.8808 170.452 76.8769 170.543 76.908C170.635 76.9392 170.712 77.0031 170.76 77.0876C170.807 77.1721 170.822 77.2712 170.801 77.3658C170.78 77.4604 170.724 77.5439 170.646 77.6002V77.598Z" fill="white"/>
<path opacity="0.88" d="M172.556 81.8715C172.534 81.8867 172.511 81.8997 172.487 81.9101L149.894 91.7723C149.8 91.8063 149.697 91.8034 149.605 91.7641C149.514 91.7248 149.44 91.6521 149.4 91.5607C149.36 91.4693 149.357 91.3662 149.39 91.2722C149.423 91.1781 149.491 91.1004 149.58 91.0546L172.172 81.1925C172.262 81.1527 172.363 81.1477 172.455 81.1785C172.548 81.2092 172.626 81.2735 172.674 81.3587C172.722 81.4439 172.736 81.5439 172.714 81.6391C172.693 81.7344 172.636 81.818 172.556 81.8737V81.8715Z" fill="white"/>
<path opacity="0.88" d="M174.683 86.5691C174.661 86.5844 174.638 86.5973 174.614 86.6078L152.021 96.4699C151.927 96.504 151.824 96.501 151.732 96.4617C151.641 96.4224 151.567 96.3497 151.527 96.2584C151.487 96.167 151.484 96.0638 151.517 95.9698C151.55 95.8758 151.618 95.798 151.707 95.7522L174.299 85.8901C174.389 85.8504 174.49 85.8454 174.582 85.8761C174.675 85.9069 174.753 85.9711 174.801 86.0563C174.849 86.1415 174.863 86.2415 174.842 86.3368C174.82 86.432 174.763 86.5157 174.683 86.5714V86.5691Z" fill="white"/>
<path opacity="0.88" d="M164.059 96.2485C164.037 96.2635 164.014 96.2765 163.99 96.2872L153.969 100.661C153.876 100.694 153.774 100.69 153.683 100.65C153.592 100.61 153.52 100.538 153.48 100.448C153.441 100.357 153.437 100.255 153.469 100.162C153.501 100.068 153.567 99.9903 153.654 99.9435L163.676 95.5695C163.765 95.5313 163.865 95.5274 163.957 95.5585C164.049 95.5897 164.126 95.6536 164.173 95.7381C164.221 95.8226 164.236 95.9217 164.214 96.0163C164.193 96.1109 164.138 96.1944 164.059 96.2507V96.2485Z" fill="white"/>
</g>
<path d="M159.087 93.3606C158.972 93.0565 158.797 92.7788 158.572 92.5447C158.346 92.3106 158.075 92.1248 157.776 91.9988C157.476 91.8728 157.154 91.8092 156.829 91.8119C156.504 91.8145 156.183 91.8833 155.885 92.0141C155.319 92.2874 154.877 92.7655 154.649 93.352C154.421 93.9384 154.424 94.5894 154.658 95.1736L155.453 98.4695C155.621 99.1666 155.529 99.9012 155.193 100.535C154.857 101.168 154.3 101.657 153.629 101.908V101.908C152.97 102.155 152.245 102.157 151.585 101.914C150.926 101.672 150.375 101.2 150.033 100.586C150.033 100.586 145.076 90.115 144.983 89.6888C144.169 90.4822 142.751 92.4337 142.46 93.905C142.45 93.9127 143.896 105.664 144.704 106.492L153.09 119.427C156.518 122.94 168.025 117.095 168.025 117.095L159.087 93.3606Z" fill="#FAA896"/>
<path d="M193.544 189.943C190.736 189.943 187.975 189.217 185.531 187.835C183.086 186.453 181.041 184.462 179.592 182.056L143.493 122.085L171.398 105.287L198.839 150.88L244.455 121.896L263.781 147.81L202.358 187.355C199.729 189.046 196.669 189.944 193.544 189.943V189.943Z" fill="#EFA30E"/>
<path d="M240.989 162.742C240.927 162.742 240.867 162.721 240.818 162.683C240.77 162.645 240.735 162.592 240.721 162.532C240.706 162.471 240.712 162.408 240.738 162.352C240.763 162.296 240.807 162.25 240.862 162.221L248.744 158.153C248.809 158.12 248.885 158.113 248.954 158.136C249.024 158.158 249.082 158.207 249.116 158.272C249.15 158.337 249.156 158.413 249.134 158.483C249.111 158.553 249.062 158.611 248.997 158.644L241.115 162.711C241.076 162.732 241.033 162.742 240.989 162.742V162.742Z" fill="#0C0C0C"/>
<path d="M264.702 119.17L268.615 113.053C268.786 112.785 269.022 112.564 269.301 112.411C269.58 112.259 269.893 112.178 270.211 112.178H299.708C299.974 112.178 300.236 112.234 300.479 112.342C300.722 112.451 300.939 112.609 301.117 112.806L306.846 119.17H264.702Z" fill="#EFA30E"/>
<path d="M36.8659 364.188L35.9127 364.293L47.6812 471.843L48.6344 471.739L36.8659 364.188Z" fill="#292A2E"/>
<path d="M67.3467 411.141L61.5571 468.421L62.5111 468.517L68.3007 411.238L67.3467 411.141Z" fill="#292A2E"/>
<path d="M77.3028 461.497H34.3433V475.439H77.3028V461.497Z" fill="#292A2E"/>
<path opacity="0.2" d="M77.3028 461.497H34.3433V475.439H77.3028V461.497Z" fill="white"/>
<path d="M103.201 435.825C111.339 425.008 107.46 408.356 94.536 398.631C81.6123 388.907 64.5383 389.792 56.4001 400.609C48.262 411.426 52.1415 428.078 65.0652 437.802C77.989 447.527 95.063 446.641 103.201 435.825Z" fill="#FD870E"/>
<path opacity="0.2" d="M103.201 435.825C111.339 425.008 107.46 408.356 94.536 398.631C81.6123 388.907 64.5383 389.792 56.4001 400.609C48.262 411.426 52.1415 428.078 65.0652 437.802C77.989 447.527 95.063 446.641 103.201 435.825Z" fill="white"/>
<path opacity="0.5" d="M103.199 435.826C102.653 436.556 102.057 437.247 101.415 437.894C92.4562 443.618 79.2332 442.717 68.7434 434.822C55.8208 425.1 51.9422 408.448 60.0814 397.631C60.6287 396.904 61.2234 396.213 61.8617 395.563C70.8246 389.836 84.0431 390.741 94.5373 398.631C107.459 408.358 111.338 425.01 103.199 435.826Z" fill="white"/>
<path d="M43.2465 394.786C56.0493 384.903 59.5289 367.953 51.0186 356.928C42.5082 345.902 25.2305 344.976 12.4277 354.859C-0.375027 364.742 -3.85471 381.692 4.65565 392.718C13.166 403.743 30.4437 404.67 43.2465 394.786Z" fill="#FD870E"/>
<path opacity="0.2" d="M39.1946 391.951C29.2795 399.609 16.6787 400.776 7.54472 395.791C6.48759 394.86 5.52208 393.83 4.66144 392.715C-3.85317 381.692 -0.373686 364.74 12.4286 354.859C22.3437 347.204 34.9445 346.033 44.0741 351.014C45.1334 351.946 46.1002 352.977 46.9612 354.095C55.4736 365.117 51.9941 382.07 39.1946 391.951Z" fill="white"/>
</g>
<defs>
<clipPath id="clip0_0_244">
<rect width="394" height="476" fill="white"/>
</clipPath>
</defs>
</svg>
