<svg width="640" height="533" viewBox="0 0 640 533" fill="none" xmlns="http://www.w3.org/2000/svg">
<g clip-path="url(#clip0_0_677)">
<path d="M544.536 323.231C547.705 313.964 545.382 304.775 539.348 302.706C533.314 300.636 525.854 306.471 522.686 315.737C519.517 325.004 521.84 334.193 527.874 336.263C533.908 338.332 541.368 332.497 544.536 323.231Z" fill="#F4F4F4"/>
<path d="M523.05 315.715C527.347 313.775 528.43 306.87 525.469 300.292C522.509 293.715 516.625 289.955 512.328 291.895C508.031 293.835 506.947 300.74 509.908 307.318C512.869 313.895 518.753 317.655 523.05 315.715Z" fill="#F4F4F4"/>
<path d="M514.923 330.998H537.909C539.93 330.998 541.869 331.803 543.299 333.234C544.728 334.666 545.532 336.608 545.532 338.632V349.106C545.532 351.131 544.728 353.073 543.299 354.504C541.869 355.936 539.93 356.74 537.909 356.74H514.923V330.998Z" fill="#F4F4F4"/>
<g opacity="0.05">
<path opacity="0.05" d="M514.923 330.998H537.909C539.93 330.998 541.869 331.803 543.299 333.234C544.728 334.666 545.532 336.608 545.532 338.632V349.106C545.532 351.131 544.728 353.073 543.299 354.504C541.869 355.936 539.93 356.74 537.909 356.74H514.923V330.998Z" fill="#292A2E"/>
</g>
<g opacity="0.05">
<path opacity="0.05" d="M542.596 313.227H542.567C542.52 313.222 542.476 313.206 542.437 313.18C542.399 313.154 542.367 313.119 542.345 313.078C542.26 312.872 542.254 312.641 542.329 312.432C542.461 311.875 542.428 311.292 542.234 310.755C542.208 310.684 542.21 310.606 542.242 310.537C542.273 310.469 542.33 310.415 542.4 310.389C542.471 310.362 542.549 310.365 542.617 310.396C542.685 310.427 542.739 310.485 542.765 310.555C542.951 311.068 543.015 311.618 542.952 312.16C543.281 311.861 543.648 311.606 544.045 311.404C544.078 311.387 544.114 311.377 544.151 311.374C544.189 311.372 544.226 311.376 544.261 311.388C544.297 311.4 544.329 311.418 544.357 311.443C544.386 311.467 544.409 311.497 544.425 311.53C544.442 311.563 544.452 311.599 544.455 311.637C544.458 311.674 544.453 311.711 544.441 311.747C544.43 311.782 544.411 311.815 544.387 311.843C544.363 311.871 544.333 311.894 544.3 311.911C543.726 312.209 543.22 312.622 542.814 313.125C542.787 313.157 542.754 313.182 542.716 313.2C542.678 313.218 542.637 313.227 542.596 313.227Z" fill="#292A2E"/>
<path opacity="0.05" d="M533.999 306.466C533.962 306.466 533.925 306.459 533.891 306.445C533.695 306.34 533.545 306.166 533.472 305.955C533.232 305.444 532.845 305.017 532.36 304.729C532.295 304.691 532.247 304.629 532.228 304.557C532.208 304.484 532.218 304.406 532.255 304.341C532.293 304.276 532.355 304.228 532.427 304.208C532.5 304.189 532.578 304.199 532.643 304.236C533.105 304.509 533.496 304.889 533.782 305.343C533.85 304.896 533.974 304.46 534.153 304.044C534.183 303.975 534.239 303.921 534.309 303.894C534.379 303.866 534.457 303.868 534.526 303.898C534.595 303.928 534.649 303.984 534.677 304.054C534.704 304.124 534.703 304.203 534.672 304.272C534.416 304.877 534.284 305.527 534.283 306.185C534.282 306.26 534.252 306.331 534.199 306.384C534.145 306.437 534.074 306.466 533.999 306.466Z" fill="#292A2E"/>
<path opacity="0.05" d="M526.751 315.624C526.714 315.624 526.678 315.617 526.644 315.603C526.448 315.501 526.299 315.327 526.227 315.118C525.986 314.606 525.598 314.177 525.112 313.887C525.046 313.85 524.999 313.788 524.979 313.715C524.96 313.642 524.97 313.565 525.007 313.499C525.045 313.434 525.106 313.386 525.179 313.367C525.252 313.347 525.329 313.357 525.394 313.395C525.857 313.668 526.248 314.048 526.535 314.502C526.601 314.055 526.725 313.618 526.904 313.203C526.919 313.168 526.941 313.138 526.968 313.112C526.995 313.086 527.026 313.066 527.061 313.052C527.096 313.038 527.133 313.032 527.17 313.033C527.207 313.033 527.244 313.041 527.278 313.056C527.312 313.071 527.343 313.093 527.369 313.12C527.395 313.147 527.415 313.178 527.428 313.213C527.442 313.248 527.449 313.285 527.448 313.322C527.447 313.36 527.439 313.396 527.424 313.431C527.168 314.035 527.035 314.686 527.034 315.343C527.034 315.418 527.004 315.489 526.951 315.542C526.897 315.595 526.826 315.624 526.751 315.624Z" fill="#292A2E"/>
<path opacity="0.05" d="M534.445 314.24C534.409 314.239 534.372 314.232 534.338 314.218C534.142 314.115 533.992 313.94 533.92 313.73C533.679 313.219 533.291 312.792 532.806 312.503C532.744 312.463 532.7 312.402 532.682 312.33C532.665 312.259 532.676 312.184 532.712 312.12C532.749 312.057 532.808 312.01 532.879 311.989C532.949 311.969 533.024 311.976 533.089 312.01C533.552 312.283 533.942 312.663 534.229 313.117C534.296 312.67 534.42 312.233 534.599 311.818C534.629 311.749 534.685 311.695 534.755 311.667C534.825 311.64 534.903 311.641 534.972 311.671C535.041 311.702 535.095 311.758 535.123 311.828C535.15 311.898 535.149 311.976 535.118 312.045C534.862 312.65 534.729 313.301 534.729 313.958C534.728 314.033 534.698 314.104 534.645 314.157C534.592 314.209 534.52 314.239 534.445 314.24Z" fill="#292A2E"/>
<path opacity="0.05" d="M539.339 322.248C539.294 322.248 539.25 322.237 539.21 322.217C539.169 322.196 539.133 322.165 539.107 322.127C539.08 322.088 539.064 322.044 539.058 321.998C539.052 321.776 539.128 321.56 539.273 321.392C539.595 320.922 539.773 320.368 539.784 319.797C539.784 319.76 539.791 319.723 539.805 319.689C539.82 319.655 539.841 319.624 539.867 319.597C539.893 319.571 539.925 319.551 539.959 319.536C539.993 319.522 540.03 319.515 540.067 319.515C540.104 319.516 540.141 319.523 540.175 319.538C540.21 319.552 540.241 319.573 540.267 319.6C540.293 319.626 540.314 319.658 540.328 319.692C540.342 319.727 540.349 319.764 540.348 319.801C540.339 320.35 540.201 320.889 539.945 321.375C540.361 321.218 540.797 321.118 541.24 321.079C541.315 321.073 541.389 321.097 541.446 321.146C541.504 321.194 541.54 321.263 541.547 321.338C541.55 321.375 541.546 321.413 541.534 321.448C541.523 321.484 541.505 321.517 541.481 321.545C541.457 321.574 541.427 321.597 541.394 321.614C541.361 321.631 541.325 321.641 541.288 321.644C540.65 321.706 540.033 321.9 539.474 322.214C539.433 322.237 539.386 322.248 539.339 322.248Z" fill="#292A2E"/>
<path opacity="0.05" d="M527.4 327.179C527.36 327.179 527.32 327.17 527.284 327.154C527.091 327.044 526.947 326.864 526.88 326.651C526.656 326.133 526.281 325.693 525.806 325.389C525.772 325.37 525.743 325.344 525.72 325.314C525.697 325.284 525.68 325.249 525.67 325.212C525.661 325.175 525.659 325.136 525.664 325.098C525.67 325.06 525.683 325.024 525.703 324.991C525.723 324.959 525.75 324.93 525.781 324.908C525.812 324.886 525.848 324.871 525.885 324.863C525.923 324.854 525.961 324.854 525.999 324.861C526.036 324.868 526.072 324.883 526.104 324.905C526.557 325.193 526.936 325.584 527.209 326.047C527.289 325.602 527.427 325.17 527.618 324.76C527.653 324.696 527.711 324.647 527.78 324.624C527.85 324.6 527.925 324.605 527.992 324.637C528.058 324.668 528.109 324.724 528.135 324.793C528.161 324.862 528.159 324.937 528.131 325.005C527.856 325.601 527.704 326.247 527.683 326.903C527.681 326.977 527.65 327.046 527.597 327.097C527.544 327.148 527.473 327.177 527.4 327.177V327.179Z" fill="#292A2E"/>
<path opacity="0.05" d="M534.504 329.816C534.494 329.817 534.484 329.817 534.475 329.816C534.428 329.812 534.384 329.796 534.345 329.77C534.306 329.744 534.275 329.708 534.253 329.667C534.168 329.462 534.162 329.233 534.236 329.024C534.368 328.467 534.336 327.883 534.142 327.344C534.116 327.273 534.118 327.195 534.149 327.126C534.181 327.058 534.238 327.004 534.308 326.978C534.378 326.952 534.456 326.954 534.525 326.985C534.593 327.017 534.647 327.074 534.673 327.144C534.86 327.658 534.924 328.208 534.86 328.75C535.189 328.45 535.557 328.196 535.953 327.994C535.987 327.975 536.023 327.963 536.061 327.959C536.099 327.955 536.138 327.959 536.174 327.97C536.211 327.982 536.245 328 536.274 328.025C536.303 328.05 536.327 328.08 536.344 328.114C536.361 328.148 536.371 328.185 536.374 328.224C536.376 328.262 536.371 328.3 536.358 328.336C536.346 328.372 536.326 328.405 536.3 328.434C536.274 328.462 536.243 328.484 536.208 328.5C535.635 328.799 535.13 329.212 534.723 329.715C534.696 329.747 534.662 329.772 534.625 329.79C534.587 329.807 534.546 329.816 534.504 329.816Z" fill="#292A2E"/>
</g>
<g opacity="0.05">
<path opacity="0.05" d="M521.768 302.719H521.74C521.694 302.714 521.649 302.698 521.61 302.672C521.572 302.645 521.54 302.61 521.518 302.569C521.433 302.363 521.427 302.133 521.502 301.923C521.634 301.367 521.601 300.784 521.407 300.246C521.38 300.175 521.383 300.097 521.414 300.029C521.445 299.96 521.502 299.907 521.573 299.88C521.643 299.854 521.721 299.857 521.79 299.888C521.858 299.919 521.911 299.976 521.938 300.047C522.124 300.56 522.188 301.109 522.124 301.652C522.453 301.352 522.821 301.097 523.217 300.895C523.251 300.877 523.287 300.865 523.325 300.861C523.363 300.857 523.402 300.861 523.438 300.872C523.475 300.883 523.509 300.902 523.538 300.927C523.567 300.951 523.591 300.982 523.608 301.016C523.625 301.05 523.635 301.087 523.638 301.125C523.64 301.163 523.635 301.202 523.622 301.238C523.61 301.274 523.59 301.307 523.564 301.335C523.538 301.363 523.507 301.386 523.472 301.402C522.899 301.7 522.393 302.114 521.987 302.616C521.96 302.648 521.927 302.674 521.889 302.692C521.851 302.709 521.81 302.719 521.768 302.719Z" fill="#292A2E"/>
<path opacity="0.05" d="M515.808 296.362C515.772 296.362 515.735 296.355 515.701 296.341C515.504 296.238 515.355 296.063 515.283 295.852C515.042 295.341 514.654 294.914 514.169 294.625C514.107 294.585 514.063 294.524 514.045 294.452C514.028 294.381 514.038 294.306 514.075 294.242C514.112 294.179 514.171 294.132 514.242 294.111C514.312 294.091 514.387 294.098 514.452 294.132C514.914 294.406 515.305 294.785 515.591 295.24C515.658 294.792 515.783 294.355 515.962 293.94C515.976 293.905 515.998 293.874 516.024 293.848C516.051 293.821 516.083 293.801 516.118 293.787C516.153 293.773 516.19 293.766 516.228 293.767C516.265 293.767 516.302 293.775 516.337 293.79C516.371 293.806 516.402 293.827 516.428 293.855C516.454 293.882 516.474 293.914 516.488 293.949C516.501 293.984 516.507 294.022 516.506 294.059C516.505 294.097 516.496 294.134 516.481 294.168C516.225 294.773 516.092 295.423 516.092 296.08C516.091 296.155 516.061 296.226 516.008 296.279C515.955 296.332 515.883 296.362 515.808 296.362Z" fill="#292A2E"/>
<path opacity="0.05" d="M514.852 303.125C514.815 303.125 514.778 303.118 514.744 303.103C514.548 302.999 514.398 302.824 514.326 302.614C514.085 302.103 513.698 301.676 513.213 301.388C513.181 301.37 513.153 301.345 513.13 301.315C513.107 301.286 513.09 301.252 513.081 301.216C513.061 301.143 513.071 301.066 513.109 301C513.146 300.935 513.208 300.887 513.281 300.868C513.353 300.848 513.431 300.858 513.496 300.896C513.959 301.168 514.349 301.548 514.636 302.002C514.703 301.555 514.827 301.119 515.006 300.704C515.036 300.634 515.092 300.58 515.162 300.553C515.232 300.525 515.31 300.527 515.379 300.557C515.448 300.587 515.502 300.643 515.53 300.714C515.557 300.784 515.556 300.862 515.526 300.931C515.269 301.536 515.137 302.187 515.136 302.844C515.135 302.919 515.105 302.99 515.052 303.043C514.999 303.096 514.927 303.125 514.852 303.125Z" fill="#292A2E"/>
<path opacity="0.05" d="M519.746 311.131C519.677 311.131 519.609 311.105 519.557 311.059C519.505 311.012 519.472 310.949 519.464 310.879C519.459 310.658 519.536 310.443 519.679 310.275C520.001 309.805 520.179 309.25 520.191 308.68C520.192 308.605 520.222 308.534 520.275 308.481C520.328 308.428 520.4 308.399 520.474 308.399C520.511 308.399 520.548 308.407 520.583 308.421C520.617 308.436 520.648 308.457 520.674 308.483C520.7 308.51 520.721 308.542 520.735 308.576C520.748 308.611 520.755 308.648 520.755 308.685C520.746 309.234 520.607 309.773 520.351 310.258C520.767 310.1 521.203 310.001 521.647 309.962C521.721 309.958 521.795 309.982 521.851 310.03C521.908 310.079 521.944 310.147 521.952 310.221C521.955 310.258 521.951 310.296 521.94 310.331C521.929 310.367 521.91 310.4 521.886 310.428C521.862 310.457 521.833 310.48 521.8 310.497C521.767 310.514 521.731 310.525 521.693 310.528C521.056 310.589 520.438 310.783 519.88 311.097C519.839 311.12 519.793 311.131 519.746 311.131Z" fill="#292A2E"/>
<path opacity="0.05" d="M513.816 309.367C513.616 309.349 513.427 309.266 513.279 309.129C512.835 308.79 512.299 308.595 511.742 308.57C511.704 308.568 511.668 308.56 511.634 308.545C511.6 308.529 511.569 308.507 511.544 308.48C511.518 308.453 511.498 308.421 511.485 308.386C511.472 308.351 511.466 308.314 511.467 308.276C511.467 308.239 511.476 308.202 511.491 308.168C511.506 308.134 511.528 308.103 511.555 308.077C511.582 308.052 511.614 308.032 511.649 308.019C511.684 308.006 511.722 308 511.759 308.002C512.293 308.024 512.814 308.177 513.276 308.446C513.131 308.013 513.044 307.562 513.016 307.107C513.012 307.032 513.037 306.958 513.087 306.902C513.137 306.846 513.207 306.811 513.282 306.807C513.319 306.803 513.357 306.806 513.393 306.818C513.429 306.829 513.462 306.848 513.49 306.873C513.518 306.898 513.54 306.929 513.556 306.963C513.572 306.998 513.58 307.035 513.58 307.073C513.625 307.728 513.801 308.367 514.096 308.953C514.116 308.994 514.127 309.04 514.126 309.085C514.125 309.131 514.113 309.176 514.091 309.217C514.069 309.257 514.037 309.291 513.999 309.316C513.961 309.342 513.917 309.357 513.872 309.362C513.853 309.365 513.834 309.366 513.816 309.367Z" fill="#292A2E"/>
</g>
<path d="M490.412 340.739H437.098V356.275H490.412V340.739Z" fill="#F4F4F4"/>
<path opacity="0.05" d="M483.252 340.739H476.267V356.275H483.252V340.739Z" fill="#292A2E"/>
<path d="M472.957 344.116H443.911V353.322H472.957V344.116Z" fill="white"/>
<path d="M444.112 321.099L394.574 342.768L400.783 357.004L450.321 335.336L444.112 321.099Z" fill="#F4F4F4"/>
<path opacity="0.05" d="M444.112 321.099L394.574 342.768L400.783 357.004L450.321 335.336L444.112 321.099Z" fill="#292A2E"/>
<path d="M407.718 337.018L401.227 339.858L407.435 354.094L413.926 351.255L407.718 337.018Z" fill="white"/>
<path d="M439.13 326.962L412.141 338.768L415.82 347.204L442.809 335.399L439.13 326.962Z" fill="white"/>
<path opacity="0.05" d="M407.878 493.018H394.48V501.979H407.878V493.018Z" fill="#292A2E"/>
<path opacity="0.05" d="M604.59 493.018H591.192V501.979H604.59V493.018Z" fill="#292A2E"/>
<path d="M616.872 356.491H382.199V493.018H616.872V356.491Z" fill="#F4F4F4"/>
<path opacity="0.03" d="M616.872 356.491H382.199V493.018H616.872V356.491Z" fill="#292A2E"/>
<path d="M584.453 356.491H349.781V493.018H584.453V356.491Z" fill="#F4F4F4"/>
<path opacity="0.05" d="M375.46 493.018H362.062V501.979H375.46V493.018Z" fill="#292A2E"/>
<path opacity="0.05" d="M572.172 493.018H558.774V501.979H572.172V493.018Z" fill="#292A2E"/>
<path opacity="0.7" d="M577.886 364.933H356.347V399.56H577.886V364.933Z" fill="white"/>
<path opacity="0.7" d="M577.886 408.035H356.347V442.662H577.886V408.035Z" fill="white"/>
<path opacity="0.7" d="M577.886 451.136H356.347V485.764H577.886V451.136Z" fill="white"/>
<path opacity="0.05" d="M395.53 387.091C398.202 387.091 400.368 384.922 400.368 382.246C400.368 379.57 398.202 377.401 395.53 377.401C392.859 377.401 390.693 379.57 390.693 382.246C390.693 384.922 392.859 387.091 395.53 387.091Z" fill="#292A2E"/>
<path opacity="0.05" d="M538.702 387.091C541.374 387.091 543.54 384.922 543.54 382.246C543.54 379.57 541.374 377.401 538.702 377.401C536.031 377.401 533.865 379.57 533.865 382.246C533.865 384.922 536.031 387.091 538.702 387.091Z" fill="#292A2E"/>
<path opacity="0.05" d="M395.53 430.194C398.202 430.194 400.368 428.025 400.368 425.349C400.368 422.673 398.202 420.504 395.53 420.504C392.859 420.504 390.693 422.673 390.693 425.349C390.693 428.025 392.859 430.194 395.53 430.194Z" fill="#292A2E"/>
<path opacity="0.05" d="M538.702 430.194C541.374 430.194 543.54 428.025 543.54 425.349C543.54 422.673 541.374 420.504 538.702 420.504C536.031 420.504 533.865 422.673 533.865 425.349C533.865 428.025 536.031 430.194 538.702 430.194Z" fill="#292A2E"/>
<path opacity="0.05" d="M395.53 473.296C398.202 473.296 400.368 471.127 400.368 468.451C400.368 465.775 398.202 463.606 395.53 463.606C392.859 463.606 390.693 465.775 390.693 468.451C390.693 471.127 392.859 473.296 395.53 473.296Z" fill="#292A2E"/>
<path opacity="0.05" d="M538.702 473.296C541.374 473.296 543.54 471.127 543.54 468.451C543.54 465.775 541.374 463.606 538.702 463.606C536.031 463.606 533.865 465.775 533.865 468.451C533.865 471.127 536.031 473.296 538.702 473.296Z" fill="#292A2E"/>
<path d="M550.345 30.2307H446.903V165.073H550.345V30.2307Z" fill="#F4F4F4"/>
<path d="M550.344 165.073H553.7V30.2307H550.344V165.073Z" fill="#F4F4F4"/>
<path opacity="0.05" d="M550.344 165.073H553.7V30.2307H550.344V165.073Z" fill="#292A2E"/>
<path opacity="0.05" d="M531.501 54.7941H465.746V140.51H531.501V54.7941Z" fill="#292A2E"/>
<path opacity="0.03" d="M531.5 54.7941H528.074V140.51H531.5V54.7941Z" fill="#292A2E"/>
<path d="M634.942 198.232H550.344V283.735H634.942V198.232Z" fill="#F4F4F4"/>
<path opacity="0.05" d="M619.532 213.808H565.755V268.159H619.532V213.808Z" fill="#292A2E"/>
<path d="M634.942 283.735H638.298V198.232H634.942V283.735Z" fill="#F4F4F4"/>
<path opacity="0.05" d="M634.942 283.735H638.298V198.232H634.942V283.735Z" fill="#292A2E"/>
<path opacity="0.03" d="M619.532 213.808H616.105V268.159H619.532V213.808Z" fill="#292A2E"/>
<path d="M224.466 58.012H8.59906V274.2H224.466V58.012Z" fill="#F4F4F4"/>
<path d="M226.941 58.012H224.466V274.2H226.941V58.012Z" fill="#F4F4F4"/>
<path opacity="0.05" d="M226.941 58.012H224.466V274.2H226.941V58.012Z" fill="#292A2E"/>
<path opacity="0.05" d="M172.172 206.983V150.422H125.908V183.283H54.2454V241.468H23.7875V274.2H54.2454H60.1127H214.082V206.983H172.172Z" fill="#292A2E"/>
<path opacity="0.34" d="M165.536 156.563H131.846V162.704H165.536V156.563Z" fill="#FFFFFA"/>
<path opacity="0.34" d="M165.536 169.289H131.846V175.43H165.536V169.289Z" fill="#FFFFFA"/>
<path opacity="0.34" d="M165.536 182.015H131.846V188.156H165.536V182.015Z" fill="#FFFFFA"/>
<path opacity="0.34" d="M208.109 212.945H201.899V219.086H208.109V212.945Z" fill="#FFFFFA"/>
<path opacity="0.34" d="M208.109 225.671H201.899V231.812H208.109V225.671Z" fill="#FFFFFA"/>
<path opacity="0.34" d="M208.109 238.397H201.899V244.538H208.109V238.397Z" fill="#FFFFFA"/>
<path opacity="0.34" d="M196.621 212.945H190.411V219.086H196.621V212.945Z" fill="#FFFFFA"/>
<path opacity="0.34" d="M196.621 225.671H190.411V231.812H196.621V225.671Z" fill="#FFFFFA"/>
<path opacity="0.34" d="M196.621 238.397H190.411V244.538H196.621V238.397Z" fill="#FFFFFA"/>
<path opacity="0.34" d="M185.444 212.945H179.234V219.086H185.444V212.945Z" fill="#FFFFFA"/>
<path opacity="0.34" d="M185.444 225.671H179.234V231.812H185.444V225.671Z" fill="#FFFFFA"/>
<path opacity="0.34" d="M185.444 238.397H179.234V244.538H185.444V238.397Z" fill="#FFFFFA"/>
<path d="M224.466 164.894H181.03V58.012H177.438V164.894H60.1126V58.012H56.5206V164.894H8.59906V168.491H56.5206V274.2H60.1126V168.491H177.438V274.2H181.03V168.491H224.466V164.894Z" fill="white"/>
<path d="M233.066 273.939H0V281.129H233.066V273.939Z" fill="#F4F4F4"/>
<path opacity="0.1" d="M233.066 273.939H0V281.129H233.066V273.939Z" fill="#292A2E"/>
<path opacity="0.1" d="M236.431 273.939H233.066V281.129H236.431V273.939Z" fill="#292A2E"/>
<path opacity="0.1" d="M236.431 273.939H233.066V281.129H236.431V273.939Z" fill="#292A2E"/>
<path d="M93.5189 314.875L475.747 314.875C485.133 314.875 492.742 307.254 492.742 297.853L492.742 17.5881C492.742 8.18765 485.133 0.567078 475.747 0.567078L93.5189 0.567078C84.1324 0.567078 76.5231 8.18765 76.5231 17.5881L76.5231 297.853C76.5231 307.254 84.1324 314.875 93.5189 314.875Z" fill="white"/>
<path d="M75.9563 297.853V17.5887C75.9614 12.9257 77.8132 8.4551 81.1054 5.15772C84.3976 1.86034 88.8614 0.00545412 93.5175 0L475.746 0C480.403 0.00527822 484.867 1.86008 488.159 5.15748C491.451 8.45488 493.303 12.9256 493.308 17.5887V297.853C493.303 302.516 491.451 306.987 488.159 310.284C484.866 313.581 480.403 315.436 475.746 315.441H93.5175C88.8615 315.436 84.3978 313.581 81.1056 310.284C77.8134 306.987 75.9615 302.516 75.9563 297.853ZM93.5175 1.13465C89.1617 1.13975 84.9858 2.87496 81.9059 5.9596C78.8259 9.04425 77.0935 13.2264 77.0886 17.5887V297.853C77.0933 302.216 78.8257 306.398 81.9057 309.483C84.9857 312.567 89.1617 314.303 93.5175 314.307H475.746C480.102 314.303 484.278 312.567 487.358 309.483C490.438 306.398 492.171 302.216 492.175 297.853V17.5887C492.171 13.2264 490.438 9.0441 487.358 5.95941C484.278 2.87472 480.102 1.13957 475.746 1.13465H93.5175Z" fill="#292A2E"/>
<path d="M76.5264 17.586V34.7134H492.742V17.586C492.742 15.3506 492.303 13.1371 491.448 11.0719C490.594 9.00664 489.342 7.13016 487.764 5.54959C486.185 3.96901 484.311 2.71529 482.249 1.86002C480.187 1.00475 477.977 0.56468 475.745 0.564942H93.5175C89.0108 0.566175 84.689 2.36 81.5027 5.55194C78.3164 8.74387 76.5264 13.0725 76.5264 17.586Z" fill="#292A2E"/>
<path d="M358.09 237.267H453.641L468.069 248.09V191.61C468.069 190.517 467.854 189.435 467.437 188.425C467.019 187.415 466.407 186.498 465.636 185.725C464.864 184.952 463.948 184.339 462.94 183.921C461.931 183.503 460.851 183.288 459.76 183.288H358.09C356.999 183.287 355.918 183.502 354.909 183.92C353.901 184.338 352.984 184.951 352.213 185.724C351.441 186.497 350.828 187.414 350.411 188.424C349.993 189.434 349.778 190.517 349.778 191.61V228.945C349.778 230.038 349.993 231.12 350.411 232.13C350.828 233.14 351.441 234.058 352.213 234.831C352.984 235.603 353.901 236.216 354.909 236.634C355.918 237.052 356.999 237.267 358.09 237.267Z" fill="#EFA30E"/>
<path opacity="0.11" d="M358.09 237.267H453.641L468.069 248.09V191.61C468.069 190.517 467.854 189.435 467.437 188.425C467.019 187.415 466.407 186.498 465.636 185.725C464.864 184.952 463.948 184.339 462.94 183.921C461.931 183.503 460.851 183.288 459.76 183.288H358.09C356.999 183.287 355.918 183.502 354.909 183.92C353.901 184.338 352.984 184.951 352.213 185.724C351.441 186.497 350.828 187.414 350.411 188.424C349.993 189.434 349.778 190.517 349.778 191.61V228.945C349.778 230.038 349.993 231.12 350.411 232.13C350.828 233.14 351.441 234.058 352.213 234.831C352.984 235.603 353.901 236.216 354.909 236.634C355.918 237.052 356.999 237.267 358.09 237.267Z" fill="white"/>
<path opacity="0.49" d="M358.09 237.267H453.641L468.069 248.09V191.61C468.069 190.517 467.854 189.435 467.437 188.425C467.019 187.415 466.407 186.498 465.636 185.725C464.864 184.952 463.948 184.339 462.94 183.921C461.931 183.503 460.851 183.288 459.76 183.288H358.09C356.999 183.287 355.918 183.502 354.909 183.92C353.901 184.338 352.984 184.951 352.213 185.724C351.441 186.497 350.828 187.414 350.411 188.424C349.993 189.434 349.778 190.517 349.778 191.61V228.945C349.778 230.038 349.993 231.12 350.411 232.13C350.828 233.14 351.441 234.058 352.213 234.831C352.984 235.603 353.901 236.216 354.909 236.634C355.918 237.052 356.999 237.267 358.09 237.267Z" fill="white"/>
<path d="M359.965 205.753H457.885C457.933 205.755 457.982 205.747 458.028 205.73C458.073 205.712 458.115 205.686 458.15 205.652C458.186 205.618 458.214 205.578 458.233 205.533C458.252 205.488 458.262 205.44 458.262 205.391C458.262 205.342 458.252 205.293 458.233 205.249C458.214 205.204 458.186 205.163 458.15 205.129C458.115 205.095 458.073 205.069 458.028 205.052C457.982 205.034 457.933 205.027 457.885 205.029H359.965C359.917 205.027 359.868 205.034 359.822 205.052C359.777 205.069 359.735 205.095 359.7 205.129C359.664 205.163 359.636 205.204 359.617 205.249C359.598 205.293 359.588 205.342 359.588 205.391C359.588 205.44 359.598 205.488 359.617 205.533C359.636 205.578 359.664 205.618 359.7 205.652C359.735 205.686 359.777 205.712 359.822 205.73C359.868 205.747 359.917 205.755 359.965 205.753Z" fill="white"/>
<path d="M359.965 195.45H457.885C457.933 195.453 457.982 195.445 458.028 195.428C458.073 195.41 458.115 195.384 458.15 195.35C458.186 195.316 458.214 195.276 458.233 195.231C458.252 195.186 458.262 195.137 458.262 195.089C458.262 195.04 458.252 194.991 458.233 194.946C458.214 194.901 458.186 194.861 458.15 194.827C458.115 194.793 458.073 194.767 458.028 194.75C457.982 194.732 457.933 194.725 457.885 194.727H359.965C359.917 194.725 359.868 194.732 359.822 194.75C359.777 194.767 359.735 194.793 359.7 194.827C359.664 194.861 359.636 194.901 359.617 194.946C359.598 194.991 359.588 195.04 359.588 195.089C359.588 195.137 359.598 195.186 359.617 195.231C359.636 195.276 359.664 195.316 359.7 195.35C359.735 195.384 359.777 195.41 359.822 195.428C359.868 195.445 359.917 195.453 359.965 195.45Z" fill="white"/>
<path d="M359.965 216.614H457.885C457.933 216.616 457.982 216.608 458.028 216.591C458.073 216.574 458.115 216.547 458.15 216.514C458.186 216.48 458.214 216.439 458.233 216.394C458.252 216.349 458.262 216.301 458.262 216.252C458.262 216.203 458.252 216.155 458.233 216.11C458.214 216.065 458.186 216.024 458.15 215.99C458.115 215.957 458.073 215.93 458.028 215.913C457.982 215.896 457.933 215.888 457.885 215.89H359.965C359.917 215.888 359.868 215.896 359.822 215.913C359.777 215.93 359.735 215.957 359.7 215.99C359.664 216.024 359.636 216.065 359.617 216.11C359.598 216.155 359.588 216.203 359.588 216.252C359.588 216.301 359.598 216.349 359.617 216.394C359.636 216.439 359.664 216.48 359.7 216.514C359.735 216.547 359.777 216.574 359.822 216.591C359.868 216.608 359.917 216.616 359.965 216.614Z" fill="white"/>
<path d="M359.965 227.475H418.12C418.213 227.471 418.301 227.431 418.366 227.364C418.43 227.296 418.466 227.207 418.466 227.113C418.466 227.02 418.43 226.93 418.366 226.863C418.301 226.795 418.213 226.755 418.12 226.751H359.965C359.917 226.749 359.868 226.757 359.822 226.774C359.777 226.792 359.735 226.818 359.7 226.852C359.664 226.885 359.636 226.926 359.617 226.971C359.598 227.016 359.588 227.064 359.588 227.113C359.588 227.162 359.598 227.211 359.617 227.255C359.636 227.3 359.664 227.341 359.7 227.375C359.735 227.409 359.777 227.435 359.822 227.452C359.868 227.469 359.917 227.477 359.965 227.475Z" fill="white"/>
<path d="M352.272 155.971H454.617L468.067 166.06V123.379C468.067 121.321 467.251 119.348 465.798 117.893C464.346 116.438 462.375 115.621 460.321 115.621H352.268C350.214 115.621 348.243 116.438 346.791 117.893C345.338 119.348 344.522 121.321 344.522 123.379V148.213C344.522 149.232 344.722 150.241 345.112 151.182C345.501 152.124 346.072 152.979 346.792 153.7C347.512 154.42 348.366 154.992 349.306 155.381C350.247 155.771 351.254 155.971 352.272 155.971Z" fill="#EFA30E"/>
<path opacity="0.11" d="M352.272 155.971H454.617L468.067 166.06V123.379C468.067 121.321 467.251 119.348 465.798 117.893C464.346 116.438 462.375 115.621 460.321 115.621H352.268C350.214 115.621 348.243 116.438 346.791 117.893C345.338 119.348 344.522 121.321 344.522 123.379V148.213C344.522 149.232 344.722 150.241 345.112 151.182C345.501 152.124 346.072 152.979 346.792 153.7C347.512 154.42 348.366 154.992 349.306 155.381C350.247 155.771 351.254 155.971 352.272 155.971Z" fill="white"/>
<path opacity="0.49" d="M352.272 155.971H454.617L468.067 166.06V123.379C468.067 121.321 467.251 119.348 465.798 117.893C464.346 116.438 462.375 115.621 460.321 115.621H352.268C350.214 115.621 348.243 116.438 346.791 117.893C345.338 119.348 344.522 121.321 344.522 123.379V148.213C344.522 149.232 344.722 150.241 345.112 151.182C345.501 152.124 346.072 152.979 346.792 153.7C347.512 154.42 348.366 154.992 349.306 155.381C350.247 155.771 351.254 155.971 352.272 155.971Z" fill="white"/>
<path d="M354.02 126.593H458.575C458.662 126.589 458.744 126.552 458.804 126.489C458.864 126.426 458.898 126.342 458.898 126.255C458.898 126.168 458.864 126.085 458.804 126.022C458.744 125.959 458.662 125.922 458.575 125.918H354.02C353.933 125.922 353.851 125.959 353.791 126.022C353.731 126.085 353.698 126.168 353.698 126.255C353.698 126.342 353.731 126.426 353.791 126.489C353.851 126.552 353.933 126.589 354.02 126.593Z" fill="white"/>
<path d="M354.02 136.718H458.575C458.662 136.714 458.744 136.676 458.804 136.614C458.864 136.551 458.898 136.467 458.898 136.38C458.898 136.293 458.864 136.21 458.804 136.147C458.744 136.084 458.662 136.047 458.575 136.043H354.02C353.933 136.047 353.851 136.084 353.791 136.147C353.731 136.21 353.698 136.293 353.698 136.38C353.698 136.467 353.731 136.551 353.791 136.614C353.851 136.676 353.933 136.714 354.02 136.718Z" fill="white"/>
<path d="M354.02 146.842H421.506C421.552 146.844 421.597 146.837 421.64 146.821C421.682 146.805 421.721 146.78 421.754 146.749C421.787 146.717 421.813 146.679 421.831 146.637C421.849 146.596 421.858 146.55 421.858 146.505C421.858 146.459 421.849 146.414 421.831 146.372C421.813 146.33 421.787 146.292 421.754 146.261C421.721 146.229 421.682 146.205 421.64 146.189C421.597 146.173 421.552 146.165 421.506 146.167H354.02C353.933 146.171 353.851 146.209 353.791 146.271C353.731 146.334 353.698 146.418 353.698 146.505C353.698 146.592 353.731 146.675 353.791 146.738C353.851 146.801 353.933 146.838 354.02 146.842Z" fill="white"/>
<path d="M586.133 503.639C586.133 503.639 583.136 519.193 568.592 520.063C554.048 520.933 557.202 532.533 557.202 532.533H612.781V504.723L586.133 503.639Z" fill="#EFA30E"/>
<path d="M616.55 219.857C616.55 219.857 616.376 215.18 616.412 225.789C616.55 265.358 615.233 513.568 615.233 513.568L578.712 513.26L556.591 218.249L616.55 219.857Z" fill="#262626"/>
<path d="M523.769 503.639C523.769 503.639 520.772 519.193 506.228 520.063C491.684 520.933 494.838 532.533 494.838 532.533H550.419V504.723L523.769 503.639Z" fill="#EFA30E"/>
<path d="M516.702 222.929C516.702 222.929 512.14 358.167 512.614 364.777L516.904 512.54L552.822 513.205L558.614 359.431C558.614 359.431 562.41 317.012 572.644 277.624C577.88 257.408 581.031 236.708 582.048 215.848L516.702 222.929Z" fill="#262626"/>
<path d="M564.092 318.813L561.096 272.942C561.096 272.942 558.02 292.012 558.02 308.449C558.02 316.483 559.673 348.292 559.673 348.292L564.092 318.813Z" fill="#0A0A0A"/>
<path d="M616.947 219.853L617.067 219.86C617.067 219.86 616.98 217.553 616.947 219.853Z" fill="#333333"/>
<path d="M616.797 219.853L616.916 219.86C616.916 219.86 616.83 217.553 616.797 219.853Z" fill="#333333"/>
<path d="M416.669 110.085C416.889 109.649 417.239 109.292 417.67 109.063C418.101 108.834 418.593 108.745 419.077 108.808C419.073 108.766 419.082 108.722 419.104 108.685C419.126 108.656 419.156 108.633 419.19 108.619C419.224 108.605 419.261 108.601 419.297 108.606L417.664 107.433C417.175 107.098 416.824 106.597 416.675 106.023C416.526 105.449 416.59 104.84 416.856 104.309C417.134 103.793 417.594 103.399 418.145 103.204C418.697 103.009 419.302 103.025 419.842 103.252C419.838 103.228 419.854 103.206 419.857 103.185L419.186 102.703C418.727 102.386 418.391 101.919 418.236 101.382C418.081 100.846 418.116 100.272 418.335 99.7579C418.479 99.4385 418.692 99.1551 418.958 98.9281C419.225 98.7011 419.539 98.5361 419.876 98.4451C420.214 98.3541 420.568 98.3394 420.912 98.4019C421.257 98.4644 421.583 98.6027 421.867 98.8067L423.416 99.9181C423.42 99.9088 423.416 99.8981 423.422 99.8895C423.428 99.8809 423.445 99.8782 423.454 99.8689C423.098 99.4681 422.889 98.9584 422.861 98.4231C422.833 97.8879 422.987 97.3589 423.298 96.9229C424.028 95.7451 425.717 95.9857 426.718 96.7042L435.832 103.01L434.203 100.263C433.876 99.7343 433.761 99.1009 433.881 98.4904C434.001 97.88 434.348 97.3379 434.852 96.9735C435.118 96.7947 435.419 96.6723 435.734 96.6136C436.05 96.5549 436.374 96.5612 436.687 96.6321C437 96.703 437.295 96.8371 437.555 97.026C437.814 97.215 438.033 97.4549 438.197 97.7312L447.091 112.729C448.134 114.488 448.451 116.586 447.975 118.576C447.499 120.566 446.267 122.292 444.541 123.387C442.539 124.656 440.204 125.298 437.835 125.23C435.466 125.162 433.172 124.387 431.246 123.005L417.482 113.124C417.024 112.783 416.695 112.298 416.547 111.746C416.4 111.195 416.443 110.609 416.669 110.085Z" fill="#FAA896"/>
<g opacity="0.25">
<path opacity="0.25" d="M432.436 106.149C432.402 106.195 432.352 106.226 432.296 106.236C432.24 106.245 432.182 106.232 432.135 106.2L423.475 100.193C423.45 100.177 423.429 100.156 423.412 100.132C423.395 100.108 423.384 100.08 423.378 100.051C423.372 100.022 423.372 99.9926 423.378 99.9637C423.384 99.9348 423.396 99.9075 423.413 99.8833C423.429 99.8591 423.451 99.8385 423.476 99.8228C423.501 99.8071 423.529 99.7967 423.558 99.792C423.587 99.7874 423.616 99.7887 423.645 99.7959C423.673 99.803 423.7 99.8159 423.724 99.8337L432.383 105.841C432.431 105.874 432.463 105.925 432.473 105.982C432.484 106.039 432.471 106.097 432.438 106.145L432.436 106.149Z" fill="#0C0C0C"/>
</g>
<g opacity="0.25">
<path opacity="0.25" d="M429.896 110.047C429.862 110.093 429.812 110.124 429.756 110.134C429.7 110.143 429.642 110.13 429.595 110.098L419.933 103.394C419.885 103.361 419.853 103.31 419.842 103.253C419.832 103.196 419.845 103.138 419.878 103.09C419.912 103.044 419.962 103.013 420.018 103.003C420.075 102.993 420.133 103.004 420.181 103.035L429.843 109.742C429.891 109.775 429.923 109.826 429.933 109.883C429.944 109.94 429.931 109.999 429.898 110.046L429.896 110.047Z" fill="#0C0C0C"/>
</g>
<g opacity="0.25">
<path opacity="0.25" d="M427.167 114.285C427.134 114.331 427.084 114.362 427.027 114.372C426.971 114.382 426.914 114.369 426.867 114.336L419.157 108.989C419.134 108.972 419.114 108.951 419.098 108.927C419.083 108.903 419.072 108.876 419.067 108.848C419.062 108.82 419.062 108.791 419.068 108.763C419.074 108.735 419.086 108.708 419.102 108.685C419.119 108.661 419.139 108.641 419.163 108.626C419.187 108.61 419.214 108.599 419.243 108.594C419.271 108.589 419.3 108.59 419.328 108.596C419.356 108.602 419.382 108.613 419.406 108.63L427.115 113.977C427.163 114.01 427.195 114.061 427.205 114.118C427.216 114.175 427.203 114.233 427.17 114.281L427.167 114.285Z" fill="#0C0C0C"/>
</g>
<path d="M452.339 109.312L478.462 153.869L510.337 111.998L536.808 135.899L491.602 194.533L491.306 194.95C489.496 197.432 487.086 199.412 484.301 200.703C481.516 201.994 478.449 202.554 475.389 202.33C472.328 202.105 469.375 201.104 466.808 199.421C464.24 197.738 462.143 195.427 460.714 192.708L423.567 125.338L452.339 109.312Z" fill="#EFA30E"/>
<path d="M481.023 159.227C481.076 159.227 481.128 159.215 481.174 159.19C481.253 159.15 481.312 159.081 481.339 158.997C481.366 158.913 481.359 158.822 481.319 158.744L478.758 153.718C478.739 153.678 478.712 153.642 478.679 153.612C478.645 153.583 478.607 153.56 478.565 153.546C478.523 153.531 478.478 153.526 478.434 153.529C478.39 153.532 478.346 153.544 478.307 153.564C478.267 153.585 478.232 153.613 478.204 153.647C478.175 153.681 478.154 153.72 478.141 153.763C478.128 153.805 478.123 153.85 478.128 153.894C478.132 153.939 478.146 153.981 478.167 154.02L480.728 159.046C480.755 159.101 480.798 159.146 480.85 159.178C480.902 159.21 480.962 159.227 481.023 159.227Z" fill="#0C0C0C"/>
<path d="M596.348 51.7664C596.348 51.7664 597.572 67.4308 601.159 73.0781C611.488 89.3341 614.638 107.72 604.596 117.461C594.555 127.202 529.795 128.086 524.636 106.009C520.291 87.4217 529.131 85.3153 531.11 69.9155C532.006 62.9481 534.521 48.3319 534.521 48.3319" fill="#0A0A0A"/>
<path d="M541.127 102.48C541.239 102.465 542.48 123.08 566.392 121.282C582.947 120.041 588.85 102.451 589.229 102.451C587.444 102.07 584.438 101.52 583.645 101.095C581.039 99.6915 577.813 98.2325 576.973 93.1621C576.489 90.2374 577.31 75.2916 577.057 72.335L551.646 78.0155C552.001 84.2591 554.486 98.7343 545.776 101.296C544.324 101.72 542.762 102.11 541.127 102.48Z" fill="#FAA896"/>
<path d="M551.287 95.3802C551.685 94.0956 551.941 92.7712 552.051 91.4306C552.331 88.3714 552.275 85.2908 551.885 82.2437C557.05 81.546 561.916 79.4111 565.929 76.0819C566.401 77.8268 568.996 85.4542 568.278 87.1113C566.92 90.2467 560.538 95.3802 551.287 95.3802Z" fill="#0C0C0C"/>
<path d="M554.655 88.8921C564.684 89.7469 577.6 85.5839 580.13 72.1914L582.414 60.1078C584.944 46.716 579.972 34.5287 567.382 32.1424C554.792 29.7561 543.33 38.8287 540.799 52.2204L539.788 57.5706C538.817 62.7088 536.761 87.3673 554.655 88.8921Z" fill="#FAA896"/>
<path d="M543.376 58.1535C544.248 58.1535 544.955 57.4458 544.955 56.5728C544.955 55.6999 544.248 54.9922 543.376 54.9922C542.505 54.9922 541.798 55.6999 541.798 56.5728C541.798 57.4458 542.505 58.1535 543.376 58.1535Z" fill="#0C0C0C"/>
<path d="M559.545 60.3165C560.417 60.3165 561.123 59.6088 561.123 58.7358C561.123 57.8628 560.417 57.1552 559.545 57.1552C558.673 57.1552 557.967 57.8628 557.967 58.7358C557.967 59.6088 558.673 60.3165 559.545 60.3165Z" fill="#0C0C0C"/>
<path d="M550.672 70.3256L550.647 70.3216C550.137 70.221 549.633 70.0926 549.137 69.9368C548.397 69.6981 547.428 69.3033 547.554 68.6339C547.698 67.8709 551.341 60.0334 551.756 59.142C551.774 59.1034 551.799 59.0688 551.83 59.0401C551.862 59.0114 551.898 58.9891 551.938 58.9746C551.978 58.96 552.021 58.9535 552.063 58.9554C552.105 58.9573 552.147 58.9675 552.186 58.9855C552.224 59.0034 552.259 59.0288 552.287 59.0602C552.316 59.0915 552.338 59.1283 552.353 59.1682C552.367 59.2082 552.374 59.2506 552.372 59.2931C552.37 59.3356 552.36 59.3773 552.342 59.4158C550.788 62.7533 548.287 68.2404 548.19 68.7543C548.273 68.9922 549.502 69.4449 550.768 69.6848C550.851 69.6994 550.925 69.7459 550.974 69.8144C551.023 69.8829 551.044 69.968 551.032 70.0516C551.019 70.1351 550.975 70.2105 550.907 70.2616C550.84 70.3126 550.756 70.3354 550.672 70.325V70.3256Z" fill="#0C0C0C"/>
<path d="M552.536 76.1085C550.483 75.8413 548.52 75.0947 546.808 73.9289C546.772 73.9057 546.741 73.8757 546.718 73.8406C546.694 73.8055 546.677 73.7661 546.668 73.7245C546.659 73.6829 546.659 73.6399 546.667 73.5982C546.674 73.5564 546.69 73.5165 546.713 73.4809C546.737 73.4453 546.767 73.4146 546.802 73.3906C546.837 73.3666 546.876 73.3497 546.918 73.3409C546.959 73.3322 547.002 73.3317 547.044 73.3395C547.085 73.3473 547.125 73.3633 547.161 73.3865C550.867 75.8047 554.55 76.1956 557.811 74.5165C557.877 74.4807 557.945 74.4483 558.014 74.4195C558.095 74.3903 558.184 74.3944 558.261 74.431C558.339 74.4675 558.399 74.5334 558.428 74.6142C558.457 74.6951 558.453 74.7842 558.417 74.862C558.38 74.9398 558.314 74.9998 558.234 75.029C558.208 75.0397 558.167 75.0623 558.107 75.0955C556.392 75.981 554.452 76.3337 552.536 76.1085Z" fill="#0C0C0C"/>
<path d="M592.486 64.3193L581.203 62.2468C572.655 58.783 570.07 43.9674 570.07 43.9674C570.07 43.9674 559.687 54.1015 534.526 48.3379C534.526 48.3379 539.571 13.1964 576.743 23.4115C588.729 26.7064 597.331 38.8027 596.256 54.9696C595.505 66.2981 592.486 64.3193 592.486 64.3193Z" fill="#0A0A0A"/>
<path d="M578.577 76.1232C582.403 76.8484 586.28 73.3367 587.006 69.5054C587.733 65.674 585.028 62.972 581.202 62.2468L578.746 64.4403L575.292 75.499L578.577 76.1232Z" fill="#FAA896"/>
<path d="M549.451 52.7362C548.334 52.0149 547.045 51.6072 545.717 51.5557C545.064 51.5268 544.41 51.5962 543.777 51.7618C543.15 51.9228 542.546 52.1625 541.979 52.475C541.902 52.5162 541.844 52.5856 541.817 52.6685C541.79 52.7515 541.796 52.8416 541.834 52.9202C541.872 52.9987 541.939 53.0596 542.02 53.0901C542.102 53.1206 542.192 53.1184 542.272 53.0839L542.296 53.0732C542.82 52.8154 543.375 52.6242 543.947 52.5042C544.511 52.3831 545.092 52.3484 545.667 52.4012C546.808 52.4969 547.904 52.8934 548.843 53.5505L548.874 53.5724C548.928 53.6117 548.989 53.64 549.054 53.6556C549.119 53.6712 549.186 53.6738 549.252 53.6634C549.318 53.653 549.381 53.6297 549.438 53.5948C549.495 53.5599 549.544 53.5141 549.583 53.4601C549.623 53.4061 549.651 53.3448 549.666 53.2799C549.682 53.2149 549.685 53.1475 549.674 53.0815C549.664 53.0156 549.641 52.9523 549.606 52.8953C549.571 52.8383 549.525 52.7888 549.471 52.7495L549.451 52.7362Z" fill="#0C0C0C"/>
<path d="M559.516 55.1098C560.629 54.8369 561.793 54.8635 562.892 55.1869C563.448 55.3465 563.976 55.589 564.46 55.9061C564.95 56.2256 565.398 56.6052 565.793 57.0361L565.811 57.0547C565.873 57.1169 565.957 57.1525 566.044 57.1541C566.132 57.1557 566.217 57.1231 566.281 57.0632C566.345 57.0034 566.383 56.9209 566.388 56.8332C566.392 56.7456 566.363 56.6596 566.305 56.5934C565.889 56.0967 565.413 55.6545 564.886 55.2773C564.355 54.8942 563.77 54.5931 563.151 54.384C561.894 53.9506 560.545 53.8642 559.244 54.134C559.179 54.148 559.117 54.1747 559.062 54.2126C559.007 54.2505 558.961 54.2989 558.925 54.3549C558.888 54.4109 558.864 54.4735 558.852 54.5391C558.84 54.6047 558.841 54.672 558.855 54.7372C558.869 54.8024 558.895 54.8643 558.933 54.9191C558.971 54.974 559.019 55.0209 559.075 55.0571C559.131 55.0933 559.194 55.1181 559.259 55.1301C559.325 55.1421 559.392 55.1411 559.457 55.1271L559.478 55.1224L559.516 55.1098Z" fill="#0C0C0C"/>
<path d="M552.1 79.1461C551.728 79.1039 551.36 79.0298 551 78.9248C550.959 78.9136 550.92 78.8942 550.887 78.8678C550.853 78.8415 550.824 78.8087 550.803 78.7713C550.782 78.7339 550.769 78.6926 550.764 78.65C550.759 78.6074 550.763 78.5642 550.774 78.5229C550.786 78.4817 550.806 78.4432 550.833 78.4097C550.86 78.3762 550.893 78.3484 550.931 78.3279C550.968 78.3074 551.01 78.2946 551.052 78.2903C551.095 78.2859 551.138 78.2901 551.179 78.3026C553.343 78.9261 554.574 78.0999 554.626 78.0647C554.696 78.0153 554.783 77.996 554.868 78.0109C554.953 78.0259 555.028 78.0739 555.077 78.1444C555.126 78.2149 555.146 78.3022 555.131 78.3869C555.116 78.4717 555.068 78.5471 554.997 78.5964C554.124 79.1094 553.1 79.3037 552.1 79.1461Z" fill="#0C0C0C"/>
<path d="M581.175 62.1039L581.286 61.7909C566.987 56.6501 570.484 42.5962 570.52 42.4547L570.2 42.3702C570.162 42.5145 566.585 56.8588 581.175 62.1039Z" fill="#0C0C0C"/>
<path opacity="0.1" d="M564.043 69.4352C564.173 68.2223 562.94 67.0948 561.289 66.9169C559.638 66.739 558.194 67.578 558.064 68.7909C557.934 70.0038 559.167 71.1313 560.818 71.3092C562.469 71.4871 563.913 70.648 564.043 69.4352Z" fill="#0C0C0C"/>
<path opacity="0.1" d="M543.344 66.6696C543.211 67.8807 541.767 68.7189 540.116 68.5428C539.83 68.5121 539.549 68.4517 539.276 68.3626C539.183 66.9216 539.162 65.5343 539.19 64.2501C539.646 64.1299 540.121 64.0965 540.589 64.1517C542.241 64.3279 543.473 65.4546 543.344 66.6696Z" fill="#0C0C0C"/>
<path d="M511.414 147.864C512.167 156.726 515.831 212.014 516.555 222.929H616.359C616.923 213.085 619.455 170.036 621.593 150.784C623.633 132.413 627.638 123.215 624.703 117.784C619.91 108.908 606.801 103.778 597.865 102.564C592.408 101.824 584.201 101.293 584.201 101.293C584.201 101.293 583.506 115.373 566.936 116.156C544.379 117.219 545.885 101.293 545.774 101.293C542.119 101.293 521.244 103.61 516.137 106.642C502.22 114.898 509.815 129.085 511.414 147.864Z" fill="#EFA30E"/>
<path d="M510.617 191.368C510.648 190.88 510.829 190.414 511.136 190.035C511.443 189.655 511.861 189.38 512.33 189.248C512.315 189.222 512.306 189.194 512.304 189.164C512.302 189.135 512.308 189.106 512.32 189.079C512.332 189.052 512.35 189.028 512.374 189.01C512.397 188.992 512.424 188.98 512.453 188.974L510.492 188.538C509.912 188.422 509.393 188.099 509.031 187.63C508.67 187.161 508.49 186.576 508.524 185.985C508.578 185.401 508.846 184.859 509.277 184.462C509.707 184.066 510.269 183.843 510.854 183.838C510.842 183.818 510.847 183.792 510.841 183.772L510.035 183.592C509.488 183.481 508.997 183.184 508.644 182.751C508.291 182.318 508.098 181.777 508.098 181.218C508.105 180.868 508.19 180.523 508.346 180.21C508.502 179.896 508.726 179.621 509.001 179.405C509.276 179.188 509.595 179.035 509.936 178.957C510.277 178.88 510.631 178.878 510.973 178.954L512.832 179.367C512.832 179.358 512.824 179.35 512.826 179.339C512.828 179.328 512.842 179.32 512.847 179.307C512.363 179.078 511.971 178.692 511.735 178.211C511.499 177.73 511.433 177.183 511.549 176.659C511.759 175.289 513.407 174.846 514.608 175.114L525.463 177.33L522.888 175.444C522.379 175.087 522.024 174.549 521.896 173.94C521.767 173.331 521.874 172.696 522.195 172.163C522.37 171.894 522.598 171.663 522.866 171.485C523.133 171.307 523.433 171.186 523.749 171.128C524.065 171.07 524.389 171.077 524.702 171.149C525.014 171.221 525.309 171.356 525.568 171.545L539.629 181.84C541.279 183.048 542.393 184.852 542.735 186.87C543.078 188.887 542.621 190.959 541.463 192.645C540.119 194.6 538.223 196.108 536.018 196.977C533.813 197.846 531.399 198.035 529.085 197.521L512.553 193.847C511.998 193.713 511.505 193.395 511.154 192.945C510.802 192.495 510.613 191.939 510.617 191.368Z" fill="#FAA896"/>
<g opacity="0.25">
<path opacity="0.25" d="M523.574 181.552C523.561 181.607 523.527 181.656 523.479 181.687C523.431 181.718 523.373 181.729 523.317 181.717L512.997 179.597C512.941 179.586 512.891 179.552 512.859 179.504C512.828 179.456 512.816 179.397 512.828 179.34C512.839 179.283 512.873 179.234 512.921 179.202C512.97 179.17 513.028 179.158 513.085 179.17L523.405 181.289C523.433 181.295 523.46 181.306 523.484 181.322C523.507 181.338 523.527 181.359 523.543 181.383C523.559 181.407 523.57 181.434 523.575 181.462C523.58 181.49 523.58 181.519 523.574 181.547L523.574 181.552Z" fill="#0C0C0C"/>
</g>
<g opacity="0.25">
<path opacity="0.25" d="M522.766 186.136C522.753 186.192 522.719 186.24 522.671 186.271C522.623 186.302 522.565 186.312 522.509 186.301L510.994 183.935C510.966 183.93 510.94 183.918 510.916 183.902C510.892 183.886 510.872 183.866 510.856 183.842C510.841 183.818 510.83 183.791 510.824 183.763C510.819 183.735 510.819 183.706 510.825 183.677C510.838 183.622 510.872 183.573 510.92 183.542C510.968 183.51 511.026 183.498 511.082 183.508L522.599 185.873C522.627 185.879 522.654 185.89 522.678 185.906C522.701 185.922 522.722 185.943 522.737 185.967C522.753 185.991 522.764 186.018 522.769 186.046C522.775 186.074 522.775 186.103 522.769 186.131L522.766 186.136Z" fill="#0C0C0C"/>
</g>
<g opacity="0.25">
<path opacity="0.25" d="M521.919 191.105C521.906 191.161 521.873 191.209 521.825 191.24C521.777 191.271 521.719 191.282 521.663 191.27L512.476 189.384C512.448 189.378 512.422 189.367 512.398 189.351C512.374 189.335 512.354 189.314 512.338 189.29C512.323 189.266 512.312 189.24 512.306 189.211C512.301 189.183 512.301 189.154 512.307 189.126C512.313 189.098 512.324 189.072 512.34 189.048C512.356 189.024 512.376 189.004 512.4 188.988C512.424 188.972 512.451 188.961 512.479 188.956C512.507 188.951 512.536 188.951 512.564 188.956L521.751 190.843C521.807 190.855 521.857 190.888 521.889 190.937C521.921 190.985 521.932 191.044 521.921 191.101L521.919 191.105Z" fill="#0C0C0C"/>
</g>
<path d="M530.109 204.074L619.807 220.308C622.606 220.614 625.438 220.265 628.08 219.29C630.722 218.315 633.102 216.74 635.034 214.689C636.966 212.638 638.397 210.167 639.215 207.468C640.033 204.77 640.216 201.919 639.749 199.138L627.19 124.387C626.793 122.024 625.935 119.762 624.665 117.731C623.396 115.699 621.739 113.939 619.789 112.549C617.84 111.159 615.636 110.167 613.304 109.63C610.972 109.093 608.557 109.021 606.197 109.419C603.837 109.816 601.579 110.676 599.55 111.947C597.522 113.219 595.764 114.879 594.376 116.831C592.988 118.783 591.998 120.99 591.462 123.326C590.925 125.661 590.854 128.08 591.251 130.443L599.813 181.901L534.052 173.63L530.109 204.074Z" fill="#EFA30E"/>
<path d="M619.806 220.641C619.889 220.641 619.969 220.609 620.03 220.553C620.091 220.497 620.129 220.42 620.136 220.338C620.144 220.255 620.12 220.173 620.07 220.107C620.019 220.041 619.946 219.996 619.865 219.981L530.478 203.804L534.339 174.001L599.771 182.231C599.823 182.237 599.875 182.232 599.924 182.215C599.973 182.197 600.017 182.169 600.053 182.131C600.089 182.094 600.115 182.049 600.13 181.999C600.146 181.95 600.149 181.897 600.141 181.846L594.698 148.959C594.691 148.915 594.676 148.874 594.653 148.837C594.63 148.799 594.6 148.767 594.565 148.742C594.529 148.716 594.489 148.698 594.446 148.688C594.404 148.679 594.359 148.678 594.316 148.685C594.23 148.7 594.152 148.748 594.101 148.82C594.05 148.892 594.029 148.981 594.044 149.068L599.414 181.515L534.092 173.3C534.004 173.289 533.917 173.313 533.847 173.367C533.778 173.421 533.733 173.5 533.721 173.587L529.777 204.031C529.766 204.115 529.788 204.201 529.839 204.27C529.889 204.339 529.964 204.386 530.048 204.401L619.745 220.635C619.765 220.639 619.786 220.641 619.806 220.641Z" fill="#0C0C0C"/>
<path d="M599.749 181.821L599.644 182.478L605.411 183.402L605.516 182.746L599.749 181.821Z" fill="#0C0C0C"/>
<path d="M512.176 153.617L511.513 153.655L512.311 167.728L512.973 167.69L512.176 153.617Z" fill="#0C0C0C"/>
<path d="M429.975 89.8858H293.515L272.909 105.343V24.6811C272.909 21.5288 274.159 18.5057 276.385 16.2767C278.611 14.0478 281.629 12.7955 284.777 12.7955H429.975C433.122 12.7957 436.141 14.048 438.366 16.277C440.592 18.5059 441.842 21.529 441.842 24.6811V78.0009C441.842 81.153 440.592 84.1759 438.366 86.4048C436.141 88.6336 433.122 89.8858 429.975 89.8858Z" fill="#EFA30E"/>
<path opacity="0.11" d="M429.975 89.8858H293.515L272.909 105.343V24.6811C272.909 21.5288 274.159 18.5057 276.385 16.2767C278.611 14.0478 281.629 12.7955 284.777 12.7955H429.975C433.122 12.7957 436.141 14.048 438.366 16.277C440.592 18.5059 441.842 21.529 441.842 24.6811V78.0009C441.842 81.153 440.592 84.1759 438.366 86.4048C436.141 88.6336 433.122 89.8858 429.975 89.8858Z" fill="white"/>
<path d="M287.455 44.8795H427.3C427.437 44.8795 427.568 44.825 427.665 44.728C427.762 44.631 427.816 44.4995 427.816 44.3624C427.816 44.2252 427.762 44.0937 427.665 43.9967C427.568 43.8997 427.437 43.8452 427.3 43.8452H287.455C287.318 43.8452 287.187 43.8997 287.09 43.9967C286.993 44.0937 286.939 44.2252 286.939 44.3624C286.939 44.4995 286.993 44.631 287.09 44.728C287.187 44.825 287.318 44.8795 287.455 44.8795Z" fill="white"/>
<path d="M287.455 30.1662H427.3C427.437 30.1662 427.568 30.1118 427.665 30.0148C427.762 29.9178 427.816 29.7863 427.816 29.6491C427.816 29.5119 427.762 29.3804 427.665 29.2834C427.568 29.1864 427.437 29.132 427.3 29.132H287.455C287.318 29.132 287.187 29.1864 287.09 29.2834C286.993 29.3804 286.939 29.5119 286.939 29.6491C286.939 29.7863 286.993 29.9178 287.09 30.0148C287.187 30.1118 287.318 30.1662 287.455 30.1662Z" fill="white"/>
<path d="M287.455 60.3902H427.3C427.437 60.3902 427.568 60.3358 427.665 60.2388C427.762 60.1418 427.816 60.0103 427.816 59.8731C427.816 59.7359 427.762 59.6044 427.665 59.5074C427.568 59.4104 427.437 59.356 427.3 59.356H287.455C287.318 59.356 287.187 59.4104 287.09 59.5074C286.993 59.6044 286.939 59.7359 286.939 59.8731C286.939 60.0103 286.993 60.1418 287.09 60.2388C287.187 60.3358 287.318 60.3902 287.455 60.3902Z" fill="white"/>
<path d="M287.455 75.9017H370.507C370.644 75.9017 370.775 75.8472 370.872 75.7502C370.969 75.6533 371.023 75.5217 371.023 75.3846C371.023 75.2474 370.969 75.1159 370.872 75.0189C370.775 74.9219 370.644 74.8674 370.507 74.8674H287.455C287.318 74.8674 287.187 74.9219 287.09 75.0189C286.993 75.1159 286.939 75.2474 286.939 75.3846C286.939 75.5217 286.993 75.6533 287.09 75.7502C287.187 75.8472 287.318 75.9017 287.455 75.9017Z" fill="white"/>
<path d="M83.4615 445.617C83.2855 445.617 83.1167 445.547 82.9922 445.422C82.0564 444.486 80.5325 427.303 76.4268 376.144C74.7469 355.211 73.1599 335.44 72.0018 323.423C71.9195 322.565 71.5869 322.465 71.4774 322.433C69.8925 321.954 65.0719 325.761 62.3799 329.094C62.3251 329.162 62.2574 329.219 62.1808 329.26C62.1043 329.302 62.0202 329.328 61.9335 329.337C61.8468 329.347 61.7592 329.339 61.6756 329.314C61.592 329.289 61.5141 329.248 61.4464 329.193C61.3786 329.138 61.3223 329.071 61.2807 328.994C61.239 328.917 61.2129 328.833 61.2037 328.746C61.1946 328.659 61.2026 328.572 61.2273 328.488C61.252 328.404 61.293 328.326 61.3478 328.258C63.1279 326.054 68.9288 320.276 71.8597 321.159C72.4504 321.337 73.1838 321.852 73.3199 323.296C74.4788 335.322 76.0657 355.1 77.7469 376.038C80.2418 407.126 83.0679 442.346 83.9971 444.564C84.0684 444.663 84.111 444.78 84.1202 444.902C84.1293 445.024 84.1047 445.147 84.049 445.255C83.9932 445.364 83.9086 445.456 83.8043 445.519C83.7001 445.583 83.5803 445.617 83.4582 445.617H83.4615Z" fill="#494949"/>
<path d="M70.2976 345.472C81.3111 336.631 84.9615 322.869 78.4508 314.735C71.9402 306.601 57.734 307.174 46.7205 316.015C35.7069 324.857 32.0566 338.618 38.5672 346.752C45.0779 354.887 59.284 354.314 70.2976 345.472Z" fill="#FD870E"/>
<path opacity="0.2" d="M70.2976 345.472C81.3111 336.631 84.9615 322.869 78.4508 314.735C71.9402 306.601 57.734 307.174 46.7205 316.015C35.7069 324.857 32.0566 338.618 38.5672 346.752C45.0779 354.887 59.284 354.314 70.2976 345.472Z" fill="white"/>
<path d="M41.6534 348.82C41.5763 348.82 41.5015 348.793 41.4424 348.743C41.3754 348.687 41.3332 348.607 41.325 348.519C41.3168 348.432 41.3432 348.346 41.3986 348.278L72.7863 310.37C72.8426 310.303 72.9234 310.26 73.0111 310.252C73.0988 310.244 73.1861 310.271 73.2539 310.327C73.3217 310.383 73.3643 310.464 73.3725 310.552C73.3806 310.64 73.3536 310.727 73.2974 310.795L41.9096 348.703C41.878 348.74 41.8387 348.77 41.7944 348.79C41.7502 348.81 41.702 348.82 41.6534 348.82Z" fill="white"/>
<path d="M90.3071 437.488C90.2329 437.488 90.1593 437.476 90.0894 437.451C89.9231 437.393 89.7867 437.272 89.71 437.113C89.6333 436.954 89.6227 436.771 89.6805 436.605L101.47 402.647C101.817 401.65 102.409 400.755 103.191 400.045C103.972 399.336 104.919 398.834 105.945 398.586C106.971 398.339 108.042 398.352 109.061 398.627C110.08 398.901 111.014 399.427 111.777 400.156L118.01 406.12C118.075 406.179 118.128 406.252 118.165 406.332C118.202 406.412 118.222 406.499 118.225 406.588C118.228 406.676 118.214 406.764 118.182 406.847C118.151 406.93 118.103 407.005 118.042 407.069C117.981 407.134 117.908 407.185 117.827 407.22C117.746 407.255 117.658 407.274 117.57 407.275C117.482 407.276 117.394 407.259 117.312 407.226C117.23 407.193 117.156 407.143 117.093 407.081L110.86 401.118C110.257 400.542 109.52 400.127 108.716 399.911C107.912 399.695 107.066 399.684 106.256 399.879C105.447 400.075 104.699 400.471 104.082 401.031C103.465 401.591 102.998 402.297 102.724 403.084L90.9336 437.042C90.8883 437.173 90.8037 437.286 90.6914 437.365C90.5791 437.445 90.4448 437.488 90.3071 437.488Z" fill="#494949"/>
<path d="M135.424 424.919C143.586 418.448 143.101 404.218 134.341 393.134C125.58 382.05 111.862 378.31 103.7 384.78C95.5377 391.25 96.0228 405.481 104.783 416.565C113.544 427.649 127.262 431.389 135.424 424.919Z" fill="#FD870E"/>
<path d="M78.1047 443.449C77.9556 443.449 77.811 443.399 77.6941 443.306C77.5772 443.213 77.4948 443.084 77.4602 442.939L57.6769 360.088C57.5417 359.523 57.2537 359.006 56.8444 358.595C56.4351 358.184 55.9205 357.893 55.3571 357.756C54.7937 357.618 54.2033 357.639 53.651 357.816C53.0987 357.993 52.6058 358.319 52.2264 358.758L46.1269 365.817C46.0701 365.884 46.0007 365.939 45.9226 365.979C45.8445 366.019 45.7592 366.043 45.6718 366.049C45.5843 366.056 45.4964 366.045 45.4131 366.018C45.3298 365.99 45.2528 365.947 45.1865 365.889C45.1202 365.832 45.0659 365.761 45.0268 365.683C44.9877 365.604 44.9646 365.519 44.9587 365.431C44.9528 365.343 44.9644 365.255 44.9926 365.172C45.0209 365.089 45.0653 365.012 45.1234 364.947L51.2222 357.888C51.7615 357.264 52.4623 356.801 53.2475 356.55C54.0326 356.298 54.8718 356.269 55.6725 356.465C56.4732 356.661 57.2045 357.074 57.7859 357.659C58.3673 358.244 58.7763 358.978 58.9678 359.781L78.7538 442.632C78.7947 442.804 78.766 442.985 78.6739 443.135C78.5818 443.285 78.4338 443.392 78.2627 443.433C78.2109 443.445 78.1578 443.45 78.1047 443.449Z" fill="#494949"/>
<path d="M70.805 384.222C73.2102 370.292 66.8448 357.56 56.5874 355.784C46.3301 354.007 36.0651 363.859 33.6599 377.789C31.2547 391.718 37.6201 404.45 47.8774 406.226C58.1348 408.003 68.3998 398.151 70.805 384.222Z" fill="#FD870E"/>
<path d="M83.4622 445.617C83.4349 445.617 83.4076 445.615 83.3805 445.612C83.294 445.601 83.2103 445.573 83.1344 445.53C83.0585 445.487 82.9918 445.43 82.9381 445.361C82.8844 445.292 82.8448 445.213 82.8215 445.129C82.7983 445.045 82.7918 444.957 82.8024 444.87L95.4369 342.136C95.5745 341.017 96.0318 339.961 96.7541 339.096C97.4763 338.231 98.4326 337.593 99.5081 337.26C100.584 336.926 101.732 336.911 102.817 337.215C103.901 337.52 104.874 338.131 105.619 338.977L120.061 355.357C120.177 355.489 120.237 355.662 120.226 355.838C120.215 356.014 120.135 356.179 120.003 356.296C119.871 356.413 119.698 356.472 119.522 356.461C119.346 356.45 119.182 356.37 119.065 356.238L104.623 339.857C104.047 339.204 103.295 338.731 102.458 338.496C101.62 338.26 100.732 338.272 99.9007 338.53C99.0695 338.788 98.3303 339.281 97.7721 339.949C97.2138 340.617 96.8602 341.433 96.7537 342.298L84.1199 445.031C84.1006 445.192 84.0231 445.341 83.9019 445.449C83.7807 445.557 83.6243 445.617 83.4622 445.617Z" fill="#494949"/>
<path d="M134.872 364.458C139.91 355.336 133.982 342.394 121.63 335.552C109.279 328.709 95.1816 330.558 90.1431 339.68C85.1045 348.803 91.0328 361.745 103.384 368.587C115.736 375.429 129.833 373.581 134.872 364.458Z" fill="#FD870E"/>
<path opacity="0.2" d="M135.424 424.919C143.586 418.448 143.101 404.218 134.341 393.134C125.58 382.05 111.862 378.31 103.7 384.78C95.5377 391.25 96.0228 405.481 104.783 416.565C113.544 427.649 127.262 431.389 135.424 424.919Z" fill="white"/>
<path opacity="0.5" d="M70.805 384.222C73.2102 370.292 66.8448 357.56 56.5874 355.784C46.3301 354.007 36.0651 363.859 33.6599 377.789C31.2547 391.718 37.6201 404.45 47.8774 406.226C58.1348 408.003 68.3998 398.151 70.805 384.222Z" fill="white"/>
<path opacity="0.5" d="M134.872 364.458C139.91 355.336 133.982 342.394 121.63 335.552C109.279 328.709 95.1816 330.558 90.1431 339.68C85.1045 348.803 91.0328 361.745 103.384 368.587C115.736 375.429 129.833 373.581 134.872 364.458Z" fill="white"/>
<path d="M99.6217 532.785H67.3007L61.9452 429.221H104.977L99.6217 532.785Z" fill="#292A2E"/>
<path opacity="0.3" d="M99.6217 532.785H67.3007L61.9452 429.221H104.977L99.6217 532.785Z" fill="white"/>
<path d="M135.426 425.249C135.376 425.249 135.326 425.238 135.281 425.216C135.236 425.194 135.197 425.162 135.166 425.123L103.44 384.984C103.385 384.915 103.36 384.827 103.37 384.739C103.381 384.652 103.425 384.572 103.494 384.517C103.563 384.462 103.651 384.437 103.738 384.448C103.826 384.458 103.906 384.502 103.96 384.571L135.686 424.71C135.74 424.779 135.765 424.867 135.755 424.954C135.744 425.041 135.7 425.121 135.632 425.175C135.573 425.223 135.501 425.249 135.426 425.249Z" fill="white"/>
<path d="M132.762 367.675C132.691 367.674 132.623 367.651 132.566 367.608L91.9697 337.921C91.9 337.869 91.8537 337.791 91.8409 337.705C91.828 337.618 91.8496 337.53 91.9009 337.46C91.9523 337.389 92.0293 337.342 92.1153 337.328C92.2013 337.313 92.2894 337.334 92.3606 337.384L132.958 367.072C133.014 367.114 133.055 367.172 133.076 367.239C133.096 367.305 133.096 367.377 133.074 367.443C133.052 367.509 133.01 367.567 132.953 367.607C132.897 367.648 132.829 367.67 132.759 367.67L132.762 367.675Z" fill="white"/>
<path d="M46.2304 405.794C46.2015 405.794 46.1728 405.79 46.1448 405.783C46.0598 405.76 45.9873 405.704 45.9432 405.628C45.8992 405.552 45.8872 405.461 45.9098 405.376L58.833 356.884C58.8437 356.841 58.8628 356.801 58.8891 356.765C58.9154 356.73 58.9486 356.7 58.9865 356.678C59.0244 356.655 59.0665 356.641 59.1101 356.635C59.1537 356.629 59.1981 356.632 59.2407 356.643C59.2832 356.654 59.3231 356.674 59.358 356.701C59.3928 356.728 59.422 356.762 59.4437 356.8C59.4654 356.839 59.4793 356.881 59.4846 356.925C59.4898 356.968 59.4863 357.013 59.4742 357.055L46.5503 405.547C46.5315 405.618 46.49 405.68 46.4321 405.725C46.3743 405.77 46.3034 405.794 46.2304 405.794Z" fill="white"/>
<path opacity="0.2" d="M185.537 253.58C230.556 253.58 267.052 217.03 267.052 171.944C267.052 126.858 230.556 90.3079 185.537 90.3079C140.518 90.3079 104.022 126.858 104.022 171.944C104.022 217.03 140.518 253.58 185.537 253.58Z" fill="#EFA30E"/>
<path d="M460.615 266.304H303.784C296.498 266.304 290.592 272.219 290.592 279.516C290.592 286.812 296.498 292.727 303.784 292.727H460.615C467.901 292.727 473.807 286.812 473.807 279.516C473.807 272.219 467.901 266.304 460.615 266.304Z" fill="white"/>
<path d="M460.618 293.226H303.782C301.977 293.238 300.186 292.893 298.514 292.21C296.842 291.526 295.322 290.518 294.041 289.244C292.759 287.97 291.742 286.454 291.049 284.785C290.355 283.115 289.997 281.324 289.997 279.516C289.997 277.707 290.355 275.917 291.049 274.247C291.742 272.578 292.759 271.062 294.041 269.788C295.322 268.513 296.842 267.505 298.514 266.822C300.186 266.139 301.977 265.793 303.782 265.806H460.618C464.233 265.831 467.69 267.287 470.237 269.855C472.784 272.423 474.213 275.896 474.213 279.516C474.213 283.135 472.784 286.608 470.237 289.177C467.69 291.745 464.233 293.2 460.618 293.226ZM303.782 266.803C302.108 266.791 300.447 267.111 298.896 267.744C297.346 268.378 295.935 269.312 294.747 270.494C293.558 271.676 292.615 273.081 291.972 274.63C291.328 276.178 290.996 277.839 290.996 279.516C290.996 281.193 291.328 282.854 291.972 284.402C292.615 285.951 293.558 287.356 294.747 288.538C295.935 289.72 297.346 290.654 298.896 291.287C300.447 291.921 302.108 292.241 303.782 292.229H460.618C463.969 292.204 467.174 290.854 469.535 288.473C471.896 286.091 473.221 282.872 473.221 279.516C473.221 276.16 471.896 272.94 469.535 270.559C467.174 268.177 463.969 266.827 460.618 266.803H303.782Z" fill="#292A2E"/>
<path d="M628.68 533H57.6065C57.5455 533 57.4851 532.988 57.4287 532.964C57.3723 532.941 57.3211 532.907 57.278 532.864C57.2348 532.82 57.2006 532.769 57.1773 532.713C57.1539 532.656 57.1419 532.596 57.1419 532.535C57.1419 532.474 57.1539 532.413 57.1773 532.357C57.2006 532.3 57.2348 532.249 57.278 532.206C57.3211 532.162 57.3723 532.128 57.4287 532.105C57.4851 532.081 57.5455 532.069 57.6065 532.069H628.68C628.803 532.069 628.922 532.118 629.009 532.206C629.096 532.293 629.145 532.411 629.145 532.535C629.145 532.658 629.096 532.776 629.009 532.864C628.922 532.951 628.803 533 628.68 533Z" fill="#292A2E"/>
<path d="M185.5 253C230.511 253 267 216.511 267 171.5C267 126.489 230.511 90 185.5 90C140.489 90 104 126.489 104 171.5C104 216.511 140.489 253 185.5 253Z" fill="#EFA30E"/>
<path d="M170.558 208.854C167.918 208.854 168.367 207.857 167.456 205.343L159.692 179.791L219.458 144.333" fill="#C8DAEA"/>
<path d="M170.558 208.854C172.596 208.854 173.496 207.922 174.633 206.817L185.5 196.25L171.945 188.076" fill="#A9C9DD"/>
<path d="M169.944 188.078L202.788 212.344C206.537 214.412 209.241 213.341 210.175 208.865L223.544 145.863C224.913 140.376 221.453 137.886 217.867 139.514L139.362 169.785C134.003 171.935 134.035 174.924 138.385 176.256L158.531 182.545L205.172 153.12C207.373 151.784 209.395 152.502 207.736 153.974" fill="url(#paint0_linear_0_677)"/>
<rect x="304" y="277" width="156" height="6" rx="3" fill="black" fill-opacity="0.15"/>
</g>
<defs>
<linearGradient id="paint0_linear_0_677" x1="193.717" y1="171.506" x2="206.436" y2="200.486" gradientUnits="userSpaceOnUse">
<stop stop-color="#EFF7FC"/>
<stop offset="1" stop-color="white"/>
</linearGradient>
<clipPath id="clip0_0_677">
<rect width="640" height="533" fill="white"/>
</clipPath>
</defs>
</svg>
