<svg width="638" height="355" viewBox="0 0 638 355" fill="none" xmlns="http://www.w3.org/2000/svg">
<g clip-path="url(#clip0_0_552)">
<path d="M621.746 137.461L614.982 154.729L619.778 156.599L626.541 139.331L621.746 137.461Z" fill="#EFA30E"/>
<path d="M199.241 95.1184L195.406 98.5461L207.801 112.357L211.636 108.929L199.241 95.1184Z" fill="#FD870E"/>
<path d="M256.068 156.932L241.198 168.047L244.285 172.16L259.155 161.045L256.068 156.932Z" fill="#EFA30E"/>
<path d="M428.055 29.3854L424.527 33.127L438.058 45.8327L441.586 42.0912L428.055 29.3854Z" fill="#EFA30E"/>
<path d="M329.669 33.517L320.409 49.5907L324.873 52.1513L334.133 36.0776L329.669 33.517Z" fill="#FD870E"/>
<path d="M464.135 170.973L459.781 173.715L469.696 189.394L474.05 186.652L464.135 170.973Z" fill="#FD870E"/>
<path d="M262.242 247.322L257.636 249.618L265.939 266.204L270.545 263.907L262.242 247.322Z" fill="#FD870E"/>
<path d="M194.858 203.683L189.523 221.442L194.454 222.917L199.789 205.158L194.858 203.683Z" fill="#EFA30E"/>
<path d="M517.153 259.022L501.722 269.348L504.59 273.615L520.02 263.289L517.153 259.022Z" fill="#EFA30E"/>
<path d="M519.464 0.00137003L510.205 16.0746L514.668 18.6351L523.928 2.56188L519.464 0.00137003Z" fill="#FD870E"/>
<path d="M4.79398 131.496L-0.000396729 133.369L6.75558 150.639L11.55 148.767L4.79398 131.496Z" fill="#FD870E"/>
<path d="M502.569 110.166L499.482 114.278L514.352 125.393L517.439 121.281L502.569 110.166Z" fill="#FD870E"/>
<path d="M84.8727 34.4132L71.3418 47.119L74.87 50.8606L88.4009 38.1548L84.8727 34.4132Z" fill="#EFA30E"/>
<path d="M234.742 19.2828L230.279 21.8434L239.539 37.917L244.002 35.3564L234.742 19.2828Z" fill="#EFA30E"/>
<path d="M52.6866 221.096L42.7715 236.775L47.1255 239.516L57.0406 223.838L52.6866 221.096Z" fill="#FD870E"/>
<path d="M8.76951 264.046L5.90179 268.315L21.3409 278.642L24.2087 274.372L8.76951 264.046Z" fill="#EFA30E"/>
<path d="M604.421 59.2973L599.958 61.8578L609.217 77.931L613.681 75.3705L604.421 59.2973Z" fill="#EFA30E"/>
<path d="M410.984 103.101L398.588 116.911L402.424 120.339L414.819 106.528L410.984 103.101Z" fill="#EFA30E"/>
<path d="M302.169 258.77L293.865 275.355L298.471 277.651L306.774 261.066L302.169 258.77Z" fill="#FD870E"/>
<path d="M369.555 215.132L364.624 216.607L369.959 234.366L374.89 232.891L369.555 215.132Z" fill="#EFA30E"/>
<path d="M371.215 225.267L353.667 211.956C353.281 211.663 352.839 211.454 352.368 211.342C351.897 211.23 351.407 211.216 350.931 211.303C350.454 211.39 350.001 211.574 349.6 211.845C349.199 212.116 348.859 212.467 348.601 212.877C348.149 213.647 348 214.557 348.183 215.431C348.365 216.305 348.867 217.08 349.589 217.606L353.352 220.46L337.392 216.905C335.625 216.479 333.182 217.084 332.833 219.094C332.649 219.859 332.729 220.664 333.062 221.377C333.394 222.091 333.959 222.67 334.664 223.022C334.656 223.038 334.65 223.054 334.645 223.071C334.644 223.084 334.644 223.098 334.645 223.111L331.919 222.454C331.414 222.332 330.888 222.325 330.38 222.432C329.872 222.539 329.394 222.758 328.981 223.072C328.568 223.387 328.231 223.79 327.994 224.251C327.757 224.712 327.626 225.221 327.611 225.739C327.603 226.555 327.877 227.349 328.386 227.988C328.895 228.628 329.608 229.073 330.407 229.25L331.565 229.53C331.573 229.567 331.586 229.602 331.606 229.635C330.778 229.628 329.975 229.914 329.34 230.444C328.705 230.973 328.279 231.711 328.139 232.525C328.011 233.42 328.227 234.33 328.742 235.074C329.257 235.817 330.035 236.339 330.919 236.536L333.801 237.231C333.753 237.25 333.711 237.28 333.677 237.318C333.644 237.357 333.62 237.402 333.608 237.452C333.596 237.512 333.602 237.573 333.625 237.63C332.886 237.827 332.232 238.262 331.765 238.866C331.298 239.471 331.042 240.212 331.038 240.975C331.05 241.777 331.333 242.551 331.84 243.173C332.348 243.794 333.051 244.227 333.836 244.4L358.146 250.261C361.547 251.08 365.116 250.868 368.395 249.65C371.674 248.433 374.514 246.266 376.552 243.428V243.428C378.308 240.981 379.039 237.946 378.589 234.969C378.14 231.993 376.544 229.308 374.142 227.487L371.215 225.267Z" fill="#FAA896"/>
<g opacity="0.2">
<path opacity="0.2" d="M350.445 226.62C350.425 226.701 350.373 226.771 350.302 226.815C350.23 226.86 350.144 226.874 350.062 226.855L334.887 223.452C334.846 223.442 334.807 223.425 334.772 223.401C334.738 223.377 334.708 223.346 334.686 223.31C334.663 223.274 334.648 223.235 334.64 223.193C334.633 223.151 334.634 223.109 334.644 223.068C334.653 223.027 334.67 222.988 334.695 222.953C334.719 222.919 334.75 222.889 334.786 222.867C334.821 222.844 334.861 222.829 334.903 222.822C334.945 222.815 334.987 222.816 335.028 222.825L350.203 226.229C350.244 226.238 350.284 226.255 350.318 226.28C350.353 226.304 350.382 226.335 350.405 226.371C350.428 226.407 350.443 226.447 350.45 226.488C350.457 226.53 350.456 226.573 350.446 226.614L350.445 226.62Z" fill="#0C0C0C"/>
</g>
<g opacity="0.2">
<path opacity="0.2" d="M349.126 233.34C349.106 233.422 349.054 233.493 348.982 233.537C348.91 233.581 348.823 233.595 348.74 233.576L331.805 229.78C331.764 229.771 331.724 229.754 331.69 229.729C331.655 229.705 331.626 229.674 331.603 229.638C331.58 229.602 331.565 229.562 331.558 229.52C331.551 229.479 331.552 229.436 331.562 229.395C331.583 229.313 331.635 229.242 331.707 229.197C331.778 229.152 331.865 229.136 331.948 229.152L348.883 232.947C348.924 232.957 348.964 232.974 348.998 232.998C349.033 233.023 349.062 233.054 349.085 233.09C349.108 233.125 349.123 233.165 349.13 233.207C349.137 233.249 349.136 233.292 349.126 233.333V233.34Z" fill="#0C0C0C"/>
</g>
<g opacity="0.2">
<path opacity="0.2" d="M347.741 240.626C347.72 240.708 347.669 240.778 347.597 240.822C347.526 240.866 347.44 240.88 347.358 240.862L333.849 237.835C333.766 237.816 333.693 237.765 333.648 237.693C333.602 237.621 333.587 237.534 333.605 237.451C333.624 237.368 333.675 237.296 333.747 237.25C333.819 237.204 333.907 237.189 333.99 237.208L347.499 240.235C347.54 240.244 347.579 240.262 347.614 240.286C347.649 240.31 347.679 240.341 347.701 240.377C347.724 240.413 347.739 240.453 347.746 240.495C347.753 240.536 347.752 240.579 347.743 240.621L347.741 240.626Z" fill="#0C0C0C"/>
</g>
<path d="M287.904 133.711L297.701 114.008C297.917 113.575 298.22 113.191 298.592 112.882C298.964 112.572 299.396 112.343 299.862 112.21C300.327 112.076 300.815 112.04 301.295 112.105C301.775 112.17 302.236 112.334 302.649 112.587C303.397 113.077 303.937 113.826 304.163 114.69C304.389 115.554 304.285 116.471 303.872 117.263L301.771 121.488L314.487 111.23C315.881 110.064 318.339 109.524 319.545 111.171C320.051 111.774 320.337 112.531 320.357 113.317C320.376 114.104 320.128 114.874 319.653 115.501C319.667 115.512 319.68 115.524 319.692 115.537C319.699 115.548 319.705 115.56 319.711 115.572L321.861 113.774C322.259 113.441 322.727 113.201 323.23 113.072C323.733 112.943 324.258 112.927 324.768 113.026C325.278 113.125 325.759 113.336 326.177 113.644C326.595 113.953 326.938 114.35 327.182 114.807C327.552 115.535 327.661 116.368 327.49 117.166C327.318 117.965 326.877 118.68 326.241 119.193L325.326 119.958C325.336 119.994 325.339 120.032 325.335 120.07C326.073 119.697 326.921 119.597 327.725 119.79C328.53 119.982 329.24 120.454 329.728 121.121C330.241 121.867 330.452 122.778 330.321 123.673C330.19 124.567 329.725 125.38 329.02 125.948L326.748 127.847C326.799 127.842 326.851 127.85 326.898 127.869C326.945 127.889 326.988 127.919 327.021 127.958C327.058 128.007 327.08 128.065 327.085 128.126C327.835 127.975 328.614 128.075 329.302 128.409C329.99 128.743 330.548 129.294 330.892 129.976C331.238 130.7 331.33 131.519 331.151 132.301C330.973 133.083 330.535 133.782 329.909 134.285L310.737 150.31C308.055 152.552 304.764 153.944 301.284 154.307C297.804 154.67 294.295 153.987 291.207 152.347C288.544 150.932 286.539 148.538 285.617 145.672C284.695 142.806 284.929 139.694 286.269 136.998L287.904 133.711Z" fill="#FAA896"/>
<g opacity="0.2">
<path opacity="0.2" d="M307.115 125.717C307.169 125.782 307.247 125.822 307.331 125.83C307.416 125.838 307.5 125.812 307.565 125.759L319.647 115.986C319.714 115.932 319.756 115.854 319.765 115.77C319.774 115.685 319.749 115.6 319.695 115.534C319.641 115.468 319.563 115.426 319.478 115.417C319.393 115.408 319.308 115.433 319.242 115.487L307.16 125.26C307.094 125.313 307.052 125.391 307.043 125.475C307.034 125.559 307.059 125.643 307.112 125.709L307.115 125.717Z" fill="#0C0C0C"/>
</g>
<g opacity="0.2">
<path opacity="0.2" d="M311.287 131.154C311.342 131.219 311.419 131.259 311.504 131.267C311.588 131.274 311.672 131.249 311.738 131.195L325.221 120.288C325.287 120.235 325.329 120.157 325.338 120.073C325.346 119.989 325.321 119.905 325.268 119.839C325.213 119.776 325.136 119.736 325.052 119.727C324.969 119.718 324.885 119.741 324.818 119.791L311.329 130.696C311.264 130.75 311.222 130.827 311.213 130.911C311.204 130.995 311.229 131.079 311.282 131.146L311.287 131.154Z" fill="#0C0C0C"/>
</g>
<g opacity="0.2">
<path opacity="0.2" d="M315.772 137.067C315.826 137.132 315.904 137.173 315.989 137.181C316.073 137.188 316.157 137.163 316.222 137.109L326.978 128.409C327.045 128.355 327.087 128.278 327.096 128.193C327.105 128.108 327.079 128.023 327.026 127.957C326.972 127.891 326.894 127.849 326.809 127.84C326.724 127.831 326.639 127.856 326.573 127.91L315.814 136.61C315.749 136.664 315.707 136.741 315.698 136.825C315.689 136.909 315.714 136.994 315.767 137.06L315.772 137.067Z" fill="#0C0C0C"/>
</g>
<path d="M68.0245 116.817C68.0245 116.817 66.6428 137.506 61.9789 145.01C48.5503 166.619 44.66 190.928 58.1072 203.629C71.5544 216.33 157.325 216.506 163.823 187.294C169.293 162.701 157.554 160.056 154.697 139.771C153.405 130.591 149.849 111.342 149.849 111.342" fill="#0A0A0A"/>
<path d="M141.625 183.011C141.477 182.992 139.834 210.197 108.163 207.825C86.2385 206.185 78.4212 182.972 77.9192 182.972C80.283 182.47 84.2634 181.741 85.3131 181.182C88.7658 179.331 93.0358 177.404 94.1505 170.714C94.7941 166.861 93.7032 147.131 94.0385 143.227L127.693 150.726C127.222 158.966 123.931 178.068 135.467 181.448C137.386 182.009 139.454 182.523 141.625 183.011Z" fill="#FAA896"/>
<path opacity="0.5" d="M128.165 173.643C127.638 171.948 127.298 170.2 127.152 168.431C126.783 164.394 126.856 160.329 127.372 156.308C120.533 155.386 114.089 152.569 108.774 148.176C108.149 150.479 104.711 160.542 105.663 162.731C107.461 166.868 115.913 173.643 128.165 173.643Z" fill="#0C0C0C"/>
<path d="M123.813 165.168C110.544 166.452 93.3763 161.153 89.82 143.52L86.6112 127.61C83.0549 109.977 89.4525 93.8193 106.089 90.4779C122.727 87.1384 138.045 98.9325 141.601 116.566L143.022 123.609C144.386 130.375 147.486 162.881 123.813 165.168Z" fill="#FAA896"/>
<path opacity="0.1" d="M115.378 142.061C117.562 141.801 119.177 140.295 118.986 138.697C118.795 137.099 116.87 136.014 114.686 136.274C112.503 136.534 110.888 138.04 111.079 139.638C111.27 141.236 113.195 142.321 115.378 142.061Z" fill="#0C0C0C"/>
<path opacity="0.1" d="M138.451 135.672C138.644 137.268 140.572 138.351 142.755 138.094C143.133 138.049 143.504 137.965 143.864 137.843C143.966 135.94 143.972 134.11 143.916 132.415C143.31 132.264 142.68 132.227 142.06 132.307C139.877 132.564 138.262 134.07 138.451 135.672Z" fill="#0C0C0C"/>
<path opacity="0.5" d="M128.803 140.605C128.814 140.604 128.825 140.602 128.835 140.599C129.51 140.459 130.176 140.282 130.83 140.068C131.807 139.742 133.083 139.207 132.908 138.325C132.706 137.32 127.759 127.034 127.198 125.866C127.175 125.813 127.142 125.766 127.1 125.726C127.058 125.687 127.009 125.656 126.955 125.636C126.901 125.616 126.843 125.607 126.785 125.609C126.728 125.612 126.671 125.626 126.619 125.651C126.568 125.676 126.521 125.711 126.483 125.754C126.445 125.797 126.416 125.848 126.398 125.902C126.38 125.957 126.373 126.015 126.378 126.072C126.383 126.129 126.399 126.185 126.426 126.236C128.535 130.616 131.931 137.819 132.068 138.495C131.961 138.81 130.341 139.426 128.668 139.763C128.612 139.772 128.559 139.791 128.511 139.821C128.464 139.85 128.422 139.889 128.389 139.934C128.356 139.98 128.333 140.031 128.32 140.086C128.307 140.14 128.305 140.197 128.314 140.252C128.323 140.308 128.342 140.361 128.372 140.408C128.401 140.456 128.44 140.498 128.486 140.531C128.531 140.563 128.583 140.587 128.637 140.6C128.692 140.613 128.749 140.615 128.804 140.606L128.803 140.605Z" fill="#0C0C0C"/>
<path d="M73.3364 133.322L88.2516 130.415C99.5185 125.713 102.715 106.119 102.715 106.119C102.715 106.119 116.62 119.333 149.852 111.342C149.852 111.342 142.633 65.0484 93.563 79.1037C77.741 83.6345 66.5333 99.7282 68.2002 121.044C69.3682 135.978 73.3364 133.322 73.3364 133.322Z" fill="#0A0A0A"/>
<path d="M91.9367 148.684C86.8809 149.7 81.6937 145.125 80.6743 140.079C79.6549 135.032 83.1945 131.428 88.2504 130.412L91.5377 133.27L96.2826 147.81L91.9367 148.684Z" fill="#FAA896"/>
<path d="M130.782 117.663C132.047 116.77 133.526 116.228 135.069 116.091C135.845 116.017 136.627 116.06 137.389 116.219C138.158 116.376 138.904 116.628 139.61 116.969L139.632 116.98C139.711 117.014 139.799 117.017 139.879 116.987C139.959 116.957 140.025 116.897 140.061 116.82C140.097 116.743 140.102 116.654 140.074 116.574C140.046 116.493 139.987 116.426 139.911 116.388C139.163 115.994 138.368 115.696 137.545 115.499C136.717 115.298 135.863 115.223 135.012 115.275C133.288 115.37 131.621 115.925 130.185 116.881C130.131 116.917 130.085 116.963 130.05 117.017C130.014 117.071 129.99 117.132 129.978 117.195C129.965 117.258 129.966 117.324 129.979 117.387C129.992 117.45 130.018 117.51 130.054 117.563C130.09 117.617 130.137 117.662 130.191 117.698C130.245 117.733 130.306 117.757 130.369 117.769C130.433 117.781 130.498 117.781 130.562 117.767C130.625 117.754 130.685 117.728 130.738 117.692L130.75 117.684L130.782 117.663Z" fill="#0C0C0C"/>
<path d="M117.157 119.542C115.463 119.206 113.71 119.329 112.081 119.9C111.275 120.177 110.516 120.573 109.828 121.075C109.143 121.57 108.524 122.149 107.984 122.799C107.929 122.864 107.902 122.947 107.908 123.032C107.913 123.116 107.951 123.195 108.014 123.252C108.076 123.308 108.159 123.339 108.243 123.337C108.328 123.334 108.408 123.3 108.468 123.239L108.485 123.221C109.006 122.636 109.598 122.118 110.249 121.68C110.892 121.242 111.598 120.904 112.343 120.676C113.821 120.213 115.396 120.149 116.907 120.49L116.944 120.5C117.071 120.53 117.205 120.51 117.316 120.442C117.428 120.374 117.507 120.265 117.538 120.138C117.569 120.012 117.548 119.878 117.48 119.767C117.412 119.656 117.303 119.576 117.176 119.545L117.157 119.542Z" fill="#0C0C0C"/>
<path d="M88.2619 130.169C98.288 126.445 101.615 119.536 102.64 114.394C103.303 110.965 103.241 107.436 102.458 104.032L102.147 104.118C102.919 107.477 102.979 110.96 102.322 114.344C101.311 119.401 98.0312 126.199 88.1493 129.87L88.2619 130.169Z" fill="#0C0C0C"/>
<path d="M167.418 186.248L262.618 218.003L234.668 230.4L282.137 133.222L320.933 151.264L276.89 250.035C274.662 255.03 270.708 259.058 265.75 261.384C260.792 263.71 255.161 264.177 249.885 262.702L248.939 262.434L152.298 235.358L167.418 186.248Z" fill="#EFA30E"/>
<path d="M107.573 201.024C85.6324 199.992 84.7089 181.409 84.7089 181.409C84.7089 181.409 73.8378 182.11 66.6113 183.086C54.78 184.683 46.9749 188.687 40.7633 194.885C34.9854 200.651 31.4677 206.889 35.19 246.718C37.8853 275.557 35.9887 338.989 35.9887 338.989H169.689C169.689 338.989 179.025 247.346 180.132 234.367C182.244 209.585 188.212 204.114 176.12 191.348C167.352 182.09 144.715 181.409 135.603 181.41C135.454 181.41 137.452 202.43 107.573 201.024Z" fill="#EFA30E"/>
<path d="M133.251 144.08C128.94 146.268 124.021 146.959 119.272 146.046C119.108 146.015 118.938 146.032 118.782 146.094C118.627 146.156 118.493 146.26 118.395 146.396C118.297 146.531 118.239 146.692 118.229 146.858C118.219 147.025 118.257 147.191 118.338 147.337C119.754 149.826 123.112 154.08 128.873 152.346C132.593 151.226 133.999 147.407 134.52 145.045C134.556 144.881 134.544 144.711 134.486 144.554C134.428 144.397 134.327 144.26 134.194 144.159C134.06 144.058 133.901 143.996 133.734 143.982C133.567 143.969 133.399 144.002 133.251 144.08Z" fill="white"/>
<path d="M133.52 124.948C134.671 124.948 135.604 124.017 135.604 122.869C135.604 121.721 134.671 120.79 133.52 120.79C132.37 120.79 131.437 121.721 131.437 122.869C131.437 124.017 132.37 124.948 133.52 124.948Z" fill="#0C0C0C"/>
<path d="M113.503 128.444C114.654 128.444 115.586 127.514 115.586 126.366C115.586 125.218 114.654 124.287 113.503 124.287C112.353 124.287 111.42 125.218 111.42 126.366C111.42 127.514 112.353 128.444 113.503 128.444Z" fill="#0C0C0C"/>
<path d="M179.834 243.396C179.821 243.397 179.807 243.397 179.794 243.396C179.709 243.386 179.632 243.342 179.58 243.275C179.528 243.208 179.504 243.123 179.515 243.038L181.585 226.291C181.589 226.249 181.602 226.208 181.623 226.171C181.643 226.134 181.671 226.102 181.705 226.076C181.738 226.05 181.776 226.03 181.817 226.02C181.859 226.009 181.901 226.006 181.943 226.012C181.985 226.017 182.026 226.031 182.063 226.052C182.099 226.072 182.132 226.1 182.158 226.134C182.184 226.167 182.203 226.205 182.214 226.246C182.225 226.286 182.228 226.329 182.223 226.371L180.153 243.117C180.143 243.194 180.105 243.265 180.046 243.316C179.988 243.368 179.912 243.396 179.834 243.396V243.396Z" fill="#0C0C0C"/>
<path d="M518.26 114.17C518.26 114.17 510.285 105.233 511.21 88.4947C511.926 75.535 521.944 86.0158 521.944 86.0158C521.944 86.0158 522.551 76.689 529.002 78.9098C535.453 81.1305 537.265 91.4148 537.265 91.4148" fill="#0C0C0C"/>
<path d="M563.082 86.7935C563.082 86.7935 595.294 96.8627 574.505 139.005L571.554 138.62L565.562 137.839" fill="#0C0C0C"/>
<path d="M517.257 182.943C517.405 182.924 519.042 210.038 550.608 207.675C572.46 206.041 580.252 182.905 580.752 182.905C578.396 182.405 574.429 181.679 573.382 181.121C569.941 179.276 565.684 177.357 564.574 170.689C563.935 166.845 565.02 147.184 564.686 143.295L531.143 150.766C531.612 158.978 534.892 178.017 523.394 181.387C521.481 181.944 519.419 182.457 517.257 182.943Z" fill="#FAA896"/>
<path d="M530.673 173.606C531.198 171.916 531.536 170.174 531.681 168.411C532.05 164.387 531.977 160.335 531.462 156.328C538.28 155.41 544.703 152.602 550.001 148.223C550.624 150.518 554.049 160.548 553.101 162.73C551.308 166.854 542.884 173.606 530.673 173.606Z" fill="#0C0C0C"/>
<path d="M534.695 164.424C547.905 165.844 565.071 160.751 568.808 143.216L572.179 127.394C575.911 109.862 569.713 93.6863 553.168 90.1767C536.623 86.667 521.228 98.2588 517.493 115.794L516.001 122.798C515.53 125.212 515.225 127.655 515.088 130.11C514.677 136.597 514.077 146.464 517.077 153.816C519.908 160.757 526.255 163.517 534.695 164.424Z" fill="#FAA896"/>
<path d="M524.202 124.028C525.352 124.028 526.285 123.097 526.285 121.949C526.285 120.801 525.352 119.87 524.202 119.87C523.051 119.87 522.118 120.801 522.118 121.949C522.118 123.097 523.051 124.028 524.202 124.028Z" fill="#0C0C0C"/>
<path d="M543.987 126.107C545.138 126.107 546.07 125.176 546.07 124.028C546.07 122.88 545.138 121.949 543.987 121.949C542.837 121.949 541.904 122.88 541.904 124.028C541.904 125.176 542.837 126.107 543.987 126.107Z" fill="#0C0C0C"/>
<path d="M566.642 148.34C571.67 149.407 576.889 144.904 577.958 139.886C579.027 134.868 575.541 131.237 570.513 130.171L567.206 132.983L562.319 147.423L566.642 148.34Z" fill="#FAA896"/>
<path d="M563.245 139.26C563.245 139.26 566.512 114.046 559.26 111.007C554.433 108.982 540.799 113.679 529.921 109.278C525.163 107.352 520.222 107.641 519.279 109.878C518.905 110.763 518.473 96.8826 528.232 88.3541C536.001 81.5634 556.637 83.3147 565.295 87.7703C589.268 100.106 571.337 131.473 571.337 131.473L568.49 139.822L563.245 139.26Z" fill="#0C0C0C"/>
<path d="M529.621 141.064L529.588 141.059C527.967 140.719 525.286 139.967 525.539 138.759C525.751 137.756 530.777 127.508 531.35 126.343C531.4 126.243 531.487 126.166 531.593 126.13C531.698 126.094 531.814 126.101 531.915 126.15C532.015 126.2 532.092 126.287 532.128 126.392C532.164 126.498 532.157 126.613 532.108 126.714C529.878 131.252 526.509 138.25 526.365 138.932C526.464 139.253 528.083 139.883 529.761 140.234C529.866 140.258 529.958 140.321 530.019 140.41C530.079 140.499 530.103 140.609 530.085 140.715C530.067 140.821 530.009 140.917 529.923 140.982C529.836 141.046 529.728 141.076 529.621 141.064V141.064Z" fill="#0C0C0C"/>
<path d="M529.247 115.446C527.654 114.644 525.874 114.285 524.094 114.408C523.22 114.463 522.358 114.648 521.539 114.958C520.728 115.261 519.959 115.665 519.25 116.16C519.131 116.236 519.047 116.355 519.015 116.491C518.984 116.628 519.007 116.772 519.081 116.891C519.155 117.011 519.272 117.096 519.409 117.13C519.546 117.163 519.69 117.142 519.811 117.07L519.848 117.049C520.498 116.647 521.197 116.327 521.927 116.099C522.647 115.869 523.398 115.75 524.153 115.745C525.647 115.723 527.12 116.095 528.423 116.824L528.472 116.853C528.563 116.907 528.664 116.943 528.769 116.958C528.874 116.973 528.981 116.968 529.084 116.941C529.187 116.915 529.284 116.868 529.368 116.805C529.453 116.741 529.524 116.661 529.578 116.57C529.632 116.478 529.667 116.377 529.681 116.272C529.696 116.167 529.689 116.06 529.662 115.958C529.635 115.855 529.588 115.759 529.523 115.675C529.459 115.591 529.378 115.52 529.286 115.467L529.247 115.446Z" fill="#0C0C0C"/>
<path d="M541.159 118.659C542.606 118.289 544.125 118.306 545.563 118.71C546.292 118.909 546.986 119.217 547.623 119.622C548.27 120.031 548.862 120.519 549.387 121.074L549.416 121.103C549.516 121.199 549.648 121.253 549.786 121.254C549.925 121.255 550.058 121.203 550.158 121.108C550.258 121.013 550.318 120.883 550.325 120.746C550.332 120.608 550.285 120.473 550.195 120.369C549.637 119.708 548.997 119.121 548.292 118.62C547.58 118.111 546.795 117.711 545.964 117.433C544.275 116.858 542.463 116.747 540.717 117.112C540.613 117.135 540.516 117.177 540.429 117.237C540.342 117.298 540.268 117.374 540.211 117.463C540.095 117.642 540.056 117.86 540.101 118.068C540.147 118.277 540.273 118.458 540.453 118.573C540.633 118.688 540.851 118.728 541.06 118.682L541.101 118.672L541.159 118.659Z" fill="#0C0C0C"/>
<path d="M527.072 144.954C531.764 146.124 536.713 145.7 541.137 143.749C541.29 143.682 541.459 143.66 541.625 143.686C541.79 143.712 541.944 143.784 542.07 143.894C542.196 144.004 542.288 144.147 542.335 144.307C542.382 144.468 542.383 144.638 542.337 144.798C541.513 147.541 539.196 152.44 533.192 152.035C529.315 151.774 527.089 148.366 526.049 146.18C525.977 146.028 525.95 145.859 525.971 145.693C525.992 145.526 526.06 145.369 526.168 145.24C526.275 145.112 526.418 145.016 526.578 144.965C526.738 144.914 526.91 144.91 527.072 144.954V144.954Z" fill="white"/>
<path d="M545.691 91.9464C547.933 86.6945 546.852 81.2048 543.276 79.6847C539.7 78.1647 534.984 81.19 532.742 86.4419C530.5 91.6938 531.581 97.1835 535.157 98.7035C538.733 100.224 543.449 97.1983 545.691 91.9464Z" fill="#0C0C0C"/>
<path d="M551.099 201.024C573.038 199.992 573.962 181.409 573.962 181.409C573.962 181.409 584.833 182.11 592.06 183.086C603.891 184.683 611.697 188.687 617.908 194.885C623.686 200.651 627.203 206.889 623.481 246.718C620.786 275.557 622.683 338.989 622.683 338.989H488.983C488.983 338.989 479.647 247.349 478.54 234.367C476.427 209.585 470.46 204.114 482.55 191.348C491.319 182.09 513.956 181.409 523.068 181.41C523.216 181.41 521.221 202.43 551.099 201.024Z" fill="#EFA30E"/>
<path d="M478.224 197.087L443.656 270.217L375.487 219.061L348.411 254.99L438.677 322.727C439.485 323.326 440.329 323.875 441.204 324.371C443.783 325.813 446.622 326.734 449.558 327.081C452.493 327.429 455.469 327.196 458.315 326.395C461.16 325.595 463.82 324.243 466.142 322.417C468.464 320.591 470.403 318.327 471.848 315.753L472.239 315.057L524.977 221.122L478.224 197.087Z" fill="#EFA30E"/>
<path d="M627.812 339.631H18.9497C18.779 339.631 18.6153 339.564 18.4946 339.443C18.374 339.323 18.3062 339.159 18.3062 338.989C18.3062 338.819 18.374 338.655 18.4946 338.535C18.6153 338.415 18.779 338.347 18.9497 338.347H627.812C627.983 338.347 628.147 338.415 628.268 338.535C628.388 338.655 628.456 338.819 628.456 338.989C628.456 339.159 628.388 339.323 628.268 339.443C628.147 339.564 627.983 339.631 627.812 339.631Z" fill="#292A2E"/>
<path d="M490.379 243.466H174.339C171.578 243.466 169.339 245.705 169.339 248.466V349.678C169.339 352.439 171.578 354.678 174.339 354.678H490.379C493.141 354.678 495.379 352.439 495.379 349.678V248.466C495.379 245.705 493.141 243.466 490.379 243.466Z" fill="white"/>
<path d="M495.702 350C495.702 352.761 493.463 355 490.702 355H174.018C171.257 355 169.018 352.761 169.018 350V248.146C169.018 245.384 171.257 243.146 174.018 243.146H490.702C493.463 243.146 495.702 245.384 495.702 248.146V350ZM169.662 349.358C169.662 352.119 171.9 354.358 174.662 354.358H490.058C492.819 354.358 495.058 352.119 495.058 349.358V248.788C495.058 246.026 492.819 243.788 490.058 243.788H174.662C171.9 243.788 169.662 246.026 169.662 248.788V349.358Z" fill="#EFA30E"/>
<path d="M153.24 277.455L173.367 268.485C173.809 268.288 174.287 268.185 174.772 268.183C175.256 268.181 175.736 268.279 176.18 268.472C176.624 268.664 177.023 268.947 177.352 269.302C177.68 269.657 177.931 270.077 178.088 270.534C178.353 271.387 178.29 272.307 177.913 273.116C177.535 273.926 176.87 274.567 176.046 274.914L171.731 276.841L188.084 277.009C189.903 276.996 192.142 278.141 192.023 280.177C192.028 280.964 191.766 281.729 191.279 282.348C190.793 282.967 190.11 283.403 189.343 283.585C189.347 283.602 189.35 283.62 189.351 283.637C189.349 283.651 189.346 283.664 189.342 283.677L192.147 283.657C192.666 283.653 193.179 283.766 193.649 283.985C194.119 284.205 194.535 284.526 194.864 284.926C195.194 285.326 195.431 285.794 195.557 286.297C195.682 286.799 195.694 287.323 195.591 287.831C195.412 288.628 194.965 289.339 194.323 289.846C193.682 290.353 192.885 290.624 192.067 290.615L190.874 290.623C190.858 290.658 190.836 290.689 190.81 290.716C191.617 290.897 192.334 291.359 192.831 292.019C193.329 292.679 193.575 293.494 193.526 294.318C193.446 295.219 193.029 296.056 192.357 296.663C191.686 297.271 190.81 297.603 189.903 297.593L186.939 297.614C186.981 297.643 187.015 297.682 187.039 297.726C187.063 297.771 187.077 297.821 187.078 297.871C187.076 297.932 187.056 297.991 187.02 298.04C187.695 298.401 188.232 298.972 188.549 299.667C188.866 300.362 188.946 301.141 188.775 301.886C188.581 302.664 188.128 303.353 187.492 303.842C186.856 304.332 186.073 304.593 185.269 304.583L160.26 304.761C156.762 304.786 153.336 303.768 150.421 301.837C147.506 299.906 145.236 297.151 143.9 293.924V293.924C142.749 291.142 142.73 288.021 143.848 285.225C144.965 282.429 147.131 280.178 149.886 278.95L153.24 277.455Z" fill="#FAA896"/>
<g opacity="0.2">
<path opacity="0.2" d="M173.155 283.496C173.156 283.58 173.19 283.661 173.251 283.72C173.311 283.78 173.392 283.813 173.477 283.813L189.029 283.952C189.114 283.953 189.196 283.92 189.257 283.86C189.318 283.8 189.353 283.719 189.354 283.634C189.354 283.549 189.321 283.467 189.261 283.406C189.202 283.345 189.12 283.311 189.035 283.31L173.482 283.17C173.397 283.17 173.315 283.204 173.255 283.264C173.194 283.324 173.161 283.406 173.161 283.491L173.155 283.496Z" fill="#0C0C0C"/>
</g>
<g opacity="0.2">
<path opacity="0.2" d="M172.904 290.341C172.905 290.426 172.939 290.506 173 290.566C173.06 290.625 173.141 290.658 173.226 290.658L190.582 290.814C190.667 290.814 190.749 290.78 190.809 290.72C190.87 290.66 190.904 290.578 190.904 290.493C190.901 290.409 190.866 290.329 190.806 290.269C190.746 290.209 190.666 290.175 190.582 290.172L173.226 290.016C173.183 290.015 173.141 290.023 173.101 290.039C173.062 290.055 173.026 290.079 172.996 290.109C172.966 290.139 172.942 290.174 172.925 290.213C172.909 290.252 172.901 290.294 172.901 290.337L172.904 290.341Z" fill="#0C0C0C"/>
</g>
<g opacity="0.2">
<path opacity="0.2" d="M172.589 297.749C172.59 297.833 172.625 297.913 172.685 297.973C172.745 298.032 172.826 298.065 172.911 298.065L186.756 298.19C186.841 298.191 186.923 298.157 186.984 298.098C187.045 298.038 187.08 297.957 187.08 297.872C187.081 297.786 187.048 297.704 186.988 297.644C186.928 297.583 186.847 297.548 186.762 297.548L172.917 297.423C172.831 297.423 172.749 297.457 172.689 297.517C172.629 297.577 172.595 297.659 172.595 297.744L172.589 297.749Z" fill="#0C0C0C"/>
</g>
<path d="M159.001 313.215L47.4157 338.527C43.7088 338.93 39.9588 338.47 36.46 337.183C32.9612 335.897 29.8087 333.819 27.2499 331.112C24.6912 328.406 22.7957 325.144 21.7122 321.584C20.6287 318.023 20.3867 314.261 21.0052 310.591L33.7748 208.095C34.8368 201.797 38.3627 196.177 43.5769 192.473C48.791 188.768 55.2663 187.282 61.5783 188.342C67.8902 189.402 73.5218 192.92 77.234 198.123C80.9463 203.327 82.4352 209.788 81.3733 216.087L75.224 289.449L152.75 271.942L159.001 313.215Z" fill="#EFA30E"/>
<path d="M59.5359 292.332C59.4551 292.332 59.3775 292.301 59.3186 292.246C59.2596 292.19 59.2236 292.115 59.2177 292.035C59.2117 291.954 59.2364 291.875 59.2866 291.811C59.3369 291.748 59.4091 291.706 59.4889 291.694L75.038 288.381C75.0798 288.374 75.1226 288.376 75.1638 288.386C75.205 288.395 75.2438 288.414 75.2778 288.439C75.3119 288.464 75.3406 288.496 75.3622 288.532C75.3838 288.568 75.3978 288.609 75.4036 288.651C75.4161 288.735 75.3947 288.82 75.344 288.889C75.2933 288.957 75.2176 289.003 75.1333 289.015L59.5842 292.328C59.5682 292.331 59.5521 292.332 59.5359 292.332V292.332Z" fill="#0C0C0C"/>
<path d="M50.7635 338.989C50.6782 338.995 50.5942 338.966 50.5299 338.91C50.4656 338.854 50.4264 338.774 50.4208 338.689C50.4153 338.604 50.4439 338.52 50.5003 338.456C50.5567 338.392 50.6364 338.353 50.7217 338.347L158.301 313.063L152.205 272.411L75.1417 289.012C75.0918 289.018 75.0412 289.013 74.9938 288.996C74.9464 288.98 74.9034 288.953 74.8681 288.917C74.833 288.881 74.8069 288.837 74.792 288.789C74.777 288.741 74.7735 288.69 74.7819 288.64L79.1047 246.723C79.1112 246.682 79.126 246.641 79.1482 246.605C79.1705 246.569 79.1998 246.538 79.2343 246.514C79.2689 246.489 79.308 246.472 79.3494 246.463C79.3908 246.453 79.4337 246.453 79.4754 246.46C79.5595 246.474 79.6346 246.521 79.6841 246.591C79.7336 246.66 79.7534 246.746 79.7393 246.83L75.4918 288.317L152.355 271.703C152.396 271.691 152.439 271.688 152.482 271.694C152.525 271.699 152.566 271.713 152.603 271.735C152.64 271.757 152.672 271.785 152.698 271.82C152.723 271.854 152.742 271.893 152.753 271.935L159.004 313.211C159.023 313.292 159.011 313.378 158.968 313.45C158.926 313.522 158.857 313.574 158.776 313.596L50.8054 338.987C50.7915 338.988 50.7775 338.989 50.7635 338.989V338.989Z" fill="#0C0C0C"/>
<path d="M505.43 296.721L485.304 287.751C484.862 287.554 484.383 287.451 483.899 287.449C483.415 287.447 482.935 287.545 482.491 287.738C482.047 287.93 481.648 288.213 481.32 288.568C480.991 288.923 480.74 289.343 480.583 289.8C480.319 290.653 480.381 291.573 480.759 292.383C481.136 293.192 481.801 293.833 482.625 294.18L486.941 296.107L470.587 296.275C468.768 296.262 466.528 297.407 466.649 299.443C466.643 300.23 466.905 300.996 467.392 301.615C467.879 302.234 468.561 302.67 469.328 302.852C469.324 302.869 469.321 302.886 469.32 302.904C469.322 302.917 469.325 302.93 469.328 302.943L466.524 302.923C466.005 302.919 465.492 303.032 465.022 303.251C464.552 303.471 464.136 303.792 463.806 304.192C463.476 304.592 463.24 305.06 463.114 305.563C462.988 306.065 462.977 306.589 463.079 307.097C463.258 307.894 463.706 308.605 464.348 309.112C464.989 309.618 465.785 309.89 466.604 309.881L467.797 309.89C467.813 309.924 467.835 309.955 467.862 309.983C467.054 310.164 466.338 310.625 465.84 311.285C465.342 311.945 465.096 312.76 465.145 313.584C465.225 314.485 465.643 315.322 466.314 315.93C466.986 316.537 467.862 316.869 468.768 316.859L471.733 316.881C471.691 316.909 471.656 316.948 471.632 316.992C471.608 317.037 471.595 317.087 471.594 317.137C471.596 317.198 471.616 317.257 471.651 317.306C470.977 317.667 470.44 318.239 470.123 318.933C469.806 319.628 469.726 320.408 469.896 321.152C470.091 321.93 470.543 322.619 471.179 323.109C471.816 323.598 472.599 323.859 473.403 323.849L498.412 324.027C501.91 324.052 505.337 323.033 508.251 321.102C511.166 319.171 513.437 316.416 514.772 313.189V313.189C515.923 310.406 515.942 307.285 514.824 304.489C513.707 301.693 511.541 299.442 508.786 298.214L505.43 296.721Z" fill="#FAA896"/>
<g opacity="0.2">
<path opacity="0.2" d="M485.516 302.762C485.515 302.847 485.48 302.927 485.42 302.986C485.36 303.046 485.279 303.079 485.194 303.079L469.642 303.218C469.6 303.219 469.558 303.211 469.518 303.195C469.479 303.179 469.444 303.156 469.413 303.126C469.383 303.097 469.359 303.062 469.343 303.023C469.326 302.984 469.317 302.942 469.317 302.9C469.317 302.858 469.325 302.816 469.34 302.777C469.356 302.738 469.38 302.702 469.409 302.672C469.439 302.642 469.474 302.618 469.513 302.602C469.552 302.585 469.594 302.576 469.636 302.576L485.188 302.436C485.274 302.436 485.355 302.47 485.416 302.53C485.476 302.59 485.51 302.672 485.51 302.757L485.516 302.762Z" fill="#0C0C0C"/>
</g>
<g opacity="0.2">
<path opacity="0.2" d="M485.767 309.608C485.766 309.691 485.732 309.771 485.672 309.831C485.613 309.89 485.532 309.923 485.448 309.924L468.091 310.08C468.006 310.08 467.924 310.046 467.864 309.986C467.804 309.926 467.77 309.844 467.77 309.759C467.772 309.675 467.807 309.595 467.867 309.535C467.927 309.475 468.007 309.441 468.091 309.438L485.448 309.282C485.533 309.282 485.615 309.316 485.675 309.376C485.736 309.436 485.769 309.518 485.769 309.603L485.767 309.608Z" fill="#0C0C0C"/>
</g>
<g opacity="0.2">
<path opacity="0.2" d="M486.082 317.015C486.081 317.099 486.047 317.18 485.986 317.239C485.926 317.298 485.845 317.331 485.76 317.331L471.915 317.456C471.873 317.456 471.831 317.448 471.792 317.433C471.753 317.417 471.717 317.394 471.687 317.364C471.657 317.334 471.633 317.299 471.616 317.26C471.6 317.222 471.591 317.18 471.591 317.138C471.59 317.096 471.598 317.054 471.614 317.015C471.63 316.976 471.653 316.94 471.683 316.91C471.713 316.88 471.748 316.856 471.787 316.839C471.826 316.823 471.867 316.814 471.91 316.814L485.755 316.689C485.84 316.689 485.922 316.723 485.982 316.783C486.043 316.843 486.076 316.925 486.076 317.01L486.082 317.015Z" fill="#0C0C0C"/>
</g>
<path d="M506.105 332.481L611.255 338.527C614.962 338.93 618.712 338.47 622.211 337.183C625.709 335.897 628.862 333.819 631.421 331.112C633.979 328.406 635.875 325.144 636.958 321.584C638.042 318.023 638.284 314.261 637.665 310.591L624.898 208.092C624.373 204.973 623.236 201.988 621.554 199.308C619.873 196.627 617.678 194.304 615.096 192.469C612.515 190.635 609.596 189.326 606.507 188.617C603.419 187.909 600.22 187.814 597.095 188.339C593.97 188.864 590.978 189.997 588.292 191.676C585.606 193.354 583.277 195.544 581.439 198.12C579.601 200.697 578.289 203.609 577.579 206.691C576.869 209.773 576.774 212.965 577.3 216.084L583.449 293.942L506.567 291.205L506.105 332.481Z" fill="#EFA30E"/>
<path d="M599.135 293.617C599.215 293.616 599.293 293.585 599.352 293.53C599.411 293.475 599.447 293.4 599.453 293.319C599.459 293.239 599.435 293.159 599.385 293.096C599.334 293.033 599.262 292.991 599.182 292.978L583.633 292.876C583.591 292.869 583.549 292.871 583.507 292.881C583.466 292.891 583.427 292.909 583.393 292.934C583.359 292.959 583.33 292.991 583.309 293.027C583.287 293.064 583.273 293.104 583.267 293.146C583.255 293.23 583.276 293.316 583.327 293.384C583.378 293.453 583.454 293.498 583.538 293.511L599.087 293.613C599.103 293.615 599.119 293.617 599.135 293.617Z" fill="#0C0C0C"/>
<path d="M607.908 338.989C607.994 338.995 608.078 338.966 608.142 338.91C608.206 338.853 608.245 338.774 608.251 338.689C608.256 338.604 608.228 338.52 608.171 338.456C608.115 338.392 608.035 338.352 607.95 338.347L506.805 332.331L507.108 291.68L583.528 293.51C583.578 293.516 583.628 293.511 583.676 293.495C583.723 293.478 583.766 293.451 583.801 293.415C583.836 293.379 583.862 293.335 583.877 293.287C583.892 293.239 583.896 293.188 583.887 293.138L579.565 246.726C579.559 246.684 579.544 246.644 579.522 246.608C579.499 246.572 579.47 246.541 579.436 246.516C579.401 246.492 579.362 246.474 579.321 246.465C579.279 246.456 579.236 246.455 579.195 246.463C579.153 246.47 579.113 246.485 579.077 246.507C579.041 246.529 579.01 246.559 578.986 246.593C578.961 246.627 578.943 246.666 578.934 246.707C578.924 246.748 578.923 246.791 578.93 246.833L583.181 292.815L506.961 290.971C506.92 290.96 506.877 290.957 506.834 290.963C506.792 290.968 506.751 290.982 506.713 291.004C506.677 291.025 506.644 291.054 506.619 291.088C506.593 291.123 506.574 291.162 506.564 291.203L506.104 332.48C506.084 332.561 506.097 332.647 506.139 332.718C506.182 332.79 506.251 332.843 506.331 332.865L607.864 338.983C607.879 338.986 607.893 338.988 607.908 338.989V338.989Z" fill="#0C0C0C"/>
<path d="M293.787 287.413C293.787 288.984 293.513 290.362 292.966 291.55C292.427 292.737 291.654 293.652 290.646 294.292C289.638 294.933 288.474 295.253 287.154 295.253C285.162 295.253 283.552 294.542 282.326 293.12C281.099 291.691 280.486 289.765 280.486 287.343V285.585C280.486 284.03 280.759 282.655 281.306 281.46C281.861 280.257 282.642 279.335 283.65 278.694C284.658 278.046 285.818 277.722 287.13 277.722C288.443 277.722 289.599 278.038 290.599 278.671C291.607 279.304 292.384 280.198 292.931 281.355C293.478 282.511 293.763 283.851 293.787 285.374V287.413ZM292.345 285.562C292.345 283.507 291.88 281.898 290.951 280.734C290.021 279.569 288.747 278.987 287.13 278.987C285.544 278.987 284.279 279.573 283.333 280.745C282.396 281.909 281.927 283.538 281.927 285.632V287.413C281.927 289.437 282.396 291.042 283.333 292.23C284.271 293.409 285.544 293.999 287.154 293.999C288.787 293.999 290.06 293.417 290.974 292.253C291.888 291.081 292.345 289.452 292.345 287.366V285.562ZM302.951 283.534C302.654 283.48 302.337 283.452 302.001 283.452C301.126 283.452 300.384 283.698 299.775 284.191C299.173 284.675 298.744 285.382 298.486 286.312V295.019H297.091V282.339H298.462L298.486 284.355C299.228 282.855 300.419 282.105 302.06 282.105C302.451 282.105 302.759 282.155 302.986 282.257L302.951 283.534ZM312.712 295.019C312.572 294.62 312.482 294.03 312.443 293.249C311.951 293.89 311.322 294.386 310.556 294.737C309.798 295.081 308.994 295.253 308.142 295.253C306.923 295.253 305.935 294.913 305.177 294.234C304.427 293.554 304.052 292.694 304.052 291.655C304.052 290.421 304.564 289.444 305.587 288.726C306.619 288.007 308.052 287.648 309.888 287.648H312.431V286.206C312.431 285.3 312.15 284.589 311.587 284.073C311.033 283.55 310.22 283.288 309.15 283.288C308.173 283.288 307.365 283.538 306.724 284.038C306.083 284.538 305.763 285.14 305.763 285.843L304.357 285.831C304.357 284.823 304.826 283.952 305.763 283.218C306.701 282.476 307.853 282.105 309.22 282.105C310.634 282.105 311.747 282.46 312.56 283.171C313.38 283.874 313.802 284.859 313.826 286.124V292.124C313.826 293.351 313.955 294.269 314.212 294.878V295.019H312.712ZM308.306 294.011C309.244 294.011 310.08 293.784 310.814 293.331C311.556 292.878 312.095 292.273 312.431 291.515V288.726H309.923C308.525 288.741 307.431 288.999 306.642 289.499C305.853 289.991 305.458 290.671 305.458 291.538C305.458 292.249 305.72 292.839 306.244 293.308C306.775 293.777 307.462 294.011 308.306 294.011ZM318.912 282.339L318.958 284.507C319.435 283.726 320.029 283.132 320.74 282.726C321.451 282.312 322.236 282.105 323.095 282.105C324.455 282.105 325.466 282.487 326.13 283.253C326.794 284.019 327.13 285.167 327.138 286.698V295.019H325.744V286.687C325.736 285.554 325.494 284.71 325.017 284.155C324.548 283.601 323.794 283.323 322.755 283.323C321.888 283.323 321.119 283.597 320.447 284.144C319.783 284.683 319.29 285.413 318.97 286.335V295.019H317.576V282.339H318.912ZM330.208 288.562C330.208 286.577 330.646 285.007 331.521 283.851C332.404 282.687 333.599 282.105 335.107 282.105C336.833 282.105 338.146 282.792 339.044 284.167L339.115 282.339H340.427V294.761C340.427 296.394 339.97 297.687 339.056 298.64C338.142 299.593 336.904 300.069 335.341 300.069C334.458 300.069 333.615 299.87 332.81 299.472C332.013 299.081 331.384 298.558 330.923 297.902L331.708 297.058C332.701 298.277 333.88 298.886 335.247 298.886C336.419 298.886 337.333 298.538 337.99 297.843C338.646 297.155 338.986 296.198 339.009 294.972V293.378C338.111 294.628 336.802 295.253 335.083 295.253C333.615 295.253 332.435 294.667 331.544 293.495C330.654 292.323 330.208 290.741 330.208 288.749V288.562ZM331.626 288.808C331.626 290.425 331.951 291.702 332.599 292.64C333.247 293.569 334.162 294.034 335.341 294.034C337.068 294.034 338.29 293.261 339.009 291.714V285.819C338.681 285.007 338.208 284.39 337.591 283.968C336.974 283.538 336.232 283.323 335.365 283.323C334.185 283.323 333.267 283.788 332.611 284.718C331.955 285.64 331.626 287.003 331.626 288.808ZM348.994 295.253C347.915 295.253 346.939 294.987 346.064 294.456C345.197 293.925 344.521 293.187 344.037 292.241C343.552 291.288 343.31 290.222 343.31 289.042V288.538C343.31 287.319 343.544 286.222 344.013 285.245C344.49 284.269 345.15 283.503 345.994 282.948C346.837 282.386 347.751 282.105 348.736 282.105C350.275 282.105 351.494 282.632 352.392 283.687C353.298 284.734 353.751 286.167 353.751 287.987V288.773H344.705V289.042C344.705 290.48 345.115 291.679 345.935 292.64C346.763 293.593 347.802 294.069 349.052 294.069C349.802 294.069 350.462 293.933 351.033 293.659C351.611 293.386 352.134 292.948 352.603 292.347L353.482 293.015C352.451 294.507 350.955 295.253 348.994 295.253ZM348.736 283.3C347.681 283.3 346.79 283.687 346.064 284.46C345.345 285.234 344.908 286.273 344.751 287.577H352.357V287.425C352.318 286.206 351.97 285.214 351.314 284.448C350.658 283.683 349.798 283.3 348.736 283.3ZM290.388 314.237H282.642L280.884 319.019H279.372L285.83 301.956H287.201L293.658 319.019H292.158L290.388 314.237ZM283.087 313.007H289.931L286.509 303.714L283.087 313.007ZM306.044 312.808C306.044 314.784 305.607 316.355 304.732 317.519C303.857 318.675 302.685 319.253 301.216 319.253C299.482 319.253 298.154 318.644 297.232 317.425V323.894H295.837V306.339H297.138L297.208 308.132C298.122 306.78 299.447 306.105 301.181 306.105C302.697 306.105 303.884 306.679 304.744 307.827C305.611 308.976 306.044 310.569 306.044 312.609V312.808ZM304.638 312.562C304.638 310.944 304.306 309.667 303.642 308.73C302.978 307.792 302.052 307.323 300.865 307.323C300.005 307.323 299.267 307.53 298.65 307.944C298.033 308.359 297.56 308.96 297.232 309.749V315.831C297.568 316.558 298.048 317.112 298.673 317.495C299.298 317.878 300.037 318.069 300.888 318.069C302.068 318.069 302.986 317.601 303.642 316.663C304.306 315.718 304.638 314.351 304.638 312.562ZM317.165 319.019C317.025 318.62 316.935 318.03 316.896 317.249C316.404 317.89 315.775 318.386 315.009 318.737C314.251 319.081 313.447 319.253 312.595 319.253C311.376 319.253 310.388 318.913 309.63 318.234C308.88 317.554 308.505 316.694 308.505 315.655C308.505 314.421 309.017 313.444 310.04 312.726C311.072 312.007 312.505 311.648 314.341 311.648H316.884V310.206C316.884 309.3 316.603 308.589 316.04 308.073C315.486 307.55 314.673 307.288 313.603 307.288C312.626 307.288 311.818 307.538 311.177 308.038C310.537 308.538 310.216 309.14 310.216 309.843L308.81 309.831C308.81 308.823 309.279 307.952 310.216 307.218C311.154 306.476 312.306 306.105 313.673 306.105C315.087 306.105 316.201 306.46 317.013 307.171C317.833 307.874 318.255 308.859 318.279 310.124V316.124C318.279 317.351 318.408 318.269 318.665 318.878V319.019H317.165ZM312.759 318.011C313.697 318.011 314.533 317.784 315.267 317.331C316.009 316.878 316.548 316.273 316.884 315.515V312.726H314.376C312.978 312.741 311.884 312.999 311.095 313.499C310.306 313.991 309.912 314.671 309.912 315.538C309.912 316.249 310.173 316.839 310.697 317.308C311.228 317.777 311.915 318.011 312.759 318.011ZM327.888 307.534C327.591 307.48 327.275 307.452 326.939 307.452C326.064 307.452 325.322 307.698 324.712 308.191C324.111 308.675 323.681 309.382 323.423 310.312V319.019H322.029V306.339H323.4L323.423 308.355C324.165 306.855 325.357 306.105 326.997 306.105C327.388 306.105 327.697 306.155 327.923 306.257L327.888 307.534ZM332.88 303.093V306.339H335.505V307.487H332.88V315.937C332.88 316.64 333.005 317.163 333.255 317.507C333.513 317.851 333.939 318.023 334.533 318.023C334.767 318.023 335.146 317.984 335.669 317.905L335.728 319.054C335.361 319.187 334.861 319.253 334.228 319.253C333.267 319.253 332.568 318.976 332.13 318.421C331.693 317.859 331.474 317.034 331.474 315.948V307.487H329.142V306.339H331.474V303.093H332.88ZM339.689 306.339L339.736 308.402C340.205 307.636 340.79 307.062 341.494 306.679C342.197 306.296 342.978 306.105 343.837 306.105C345.837 306.105 347.107 306.925 347.646 308.566C348.099 307.777 348.705 307.171 349.462 306.749C350.22 306.319 351.056 306.105 351.97 306.105C354.689 306.105 356.076 307.589 356.13 310.558V319.019H354.724V310.663C354.716 309.53 354.47 308.691 353.986 308.144C353.509 307.597 352.728 307.323 351.642 307.323C350.634 307.339 349.783 307.667 349.087 308.308C348.392 308.941 348.005 309.714 347.927 310.628V319.019H346.521V310.558C346.513 309.472 346.255 308.663 345.747 308.132C345.247 307.593 344.474 307.323 343.427 307.323C342.544 307.323 341.787 307.577 341.154 308.085C340.521 308.585 340.052 309.331 339.747 310.323V319.019H338.341V306.339H339.689ZM364.603 319.253C363.525 319.253 362.548 318.987 361.673 318.456C360.806 317.925 360.13 317.187 359.646 316.241C359.162 315.288 358.919 314.222 358.919 313.042V312.538C358.919 311.319 359.154 310.222 359.622 309.245C360.099 308.269 360.759 307.503 361.603 306.948C362.447 306.386 363.361 306.105 364.345 306.105C365.884 306.105 367.103 306.632 368.001 307.687C368.908 308.734 369.361 310.167 369.361 311.987V312.773H360.314V313.042C360.314 314.48 360.724 315.679 361.544 316.64C362.372 317.593 363.412 318.069 364.662 318.069C365.412 318.069 366.072 317.933 366.642 317.659C367.22 317.386 367.744 316.948 368.212 316.347L369.091 317.015C368.06 318.507 366.564 319.253 364.603 319.253ZM364.345 307.3C363.29 307.3 362.4 307.687 361.673 308.46C360.955 309.234 360.517 310.273 360.361 311.577H367.966V311.425C367.927 310.206 367.58 309.214 366.923 308.448C366.267 307.683 365.408 307.3 364.345 307.3ZM373.427 306.339L373.474 308.507C373.951 307.726 374.544 307.132 375.255 306.726C375.966 306.312 376.751 306.105 377.611 306.105C378.97 306.105 379.982 306.487 380.646 307.253C381.31 308.019 381.646 309.167 381.654 310.698V319.019H380.259V310.687C380.251 309.554 380.009 308.71 379.533 308.155C379.064 307.601 378.31 307.323 377.271 307.323C376.404 307.323 375.634 307.597 374.962 308.144C374.298 308.683 373.806 309.413 373.486 310.335V319.019H372.091V306.339H373.427ZM387.466 303.093V306.339H390.091V307.487H387.466V315.937C387.466 316.64 387.591 317.163 387.841 317.507C388.099 317.851 388.525 318.023 389.119 318.023C389.353 318.023 389.732 317.984 390.255 317.905L390.314 319.054C389.947 319.187 389.447 319.253 388.814 319.253C387.853 319.253 387.154 318.976 386.716 318.421C386.279 317.859 386.06 317.034 386.06 315.948V307.487H383.728V306.339H386.06V303.093H387.466ZM400.591 315.796C400.591 315.101 400.31 314.542 399.747 314.12C399.193 313.698 398.353 313.37 397.228 313.136C396.103 312.894 395.228 312.62 394.603 312.316C393.986 312.003 393.525 311.624 393.22 311.179C392.923 310.734 392.775 310.194 392.775 309.562C392.775 308.562 393.193 307.737 394.029 307.089C394.865 306.433 395.935 306.105 397.24 306.105C398.654 306.105 399.787 306.456 400.638 307.159C401.497 307.855 401.927 308.765 401.927 309.89H400.521C400.521 309.148 400.208 308.53 399.583 308.038C398.966 307.546 398.185 307.3 397.24 307.3C396.318 307.3 395.576 307.507 395.013 307.921C394.458 308.327 394.181 308.859 394.181 309.515C394.181 310.148 394.412 310.64 394.872 310.991C395.341 311.335 396.189 311.652 397.415 311.941C398.65 312.23 399.572 312.538 400.181 312.866C400.798 313.194 401.255 313.589 401.552 314.05C401.849 314.511 401.997 315.069 401.997 315.726C401.997 316.796 401.564 317.652 400.697 318.292C399.837 318.933 398.712 319.253 397.322 319.253C395.845 319.253 394.646 318.898 393.724 318.187C392.81 317.468 392.353 316.562 392.353 315.468H393.759C393.814 316.288 394.158 316.929 394.79 317.39C395.431 317.843 396.275 318.069 397.322 318.069C398.298 318.069 399.087 317.855 399.689 317.425C400.29 316.995 400.591 316.452 400.591 315.796ZM421.462 319.019H410.775V317.941L416.622 311.308C417.591 310.191 418.263 309.269 418.638 308.542C419.013 307.816 419.201 307.109 419.201 306.421C419.201 305.343 418.884 304.491 418.251 303.866C417.619 303.234 416.747 302.917 415.638 302.917C414.49 302.917 413.56 303.284 412.849 304.019C412.146 304.753 411.794 305.706 411.794 306.878H410.4C410.4 305.917 410.615 305.042 411.044 304.253C411.482 303.464 412.099 302.847 412.896 302.402C413.701 301.948 414.615 301.722 415.638 301.722C417.201 301.722 418.419 302.132 419.294 302.952C420.177 303.773 420.619 304.89 420.619 306.304C420.619 307.101 420.369 307.972 419.869 308.917C419.376 309.862 418.505 311.042 417.255 312.456L412.497 317.835H421.462V319.019ZM432.701 313.523H435.361V314.706H432.701V319.019H431.294V314.706H423.267V313.909L431.165 301.956H432.701V313.523ZM424.99 313.523H431.294V303.773L430.673 304.851L424.99 313.523Z" fill="black"/>
<path fill-rule="evenodd" clip-rule="evenodd" d="M235.38 309.454L235.351 309.392L235.305 309.346L235.265 309.316L235.215 309.287L235.161 309.279L235.1 309.271L235.042 309.287L234.972 309.308L234.898 309.346L234.821 309.392L234.738 309.454L234.656 309.529L234.512 309.691L234.376 309.845L234.256 309.996L234.15 310.15L234.059 310.295L233.977 310.441L233.908 310.587L233.849 310.729L233.764 311.007L233.719 311.288L233.713 311.571L233.734 311.854L233.772 312.029L233.825 312.167L233.9 312.267L233.985 312.329L234.083 312.358L234.195 312.35L234.315 312.304L234.445 312.221L234.709 311.932L234.927 311.649L235.108 311.366L235.252 311.075L235.356 310.775L235.425 310.462L235.462 310.133V309.775L235.433 309.591L235.38 309.454Z" fill="#E68E38"/>
<path fill-rule="evenodd" clip-rule="evenodd" d="M242.539 311.129L242.464 310.8L242.366 310.5L242.222 310.212L242.057 309.945L241.844 309.683L241.588 309.433L241.444 309.325L241.309 309.263L241.242 309.246H241.181L241.128 309.255L241.074 309.271L241.029 309.3L240.984 309.338L240.947 309.392L240.917 309.462L240.893 309.538L240.872 309.629L240.856 309.729L240.848 309.845L240.856 310.066L240.872 310.271L240.893 310.463L240.933 310.646L240.971 310.816L241.016 310.975L241.069 311.129L241.128 311.274L241.263 311.525L241.436 311.754L241.625 311.962L241.844 312.146L241.988 312.237L242.123 312.297L242.246 312.313L242.35 312.297L242.44 312.245L242.517 312.154L242.571 312.038L242.6 311.884L242.584 311.487L242.539 311.129Z" fill="#E68E38"/>
<path fill-rule="evenodd" clip-rule="evenodd" d="M240.991 295.026L241.023 295.089L241.06 295.134L241.106 295.172L241.151 295.196L241.201 295.21H241.263L241.332 295.202L241.398 295.18L241.468 295.151L241.55 295.097L241.625 295.043L241.715 294.967L241.867 294.805L242.003 294.652L242.123 294.501L242.237 294.355L242.336 294.209L242.418 294.064L242.485 293.918L242.546 293.772L242.636 293.497L242.682 293.214L242.698 292.931L242.682 292.651L242.652 292.481L242.599 292.343L242.525 292.238L242.439 292.176L242.336 292.146L242.221 292.152L242.101 292.192L241.973 292.276L241.702 292.559L241.476 292.839L241.295 293.117L241.143 293.406L241.036 293.697L240.962 294.01L240.925 294.347L240.917 294.706L240.938 294.889L240.991 295.026Z" fill="#E68E38"/>
<path fill-rule="evenodd" clip-rule="evenodd" d="M235.494 294.134L235.47 293.942L235.441 293.759L235.404 293.589L235.364 293.422L235.311 293.276L235.252 293.131L235.116 292.872L234.957 292.634L234.768 292.427L234.557 292.243L234.405 292.146L234.278 292.092L234.15 292.068L234.043 292.084L233.953 292.138L233.886 292.23L233.825 292.343L233.796 292.497L233.809 292.893L233.849 293.255L233.916 293.581L234.014 293.888L234.15 294.172L234.315 294.447L234.52 294.706L234.768 294.959L234.911 295.064L235.047 295.126L235.116 295.151H235.177H235.228L235.281 295.126L235.327 295.105L235.372 295.059L235.409 295.013L235.441 294.943L235.462 294.867L235.486 294.776L235.5 294.676L235.508 294.56L235.5 294.339L235.494 294.134Z" fill="#E68E38"/>
<path fill-rule="evenodd" clip-rule="evenodd" d="M248.085 306.114L248.002 305.984L247.714 305.718L247.434 305.488L247.163 305.305L246.875 305.159L246.582 305.052L246.273 304.984L245.948 304.946H245.591L245.41 304.976L245.274 305.022L245.215 305.06L245.17 305.097L245.138 305.143L245.109 305.189L245.093 305.243V305.305L245.101 305.364L245.125 305.434L245.162 305.51L245.207 305.588L245.268 305.672L245.343 305.755L245.503 305.909L245.652 306.038L245.804 306.16L245.953 306.268L246.097 306.367L246.241 306.451L246.385 306.518L246.529 306.58L246.8 306.664L247.08 306.71L247.36 306.726L247.64 306.704L247.805 306.664L247.941 306.61L248.039 306.535L248.106 306.451L248.138 306.351L248.13 306.238L248.085 306.114Z" fill="#E68E38"/>
<path fill-rule="evenodd" clip-rule="evenodd" d="M231.144 305.114L231.112 305.068L231.067 305.022L231.022 304.984L230.955 304.952L230.88 304.93L230.79 304.906L230.691 304.892L230.577 304.884L230.358 304.892L230.153 304.906L229.967 304.922L229.785 304.952L229.618 304.992L229.46 305.038L229.308 305.092L229.165 305.143L228.909 305.281L228.682 305.451L228.477 305.64L228.296 305.856L228.197 306.009L228.144 306.147L228.123 306.268L228.139 306.376L228.189 306.468L228.28 306.544L228.395 306.597L228.546 306.627L228.938 306.611L229.292 306.573L229.618 306.498L229.921 306.398L230.198 306.268L230.465 306.093L230.728 305.885L230.976 305.634L231.083 305.489L231.144 305.351L231.165 305.222L231.16 305.168L231.144 305.114Z" fill="#E68E38"/>
<path fill-rule="evenodd" clip-rule="evenodd" d="M261.113 301.657L261.091 301.062L261.065 300.474L261.011 299.886L260.953 299.304L260.87 298.724L260.78 298.15L260.665 297.578L260.532 297.02L260.404 296.462L260.265 295.904L260.106 295.365L259.932 294.826L259.743 294.287L259.549 293.748L259.336 293.227L259.109 292.707L258.875 292.195L258.614 291.701L258.347 291.205L258.081 290.715L257.801 290.235L257.508 289.76L257.207 289.294L256.89 288.822L256.567 288.38L256.234 287.935L255.885 287.501L255.531 287.073L255.169 286.665L254.79 286.261L254.404 285.857L254.01 285.469L253.605 285.091L253.205 284.724L252.782 284.366L252.353 284.013L251.913 283.678L251.473 283.35L251.02 283.029L250.56 282.721L250.091 282.425L249.608 282.142L249.124 281.872L248.633 281.603L248.135 281.352L247.629 281.115L247.123 280.885L246.59 280.673L246.057 280.473L245.524 280.282L244.991 280.106L244.458 279.945L243.926 279.794L243.379 279.656L242.823 279.535L242.255 279.419L241.688 279.327L241.123 279.244L240.55 279.192L239.977 279.139L239.388 279.101L238.8 279.077H238.211H237.622L237.03 279.101L236.45 279.139L235.869 279.192L235.296 279.252L234.721 279.335L234.156 279.427L233.591 279.543L233.026 279.656L232.475 279.788L231.923 279.939L231.39 280.101L230.857 280.276L230.324 280.468L229.792 280.667L229.277 280.88L228.763 281.109L228.257 281.346L227.761 281.605L227.271 281.875L226.786 282.144L226.312 282.428L225.843 282.724L225.39 283.029L224.929 283.35L224.492 283.678L224.053 284.013L223.624 284.366L223.2 284.724L222.793 285.091L222.393 285.474L221.999 285.857L221.615 286.261L221.237 286.665L220.874 287.078L220.52 287.507L220.171 287.941L219.841 288.385L219.516 288.822L219.199 289.294L218.895 289.76L218.602 290.235L218.322 290.709L218.056 291.2L217.789 291.696L217.541 292.192L217.307 292.704L217.08 293.225L216.87 293.745L216.673 294.284L216.484 294.823L216.31 295.362L216.151 295.902L216.001 296.46L215.871 297.018L215.751 297.576L215.639 298.147L215.548 298.722L215.463 299.301L215.407 299.875L215.354 300.463L215.317 301.051L215.293 301.647V302.245L215.309 303L215.338 303.757L215.399 304.507L215.482 305.24L215.588 305.973L215.716 306.699L215.86 307.424L216.039 308.138L216.228 308.842L216.438 309.529L216.673 310.209L216.939 310.883L217.206 311.546L217.499 312.196L217.808 312.84L218.141 313.465L218.239 313.649L218.346 313.824L218.754 314.466L219.183 315.102L219.627 315.727L220.096 316.347L220.568 316.957L221.066 317.569L221.572 318.172L222.105 318.768L222.638 319.364L223.171 319.954L224.287 321.114L225.436 322.267L226.608 323.416L228.979 325.691L230.159 326.834L231.345 327.972L232.507 329.118L233.647 330.272L234.758 331.442L235.291 332.029L235.824 332.625L235.975 332.803L236.127 332.97L236.279 333.124L236.436 333.269L236.588 333.399L236.737 333.512L236.889 333.62L237.041 333.712L237.193 333.795L237.342 333.865L237.494 333.925L237.651 333.97L237.955 334.032L238.256 334.049L238.56 334.016L238.861 333.949L239.162 333.833L239.466 333.674L239.775 333.474L240.076 333.237L240.379 332.954L240.68 332.633L241.24 331.975L241.821 331.328L242.41 330.684L243.014 330.042L244.245 328.783L245.5 327.538L246.776 326.314L248.045 325.106L249.313 323.907L250.552 322.731L251.156 322.149L251.753 321.569L252.342 320.987L252.907 320.415L253.466 319.841L253.999 319.275L254.532 318.704L255.038 318.145L255.515 317.579L255.973 317.021L256.405 316.463L256.805 315.905L257.183 315.366L257.529 314.827L257.846 314.288L258.134 313.748L258.211 313.611L258.286 313.473L258.619 312.845L258.933 312.158L259.221 311.508L259.488 310.853L259.754 310.179L259.988 309.5L260.199 308.812L260.388 308.117L260.561 307.413L260.705 306.693L260.833 305.976L260.94 305.243L261.022 304.51L261.083 303.76L261.113 303.011L261.129 302.256L261.113 301.657ZM220.709 299.573V299.358L220.741 299.129L220.786 298.883L220.861 298.465L220.952 298.045L221.05 297.624L221.162 297.204L221.285 296.783L221.434 296.371L221.583 295.95L221.743 295.522L221.916 295.101L222.097 294.675L222.294 294.254L222.497 293.826L222.944 292.977L223.435 292.122L223.555 291.914L223.677 291.731L223.813 291.572L223.957 291.435L224.098 291.319L224.25 291.227L224.41 291.16L224.564 291.106L224.724 291.081H224.897L225.063 291.106L225.236 291.16L225.412 291.235L225.585 291.343L225.758 291.472L225.931 291.626L232.77 298.425L232.935 298.624L233.063 298.824L233.162 299.029L233.215 299.245L233.245 299.458V299.665L233.207 299.87L233.141 300.069L233.042 300.253L232.914 300.428L232.762 300.59L232.581 300.727L232.376 300.849L232.15 300.948L231.91 301.024L231.643 301.07L222.318 301.14L222.068 301.107L221.833 301.062L221.631 301.002L221.45 300.916L221.29 300.824L221.146 300.719L221.026 300.595L220.928 300.458L220.834 300.315L220.776 300.145L220.73 299.97L220.709 299.778V299.573ZM226.163 312.724L225.96 312.878L225.763 313.007L225.574 313.115L225.393 313.19L225.212 313.236L225.039 313.258H224.865L224.7 313.228L224.54 313.182L224.381 313.107L224.231 313.007L224.079 312.891L223.928 312.748L223.786 312.587L223.651 312.403L223.499 312.196L223.267 311.845L223.032 311.487L222.814 311.112L222.601 310.737L222.398 310.346L222.201 309.95L222.012 309.546L221.839 309.133L221.666 308.704L221.498 308.276L221.189 307.383L220.922 306.464L220.672 305.51L220.613 305.281L220.568 305.06V304.852V304.655V304.458L220.613 304.283L220.675 304.121L220.757 303.976L220.856 303.846L220.978 303.731L221.114 303.625L221.271 303.542L221.452 303.472L221.65 303.426L221.86 303.396L222.095 303.38L231.686 303.342L231.952 303.364L232.187 303.41L232.4 303.496L232.589 303.601L232.754 303.739L232.89 303.892L233.002 304.059L233.093 304.251L233.154 304.458L233.186 304.663V304.892L233.157 305.116L233.095 305.351L233.005 305.58L232.877 305.809L232.72 306.033L226.163 312.724ZM237.001 318.493L236.948 318.73L236.889 318.938L236.812 319.121L236.721 319.289L236.617 319.426L236.495 319.547L236.359 319.647L236.21 319.731L236.042 319.793L235.869 319.83L235.68 319.855H235.483H235.264L235.038 319.817L234.803 319.771L234.387 319.693L233.972 319.601L233.559 319.496L233.143 319.38L232.728 319.259L232.291 319.105L231.875 318.96L231.451 318.792L231.036 318.617L230.62 318.431L229.794 318.019L228.947 317.569L228.11 317.072L227.905 316.951L227.724 316.819L227.567 316.682L227.428 316.544L227.317 316.393L227.229 316.239L227.159 316.086L227.114 315.927L227.093 315.757V315.59L227.122 315.415L227.175 315.245L227.25 315.069L227.349 314.894L227.479 314.719L227.636 314.544L234.374 307.642L234.569 307.475L234.766 307.343L234.976 307.251L235.181 307.192L235.392 307.168H235.605L235.8 307.206L235.997 307.284L236.178 307.381L236.351 307.505L236.511 307.664L236.647 307.842L236.767 308.047L236.865 308.276L236.932 308.529L236.977 308.799L237.022 318.234L237.001 318.493ZM237.025 295.95L236.972 296.187L236.889 296.4L236.783 296.592L236.647 296.759L236.495 296.896L236.33 297.012L236.141 297.104L235.935 297.166L235.725 297.196H235.488L235.277 297.179L235.043 297.117L234.816 297.026L234.59 296.896L234.372 296.735L227.777 290.057L227.626 289.86L227.495 289.661L227.396 289.469L227.322 289.278L227.279 289.092L227.255 288.917V288.749L227.279 288.58L227.333 288.412L227.407 288.251L227.498 288.1L227.618 287.946L227.753 287.8L227.913 287.655L228.095 287.517L228.297 287.38L228.646 287.143L229 286.908L229.36 286.687L229.73 286.474L230.114 286.266L230.508 286.078L230.916 285.886L231.324 285.703L231.758 285.528L232.179 285.366L233.063 285.061L233.977 284.778L234.92 284.533L235.149 284.471L235.368 284.433L235.57 284.417H235.768L235.957 284.441L236.122 284.487L236.282 284.549L236.431 284.633L236.562 284.733L236.673 284.854L236.772 284.991L236.855 285.153L236.924 285.336L236.974 285.533L237.006 285.749V285.986L237.028 295.691L237.025 295.95ZM239.484 286.215L239.524 285.962L239.575 285.733L239.636 285.52L239.719 285.336L239.817 285.175L239.924 285.037L240.044 284.916L240.18 284.824L240.331 284.741L240.497 284.687L240.67 284.649L240.859 284.625H241.083L241.293 284.649L241.52 284.679L241.754 284.733L242.17 284.816L242.585 284.916L242.993 285.021L243.409 285.145L243.824 285.274L244.24 285.42L244.656 285.579L245.071 285.749L245.484 285.932L245.878 286.126L246.294 286.331L246.718 286.547L247.549 287.011L248.386 287.523L248.591 287.647L248.772 287.776L248.924 287.922L249.06 288.059L249.171 288.21L249.262 288.364L249.331 288.526L249.377 288.693L249.39 288.855V289.022L249.358 289.197L249.305 289.364L249.222 289.542L249.118 289.717L248.988 289.884L248.83 290.06L241.989 296.853L241.791 297.023L241.586 297.144L241.376 297.236L241.165 297.298L240.952 297.314H240.742L240.545 297.268L240.35 297.198L240.169 297.091L239.993 296.961L239.844 296.802L239.708 296.619L239.585 296.411L239.495 296.182L239.428 295.931L239.391 295.662L239.484 286.215ZM249.195 315.552L249.171 315.727L249.121 315.889L249.052 316.048L248.953 316.202L248.841 316.353L248.697 316.506L248.537 316.652L248.356 316.789L248.154 316.927L247.805 317.172L247.45 317.399L247.088 317.62L246.718 317.841L246.334 318.054L245.94 318.253L245.54 318.453L245.132 318.636L244.717 318.811L244.293 318.987L243.417 319.299L242.511 319.59L241.568 319.86L241.341 319.919L241.123 319.965L240.918 319.981H240.715L240.534 319.965L240.358 319.919L240.201 319.86L240.057 319.782L239.921 319.682L239.807 319.561L239.703 319.415L239.62 319.262L239.551 319.078L239.498 318.881L239.468 318.666L239.452 318.429L239.324 308.723L239.34 308.454L239.394 308.216L239.468 308.004L239.575 307.812L239.703 307.645L239.852 307.499L240.028 307.383L240.217 307.292L240.411 307.232L240.625 307.2H240.843L241.069 307.232L241.296 307.286L241.53 307.378L241.757 307.499L241.983 307.658L248.644 314.239L248.809 314.433L248.94 314.633L249.044 314.821L249.121 315.013L249.171 315.196L249.195 315.371V315.552ZM255.555 304.998L255.539 305.219L255.51 305.448L255.456 305.685L255.382 306.106L255.291 306.523L255.185 306.944L255.07 307.365L254.937 307.772L254.793 308.192L254.644 308.613L254.484 309.033L254.303 309.454L254.138 309.883L253.933 310.3L253.73 310.729L253.277 311.578L252.779 312.425L252.656 312.632L252.528 312.816L252.393 312.977L252.257 313.115L252.105 313.228L251.956 313.32L251.796 313.39L251.639 313.436H251.471H251.306L251.14 313.406L250.965 313.352L250.791 313.277L250.626 313.169L250.453 313.039L250.277 312.878L243.481 306.038L243.315 305.839L243.193 305.631L243.097 305.426L243.044 305.213L243.02 304.998V304.793L243.065 304.585L243.134 304.394L243.23 304.202L243.361 304.035L243.51 303.873L243.691 303.736L243.896 303.615L244.123 303.523L244.37 303.456L244.637 303.41H253.962L254.212 303.439L254.447 303.493L254.649 303.553L254.83 303.639L254.99 303.731L255.134 303.836L255.254 303.96L255.353 304.097L255.427 304.248L255.488 304.418L255.526 304.593L255.55 304.785L255.555 304.998ZM255.736 299.824L255.712 300.016L255.675 300.183L255.608 300.344L255.531 300.498L255.427 300.628L255.305 300.741L255.169 300.841L255.012 300.924L254.83 300.994L254.633 301.048L254.423 301.078H254.188L244.597 301.094L244.331 301.07L244.096 301.016L243.886 300.932L243.696 300.824L243.539 300.695L243.395 300.541L243.281 300.366L243.198 300.175L243.137 299.97L243.1 299.754V299.533L243.132 299.304L243.19 299.075L243.281 298.846L243.409 298.608L243.569 298.387L250.163 291.731L250.365 291.58L250.562 291.448L250.751 291.351L250.941 291.273L251.122 291.227L251.295 291.205H251.473L251.641 291.235L251.798 291.281L251.958 291.356L252.107 291.456L252.259 291.572L252.403 291.718L252.547 291.877L252.683 292.06L252.819 292.268L253.053 292.618L253.288 292.985L253.506 293.351L253.717 293.734L253.922 294.122L254.111 294.521L254.298 294.926L254.481 295.338L254.655 295.767L254.812 296.195L254.972 296.638L255.115 297.088L255.382 298.013L255.622 298.97L255.683 299.199L255.72 299.42L255.736 299.625V299.824Z" fill="#E68E38"/>
<path fill-rule="evenodd" clip-rule="evenodd" d="M228.161 298.388L228.243 298.52L228.531 298.787L228.811 299.008L229.091 299.192L229.378 299.337L229.671 299.437L229.98 299.505L230.313 299.537H230.668L230.841 299.505L230.985 299.459L231.038 299.421L231.083 299.383L231.121 299.337L231.145 299.291L231.161 299.237V299.175L231.153 299.116L231.129 299.046L231.091 298.97L231.046 298.895L230.985 298.808L230.91 298.725L230.75 298.579L230.601 298.442L230.441 298.32L230.297 298.212L230.148 298.12L230.004 298.037L229.861 297.969L229.717 297.907L229.437 297.824L229.165 297.778L228.885 297.77L228.606 297.791L228.432 297.832L228.297 297.883L228.198 297.961L228.139 298.053L228.107 298.153L228.115 298.266L228.161 298.388Z" fill="#E68E38"/>
<path fill-rule="evenodd" clip-rule="evenodd" d="M248.105 297.983L248.014 297.907L247.903 297.853L247.751 297.824L247.359 297.837L247.005 297.875L246.68 297.945L246.376 298.045L246.096 298.183L245.824 298.35L245.569 298.566L245.318 298.817L245.214 298.962L245.153 299.1L245.132 299.17V299.229V299.283L245.153 299.337L245.177 299.383L245.222 299.429L245.268 299.467L245.334 299.499L245.409 299.521L245.502 299.542L245.598 299.559L245.713 299.567L245.931 299.559L246.136 299.55L246.323 299.529L246.506 299.499L246.672 299.459L246.837 299.413L246.981 299.367L247.125 299.308L247.38 299.17L247.615 299L247.82 298.809L248.001 298.587L248.1 298.442L248.15 298.304L248.174 298.183L248.158 298.075L248.105 297.983Z" fill="#E68E38"/>
<path fill-rule="evenodd" clip-rule="evenodd" d="M223.176 262.548L223.909 262.623L224.62 262.731L225.313 262.853L225.987 262.998L226.642 263.173L227.279 263.365L227.889 263.586L228.486 263.831L229.067 264.093L229.626 264.381L230.162 264.694L230.684 265.031L231.182 265.389L231.664 265.772L232.125 266.177L232.565 266.605L232.986 267.056L233.394 267.53L233.772 268.026L234.142 268.546L234.489 269.096L234.814 269.662L235.117 270.25L235.41 270.862L235.677 271.504L235.925 272.162L236.159 272.849L236.37 273.553L236.559 274.278L236.732 275.035L236.884 275.806L237.02 276.61L236.234 276.518L235.472 276.394L234.731 276.257L234.014 276.098L233.311 275.922L232.64 275.715L231.989 275.486L231.363 275.24L230.759 274.965L230.178 274.677L229.618 274.356L229.083 274.019L228.569 273.66L228.078 273.278L227.609 272.873L227.164 272.445L226.741 271.994L226.341 271.52L225.963 271.029L225.609 270.512L225.276 269.967L224.974 269.409L224.687 268.821L224.431 268.217L224.189 267.592L223.978 266.934L223.781 266.263L223.616 265.567L223.472 264.839L223.349 264.098L223.253 263.335L223.176 262.548Z" fill="#6C9E28"/>
<path fill-rule="evenodd" clip-rule="evenodd" d="M249.027 266.834L248.982 267.346L248.915 267.851L248.833 268.341L248.734 268.813L248.62 269.274L248.492 269.724L248.348 270.158L248.191 270.579L248.01 270.983L247.812 271.382L247.607 271.765L247.381 272.132L247.141 272.482L246.875 272.827L246.603 273.148L246.318 273.469L246.006 273.765L245.681 274.048L245.343 274.323L244.988 274.585L244.618 274.836L244.232 275.065L243.832 275.286L243.408 275.493L242.979 275.693L242.526 275.876L242.058 276.035L241.573 276.197L241.074 276.335L240.563 276.464L240.025 276.577L239.481 276.677L239.543 276.127L239.609 275.585L239.7 275.065L239.806 274.553L239.929 274.065L240.062 273.59L240.214 273.132L240.374 272.69L240.555 272.261L240.757 271.849L240.971 271.45L241.197 271.075L241.437 270.708L241.695 270.358L241.975 270.029L242.26 269.716L242.564 269.409L242.889 269.128L243.227 268.859L243.576 268.608L243.947 268.371L244.33 268.15L244.73 267.95L245.145 267.759L245.577 267.584L246.022 267.43L246.483 267.293L246.96 267.171L247.45 267.063L247.964 266.972L248.484 266.896L249.027 266.834Z" fill="#6C9E28"/>
<path fill-rule="evenodd" clip-rule="evenodd" d="M249.027 266.834L248.982 267.346L248.915 267.851L248.833 268.341L248.734 268.813L248.62 269.274L248.492 269.724L248.348 270.158L248.191 270.579L248.01 270.983L247.812 271.382L247.607 271.765L247.381 272.132L247.141 272.482L246.875 272.827L246.603 273.148L246.318 273.469L246.006 273.765L245.681 274.048L245.343 274.323L244.988 274.585L244.618 274.836L244.232 275.065L243.832 275.286L243.408 275.493L242.979 275.693L242.526 275.876L242.058 276.035L241.573 276.197L241.074 276.335L240.563 276.464L240.025 276.577L239.481 276.677L239.543 276.127L239.609 275.585L239.7 275.065L239.806 274.553L239.929 274.065L240.062 273.59L240.214 273.132L240.374 272.69L240.555 272.261L240.757 271.849L240.971 271.45L241.197 271.075L241.437 270.708L241.695 270.358L241.975 270.029L242.26 269.716L242.564 269.409L242.889 269.128L243.227 268.859L243.576 268.608L243.947 268.371L244.33 268.15L244.73 267.95L245.145 267.759L245.577 267.584L246.022 267.43L246.483 267.293L246.96 267.171L247.45 267.063L247.964 266.972L248.484 266.896L249.027 266.834Z" stroke="white" stroke-width="0.03" stroke-miterlimit="10"/>
</g>
<defs>
<clipPath id="clip0_0_552">
<rect width="638" height="355" fill="white"/>
</clipPath>
</defs>
</svg>
