<svg width="20" height="22" viewBox="0 0 20 22" fill="none" xmlns="http://www.w3.org/2000/svg">
<path d="M7.75 16.4058L7 19.495L6 20.5247H14L13 19.495L12.25 16.4058H7.75ZM1 12.287H19H1ZM3 16.4058H17C17.5304 16.4058 18.0391 16.1889 18.4142 15.8027C18.7893 15.4164 19 14.8926 19 14.3464V4.0494C19 3.50321 18.7893 2.97939 18.4142 2.59318C18.0391 2.20696 17.5304 1.98999 17 1.98999H3C2.46957 1.98999 1.96086 2.20696 1.58579 2.59318C1.21071 2.97939 1 3.50321 1 4.0494V14.3464C1 14.8926 1.21071 15.4164 1.58579 15.8027C1.96086 16.1889 2.46957 16.4058 3 16.4058Z" stroke="black" stroke-width="2" stroke-linecap="round" stroke-linejoin="round"/>
</svg>
