<svg width="20" height="22" viewBox="0 0 20 22" fill="none" xmlns="http://www.w3.org/2000/svg">
<path d="M1 2.5297C1 2.25661 1.10536 1.9947 1.29289 1.80159C1.48043 1.60849 1.73478 1.5 2 1.5H18C18.2652 1.5 18.5196 1.60849 18.7071 1.80159C18.8946 1.9947 19 2.25661 19 2.5297V5.19252C18.9999 5.46559 18.8946 5.72746 18.707 5.92052L12.293 12.525C12.1055 12.7181 12.0001 12.98 12 13.253V15.9159L8 20.0347V13.253C7.99994 12.98 7.89455 12.7181 7.707 12.525L1.293 5.92052C1.10545 5.72746 1.00006 5.46559 1 5.19252V2.5297Z" stroke="black" stroke-width="2" stroke-linecap="round" stroke-linejoin="round"/>
</svg>
