<svg width="20" height="22" viewBox="0 0 20 22" fill="none" xmlns="http://www.w3.org/2000/svg">
<path d="M3 11.2573V18.4653C3 19.0114 3.21071 19.5353 3.58579 19.9215C3.96086 20.3077 4.46957 20.5247 5 20.5247H15C15.5304 20.5247 16.0391 20.3077 16.4142 19.9215C16.7893 19.5353 17 19.0114 17 18.4653V11.2573M10 7.13851V20.5247V7.13851ZM10 7.13851V5.0791C10 4.67179 10.1173 4.27362 10.3371 3.93496C10.5568 3.59629 10.8692 3.33233 11.2346 3.17646C11.6001 3.02059 12.0022 2.9798 12.3902 3.05927C12.7781 3.13873 13.1345 3.33487 13.4142 3.62288C13.6939 3.91089 13.8844 4.27785 13.9616 4.67733C14.0387 5.07682 13.9991 5.4909 13.8478 5.8672C13.6964 6.24351 13.44 6.56515 13.1111 6.79144C12.7822 7.01773 12.3956 7.13851 12 7.13851H10ZM10 7.13851V4.56425C10 4.05511 9.85338 3.5574 9.57867 3.13407C9.30397 2.71073 8.91352 2.38078 8.45671 2.18595C7.99989 1.99111 7.49723 1.94013 7.01227 2.03946C6.52732 2.13878 6.08186 2.38396 5.73223 2.74397C5.3826 3.10399 5.1445 3.56268 5.04804 4.06204C4.95157 4.56139 5.00108 5.07899 5.1903 5.54938C5.37952 6.01976 5.69995 6.42181 6.11107 6.70467C6.5222 6.98753 7.00555 7.13851 7.5 7.13851H10ZM3 11.2573H17H3ZM3 11.2573C2.46957 11.2573 1.96086 11.0404 1.58579 10.6541C1.21071 10.2679 1 9.74411 1 9.19792C1 8.65173 1.21071 8.12791 1.58579 7.7417C1.96086 7.35548 2.46957 7.13851 3 7.13851H17C17.5304 7.13851 18.0391 7.35548 18.4142 7.7417C18.7893 8.12791 19 8.65173 19 9.19792C19 9.74411 18.7893 10.2679 18.4142 10.6541C18.0391 11.0404 17.5304 11.2573 17 11.2573H3Z" stroke="black" stroke-width="2" stroke-linecap="round" stroke-linejoin="round"/>
</svg>
