<svg width="20" height="22" viewBox="0 0 20 22" fill="none" xmlns="http://www.w3.org/2000/svg">
<path d="M7.663 16.4058H12.336H7.663ZM10 1.98999V3.01969V1.98999ZM16.364 4.70429L15.657 5.43229L16.364 4.70429ZM19 11.2573H18H19ZM2 11.2573H1H2ZM4.343 5.43229L3.636 4.70429L4.343 5.43229ZM6.464 14.8984C5.76487 14.1783 5.2888 13.2609 5.09598 12.2622C4.90316 11.2635 5.00225 10.2284 5.38073 9.28772C5.75921 8.34703 6.40007 7.54302 7.22229 6.97735C8.0445 6.41169 9.01115 6.10977 10 6.10977C10.9889 6.10977 11.9555 6.41169 12.7777 6.97735C13.5999 7.54302 14.2408 8.34703 14.6193 9.28772C14.9977 10.2284 15.0968 11.2635 14.904 12.2622C14.7112 13.2609 14.2351 14.1783 13.536 14.8984L12.988 15.4616C12.6747 15.7843 12.4262 16.1673 12.2567 16.5889C12.0872 17.0104 11.9999 17.4622 12 17.9185V18.4653C12 19.0114 11.7893 19.5353 11.4142 19.9215C11.0391 20.3077 10.5304 20.5247 10 20.5247C9.46957 20.5247 8.96086 20.3077 8.58579 19.9215C8.21071 19.5353 8 19.0114 8 18.4653V17.9185C8 16.9969 7.644 16.1124 7.012 15.4616L6.464 14.8984Z" stroke="black" stroke-width="2" stroke-linecap="round" stroke-linejoin="round"/>
</svg>
