<svg width="20" height="19" viewBox="0 0 20 19" fill="none" xmlns="http://www.w3.org/2000/svg">
<path d="M2.31804 3.34719C1.90017 3.77747 1.5687 4.28829 1.34255 4.85048C1.1164 5.41267 1 6.01523 1 6.62374C1 7.23225 1.1164 7.83481 1.34255 8.397C1.5687 8.95919 1.90017 9.47001 2.31804 9.90029L10 17.8105L17.682 9.90029C18.526 9.03129 19.0001 7.85268 19.0001 6.62374C19.0001 5.3948 18.526 4.21619 17.682 3.34719C16.8381 2.4782 15.6935 1.99 14.5 1.99C13.3066 1.99 12.162 2.4782 11.318 3.34719L10 4.70436L8.68204 3.34719C8.26417 2.91691 7.76809 2.57559 7.22213 2.34272C6.67616 2.10985 6.09099 1.98999 5.50004 1.98999C4.90909 1.98999 4.32392 2.10985 3.77795 2.34272C3.23198 2.57559 2.7359 2.91691 2.31804 3.34719V3.34719Z" stroke="black" stroke-width="2" stroke-linecap="round" stroke-linejoin="round"/>
</svg>
