<svg width="20" height="22" viewBox="0 0 20 22" fill="none" xmlns="http://www.w3.org/2000/svg">
<path d="M10 7.02852C8.343 7.02852 7 7.95011 7 9.08793C7 10.2258 8.343 11.1473 10 11.1473C11.657 11.1473 13 12.0689 13 13.2067C13 14.3446 11.657 15.2662 10 15.2662V7.02852ZM10 7.02852C11.11 7.02852 12.08 7.44246 12.599 8.05823L10 7.02852ZM10 7.02852V5.99882V7.02852ZM10 7.02852V15.2662V7.02852ZM10 15.2662V16.2959V15.2662ZM10 15.2662C8.89 15.2662 7.92 14.8522 7.401 14.2364L10 15.2662ZM19 11.1473C19 12.3643 18.7672 13.5694 18.3149 14.6938C17.8626 15.8182 17.1997 16.8398 16.364 17.7003C15.5282 18.5609 14.5361 19.2435 13.4442 19.7092C12.3522 20.175 11.1819 20.4147 10 20.4147C8.8181 20.4147 7.64778 20.175 6.55585 19.7092C5.46392 19.2435 4.47177 18.5609 3.63604 17.7003C2.80031 16.8398 2.13738 15.8182 1.68508 14.6938C1.23279 13.5694 1 12.3643 1 11.1473C1 8.68949 1.94821 6.33231 3.63604 4.59434C5.32387 2.85638 7.61305 1.88 10 1.88C12.3869 1.88 14.6761 2.85638 16.364 4.59434C18.0518 6.33231 19 8.68949 19 11.1473Z" stroke="#0C0C0C" stroke-width="2" stroke-linecap="round" stroke-linejoin="round"/>
</svg>
