<svg width="20" height="19" viewBox="0 0 20 19" fill="none" xmlns="http://www.w3.org/2000/svg">
<path d="M9.04897 0.927078C9.34897 0.00607812 10.652 0.00607812 10.951 0.927078L12.47 5.60108C12.5353 5.80157 12.6624 5.97626 12.833 6.10018C13.0037 6.22411 13.2091 6.29092 13.42 6.29108H18.335C19.304 6.29108 19.706 7.53108 18.923 8.10108L14.947 10.9891C14.7762 11.1132 14.6491 11.2883 14.5839 11.4891C14.5187 11.6899 14.5187 11.9063 14.584 12.1071L16.102 16.7811C16.402 17.7031 15.347 18.4691 14.564 17.8991L10.588 15.0111C10.4171 14.8869 10.2112 14.8199 9.99997 14.8199C9.7887 14.8199 9.58286 14.8869 9.41197 15.0111L5.43597 17.8991C4.65297 18.4691 3.59797 17.7021 3.89797 16.7811L5.41597 12.1071C5.48125 11.9063 5.48129 11.6899 5.41608 11.4891C5.35087 11.2883 5.22377 11.1132 5.05297 10.9891L1.07697 8.10108C0.292973 7.53108 0.696973 6.29108 1.66497 6.29108H6.57897C6.79002 6.29113 6.99568 6.22442 7.1665 6.10048C7.33732 5.97654 7.46455 5.80173 7.52997 5.60108L9.04897 0.927078Z" fill="#EFA30E"/>
</svg>
