<svg width="16" height="22" viewBox="0 0 16 22" fill="none" xmlns="http://www.w3.org/2000/svg">
<path d="M5 16.2959V14.2364V16.2959ZM8 16.2959V12.177V16.2959ZM11 16.2959V10.1176V16.2959ZM13 20.4147H3C2.46957 20.4147 1.96086 20.1977 1.58579 19.8115C1.21071 19.4253 1 18.9015 1 18.3553V3.93941C1 3.39322 1.21071 2.86941 1.58579 2.48319C1.96086 2.09698 2.46957 1.88 3 1.88H8.586C8.8512 1.88006 9.10551 1.98859 9.293 2.18171L14.707 7.75652C14.8946 7.94959 14.9999 8.21145 15 8.48452V18.3553C15 18.9015 14.7893 19.4253 14.4142 19.8115C14.0391 20.1977 13.5304 20.4147 13 20.4147Z" stroke="black" stroke-width="2" stroke-linecap="round" stroke-linejoin="round"/>
</svg>
