<svg width="20" height="22" viewBox="0 0 20 22" fill="none" xmlns="http://www.w3.org/2000/svg">
<path d="M10 3.27534C10.5374 2.64794 11.2477 2.20393 12.0362 2.0024C12.8247 1.80087 13.6542 1.85137 14.4142 2.14718C15.1741 2.443 15.8286 2.9701 16.2905 3.65835C16.7524 4.34661 16.9998 5.16337 16.9998 5.99997C16.9998 6.83657 16.7524 7.65334 16.2905 8.34159C15.8286 9.02985 15.1741 9.55695 14.4142 9.85276C13.6542 10.1486 12.8247 10.1991 12.0362 9.99755C11.2477 9.79602 10.5374 9.35201 10 8.72461V3.27534ZM13 20.416H1V19.3863C1 17.7477 1.63214 16.1762 2.75736 15.0176C3.88258 13.8589 5.4087 13.208 7 13.208C8.5913 13.208 10.1174 13.8589 11.2426 15.0176C12.3679 16.1762 13 17.7477 13 19.3863V20.416ZM13 20.416H19V19.3863C19.0001 18.3017 18.723 17.2362 18.1965 16.2968C17.6699 15.3575 16.9125 14.5774 16.0004 14.0351C15.0882 13.4927 14.0535 13.2072 13.0002 13.2071C11.9469 13.2071 10.9122 13.4926 10 14.0349L13 20.416ZM11 5.99997C11 7.09237 10.5786 8.14002 9.82843 8.91245C9.07828 9.68489 8.06087 10.1188 7 10.1188C5.93913 10.1188 4.92172 9.68489 4.17157 8.91245C3.42143 8.14002 3 7.09237 3 5.99997C3 4.90758 3.42143 3.85993 4.17157 3.08749C4.92172 2.31506 5.93913 1.8811 7 1.8811C8.06087 1.8811 9.07828 2.31506 9.82843 3.08749C10.5786 3.85993 11 4.90758 11 5.99997V5.99997Z" stroke="black" stroke-width="2" stroke-linecap="round" stroke-linejoin="round"/>
</svg>
