<svg width="86" height="55" viewBox="0 0 86 55" fill="none" xmlns="http://www.w3.org/2000/svg">
<path d="M18.92 54.96C33.64 54.96 37.24 42.56 37.24 27.52C37.24 12.32 33.64 0.159997 18.92 0.159997C4.2 0.159997 0.44 12.32 0.44 27.52C0.44 42.56 4.2 54.96 18.92 54.96ZM18.92 52.56C6.12 52.56 2.84 41.2 2.84 27.52C2.84 13.68 6.12 2.56 18.92 2.56C31.72 2.56 34.84 13.68 34.84 27.52C34.84 41.2 31.72 52.56 18.92 52.56ZM70.3344 29.92C81.5344 29.92 85.6144 22.64 85.6144 15.28C85.6144 8 81.5344 0.879997 70.7344 0.879997H53.1344V27.52H47.6944V29.92H53.1344V37.12H47.6944V39.52H53.1344V54H55.5344V39.52H77.9344V37.12H55.5344V29.92H70.3344ZM70.7344 3.28C79.7744 3.28 83.2144 9.04 83.2144 15.28C83.2144 21.52 79.7744 27.52 70.3344 27.52H55.5344V3.28H70.7344Z" fill="#EFA30E"/>
</svg>
